G75*
%MOIN*%
%OFA0B0*%
%FSLAX25Y25*%
%IPPOS*%
%LPD*%
%AMOC8*
5,1,8,0,0,1.08239X$1,22.5*
%
%ADD10C,0.03162*%
%ADD11C,0.12217*%
%ADD12C,0.12611*%
%ADD13OC8,0.06000*%
%ADD14C,0.12650*%
%ADD15C,0.08200*%
%ADD16R,0.04762X0.04762*%
%ADD17R,0.06706X0.06706*%
D10*
X0016800Y0027484D03*
X0196800Y0027484D03*
D11*
X0197745Y0056224D03*
X0181209Y0056224D03*
X0164674Y0056224D03*
X0148139Y0056224D03*
X0131603Y0056224D03*
X0115068Y0056224D03*
X0098532Y0056224D03*
X0081997Y0056224D03*
X0065461Y0056224D03*
X0048926Y0056224D03*
X0032391Y0056224D03*
X0015855Y0056224D03*
X0015855Y0077878D03*
X0032391Y0077878D03*
X0048926Y0077878D03*
X0065461Y0077878D03*
X0081997Y0077878D03*
X0098532Y0077878D03*
X0115068Y0077878D03*
X0131603Y0077878D03*
X0148139Y0077878D03*
X0164674Y0077878D03*
X0181209Y0077878D03*
X0197745Y0077878D03*
D12*
X0015855Y0027484D03*
X0197745Y0027484D03*
D13*
X0101800Y0107484D03*
X0091800Y0107484D03*
D14*
X0270875Y0078284D02*
X0282725Y0078284D01*
X0282725Y0062484D02*
X0270875Y0062484D01*
X0270875Y0046684D02*
X0282725Y0046684D01*
D15*
X0261800Y0142484D03*
X0251800Y0142484D03*
X0251800Y0152484D03*
X0261800Y0152484D03*
X0261800Y0162484D03*
X0251800Y0162484D03*
X0251800Y0172484D03*
X0261800Y0172484D03*
X0261800Y0182484D03*
X0251800Y0182484D03*
X0251800Y0192484D03*
X0261800Y0192484D03*
X0261800Y0202484D03*
X0251800Y0202484D03*
X0251800Y0212484D03*
X0261800Y0212484D03*
X0261800Y0222484D03*
X0251800Y0222484D03*
X0251800Y0232484D03*
X0261800Y0232484D03*
X0196800Y0232484D03*
X0196800Y0222484D03*
X0196800Y0212484D03*
X0196800Y0202484D03*
X0196800Y0192484D03*
X0196800Y0182484D03*
X0196800Y0172484D03*
X0196800Y0162484D03*
X0196800Y0152484D03*
X0196800Y0142484D03*
X0136800Y0142484D03*
X0136800Y0152484D03*
X0136800Y0162484D03*
X0136800Y0172484D03*
X0136800Y0182484D03*
X0136800Y0192484D03*
X0136800Y0202484D03*
X0136800Y0212484D03*
X0136800Y0222484D03*
X0136800Y0232484D03*
X0076800Y0232484D03*
X0076800Y0222484D03*
X0076800Y0212484D03*
X0076800Y0202484D03*
X0076800Y0192484D03*
X0076800Y0182484D03*
X0076800Y0172484D03*
X0076800Y0162484D03*
X0076800Y0152484D03*
X0076800Y0142484D03*
X0061800Y0107484D03*
X0031800Y0107484D03*
X0016800Y0142484D03*
X0016800Y0152484D03*
X0016800Y0162484D03*
X0016800Y0172484D03*
X0016800Y0182484D03*
X0016800Y0192484D03*
X0016800Y0202484D03*
X0016800Y0212484D03*
X0016800Y0222484D03*
X0016800Y0232484D03*
D16*
X0196800Y0232484D03*
D17*
X0186800Y0242484D03*
X0126800Y0242484D03*
X0066800Y0242484D03*
X0006800Y0242484D03*
X0006800Y0127484D03*
X0006800Y0092484D03*
X0066800Y0092484D03*
X0066800Y0127484D03*
X0126800Y0127484D03*
X0126800Y0092484D03*
X0186800Y0092484D03*
X0246800Y0092484D03*
X0246800Y0122484D03*
X0301800Y0092484D03*
X0306800Y0122484D03*
X0301800Y0032484D03*
X0246800Y0032484D03*
X0126800Y0032484D03*
X0066800Y0032484D03*
X0006800Y0037484D03*
X0246800Y0242484D03*
X0306800Y0242484D03*
M02*
