G75*
%MOIN*%
%OFA0B0*%
%FSLAX25Y25*%
%IPPOS*%
%LPD*%
%AMOC8*
5,1,8,0,0,1.08239X$1,22.5*
%
%ADD10C,0.00800*%
%ADD11C,0.00600*%
%ADD12C,0.11417*%
%ADD13OC8,0.05200*%
%ADD14C,0.11850*%
%ADD15C,0.07400*%
%ADD16C,0.01600*%
%ADD17R,0.03962X0.03962*%
D10*
X0137200Y0107884D02*
X0143339Y0107884D01*
X0146408Y0107884D02*
X0152546Y0107884D01*
X0155616Y0107884D02*
X0160220Y0107884D01*
X0161754Y0109419D01*
X0161754Y0115557D01*
X0160220Y0117092D01*
X0155616Y0117092D01*
X0155616Y0107884D01*
X0149477Y0112488D02*
X0146408Y0112488D01*
X0146408Y0117092D02*
X0146408Y0107884D01*
X0137200Y0107884D02*
X0137200Y0117092D01*
X0146408Y0117092D02*
X0152546Y0117092D01*
X0164824Y0106350D02*
X0170962Y0106350D01*
X0174031Y0107884D02*
X0174031Y0117092D01*
X0178635Y0117092D01*
X0180170Y0115557D01*
X0180170Y0112488D01*
X0178635Y0110954D01*
X0174031Y0110954D01*
X0183239Y0107884D02*
X0186309Y0110954D01*
X0189378Y0107884D01*
X0189378Y0117092D01*
X0192447Y0117092D02*
X0197051Y0117092D01*
X0198586Y0115557D01*
X0198586Y0112488D01*
X0197051Y0110954D01*
X0192447Y0110954D01*
X0195516Y0110954D02*
X0198586Y0107884D01*
X0192447Y0107884D02*
X0192447Y0117092D01*
X0183239Y0117092D02*
X0183239Y0107884D01*
X0247200Y0105557D02*
X0247200Y0104023D01*
X0248735Y0102488D01*
X0251804Y0102488D01*
X0253339Y0100954D01*
X0253339Y0099419D01*
X0251804Y0097884D01*
X0248735Y0097884D01*
X0247200Y0099419D01*
X0247200Y0105557D02*
X0248735Y0107092D01*
X0251804Y0107092D01*
X0253339Y0105557D01*
X0256408Y0107092D02*
X0256408Y0097884D01*
X0259477Y0100954D01*
X0262546Y0097884D01*
X0262546Y0107092D01*
X0265616Y0096350D02*
X0271754Y0096350D01*
X0274824Y0097884D02*
X0274824Y0107092D01*
X0279428Y0107092D01*
X0280962Y0105557D01*
X0280962Y0102488D01*
X0279428Y0100954D01*
X0274824Y0100954D01*
X0284031Y0097884D02*
X0287101Y0100954D01*
X0290170Y0097884D01*
X0290170Y0107092D01*
X0293239Y0107092D02*
X0297843Y0107092D01*
X0299378Y0105557D01*
X0299378Y0102488D01*
X0297843Y0100954D01*
X0293239Y0100954D01*
X0296309Y0100954D02*
X0299378Y0097884D01*
X0293239Y0097884D02*
X0293239Y0107092D01*
X0284031Y0107092D02*
X0284031Y0097884D01*
X0219865Y0187884D02*
X0221400Y0189419D01*
X0221400Y0192488D01*
X0219865Y0194023D01*
X0216796Y0194023D01*
X0215261Y0192488D01*
X0215261Y0190954D01*
X0216796Y0187884D01*
X0212192Y0187884D01*
X0212192Y0194023D01*
X0212192Y0197092D02*
X0218331Y0197092D01*
X0221400Y0200161D01*
X0218331Y0203231D01*
X0212192Y0203231D01*
X0222935Y0206300D02*
X0222935Y0212439D01*
X0221400Y0215508D02*
X0221400Y0221646D01*
X0221400Y0218577D02*
X0212192Y0218577D01*
X0215261Y0215508D01*
X0216796Y0224716D02*
X0216796Y0229320D01*
X0218331Y0230854D01*
X0219865Y0230854D01*
X0221400Y0229320D01*
X0221400Y0226250D01*
X0219865Y0224716D01*
X0216796Y0224716D01*
X0213727Y0227785D01*
X0212192Y0230854D01*
X0215261Y0233924D02*
X0212192Y0236993D01*
X0215261Y0240062D01*
X0221400Y0240062D01*
X0216796Y0240062D02*
X0216796Y0233924D01*
X0215261Y0233924D02*
X0221400Y0233924D01*
X0277192Y0230904D02*
X0277192Y0226300D01*
X0286400Y0226300D01*
X0286400Y0230904D01*
X0284865Y0232439D01*
X0278727Y0232439D01*
X0277192Y0230904D01*
X0277192Y0223231D02*
X0286400Y0223231D01*
X0277192Y0217092D01*
X0286400Y0217092D01*
X0284865Y0214023D02*
X0281796Y0214023D01*
X0281796Y0210954D01*
X0278727Y0214023D02*
X0277192Y0212488D01*
X0277192Y0209419D01*
X0278727Y0207884D01*
X0284865Y0207884D01*
X0286400Y0209419D01*
X0286400Y0212488D01*
X0284865Y0214023D01*
X0162935Y0216250D02*
X0162935Y0210112D01*
X0158331Y0207042D02*
X0161400Y0203973D01*
X0158331Y0200904D01*
X0152192Y0200904D01*
X0153727Y0197835D02*
X0155261Y0197835D01*
X0156796Y0196300D01*
X0158331Y0197835D01*
X0159865Y0197835D01*
X0161400Y0196300D01*
X0161400Y0193231D01*
X0159865Y0191696D01*
X0159865Y0188627D02*
X0161400Y0188627D01*
X0161400Y0187092D01*
X0159865Y0187092D01*
X0159865Y0188627D01*
X0159865Y0184023D02*
X0158331Y0184023D01*
X0156796Y0182488D01*
X0156796Y0180954D01*
X0156796Y0182488D02*
X0155261Y0184023D01*
X0153727Y0184023D01*
X0152192Y0182488D01*
X0152192Y0179419D01*
X0153727Y0177884D01*
X0159865Y0177884D02*
X0161400Y0179419D01*
X0161400Y0182488D01*
X0159865Y0184023D01*
X0153727Y0191696D02*
X0152192Y0193231D01*
X0152192Y0196300D01*
X0153727Y0197835D01*
X0156796Y0196300D02*
X0156796Y0194765D01*
X0158331Y0207042D02*
X0152192Y0207042D01*
X0155261Y0219320D02*
X0152192Y0222389D01*
X0161400Y0222389D01*
X0161400Y0219320D02*
X0161400Y0225458D01*
X0159865Y0228527D02*
X0156796Y0228527D01*
X0156796Y0233131D01*
X0158331Y0234666D01*
X0159865Y0234666D01*
X0161400Y0233131D01*
X0161400Y0230062D01*
X0159865Y0228527D01*
X0156796Y0228527D02*
X0153727Y0231597D01*
X0152192Y0234666D01*
X0155261Y0237735D02*
X0152192Y0240805D01*
X0155261Y0243874D01*
X0161400Y0243874D01*
X0156796Y0243874D02*
X0156796Y0237735D01*
X0155261Y0237735D02*
X0161400Y0237735D01*
X0102935Y0215854D02*
X0102935Y0209716D01*
X0098331Y0206646D02*
X0101400Y0203577D01*
X0098331Y0200508D01*
X0092192Y0200508D01*
X0093727Y0197439D02*
X0092192Y0195904D01*
X0092192Y0192835D01*
X0093727Y0191300D01*
X0093727Y0197439D02*
X0095261Y0197439D01*
X0101400Y0191300D01*
X0101400Y0197439D01*
X0101400Y0188231D02*
X0101400Y0182092D01*
X0096796Y0179023D02*
X0096796Y0172884D01*
X0093727Y0175954D02*
X0099865Y0175954D01*
X0095261Y0182092D02*
X0092192Y0185161D01*
X0101400Y0185161D01*
X0098331Y0206646D02*
X0092192Y0206646D01*
X0093727Y0218924D02*
X0092192Y0220458D01*
X0092192Y0223527D01*
X0093727Y0225062D01*
X0095261Y0225062D01*
X0096796Y0223527D01*
X0098331Y0225062D01*
X0099865Y0225062D01*
X0101400Y0223527D01*
X0101400Y0220458D01*
X0099865Y0218924D01*
X0096796Y0221993D02*
X0096796Y0223527D01*
X0093727Y0228131D02*
X0092192Y0229666D01*
X0092192Y0232735D01*
X0093727Y0234270D01*
X0095261Y0234270D01*
X0101400Y0228131D01*
X0101400Y0234270D01*
X0101400Y0237339D02*
X0095261Y0237339D01*
X0092192Y0240409D01*
X0095261Y0243478D01*
X0101400Y0243478D01*
X0096796Y0243478D02*
X0096796Y0237339D01*
X0042935Y0215854D02*
X0042935Y0209716D01*
X0038331Y0206646D02*
X0032192Y0206646D01*
X0032192Y0200508D02*
X0038331Y0200508D01*
X0041400Y0203577D01*
X0038331Y0206646D01*
X0041400Y0197439D02*
X0041400Y0191300D01*
X0035261Y0197439D01*
X0033727Y0197439D01*
X0032192Y0195904D01*
X0032192Y0192835D01*
X0033727Y0191300D01*
X0032192Y0185161D02*
X0041400Y0185161D01*
X0041400Y0182092D02*
X0041400Y0188231D01*
X0035261Y0182092D02*
X0032192Y0185161D01*
X0036796Y0179023D02*
X0036796Y0172884D01*
X0033727Y0218924D02*
X0032192Y0220458D01*
X0032192Y0223527D01*
X0033727Y0225062D01*
X0039865Y0218924D01*
X0041400Y0220458D01*
X0041400Y0223527D01*
X0039865Y0225062D01*
X0033727Y0225062D01*
X0033727Y0218924D02*
X0039865Y0218924D01*
X0039865Y0228131D02*
X0039865Y0229666D01*
X0041400Y0229666D01*
X0041400Y0228131D01*
X0039865Y0228131D01*
X0039865Y0232735D02*
X0041400Y0234270D01*
X0041400Y0237339D01*
X0039865Y0238874D01*
X0038331Y0238874D01*
X0036796Y0237339D01*
X0036796Y0235805D01*
X0036796Y0237339D02*
X0035261Y0238874D01*
X0033727Y0238874D01*
X0032192Y0237339D01*
X0032192Y0234270D01*
X0033727Y0232735D01*
X0035261Y0241943D02*
X0032192Y0245012D01*
X0035261Y0248082D01*
X0041400Y0248082D01*
X0036796Y0248082D02*
X0036796Y0241943D01*
X0035261Y0241943D02*
X0041400Y0241943D01*
D11*
X0299027Y0161079D02*
X0301162Y0161079D01*
X0302230Y0160012D01*
X0300095Y0157837D02*
X0306500Y0157837D01*
X0300095Y0153566D01*
X0306500Y0153566D01*
X0306500Y0151391D02*
X0300095Y0151391D01*
X0304365Y0149256D02*
X0306500Y0151391D01*
X0304365Y0149256D02*
X0306500Y0147121D01*
X0300095Y0147121D01*
X0302230Y0144946D02*
X0306500Y0144946D01*
X0303297Y0144946D02*
X0303297Y0140675D01*
X0302230Y0140675D02*
X0300095Y0142810D01*
X0302230Y0144946D01*
X0302230Y0140675D02*
X0306500Y0140675D01*
X0306500Y0138500D02*
X0300095Y0138500D01*
X0303297Y0138500D02*
X0303297Y0134230D01*
X0304365Y0132055D02*
X0305432Y0132055D01*
X0306500Y0130987D01*
X0306500Y0128852D01*
X0305432Y0127784D01*
X0303297Y0128852D02*
X0303297Y0130987D01*
X0304365Y0132055D01*
X0306500Y0134230D02*
X0300095Y0134230D01*
X0301162Y0132055D02*
X0300095Y0130987D01*
X0300095Y0128852D01*
X0301162Y0127784D01*
X0302230Y0127784D01*
X0303297Y0128852D01*
X0302230Y0163234D02*
X0303297Y0164302D01*
X0303297Y0166437D01*
X0304365Y0167505D01*
X0305432Y0167505D01*
X0306500Y0166437D01*
X0306500Y0164302D01*
X0305432Y0163234D01*
X0302230Y0163234D02*
X0301162Y0163234D01*
X0300095Y0164302D01*
X0300095Y0166437D01*
X0301162Y0167505D01*
X0302230Y0176125D02*
X0300095Y0178261D01*
X0302230Y0180396D01*
X0306500Y0180396D01*
X0303297Y0180396D02*
X0303297Y0176125D01*
X0302230Y0176125D02*
X0306500Y0176125D01*
X0300095Y0182571D02*
X0300095Y0186841D01*
X0300095Y0184706D02*
X0306500Y0184706D01*
X0306500Y0189016D02*
X0300095Y0193287D01*
X0300095Y0189016D02*
X0306500Y0193287D01*
X0306500Y0201907D02*
X0300095Y0201907D01*
X0300095Y0205110D01*
X0301162Y0206178D01*
X0302230Y0206178D01*
X0303297Y0205110D01*
X0303297Y0201907D01*
X0306500Y0201907D02*
X0306500Y0205110D01*
X0305432Y0206178D01*
X0304365Y0206178D01*
X0303297Y0205110D01*
X0304365Y0208353D02*
X0304365Y0211556D01*
X0303297Y0212623D01*
X0301162Y0212623D01*
X0300095Y0211556D01*
X0300095Y0208353D01*
X0306500Y0208353D01*
X0304365Y0210488D02*
X0306500Y0212623D01*
X0306500Y0214798D02*
X0306500Y0219069D01*
X0306500Y0221244D02*
X0302230Y0221244D01*
X0300095Y0223379D01*
X0302230Y0225514D01*
X0306500Y0225514D01*
X0306500Y0227689D02*
X0300095Y0227689D01*
X0303297Y0228757D02*
X0306500Y0231960D01*
X0305432Y0234135D02*
X0306500Y0235203D01*
X0306500Y0237338D01*
X0305432Y0238405D01*
X0301162Y0238405D01*
X0300095Y0237338D01*
X0300095Y0235203D01*
X0301162Y0234135D01*
X0305432Y0234135D01*
X0300095Y0231960D02*
X0304365Y0227689D01*
X0303297Y0225514D02*
X0303297Y0221244D01*
X0300095Y0219069D02*
X0300095Y0214798D01*
X0306500Y0214798D01*
X0303297Y0214798D02*
X0303297Y0216934D01*
X0305432Y0240580D02*
X0300095Y0240580D01*
X0305432Y0240580D02*
X0306500Y0241648D01*
X0306500Y0243783D01*
X0305432Y0244851D01*
X0300095Y0244851D01*
X0300095Y0247026D02*
X0300095Y0251296D01*
X0300095Y0249161D02*
X0306500Y0249161D01*
D12*
X0197745Y0077878D03*
X0181209Y0077878D03*
X0164674Y0077878D03*
X0148139Y0077878D03*
X0131603Y0077878D03*
X0115068Y0077878D03*
X0098532Y0077878D03*
X0081997Y0077878D03*
X0065461Y0077878D03*
X0048926Y0077878D03*
X0032391Y0077878D03*
X0015855Y0077878D03*
X0015855Y0056224D03*
X0032391Y0056224D03*
X0048926Y0056224D03*
X0065461Y0056224D03*
X0081997Y0056224D03*
X0098532Y0056224D03*
X0115068Y0056224D03*
X0131603Y0056224D03*
X0148139Y0056224D03*
X0164674Y0056224D03*
X0181209Y0056224D03*
X0197745Y0056224D03*
D13*
X0121800Y0107484D03*
X0111800Y0107484D03*
D14*
X0270875Y0078284D02*
X0282725Y0078284D01*
X0282725Y0062484D02*
X0270875Y0062484D01*
X0270875Y0046684D02*
X0282725Y0046684D01*
D15*
X0261800Y0142484D03*
X0251800Y0142484D03*
X0251800Y0152484D03*
X0261800Y0152484D03*
X0261800Y0162484D03*
X0251800Y0162484D03*
X0251800Y0172484D03*
X0261800Y0172484D03*
X0261800Y0182484D03*
X0251800Y0182484D03*
X0251800Y0192484D03*
X0261800Y0192484D03*
X0261800Y0202484D03*
X0251800Y0202484D03*
X0251800Y0212484D03*
X0261800Y0212484D03*
X0261800Y0222484D03*
X0251800Y0222484D03*
X0251800Y0232484D03*
X0261800Y0232484D03*
X0196800Y0232484D03*
X0196800Y0222484D03*
X0196800Y0212484D03*
X0196800Y0202484D03*
X0196800Y0192484D03*
X0196800Y0182484D03*
X0196800Y0172484D03*
X0196800Y0162484D03*
X0196800Y0152484D03*
X0196800Y0142484D03*
X0136800Y0142484D03*
X0136800Y0152484D03*
X0136800Y0162484D03*
X0136800Y0172484D03*
X0136800Y0182484D03*
X0136800Y0192484D03*
X0136800Y0202484D03*
X0136800Y0212484D03*
X0136800Y0222484D03*
X0136800Y0232484D03*
X0076800Y0232484D03*
X0076800Y0222484D03*
X0076800Y0212484D03*
X0076800Y0202484D03*
X0076800Y0192484D03*
X0076800Y0182484D03*
X0076800Y0172484D03*
X0076800Y0162484D03*
X0076800Y0152484D03*
X0076800Y0142484D03*
X0061800Y0107484D03*
X0031800Y0107484D03*
X0016800Y0142484D03*
X0016800Y0152484D03*
X0016800Y0162484D03*
X0016800Y0172484D03*
X0016800Y0182484D03*
X0016800Y0192484D03*
X0016800Y0202484D03*
X0016800Y0212484D03*
X0016800Y0222484D03*
X0016800Y0232484D03*
D16*
X0025831Y0023352D02*
X0025215Y0022284D01*
X0188385Y0022284D01*
X0187769Y0023352D01*
X0187039Y0026075D01*
X0187039Y0028894D01*
X0187769Y0031616D01*
X0189178Y0034058D01*
X0191172Y0036051D01*
X0193613Y0037460D01*
X0196335Y0038190D01*
X0199154Y0038190D01*
X0201877Y0037460D01*
X0204318Y0036051D01*
X0206311Y0034058D01*
X0207721Y0031616D01*
X0208450Y0028894D01*
X0208450Y0026075D01*
X0207721Y0023352D01*
X0207104Y0022284D01*
X0310701Y0022284D01*
X0310701Y0247645D01*
X0307671Y0247645D01*
X0307287Y0247261D01*
X0301995Y0247261D01*
X0301995Y0246751D01*
X0306219Y0246751D01*
X0307294Y0245676D01*
X0307332Y0245638D01*
X0308400Y0244570D01*
X0308400Y0240861D01*
X0307287Y0239748D01*
X0307032Y0239493D01*
X0307294Y0239231D01*
X0307332Y0239192D01*
X0307332Y0239192D01*
X0308400Y0238125D01*
X0308400Y0234416D01*
X0307566Y0233581D01*
X0308400Y0232747D01*
X0308400Y0231173D01*
X0306817Y0229589D01*
X0307287Y0229589D01*
X0308400Y0228476D01*
X0308400Y0226902D01*
X0308099Y0226602D01*
X0308400Y0226301D01*
X0308400Y0224727D01*
X0307287Y0223614D01*
X0305197Y0223614D01*
X0305197Y0223144D01*
X0307287Y0223144D01*
X0308400Y0222031D01*
X0308400Y0220457D01*
X0308099Y0220156D01*
X0308400Y0219856D01*
X0308400Y0214011D01*
X0308099Y0213711D01*
X0308400Y0213410D01*
X0308400Y0211836D01*
X0306817Y0210253D01*
X0307287Y0210253D01*
X0308400Y0209140D01*
X0308400Y0207566D01*
X0307566Y0206732D01*
X0308384Y0205913D01*
X0308400Y0205897D01*
X0308400Y0201120D01*
X0307287Y0200007D01*
X0299308Y0200007D01*
X0298195Y0201120D01*
X0298195Y0205897D01*
X0299029Y0206732D01*
X0298195Y0207566D01*
X0298195Y0212343D01*
X0299029Y0213177D01*
X0298195Y0214011D01*
X0298195Y0219856D01*
X0299308Y0220969D01*
X0299818Y0220969D01*
X0299308Y0221479D01*
X0298195Y0222592D01*
X0298195Y0224166D01*
X0299818Y0225789D01*
X0299308Y0225789D01*
X0298195Y0226902D01*
X0298195Y0228476D01*
X0299308Y0229589D01*
X0299778Y0229589D01*
X0298195Y0231173D01*
X0298195Y0232747D01*
X0299029Y0233581D01*
X0298195Y0234416D01*
X0298195Y0238125D01*
X0298654Y0238584D01*
X0299029Y0238959D01*
X0298195Y0239793D01*
X0298195Y0241367D01*
X0299308Y0242480D01*
X0304600Y0242480D01*
X0304600Y0242951D01*
X0299308Y0242951D01*
X0298195Y0244064D01*
X0298195Y0245638D01*
X0298495Y0245938D01*
X0298195Y0246239D01*
X0298195Y0247645D01*
X0043400Y0247645D01*
X0043400Y0247253D01*
X0042228Y0246082D01*
X0038796Y0246082D01*
X0038796Y0243943D01*
X0042228Y0243943D01*
X0043400Y0242772D01*
X0043400Y0241115D01*
X0042228Y0239943D01*
X0041624Y0239943D01*
X0041865Y0239702D01*
X0041865Y0239702D01*
X0042485Y0239083D01*
X0043400Y0238168D01*
X0043400Y0233442D01*
X0041624Y0231666D01*
X0042228Y0231666D01*
X0043400Y0230494D01*
X0043400Y0227303D01*
X0042228Y0226131D01*
X0041624Y0226131D01*
X0041865Y0225891D01*
X0041865Y0225891D01*
X0042485Y0225271D01*
X0043400Y0224356D01*
X0043400Y0219630D01*
X0041865Y0218095D01*
X0040694Y0216924D01*
X0032898Y0216924D01*
X0032009Y0217813D01*
X0031364Y0218458D01*
X0031364Y0218458D01*
X0031081Y0218741D01*
X0030192Y0219630D01*
X0030192Y0224356D01*
X0031727Y0225891D01*
X0032898Y0227062D01*
X0038106Y0227062D01*
X0037865Y0227303D01*
X0037865Y0230494D01*
X0038572Y0231201D01*
X0037865Y0231907D01*
X0037865Y0233564D01*
X0039400Y0235098D01*
X0039400Y0236511D01*
X0039098Y0236813D01*
X0038796Y0236511D01*
X0038796Y0234976D01*
X0037624Y0233805D01*
X0035968Y0233805D01*
X0034796Y0234976D01*
X0034796Y0236511D01*
X0034494Y0236813D01*
X0034192Y0236511D01*
X0034192Y0235098D01*
X0035727Y0233564D01*
X0035727Y0231907D01*
X0034555Y0230735D01*
X0032898Y0230735D01*
X0031364Y0232270D01*
X0031364Y0232270D01*
X0031081Y0232553D01*
X0030192Y0233442D01*
X0030192Y0238168D01*
X0031727Y0239702D01*
X0032898Y0240874D01*
X0033502Y0240874D01*
X0031364Y0243012D01*
X0031364Y0243012D01*
X0030192Y0244184D01*
X0030192Y0245841D01*
X0031996Y0247645D01*
X0006600Y0247645D01*
X0006600Y0032865D01*
X0007289Y0034058D01*
X0009282Y0036051D01*
X0011723Y0037460D01*
X0014446Y0038190D01*
X0017265Y0038190D01*
X0019987Y0037460D01*
X0022428Y0036051D01*
X0024422Y0034058D01*
X0025831Y0031616D01*
X0026561Y0028894D01*
X0026561Y0026075D01*
X0025831Y0023352D01*
X0025448Y0022689D02*
X0188152Y0022689D01*
X0187518Y0024287D02*
X0026082Y0024287D01*
X0026510Y0025886D02*
X0187090Y0025886D01*
X0187039Y0027484D02*
X0026561Y0027484D01*
X0026510Y0029083D02*
X0187090Y0029083D01*
X0187518Y0030681D02*
X0026082Y0030681D01*
X0025448Y0032280D02*
X0188152Y0032280D01*
X0189075Y0033878D02*
X0024525Y0033878D01*
X0023002Y0035477D02*
X0190598Y0035477D01*
X0192946Y0037075D02*
X0020654Y0037075D01*
X0011056Y0037075D02*
X0006600Y0037075D01*
X0006600Y0035477D02*
X0008708Y0035477D01*
X0007185Y0033878D02*
X0006600Y0033878D01*
X0006600Y0038674D02*
X0310701Y0038674D01*
X0310701Y0040272D02*
X0287059Y0040272D01*
X0287026Y0040247D02*
X0287829Y0040864D01*
X0288545Y0041580D01*
X0289162Y0042383D01*
X0289668Y0043260D01*
X0290056Y0044196D01*
X0290318Y0045174D01*
X0290411Y0045884D01*
X0277600Y0045884D01*
X0277600Y0038959D01*
X0283231Y0038959D01*
X0284235Y0039091D01*
X0285213Y0039354D01*
X0286149Y0039741D01*
X0287026Y0040247D01*
X0288769Y0041871D02*
X0310701Y0041871D01*
X0310701Y0043469D02*
X0289755Y0043469D01*
X0290289Y0045068D02*
X0310701Y0045068D01*
X0310701Y0046666D02*
X0277600Y0046666D01*
X0277600Y0045884D02*
X0277600Y0047484D01*
X0290411Y0047484D01*
X0290318Y0048195D01*
X0290056Y0049173D01*
X0289668Y0050108D01*
X0289162Y0050985D01*
X0288545Y0051789D01*
X0287829Y0052505D01*
X0287026Y0053121D01*
X0286149Y0053627D01*
X0285213Y0054015D01*
X0284235Y0054277D01*
X0283231Y0054409D01*
X0277600Y0054409D01*
X0277600Y0047484D01*
X0276000Y0047484D01*
X0276000Y0045884D01*
X0277600Y0045884D01*
X0277600Y0045068D02*
X0276000Y0045068D01*
X0276000Y0045884D02*
X0276000Y0038959D01*
X0270369Y0038959D01*
X0269365Y0039091D01*
X0268387Y0039354D01*
X0267451Y0039741D01*
X0266574Y0040247D01*
X0265771Y0040864D01*
X0265055Y0041580D01*
X0264438Y0042383D01*
X0263932Y0043260D01*
X0263544Y0044196D01*
X0263282Y0045174D01*
X0263189Y0045884D01*
X0276000Y0045884D01*
X0276000Y0046666D02*
X0006600Y0046666D01*
X0006600Y0045068D02*
X0263311Y0045068D01*
X0263845Y0043469D02*
X0006600Y0043469D01*
X0006600Y0041871D02*
X0264831Y0041871D01*
X0266541Y0040272D02*
X0006600Y0040272D01*
X0006600Y0048265D02*
X0263301Y0048265D01*
X0263282Y0048195D02*
X0263544Y0049173D01*
X0263932Y0050108D01*
X0264438Y0050985D01*
X0265055Y0051789D01*
X0265771Y0052505D01*
X0266574Y0053121D01*
X0267451Y0053627D01*
X0268387Y0054015D01*
X0269365Y0054277D01*
X0270369Y0054409D01*
X0276000Y0054409D01*
X0276000Y0047484D01*
X0263189Y0047484D01*
X0263282Y0048195D01*
X0263830Y0049863D02*
X0201487Y0049863D01*
X0201885Y0050028D02*
X0203941Y0052084D01*
X0205054Y0054771D01*
X0205054Y0057678D01*
X0203941Y0060364D01*
X0201885Y0062420D01*
X0199199Y0063533D01*
X0196291Y0063533D01*
X0193605Y0062420D01*
X0191549Y0060364D01*
X0190436Y0057678D01*
X0190436Y0054771D01*
X0191549Y0052084D01*
X0193605Y0050028D01*
X0196291Y0048916D01*
X0199199Y0048916D01*
X0201885Y0050028D01*
X0203318Y0051462D02*
X0264804Y0051462D01*
X0266495Y0053060D02*
X0204345Y0053060D01*
X0205007Y0054659D02*
X0310701Y0054659D01*
X0310701Y0056257D02*
X0287140Y0056257D01*
X0286988Y0056105D02*
X0289104Y0058222D01*
X0290250Y0060987D01*
X0290250Y0063981D01*
X0289104Y0066747D01*
X0286988Y0068864D01*
X0284222Y0070009D01*
X0269378Y0070009D01*
X0269076Y0069884D01*
X0162794Y0069884D01*
X0161693Y0070985D01*
X0162255Y0070753D01*
X0163206Y0070498D01*
X0163874Y0070410D01*
X0163874Y0077078D01*
X0157206Y0077078D01*
X0157294Y0076410D01*
X0157549Y0075459D01*
X0157782Y0074897D01*
X0155447Y0077231D01*
X0155447Y0079332D01*
X0154335Y0082018D01*
X0152279Y0084074D01*
X0149592Y0085187D01*
X0146685Y0085187D01*
X0143999Y0084074D01*
X0141943Y0082018D01*
X0140830Y0079332D01*
X0140830Y0076424D01*
X0141943Y0073738D01*
X0143999Y0071682D01*
X0146685Y0070569D01*
X0149592Y0070569D01*
X0152279Y0071682D01*
X0153243Y0072647D01*
X0159765Y0066125D01*
X0160441Y0065450D01*
X0161323Y0065084D01*
X0263807Y0065084D01*
X0263350Y0063981D01*
X0263350Y0060987D01*
X0264496Y0058222D01*
X0266612Y0056105D01*
X0269378Y0054959D01*
X0284222Y0054959D01*
X0286988Y0056105D01*
X0288739Y0057856D02*
X0310701Y0057856D01*
X0310701Y0059454D02*
X0289615Y0059454D01*
X0290250Y0061053D02*
X0310701Y0061053D01*
X0310701Y0062652D02*
X0290250Y0062652D01*
X0290139Y0064250D02*
X0310701Y0064250D01*
X0310701Y0065849D02*
X0289476Y0065849D01*
X0288404Y0067447D02*
X0310701Y0067447D01*
X0310701Y0069046D02*
X0286548Y0069046D01*
X0284222Y0070759D02*
X0286988Y0071905D01*
X0289104Y0074022D01*
X0290250Y0076787D01*
X0290250Y0079781D01*
X0289104Y0082547D01*
X0286988Y0084664D01*
X0284222Y0085809D01*
X0269378Y0085809D01*
X0266612Y0084664D01*
X0264496Y0082547D01*
X0263350Y0079781D01*
X0263350Y0076787D01*
X0264496Y0074022D01*
X0266612Y0071905D01*
X0269378Y0070759D01*
X0284222Y0070759D01*
X0287325Y0072243D02*
X0310701Y0072243D01*
X0310701Y0073841D02*
X0288924Y0073841D01*
X0289692Y0075440D02*
X0310701Y0075440D01*
X0310701Y0077038D02*
X0290250Y0077038D01*
X0290250Y0078637D02*
X0310701Y0078637D01*
X0310701Y0080235D02*
X0290062Y0080235D01*
X0289400Y0081834D02*
X0310701Y0081834D01*
X0310701Y0083432D02*
X0288219Y0083432D01*
X0286101Y0085031D02*
X0310701Y0085031D01*
X0310701Y0086629D02*
X0192388Y0086629D01*
X0193986Y0085031D02*
X0195915Y0085031D01*
X0196291Y0085187D02*
X0194551Y0084466D01*
X0172962Y0106055D01*
X0172962Y0106125D01*
X0173203Y0105884D01*
X0174860Y0105884D01*
X0176031Y0107056D01*
X0176031Y0108954D01*
X0179464Y0108954D01*
X0180635Y0110125D01*
X0181239Y0110729D01*
X0181239Y0107056D01*
X0182411Y0105884D01*
X0184068Y0105884D01*
X0186309Y0108125D01*
X0188488Y0105946D01*
X0188549Y0105884D01*
X0190206Y0105884D01*
X0190913Y0106590D01*
X0191619Y0105884D01*
X0193276Y0105884D01*
X0194447Y0107056D01*
X0194447Y0108954D01*
X0194688Y0108954D01*
X0197757Y0105884D01*
X0199414Y0105884D01*
X0200586Y0107056D01*
X0200586Y0108713D01*
X0199112Y0110186D01*
X0200586Y0111660D01*
X0200586Y0116386D01*
X0199414Y0117557D01*
X0197880Y0119092D01*
X0191619Y0119092D01*
X0190913Y0118386D01*
X0190206Y0119092D01*
X0188549Y0119092D01*
X0187378Y0117921D01*
X0187378Y0112713D01*
X0187137Y0112954D01*
X0185480Y0112954D01*
X0185239Y0112713D01*
X0185239Y0117921D01*
X0184068Y0119092D01*
X0182411Y0119092D01*
X0181239Y0117921D01*
X0181239Y0117317D01*
X0180998Y0117557D01*
X0179464Y0119092D01*
X0173203Y0119092D01*
X0172031Y0117921D01*
X0172031Y0108109D01*
X0171791Y0108350D01*
X0170667Y0108350D01*
X0163754Y0115263D01*
X0163754Y0116386D01*
X0162220Y0117921D01*
X0161048Y0119092D01*
X0159925Y0119092D01*
X0140414Y0138603D01*
X0141293Y0139482D01*
X0142100Y0141430D01*
X0142100Y0143538D01*
X0141293Y0145486D01*
X0139802Y0146977D01*
X0138578Y0147484D01*
X0139802Y0147991D01*
X0141293Y0149482D01*
X0142100Y0151430D01*
X0142100Y0153538D01*
X0141293Y0155486D01*
X0139802Y0156977D01*
X0138578Y0157484D01*
X0139802Y0157991D01*
X0141293Y0159482D01*
X0142100Y0161430D01*
X0142100Y0163538D01*
X0141293Y0165486D01*
X0139802Y0166977D01*
X0138578Y0167484D01*
X0139802Y0167991D01*
X0141293Y0169482D01*
X0142100Y0171430D01*
X0142100Y0173538D01*
X0141293Y0175486D01*
X0139802Y0176977D01*
X0138578Y0177484D01*
X0139802Y0177991D01*
X0141293Y0179482D01*
X0142100Y0181430D01*
X0142100Y0183538D01*
X0141293Y0185486D01*
X0139802Y0186977D01*
X0138578Y0187484D01*
X0139802Y0187991D01*
X0141293Y0189482D01*
X0142100Y0191430D01*
X0142100Y0193538D01*
X0141293Y0195486D01*
X0139802Y0196977D01*
X0138578Y0197484D01*
X0139802Y0197991D01*
X0141293Y0199482D01*
X0142100Y0201430D01*
X0142100Y0203538D01*
X0141293Y0205486D01*
X0139802Y0206977D01*
X0138578Y0207484D01*
X0139802Y0207991D01*
X0141293Y0209482D01*
X0142100Y0211430D01*
X0142100Y0213538D01*
X0141293Y0215486D01*
X0139802Y0216977D01*
X0138578Y0217484D01*
X0139802Y0217991D01*
X0141293Y0219482D01*
X0142100Y0221430D01*
X0142100Y0223538D01*
X0141293Y0225486D01*
X0139802Y0226977D01*
X0138578Y0227484D01*
X0139802Y0227991D01*
X0141293Y0229482D01*
X0142100Y0231430D01*
X0142100Y0233538D01*
X0141293Y0235486D01*
X0139802Y0236977D01*
X0137854Y0237784D01*
X0135746Y0237784D01*
X0133798Y0236977D01*
X0132307Y0235486D01*
X0131500Y0233538D01*
X0131500Y0231430D01*
X0132307Y0229482D01*
X0133798Y0227991D01*
X0135022Y0227484D01*
X0133798Y0226977D01*
X0132307Y0225486D01*
X0131500Y0223538D01*
X0131500Y0221430D01*
X0132307Y0219482D01*
X0133798Y0217991D01*
X0135022Y0217484D01*
X0133798Y0216977D01*
X0132307Y0215486D01*
X0131500Y0213538D01*
X0131500Y0211430D01*
X0132307Y0209482D01*
X0133798Y0207991D01*
X0135022Y0207484D01*
X0133798Y0206977D01*
X0132307Y0205486D01*
X0131500Y0203538D01*
X0131500Y0201430D01*
X0132307Y0199482D01*
X0133798Y0197991D01*
X0135022Y0197484D01*
X0133798Y0196977D01*
X0132307Y0195486D01*
X0131500Y0193538D01*
X0131500Y0191430D01*
X0132307Y0189482D01*
X0133798Y0187991D01*
X0135022Y0187484D01*
X0133798Y0186977D01*
X0132307Y0185486D01*
X0131500Y0183538D01*
X0131500Y0181430D01*
X0132307Y0179482D01*
X0133798Y0177991D01*
X0135022Y0177484D01*
X0133798Y0176977D01*
X0132307Y0175486D01*
X0131500Y0173538D01*
X0131500Y0171430D01*
X0132307Y0169482D01*
X0133798Y0167991D01*
X0135022Y0167484D01*
X0133798Y0166977D01*
X0132307Y0165486D01*
X0131500Y0163538D01*
X0131500Y0161430D01*
X0132307Y0159482D01*
X0133798Y0157991D01*
X0135022Y0157484D01*
X0133798Y0156977D01*
X0132307Y0155486D01*
X0131500Y0153538D01*
X0131500Y0151430D01*
X0132307Y0149482D01*
X0133798Y0147991D01*
X0135022Y0147484D01*
X0133798Y0146977D01*
X0132307Y0145486D01*
X0131500Y0143538D01*
X0131500Y0141430D01*
X0132307Y0139482D01*
X0133798Y0137991D01*
X0134702Y0137617D01*
X0134765Y0137463D01*
X0142392Y0129837D01*
X0142277Y0129884D01*
X0052794Y0129884D01*
X0038159Y0144519D01*
X0037277Y0144884D01*
X0021543Y0144884D01*
X0021293Y0145486D01*
X0019802Y0146977D01*
X0018578Y0147484D01*
X0019802Y0147991D01*
X0021293Y0149482D01*
X0022100Y0151430D01*
X0022100Y0153538D01*
X0021293Y0155486D01*
X0019802Y0156977D01*
X0018578Y0157484D01*
X0019802Y0157991D01*
X0021293Y0159482D01*
X0022100Y0161430D01*
X0022100Y0163538D01*
X0021293Y0165486D01*
X0019802Y0166977D01*
X0018578Y0167484D01*
X0019802Y0167991D01*
X0021293Y0169482D01*
X0022100Y0171430D01*
X0022100Y0173538D01*
X0021293Y0175486D01*
X0019802Y0176977D01*
X0018578Y0177484D01*
X0019802Y0177991D01*
X0021293Y0179482D01*
X0022100Y0181430D01*
X0022100Y0183538D01*
X0021293Y0185486D01*
X0019802Y0186977D01*
X0018578Y0187484D01*
X0019802Y0187991D01*
X0021293Y0189482D01*
X0022100Y0191430D01*
X0022100Y0193538D01*
X0021293Y0195486D01*
X0019802Y0196977D01*
X0018578Y0197484D01*
X0019802Y0197991D01*
X0021293Y0199482D01*
X0022100Y0201430D01*
X0022100Y0203538D01*
X0021293Y0205486D01*
X0019802Y0206977D01*
X0018578Y0207484D01*
X0019802Y0207991D01*
X0021293Y0209482D01*
X0022100Y0211430D01*
X0022100Y0213538D01*
X0021293Y0215486D01*
X0019802Y0216977D01*
X0018578Y0217484D01*
X0019802Y0217991D01*
X0021293Y0219482D01*
X0022100Y0221430D01*
X0022100Y0223538D01*
X0021293Y0225486D01*
X0019802Y0226977D01*
X0018578Y0227484D01*
X0019802Y0227991D01*
X0021293Y0229482D01*
X0022100Y0231430D01*
X0022100Y0233538D01*
X0021293Y0235486D01*
X0019802Y0236977D01*
X0017854Y0237784D01*
X0015746Y0237784D01*
X0013798Y0236977D01*
X0012307Y0235486D01*
X0011500Y0233538D01*
X0011500Y0231430D01*
X0012307Y0229482D01*
X0013798Y0227991D01*
X0015022Y0227484D01*
X0013798Y0226977D01*
X0012307Y0225486D01*
X0011500Y0223538D01*
X0011500Y0221430D01*
X0012307Y0219482D01*
X0013798Y0217991D01*
X0015022Y0217484D01*
X0013798Y0216977D01*
X0012307Y0215486D01*
X0011500Y0213538D01*
X0011500Y0211430D01*
X0012307Y0209482D01*
X0013798Y0207991D01*
X0015022Y0207484D01*
X0013798Y0206977D01*
X0012307Y0205486D01*
X0011500Y0203538D01*
X0011500Y0201430D01*
X0012307Y0199482D01*
X0013798Y0197991D01*
X0015022Y0197484D01*
X0013798Y0196977D01*
X0012307Y0195486D01*
X0011500Y0193538D01*
X0011500Y0191430D01*
X0012307Y0189482D01*
X0013798Y0187991D01*
X0015022Y0187484D01*
X0013798Y0186977D01*
X0012307Y0185486D01*
X0011500Y0183538D01*
X0011500Y0181430D01*
X0012307Y0179482D01*
X0013798Y0177991D01*
X0015022Y0177484D01*
X0013798Y0176977D01*
X0012307Y0175486D01*
X0011500Y0173538D01*
X0011500Y0171430D01*
X0012307Y0169482D01*
X0013798Y0167991D01*
X0015022Y0167484D01*
X0013798Y0166977D01*
X0012307Y0165486D01*
X0011500Y0163538D01*
X0011500Y0161430D01*
X0012307Y0159482D01*
X0013798Y0157991D01*
X0015022Y0157484D01*
X0013798Y0156977D01*
X0012307Y0155486D01*
X0011500Y0153538D01*
X0011500Y0151430D01*
X0012307Y0149482D01*
X0013798Y0147991D01*
X0015022Y0147484D01*
X0013798Y0146977D01*
X0012307Y0145486D01*
X0011500Y0143538D01*
X0011500Y0141430D01*
X0012307Y0139482D01*
X0013798Y0137991D01*
X0015746Y0137184D01*
X0017854Y0137184D01*
X0019802Y0137991D01*
X0021293Y0139482D01*
X0021543Y0140084D01*
X0035806Y0140084D01*
X0049765Y0126125D01*
X0050441Y0125450D01*
X0051323Y0125084D01*
X0140806Y0125084D01*
X0146798Y0119092D01*
X0145579Y0119092D01*
X0144408Y0117921D01*
X0144408Y0109643D01*
X0144167Y0109884D01*
X0139200Y0109884D01*
X0139200Y0117921D01*
X0138028Y0119092D01*
X0136372Y0119092D01*
X0135200Y0117921D01*
X0135200Y0107056D01*
X0136372Y0105884D01*
X0144167Y0105884D01*
X0144873Y0106590D01*
X0145579Y0105884D01*
X0153375Y0105884D01*
X0154081Y0106590D01*
X0154787Y0105884D01*
X0160006Y0105884D01*
X0179400Y0086490D01*
X0179400Y0085039D01*
X0177069Y0084074D01*
X0175013Y0082018D01*
X0173901Y0079332D01*
X0173901Y0076424D01*
X0175013Y0073738D01*
X0177069Y0071682D01*
X0179756Y0070569D01*
X0182663Y0070569D01*
X0185349Y0071682D01*
X0187405Y0073738D01*
X0188518Y0076424D01*
X0188518Y0079332D01*
X0187405Y0082018D01*
X0185349Y0084074D01*
X0184200Y0084550D01*
X0184200Y0087962D01*
X0184153Y0088076D01*
X0191157Y0081072D01*
X0190436Y0079332D01*
X0190436Y0076424D01*
X0191549Y0073738D01*
X0193605Y0071682D01*
X0196291Y0070569D01*
X0199199Y0070569D01*
X0201885Y0071682D01*
X0203941Y0073738D01*
X0205054Y0076424D01*
X0205054Y0079332D01*
X0203941Y0082018D01*
X0201885Y0084074D01*
X0199199Y0085187D01*
X0196291Y0085187D01*
X0199575Y0085031D02*
X0267499Y0085031D01*
X0265381Y0083432D02*
X0202527Y0083432D01*
X0204017Y0081834D02*
X0264200Y0081834D01*
X0263538Y0080235D02*
X0204679Y0080235D01*
X0205054Y0078637D02*
X0263350Y0078637D01*
X0263350Y0077038D02*
X0205054Y0077038D01*
X0204646Y0075440D02*
X0263908Y0075440D01*
X0264676Y0073841D02*
X0203984Y0073841D01*
X0202446Y0072243D02*
X0266275Y0072243D01*
X0271800Y0067484D02*
X0161800Y0067484D01*
X0151406Y0077878D01*
X0148139Y0077878D01*
X0141238Y0075440D02*
X0138720Y0075440D01*
X0138729Y0075459D02*
X0138983Y0076410D01*
X0139071Y0077078D01*
X0132403Y0077078D01*
X0132403Y0070410D01*
X0133071Y0070498D01*
X0134022Y0070753D01*
X0134931Y0071129D01*
X0135784Y0071621D01*
X0136565Y0072221D01*
X0137261Y0072917D01*
X0137860Y0073697D01*
X0138352Y0074550D01*
X0138729Y0075459D01*
X0139066Y0077038D02*
X0140830Y0077038D01*
X0140830Y0078637D02*
X0132403Y0078637D01*
X0132403Y0078678D02*
X0139071Y0078678D01*
X0138983Y0079346D01*
X0138729Y0080297D01*
X0138352Y0081206D01*
X0137860Y0082058D01*
X0137261Y0082839D01*
X0136565Y0083535D01*
X0135784Y0084135D01*
X0134931Y0084627D01*
X0134022Y0085003D01*
X0133071Y0085258D01*
X0132403Y0085346D01*
X0132403Y0078678D01*
X0130803Y0078678D01*
X0130803Y0077078D01*
X0124135Y0077078D01*
X0124223Y0076410D01*
X0124478Y0075459D01*
X0124854Y0074550D01*
X0125347Y0073697D01*
X0125946Y0072917D01*
X0126642Y0072221D01*
X0127423Y0071621D01*
X0128275Y0071129D01*
X0129184Y0070753D01*
X0130135Y0070498D01*
X0130803Y0070410D01*
X0130803Y0077078D01*
X0132403Y0077078D01*
X0132403Y0078678D01*
X0132403Y0080235D02*
X0130803Y0080235D01*
X0130803Y0078678D02*
X0130803Y0085346D01*
X0130135Y0085258D01*
X0129184Y0085003D01*
X0128275Y0084627D01*
X0127423Y0084135D01*
X0126642Y0083535D01*
X0125946Y0082839D01*
X0125347Y0082058D01*
X0124854Y0081206D01*
X0124478Y0080297D01*
X0124223Y0079346D01*
X0124135Y0078678D01*
X0130803Y0078678D01*
X0130803Y0078637D02*
X0115868Y0078637D01*
X0115868Y0078678D02*
X0122536Y0078678D01*
X0122448Y0079346D01*
X0122193Y0080297D01*
X0121816Y0081206D01*
X0121324Y0082058D01*
X0120725Y0082839D01*
X0120029Y0083535D01*
X0119248Y0084135D01*
X0118396Y0084627D01*
X0117486Y0085003D01*
X0116536Y0085258D01*
X0115868Y0085346D01*
X0115868Y0078678D01*
X0115868Y0077078D01*
X0122536Y0077078D01*
X0122448Y0076410D01*
X0122193Y0075459D01*
X0121816Y0074550D01*
X0121324Y0073697D01*
X0120725Y0072917D01*
X0120029Y0072221D01*
X0119248Y0071621D01*
X0118396Y0071129D01*
X0117486Y0070753D01*
X0116536Y0070498D01*
X0115868Y0070410D01*
X0115868Y0077078D01*
X0114268Y0077078D01*
X0114268Y0070410D01*
X0113600Y0070498D01*
X0112649Y0070753D01*
X0111740Y0071129D01*
X0110887Y0071621D01*
X0110106Y0072221D01*
X0109410Y0072917D01*
X0108811Y0073697D01*
X0108319Y0074550D01*
X0107942Y0075459D01*
X0107688Y0076410D01*
X0107600Y0077078D01*
X0114268Y0077078D01*
X0114268Y0078678D01*
X0114268Y0085346D01*
X0113600Y0085258D01*
X0112649Y0085003D01*
X0111740Y0084627D01*
X0110887Y0084135D01*
X0110106Y0083535D01*
X0109410Y0082839D01*
X0108811Y0082058D01*
X0108319Y0081206D01*
X0107942Y0080297D01*
X0107688Y0079346D01*
X0107600Y0078678D01*
X0114268Y0078678D01*
X0115868Y0078678D01*
X0115868Y0080235D02*
X0114268Y0080235D01*
X0114268Y0078637D02*
X0099332Y0078637D01*
X0099332Y0078678D02*
X0106000Y0078678D01*
X0105912Y0079346D01*
X0105658Y0080297D01*
X0105281Y0081206D01*
X0104789Y0082058D01*
X0104190Y0082839D01*
X0103494Y0083535D01*
X0102713Y0084135D01*
X0101860Y0084627D01*
X0100951Y0085003D01*
X0100000Y0085258D01*
X0099332Y0085346D01*
X0099332Y0078678D01*
X0097732Y0078678D01*
X0097732Y0077078D01*
X0091064Y0077078D01*
X0091152Y0076410D01*
X0091407Y0075459D01*
X0091784Y0074550D01*
X0092276Y0073697D01*
X0092875Y0072917D01*
X0093571Y0072221D01*
X0094352Y0071621D01*
X0095204Y0071129D01*
X0096114Y0070753D01*
X0097064Y0070498D01*
X0097732Y0070410D01*
X0097732Y0077078D01*
X0099332Y0077078D01*
X0099332Y0070410D01*
X0100000Y0070498D01*
X0100951Y0070753D01*
X0101860Y0071129D01*
X0102713Y0071621D01*
X0103494Y0072221D01*
X0104190Y0072917D01*
X0104789Y0073697D01*
X0105281Y0074550D01*
X0105658Y0075459D01*
X0105912Y0076410D01*
X0106000Y0077078D01*
X0099332Y0077078D01*
X0099332Y0078678D01*
X0099332Y0080235D02*
X0097732Y0080235D01*
X0097732Y0078678D02*
X0097732Y0085346D01*
X0097064Y0085258D01*
X0096114Y0085003D01*
X0095204Y0084627D01*
X0094352Y0084135D01*
X0093571Y0083535D01*
X0092875Y0082839D01*
X0092276Y0082058D01*
X0091784Y0081206D01*
X0091407Y0080297D01*
X0091152Y0079346D01*
X0091064Y0078678D01*
X0097732Y0078678D01*
X0097732Y0078637D02*
X0089305Y0078637D01*
X0089305Y0079332D02*
X0088193Y0082018D01*
X0086137Y0084074D01*
X0083451Y0085187D01*
X0080543Y0085187D01*
X0077857Y0084074D01*
X0075801Y0082018D01*
X0074688Y0079332D01*
X0074688Y0076424D01*
X0075801Y0073738D01*
X0077857Y0071682D01*
X0080543Y0070569D01*
X0083451Y0070569D01*
X0086137Y0071682D01*
X0088193Y0073738D01*
X0089305Y0076424D01*
X0089305Y0079332D01*
X0088931Y0080235D02*
X0091390Y0080235D01*
X0092146Y0081834D02*
X0088269Y0081834D01*
X0086779Y0083432D02*
X0093468Y0083432D01*
X0096215Y0085031D02*
X0083827Y0085031D01*
X0080167Y0085031D02*
X0067292Y0085031D01*
X0066915Y0085187D02*
X0064008Y0085187D01*
X0061321Y0084074D01*
X0059265Y0082018D01*
X0058153Y0079332D01*
X0058153Y0076424D01*
X0059265Y0073738D01*
X0061321Y0071682D01*
X0064008Y0070569D01*
X0066915Y0070569D01*
X0069601Y0071682D01*
X0071657Y0073738D01*
X0072770Y0076424D01*
X0072770Y0079332D01*
X0071657Y0082018D01*
X0069601Y0084074D01*
X0066915Y0085187D01*
X0070243Y0083432D02*
X0077215Y0083432D01*
X0075725Y0081834D02*
X0071734Y0081834D01*
X0072396Y0080235D02*
X0075062Y0080235D01*
X0074688Y0078637D02*
X0072770Y0078637D01*
X0072770Y0077038D02*
X0074688Y0077038D01*
X0075096Y0075440D02*
X0072362Y0075440D01*
X0071700Y0073841D02*
X0075758Y0073841D01*
X0077296Y0072243D02*
X0070162Y0072243D01*
X0067096Y0070644D02*
X0080363Y0070644D01*
X0083631Y0070644D02*
X0096518Y0070644D01*
X0097732Y0070644D02*
X0099332Y0070644D01*
X0100546Y0070644D02*
X0113054Y0070644D01*
X0114268Y0070644D02*
X0115868Y0070644D01*
X0117082Y0070644D02*
X0129589Y0070644D01*
X0130803Y0070644D02*
X0132403Y0070644D01*
X0133617Y0070644D02*
X0146504Y0070644D01*
X0143438Y0072243D02*
X0136587Y0072243D01*
X0137943Y0073841D02*
X0141900Y0073841D01*
X0141204Y0080235D02*
X0138745Y0080235D01*
X0137990Y0081834D02*
X0141866Y0081834D01*
X0143357Y0083432D02*
X0136668Y0083432D01*
X0133920Y0085031D02*
X0146308Y0085031D01*
X0149969Y0085031D02*
X0162357Y0085031D01*
X0162255Y0085003D02*
X0161346Y0084627D01*
X0160493Y0084135D01*
X0159713Y0083535D01*
X0159017Y0082839D01*
X0158417Y0082058D01*
X0157925Y0081206D01*
X0157549Y0080297D01*
X0157294Y0079346D01*
X0157206Y0078678D01*
X0163874Y0078678D01*
X0163874Y0085346D01*
X0163206Y0085258D01*
X0162255Y0085003D01*
X0163874Y0085031D02*
X0165474Y0085031D01*
X0165474Y0085346D02*
X0166142Y0085258D01*
X0167093Y0085003D01*
X0168002Y0084627D01*
X0168855Y0084135D01*
X0169635Y0083535D01*
X0170331Y0082839D01*
X0170931Y0082058D01*
X0171423Y0081206D01*
X0171799Y0080297D01*
X0172054Y0079346D01*
X0172142Y0078678D01*
X0165474Y0078678D01*
X0163874Y0078678D01*
X0163874Y0077078D01*
X0165474Y0077078D01*
X0165474Y0078678D01*
X0165474Y0085346D01*
X0166991Y0085031D02*
X0179379Y0085031D01*
X0179261Y0086629D02*
X0034200Y0086629D01*
X0034200Y0085039D02*
X0034200Y0102742D01*
X0034802Y0102991D01*
X0036293Y0104482D01*
X0037100Y0106430D01*
X0037100Y0108538D01*
X0036293Y0110486D01*
X0034802Y0111977D01*
X0032854Y0112784D01*
X0030746Y0112784D01*
X0028798Y0111977D01*
X0027307Y0110486D01*
X0026500Y0108538D01*
X0026500Y0106430D01*
X0027307Y0104482D01*
X0028798Y0102991D01*
X0029400Y0102742D01*
X0029400Y0084550D01*
X0028251Y0084074D01*
X0026195Y0082018D01*
X0025082Y0079332D01*
X0025082Y0076424D01*
X0026195Y0073738D01*
X0028251Y0071682D01*
X0030937Y0070569D01*
X0033844Y0070569D01*
X0036531Y0071682D01*
X0038587Y0073738D01*
X0039699Y0076424D01*
X0039699Y0079332D01*
X0038587Y0082018D01*
X0036531Y0084074D01*
X0034200Y0085039D01*
X0034221Y0085031D02*
X0047096Y0085031D01*
X0047472Y0085187D02*
X0044786Y0084074D01*
X0042730Y0082018D01*
X0041617Y0079332D01*
X0041617Y0076424D01*
X0042730Y0073738D01*
X0044786Y0071682D01*
X0047472Y0070569D01*
X0050380Y0070569D01*
X0053066Y0071682D01*
X0055122Y0073738D01*
X0056235Y0076424D01*
X0056235Y0079332D01*
X0055122Y0082018D01*
X0053066Y0084074D01*
X0050380Y0085187D01*
X0047472Y0085187D01*
X0050756Y0085031D02*
X0063631Y0085031D01*
X0060680Y0083432D02*
X0053708Y0083432D01*
X0055198Y0081834D02*
X0059189Y0081834D01*
X0058527Y0080235D02*
X0055860Y0080235D01*
X0056235Y0078637D02*
X0058153Y0078637D01*
X0058153Y0077038D02*
X0056235Y0077038D01*
X0055827Y0075440D02*
X0058561Y0075440D01*
X0059223Y0073841D02*
X0055165Y0073841D01*
X0053627Y0072243D02*
X0060761Y0072243D01*
X0063827Y0070644D02*
X0050560Y0070644D01*
X0047292Y0070644D02*
X0034025Y0070644D01*
X0030756Y0070644D02*
X0017869Y0070644D01*
X0018274Y0070753D02*
X0019183Y0071129D01*
X0020036Y0071621D01*
X0020817Y0072221D01*
X0021513Y0072917D01*
X0022112Y0073697D01*
X0022604Y0074550D01*
X0022981Y0075459D01*
X0023235Y0076410D01*
X0023323Y0077078D01*
X0016655Y0077078D01*
X0016655Y0070410D01*
X0017323Y0070498D01*
X0018274Y0070753D01*
X0016655Y0070644D02*
X0015055Y0070644D01*
X0015055Y0070410D02*
X0015055Y0077078D01*
X0008387Y0077078D01*
X0008475Y0076410D01*
X0008730Y0075459D01*
X0009106Y0074550D01*
X0009598Y0073697D01*
X0010198Y0072917D01*
X0010894Y0072221D01*
X0011675Y0071621D01*
X0012527Y0071129D01*
X0013436Y0070753D01*
X0014387Y0070498D01*
X0015055Y0070410D01*
X0013841Y0070644D02*
X0006600Y0070644D01*
X0006600Y0069046D02*
X0156845Y0069046D01*
X0155246Y0070644D02*
X0149773Y0070644D01*
X0152839Y0072243D02*
X0153648Y0072243D01*
X0157239Y0075440D02*
X0157557Y0075440D01*
X0157211Y0077038D02*
X0155640Y0077038D01*
X0155447Y0078637D02*
X0163874Y0078637D01*
X0163874Y0080235D02*
X0165474Y0080235D01*
X0165474Y0078637D02*
X0173901Y0078637D01*
X0173901Y0077038D02*
X0172137Y0077038D01*
X0172142Y0077078D02*
X0165474Y0077078D01*
X0165474Y0070410D01*
X0166142Y0070498D01*
X0167093Y0070753D01*
X0168002Y0071129D01*
X0168855Y0071621D01*
X0169635Y0072221D01*
X0170331Y0072917D01*
X0170931Y0073697D01*
X0171423Y0074550D01*
X0171799Y0075459D01*
X0172054Y0076410D01*
X0172142Y0077078D01*
X0171791Y0075440D02*
X0174309Y0075440D01*
X0174971Y0073841D02*
X0171014Y0073841D01*
X0169657Y0072243D02*
X0176509Y0072243D01*
X0179575Y0070644D02*
X0166688Y0070644D01*
X0165474Y0070644D02*
X0163874Y0070644D01*
X0162660Y0070644D02*
X0162034Y0070644D01*
X0163874Y0072243D02*
X0165474Y0072243D01*
X0165474Y0073841D02*
X0163874Y0073841D01*
X0163874Y0075440D02*
X0165474Y0075440D01*
X0165474Y0077038D02*
X0163874Y0077038D01*
X0163874Y0081834D02*
X0165474Y0081834D01*
X0165474Y0083432D02*
X0163874Y0083432D01*
X0159609Y0083432D02*
X0152920Y0083432D01*
X0154411Y0081834D02*
X0158288Y0081834D01*
X0157532Y0080235D02*
X0155073Y0080235D01*
X0158443Y0067447D02*
X0006600Y0067447D01*
X0006600Y0065849D02*
X0160042Y0065849D01*
X0161346Y0062973D02*
X0160493Y0062481D01*
X0159713Y0061882D01*
X0159017Y0061186D01*
X0158417Y0060405D01*
X0157925Y0059553D01*
X0157549Y0058643D01*
X0157294Y0057692D01*
X0157206Y0057024D01*
X0163874Y0057024D01*
X0163874Y0055424D01*
X0165474Y0055424D01*
X0165474Y0048756D01*
X0166142Y0048844D01*
X0167093Y0049099D01*
X0168002Y0049476D01*
X0168855Y0049968D01*
X0169635Y0050567D01*
X0170331Y0051263D01*
X0170931Y0052044D01*
X0171423Y0052896D01*
X0171799Y0053806D01*
X0172054Y0054756D01*
X0172142Y0055424D01*
X0165474Y0055424D01*
X0165474Y0057024D01*
X0172142Y0057024D01*
X0172054Y0057692D01*
X0171799Y0058643D01*
X0171423Y0059553D01*
X0170931Y0060405D01*
X0170331Y0061186D01*
X0169635Y0061882D01*
X0168855Y0062481D01*
X0168002Y0062973D01*
X0167093Y0063350D01*
X0166142Y0063605D01*
X0165474Y0063693D01*
X0165474Y0057024D01*
X0163874Y0057024D01*
X0163874Y0063693D01*
X0163206Y0063605D01*
X0162255Y0063350D01*
X0161346Y0062973D01*
X0160789Y0062652D02*
X0151721Y0062652D01*
X0152279Y0062420D02*
X0149592Y0063533D01*
X0146685Y0063533D01*
X0143999Y0062420D01*
X0141943Y0060364D01*
X0140830Y0057678D01*
X0140830Y0054771D01*
X0141943Y0052084D01*
X0143999Y0050028D01*
X0146685Y0048916D01*
X0149592Y0048916D01*
X0152279Y0050028D01*
X0154335Y0052084D01*
X0155447Y0054771D01*
X0155447Y0057678D01*
X0154335Y0060364D01*
X0152279Y0062420D01*
X0153646Y0061053D02*
X0158915Y0061053D01*
X0157885Y0059454D02*
X0154711Y0059454D01*
X0155374Y0057856D02*
X0157338Y0057856D01*
X0157206Y0055424D02*
X0157294Y0054756D01*
X0157549Y0053806D01*
X0157925Y0052896D01*
X0158417Y0052044D01*
X0159017Y0051263D01*
X0159713Y0050567D01*
X0160493Y0049968D01*
X0161346Y0049476D01*
X0162255Y0049099D01*
X0163206Y0048844D01*
X0163874Y0048756D01*
X0163874Y0055424D01*
X0157206Y0055424D01*
X0157320Y0054659D02*
X0155401Y0054659D01*
X0155447Y0056257D02*
X0163874Y0056257D01*
X0163874Y0054659D02*
X0165474Y0054659D01*
X0165474Y0056257D02*
X0173901Y0056257D01*
X0173901Y0057678D02*
X0173901Y0054771D01*
X0175013Y0052084D01*
X0177069Y0050028D01*
X0179756Y0048916D01*
X0182663Y0048916D01*
X0185349Y0050028D01*
X0187405Y0052084D01*
X0188518Y0054771D01*
X0188518Y0057678D01*
X0187405Y0060364D01*
X0185349Y0062420D01*
X0182663Y0063533D01*
X0179756Y0063533D01*
X0177069Y0062420D01*
X0175013Y0060364D01*
X0173901Y0057678D01*
X0173974Y0057856D02*
X0172010Y0057856D01*
X0171463Y0059454D02*
X0174637Y0059454D01*
X0175702Y0061053D02*
X0170433Y0061053D01*
X0168559Y0062652D02*
X0177627Y0062652D01*
X0184792Y0062652D02*
X0194163Y0062652D01*
X0192237Y0061053D02*
X0186717Y0061053D01*
X0187782Y0059454D02*
X0191172Y0059454D01*
X0190510Y0057856D02*
X0188444Y0057856D01*
X0188518Y0056257D02*
X0190436Y0056257D01*
X0190482Y0054659D02*
X0188472Y0054659D01*
X0187810Y0053060D02*
X0191145Y0053060D01*
X0192171Y0051462D02*
X0186783Y0051462D01*
X0184951Y0049863D02*
X0194003Y0049863D01*
X0205054Y0056257D02*
X0266460Y0056257D01*
X0264861Y0057856D02*
X0204980Y0057856D01*
X0204318Y0059454D02*
X0263985Y0059454D01*
X0263350Y0061053D02*
X0203252Y0061053D01*
X0201327Y0062652D02*
X0263350Y0062652D01*
X0263461Y0064250D02*
X0006600Y0064250D01*
X0006600Y0062652D02*
X0012273Y0062652D01*
X0011715Y0062420D02*
X0009659Y0060364D01*
X0008546Y0057678D01*
X0008546Y0054771D01*
X0009659Y0052084D01*
X0011715Y0050028D01*
X0014401Y0048916D01*
X0017309Y0048916D01*
X0019995Y0050028D01*
X0022051Y0052084D01*
X0023164Y0054771D01*
X0023164Y0057678D01*
X0022051Y0060364D01*
X0019995Y0062420D01*
X0017309Y0063533D01*
X0014401Y0063533D01*
X0011715Y0062420D01*
X0010348Y0061053D02*
X0006600Y0061053D01*
X0006600Y0059454D02*
X0009282Y0059454D01*
X0008620Y0057856D02*
X0006600Y0057856D01*
X0006600Y0056257D02*
X0008546Y0056257D01*
X0008593Y0054659D02*
X0006600Y0054659D01*
X0006600Y0053060D02*
X0009255Y0053060D01*
X0010282Y0051462D02*
X0006600Y0051462D01*
X0006600Y0049863D02*
X0012113Y0049863D01*
X0019597Y0049863D02*
X0028649Y0049863D01*
X0028251Y0050028D02*
X0030937Y0048916D01*
X0033844Y0048916D01*
X0036531Y0050028D01*
X0038587Y0052084D01*
X0039699Y0054771D01*
X0039699Y0057678D01*
X0038587Y0060364D01*
X0036531Y0062420D01*
X0033844Y0063533D01*
X0030937Y0063533D01*
X0028251Y0062420D01*
X0026195Y0060364D01*
X0025082Y0057678D01*
X0025082Y0054771D01*
X0026195Y0052084D01*
X0028251Y0050028D01*
X0026817Y0051462D02*
X0021429Y0051462D01*
X0022455Y0053060D02*
X0025790Y0053060D01*
X0025128Y0054659D02*
X0023118Y0054659D01*
X0023164Y0056257D02*
X0025082Y0056257D01*
X0025156Y0057856D02*
X0023090Y0057856D01*
X0022428Y0059454D02*
X0025818Y0059454D01*
X0026883Y0061053D02*
X0021363Y0061053D01*
X0019437Y0062652D02*
X0028808Y0062652D01*
X0035973Y0062652D02*
X0045344Y0062652D01*
X0044786Y0062420D02*
X0042730Y0060364D01*
X0041617Y0057678D01*
X0041617Y0054771D01*
X0042730Y0052084D01*
X0044786Y0050028D01*
X0047472Y0048916D01*
X0050380Y0048916D01*
X0053066Y0050028D01*
X0055122Y0052084D01*
X0056235Y0054771D01*
X0056235Y0057678D01*
X0055122Y0060364D01*
X0053066Y0062420D01*
X0050380Y0063533D01*
X0047472Y0063533D01*
X0044786Y0062420D01*
X0043419Y0061053D02*
X0037898Y0061053D01*
X0038963Y0059454D02*
X0042353Y0059454D01*
X0041691Y0057856D02*
X0039626Y0057856D01*
X0039699Y0056257D02*
X0041617Y0056257D01*
X0041664Y0054659D02*
X0039653Y0054659D01*
X0038991Y0053060D02*
X0042326Y0053060D01*
X0043352Y0051462D02*
X0037964Y0051462D01*
X0036132Y0049863D02*
X0045184Y0049863D01*
X0052668Y0049863D02*
X0061720Y0049863D01*
X0061321Y0050028D02*
X0064008Y0048916D01*
X0066915Y0048916D01*
X0069601Y0050028D01*
X0071657Y0052084D01*
X0072770Y0054771D01*
X0072770Y0057678D01*
X0071657Y0060364D01*
X0069601Y0062420D01*
X0066915Y0063533D01*
X0064008Y0063533D01*
X0061321Y0062420D01*
X0059265Y0060364D01*
X0058153Y0057678D01*
X0058153Y0054771D01*
X0059265Y0052084D01*
X0061321Y0050028D01*
X0059888Y0051462D02*
X0054500Y0051462D01*
X0055526Y0053060D02*
X0058861Y0053060D01*
X0058199Y0054659D02*
X0056188Y0054659D01*
X0056235Y0056257D02*
X0058153Y0056257D01*
X0058226Y0057856D02*
X0056161Y0057856D01*
X0055499Y0059454D02*
X0058889Y0059454D01*
X0059954Y0061053D02*
X0054433Y0061053D01*
X0052508Y0062652D02*
X0061879Y0062652D01*
X0069043Y0062652D02*
X0078415Y0062652D01*
X0077857Y0062420D02*
X0075801Y0060364D01*
X0074688Y0057678D01*
X0074688Y0054771D01*
X0075801Y0052084D01*
X0077857Y0050028D01*
X0080543Y0048916D01*
X0083451Y0048916D01*
X0086137Y0050028D01*
X0088193Y0052084D01*
X0089305Y0054771D01*
X0089305Y0057678D01*
X0088193Y0060364D01*
X0086137Y0062420D01*
X0083451Y0063533D01*
X0080543Y0063533D01*
X0077857Y0062420D01*
X0076489Y0061053D02*
X0070969Y0061053D01*
X0072034Y0059454D02*
X0075424Y0059454D01*
X0074762Y0057856D02*
X0072696Y0057856D01*
X0072770Y0056257D02*
X0074688Y0056257D01*
X0074734Y0054659D02*
X0072724Y0054659D01*
X0072062Y0053060D02*
X0075397Y0053060D01*
X0076423Y0051462D02*
X0071035Y0051462D01*
X0069203Y0049863D02*
X0078255Y0049863D01*
X0085738Y0049863D02*
X0094533Y0049863D01*
X0094352Y0049968D02*
X0095204Y0049476D01*
X0096114Y0049099D01*
X0097064Y0048844D01*
X0097732Y0048756D01*
X0097732Y0055424D01*
X0099332Y0055424D01*
X0099332Y0048756D01*
X0100000Y0048844D01*
X0100951Y0049099D01*
X0101860Y0049476D01*
X0102713Y0049968D01*
X0103494Y0050567D01*
X0104190Y0051263D01*
X0104789Y0052044D01*
X0105281Y0052896D01*
X0105658Y0053806D01*
X0105912Y0054756D01*
X0106000Y0055424D01*
X0099332Y0055424D01*
X0099332Y0057024D01*
X0106000Y0057024D01*
X0105912Y0057692D01*
X0105658Y0058643D01*
X0105281Y0059553D01*
X0104789Y0060405D01*
X0104190Y0061186D01*
X0103494Y0061882D01*
X0102713Y0062481D01*
X0101860Y0062973D01*
X0100951Y0063350D01*
X0100000Y0063605D01*
X0099332Y0063693D01*
X0099332Y0057024D01*
X0097732Y0057024D01*
X0097732Y0055424D01*
X0091064Y0055424D01*
X0091152Y0054756D01*
X0091407Y0053806D01*
X0091784Y0052896D01*
X0092276Y0052044D01*
X0092875Y0051263D01*
X0093571Y0050567D01*
X0094352Y0049968D01*
X0092722Y0051462D02*
X0087570Y0051462D01*
X0088597Y0053060D02*
X0091716Y0053060D01*
X0091178Y0054659D02*
X0089259Y0054659D01*
X0089305Y0056257D02*
X0097732Y0056257D01*
X0097732Y0057024D02*
X0091064Y0057024D01*
X0091152Y0057692D01*
X0091407Y0058643D01*
X0091784Y0059553D01*
X0092276Y0060405D01*
X0092875Y0061186D01*
X0093571Y0061882D01*
X0094352Y0062481D01*
X0095204Y0062973D01*
X0096114Y0063350D01*
X0097064Y0063605D01*
X0097732Y0063693D01*
X0097732Y0057024D01*
X0097732Y0057856D02*
X0099332Y0057856D01*
X0099332Y0059454D02*
X0097732Y0059454D01*
X0097732Y0061053D02*
X0099332Y0061053D01*
X0099332Y0062652D02*
X0097732Y0062652D01*
X0094647Y0062652D02*
X0085579Y0062652D01*
X0087504Y0061053D02*
X0092773Y0061053D01*
X0091743Y0059454D02*
X0088570Y0059454D01*
X0089232Y0057856D02*
X0091196Y0057856D01*
X0097732Y0054659D02*
X0099332Y0054659D01*
X0099332Y0056257D02*
X0107759Y0056257D01*
X0107759Y0057678D02*
X0107759Y0054771D01*
X0108872Y0052084D01*
X0110928Y0050028D01*
X0113614Y0048916D01*
X0116521Y0048916D01*
X0119208Y0050028D01*
X0121264Y0052084D01*
X0122376Y0054771D01*
X0122376Y0057678D01*
X0121264Y0060364D01*
X0119208Y0062420D01*
X0116521Y0063533D01*
X0113614Y0063533D01*
X0110928Y0062420D01*
X0108872Y0060364D01*
X0107759Y0057678D01*
X0107833Y0057856D02*
X0105869Y0057856D01*
X0105322Y0059454D02*
X0108495Y0059454D01*
X0109560Y0061053D02*
X0104292Y0061053D01*
X0102418Y0062652D02*
X0111486Y0062652D01*
X0118650Y0062652D02*
X0127718Y0062652D01*
X0127423Y0062481D02*
X0128275Y0062973D01*
X0129184Y0063350D01*
X0130135Y0063605D01*
X0130803Y0063693D01*
X0130803Y0057024D01*
X0130803Y0055424D01*
X0132403Y0055424D01*
X0132403Y0048756D01*
X0133071Y0048844D01*
X0134022Y0049099D01*
X0134931Y0049476D01*
X0135784Y0049968D01*
X0136565Y0050567D01*
X0137261Y0051263D01*
X0137860Y0052044D01*
X0138352Y0052896D01*
X0138729Y0053806D01*
X0138983Y0054756D01*
X0139071Y0055424D01*
X0132403Y0055424D01*
X0132403Y0057024D01*
X0139071Y0057024D01*
X0138983Y0057692D01*
X0138729Y0058643D01*
X0138352Y0059553D01*
X0137860Y0060405D01*
X0137261Y0061186D01*
X0136565Y0061882D01*
X0135784Y0062481D01*
X0134931Y0062973D01*
X0134022Y0063350D01*
X0133071Y0063605D01*
X0132403Y0063693D01*
X0132403Y0057024D01*
X0130803Y0057024D01*
X0124135Y0057024D01*
X0124223Y0057692D01*
X0124478Y0058643D01*
X0124854Y0059553D01*
X0125347Y0060405D01*
X0125946Y0061186D01*
X0126642Y0061882D01*
X0127423Y0062481D01*
X0125844Y0061053D02*
X0120575Y0061053D01*
X0121641Y0059454D02*
X0124814Y0059454D01*
X0124267Y0057856D02*
X0122303Y0057856D01*
X0122376Y0056257D02*
X0130803Y0056257D01*
X0130803Y0055424D02*
X0124135Y0055424D01*
X0124223Y0054756D01*
X0124478Y0053806D01*
X0124854Y0052896D01*
X0125347Y0052044D01*
X0125946Y0051263D01*
X0126642Y0050567D01*
X0127423Y0049968D01*
X0128275Y0049476D01*
X0129184Y0049099D01*
X0130135Y0048844D01*
X0130803Y0048756D01*
X0130803Y0055424D01*
X0130803Y0054659D02*
X0132403Y0054659D01*
X0132403Y0056257D02*
X0140830Y0056257D01*
X0140876Y0054659D02*
X0138957Y0054659D01*
X0138420Y0053060D02*
X0141538Y0053060D01*
X0142565Y0051462D02*
X0137413Y0051462D01*
X0135603Y0049863D02*
X0144397Y0049863D01*
X0151880Y0049863D02*
X0160674Y0049863D01*
X0158864Y0051462D02*
X0153712Y0051462D01*
X0154739Y0053060D02*
X0157857Y0053060D01*
X0163874Y0053060D02*
X0165474Y0053060D01*
X0165474Y0051462D02*
X0163874Y0051462D01*
X0163874Y0049863D02*
X0165474Y0049863D01*
X0168674Y0049863D02*
X0177468Y0049863D01*
X0175636Y0051462D02*
X0170484Y0051462D01*
X0171491Y0053060D02*
X0174609Y0053060D01*
X0173947Y0054659D02*
X0172028Y0054659D01*
X0165474Y0057856D02*
X0163874Y0057856D01*
X0163874Y0059454D02*
X0165474Y0059454D01*
X0165474Y0061053D02*
X0163874Y0061053D01*
X0163874Y0062652D02*
X0165474Y0062652D01*
X0182844Y0070644D02*
X0196111Y0070644D01*
X0199379Y0070644D02*
X0310701Y0070644D01*
X0310701Y0053060D02*
X0287105Y0053060D01*
X0288796Y0051462D02*
X0310701Y0051462D01*
X0310701Y0049863D02*
X0289770Y0049863D01*
X0290299Y0048265D02*
X0310701Y0048265D01*
X0310701Y0037075D02*
X0202544Y0037075D01*
X0204892Y0035477D02*
X0310701Y0035477D01*
X0310701Y0033878D02*
X0206415Y0033878D01*
X0207338Y0032280D02*
X0310701Y0032280D01*
X0310701Y0030681D02*
X0207971Y0030681D01*
X0208400Y0029083D02*
X0310701Y0029083D01*
X0310701Y0027484D02*
X0208450Y0027484D01*
X0208400Y0025886D02*
X0310701Y0025886D01*
X0310701Y0024287D02*
X0207971Y0024287D01*
X0207338Y0022689D02*
X0310701Y0022689D01*
X0277600Y0040272D02*
X0276000Y0040272D01*
X0276000Y0041871D02*
X0277600Y0041871D01*
X0277600Y0043469D02*
X0276000Y0043469D01*
X0276000Y0048265D02*
X0277600Y0048265D01*
X0277600Y0049863D02*
X0276000Y0049863D01*
X0276000Y0051462D02*
X0277600Y0051462D01*
X0277600Y0053060D02*
X0276000Y0053060D01*
X0276800Y0062484D02*
X0271800Y0067484D01*
X0272583Y0094350D02*
X0264787Y0094350D01*
X0263616Y0095521D01*
X0263616Y0096125D01*
X0263375Y0095884D01*
X0261718Y0095884D01*
X0261656Y0095946D01*
X0259477Y0098125D01*
X0257236Y0095884D01*
X0255579Y0095884D01*
X0254408Y0097056D01*
X0254408Y0097660D01*
X0254167Y0097419D01*
X0254167Y0097419D01*
X0253548Y0096799D01*
X0252632Y0095884D01*
X0247906Y0095884D01*
X0245200Y0098590D01*
X0245200Y0100247D01*
X0246372Y0101419D01*
X0246976Y0101419D01*
X0246735Y0101660D01*
X0246735Y0101660D01*
X0246089Y0102305D01*
X0245200Y0103194D01*
X0245200Y0106386D01*
X0246115Y0107301D01*
X0246735Y0107921D01*
X0246735Y0107921D01*
X0246991Y0108177D01*
X0247906Y0109092D01*
X0252632Y0109092D01*
X0253804Y0107921D01*
X0254408Y0107317D01*
X0254408Y0107921D01*
X0255579Y0109092D01*
X0257236Y0109092D01*
X0258408Y0107921D01*
X0258408Y0102713D01*
X0258649Y0102954D01*
X0260306Y0102954D01*
X0260546Y0102713D01*
X0260546Y0107921D01*
X0261718Y0109092D01*
X0263375Y0109092D01*
X0264546Y0107921D01*
X0264546Y0098109D01*
X0264787Y0098350D01*
X0272583Y0098350D01*
X0272824Y0098109D01*
X0272824Y0107921D01*
X0273995Y0109092D01*
X0280256Y0109092D01*
X0281791Y0107557D01*
X0282031Y0107317D01*
X0282031Y0107921D01*
X0283203Y0109092D01*
X0284860Y0109092D01*
X0286031Y0107921D01*
X0286031Y0102713D01*
X0286272Y0102954D01*
X0287929Y0102954D01*
X0288170Y0102713D01*
X0288170Y0107921D01*
X0289342Y0109092D01*
X0290998Y0109092D01*
X0291705Y0108386D01*
X0292411Y0109092D01*
X0298672Y0109092D01*
X0300206Y0107557D01*
X0301378Y0106386D01*
X0301378Y0101660D01*
X0299904Y0100186D01*
X0301378Y0098713D01*
X0301378Y0097056D01*
X0300206Y0095884D01*
X0298549Y0095884D01*
X0295480Y0098954D01*
X0295239Y0098954D01*
X0295239Y0097056D01*
X0294068Y0095884D01*
X0292411Y0095884D01*
X0291705Y0096590D01*
X0290998Y0095884D01*
X0289342Y0095884D01*
X0289280Y0095946D01*
X0287101Y0098125D01*
X0284860Y0095884D01*
X0283203Y0095884D01*
X0282031Y0097056D01*
X0282031Y0100729D01*
X0281427Y0100125D01*
X0280256Y0098954D01*
X0276824Y0098954D01*
X0276824Y0097056D01*
X0275652Y0095884D01*
X0273995Y0095884D01*
X0273754Y0096125D01*
X0273754Y0095521D01*
X0272583Y0094350D01*
X0272855Y0094622D02*
X0310701Y0094622D01*
X0310701Y0096220D02*
X0300542Y0096220D01*
X0301378Y0097819D02*
X0310701Y0097819D01*
X0310701Y0099417D02*
X0300673Y0099417D01*
X0300734Y0101016D02*
X0310701Y0101016D01*
X0310701Y0102614D02*
X0301378Y0102614D01*
X0301378Y0104213D02*
X0310701Y0104213D01*
X0310701Y0105811D02*
X0301378Y0105811D01*
X0300354Y0107410D02*
X0310701Y0107410D01*
X0310701Y0109008D02*
X0298755Y0109008D01*
X0292327Y0109008D02*
X0291082Y0109008D01*
X0289258Y0109008D02*
X0284944Y0109008D01*
X0283119Y0109008D02*
X0280340Y0109008D01*
X0281938Y0107410D02*
X0282031Y0107410D01*
X0286031Y0107410D02*
X0288170Y0107410D01*
X0288170Y0105811D02*
X0286031Y0105811D01*
X0286031Y0104213D02*
X0288170Y0104213D01*
X0287407Y0097819D02*
X0286794Y0097819D01*
X0285196Y0096220D02*
X0289006Y0096220D01*
X0291334Y0096220D02*
X0292075Y0096220D01*
X0294404Y0096220D02*
X0298213Y0096220D01*
X0296615Y0097819D02*
X0295239Y0097819D01*
X0282867Y0096220D02*
X0275988Y0096220D01*
X0276824Y0097819D02*
X0282031Y0097819D01*
X0282031Y0099417D02*
X0280720Y0099417D01*
X0272824Y0099417D02*
X0264546Y0099417D01*
X0264546Y0101016D02*
X0272824Y0101016D01*
X0272824Y0102614D02*
X0264546Y0102614D01*
X0264546Y0104213D02*
X0272824Y0104213D01*
X0272824Y0105811D02*
X0264546Y0105811D01*
X0264546Y0107410D02*
X0272824Y0107410D01*
X0273911Y0109008D02*
X0263459Y0109008D01*
X0261634Y0109008D02*
X0257320Y0109008D01*
X0255496Y0109008D02*
X0252716Y0109008D01*
X0254315Y0107410D02*
X0254408Y0107410D01*
X0258408Y0107410D02*
X0260546Y0107410D01*
X0260546Y0105811D02*
X0258408Y0105811D01*
X0258408Y0104213D02*
X0260546Y0104213D01*
X0259784Y0097819D02*
X0259171Y0097819D01*
X0257572Y0096220D02*
X0261382Y0096220D01*
X0264515Y0094622D02*
X0184395Y0094622D01*
X0182797Y0096220D02*
X0247570Y0096220D01*
X0245972Y0097819D02*
X0181198Y0097819D01*
X0179600Y0099417D02*
X0245200Y0099417D01*
X0245968Y0101016D02*
X0178001Y0101016D01*
X0176403Y0102614D02*
X0245780Y0102614D01*
X0245200Y0104213D02*
X0174804Y0104213D01*
X0173206Y0105811D02*
X0245200Y0105811D01*
X0246224Y0107410D02*
X0200586Y0107410D01*
X0200290Y0109008D02*
X0247822Y0109008D01*
X0252968Y0096220D02*
X0255243Y0096220D01*
X0298195Y0128065D02*
X0299262Y0126997D01*
X0300375Y0125884D01*
X0303017Y0125884D01*
X0303831Y0126699D01*
X0304645Y0125884D01*
X0306219Y0125884D01*
X0308400Y0128065D01*
X0308400Y0131774D01*
X0308384Y0131790D01*
X0307566Y0132608D01*
X0308400Y0133443D01*
X0308400Y0135017D01*
X0307287Y0136130D01*
X0305197Y0136130D01*
X0305197Y0136600D01*
X0307287Y0136600D01*
X0308400Y0137713D01*
X0308400Y0139287D01*
X0308099Y0139588D01*
X0308400Y0139888D01*
X0308400Y0141462D01*
X0307287Y0142575D01*
X0305197Y0142575D01*
X0305197Y0143046D01*
X0307287Y0143046D01*
X0308400Y0144159D01*
X0308400Y0145733D01*
X0308099Y0146033D01*
X0308400Y0146334D01*
X0308400Y0147908D01*
X0307052Y0149256D01*
X0308376Y0150580D01*
X0308400Y0150604D01*
X0308400Y0152178D01*
X0308099Y0152479D01*
X0308400Y0152779D01*
X0308400Y0154353D01*
X0307287Y0155466D01*
X0306370Y0155466D01*
X0307075Y0155937D01*
X0307287Y0155937D01*
X0307710Y0156360D01*
X0308209Y0156692D01*
X0308250Y0156900D01*
X0308400Y0157050D01*
X0308400Y0157648D01*
X0308517Y0158236D01*
X0308400Y0158412D01*
X0308400Y0158624D01*
X0307977Y0159047D01*
X0307644Y0159545D01*
X0307437Y0159587D01*
X0307287Y0159737D01*
X0306688Y0159737D01*
X0306101Y0159854D01*
X0305925Y0159737D01*
X0304130Y0159737D01*
X0304130Y0160799D01*
X0303305Y0161623D01*
X0303831Y0162149D01*
X0304645Y0161334D01*
X0306219Y0161334D01*
X0308400Y0163515D01*
X0308400Y0167224D01*
X0308384Y0167240D01*
X0307332Y0168292D01*
X0307326Y0168299D01*
X0306219Y0169405D01*
X0303578Y0169405D01*
X0302763Y0168590D01*
X0301949Y0169405D01*
X0300375Y0169405D01*
X0298210Y0167240D01*
X0298195Y0167224D01*
X0298195Y0163515D01*
X0298730Y0162979D01*
X0298240Y0162979D01*
X0297127Y0161866D01*
X0297127Y0160292D01*
X0298240Y0159179D01*
X0298750Y0159179D01*
X0298195Y0158624D01*
X0298195Y0157050D01*
X0299308Y0155937D01*
X0300225Y0155937D01*
X0299519Y0155466D01*
X0299308Y0155466D01*
X0298884Y0155043D01*
X0298386Y0154711D01*
X0298344Y0154503D01*
X0298195Y0154353D01*
X0298195Y0153754D01*
X0298077Y0153167D01*
X0298195Y0152991D01*
X0298195Y0152779D01*
X0298495Y0152479D01*
X0298195Y0152178D01*
X0298195Y0150604D01*
X0299308Y0149491D01*
X0302465Y0149491D01*
X0302465Y0149021D01*
X0299308Y0149021D01*
X0298195Y0147908D01*
X0298195Y0146334D01*
X0299308Y0145221D01*
X0299818Y0145221D01*
X0298195Y0143597D01*
X0298195Y0142023D01*
X0299308Y0140910D01*
X0299818Y0140400D01*
X0299308Y0140400D01*
X0298195Y0139287D01*
X0298195Y0137713D01*
X0299308Y0136600D01*
X0301397Y0136600D01*
X0301397Y0136130D01*
X0299308Y0136130D01*
X0298195Y0135017D01*
X0298195Y0133443D01*
X0299029Y0132608D01*
X0298210Y0131790D01*
X0298195Y0131774D01*
X0298195Y0128065D01*
X0298195Y0128190D02*
X0150826Y0128190D01*
X0152425Y0126592D02*
X0299667Y0126592D01*
X0298195Y0129789D02*
X0149228Y0129789D01*
X0147629Y0131387D02*
X0298195Y0131387D01*
X0298651Y0132986D02*
X0146031Y0132986D01*
X0144432Y0134585D02*
X0298195Y0134585D01*
X0298195Y0137782D02*
X0264684Y0137782D01*
X0264683Y0137780D02*
X0265383Y0138289D01*
X0265995Y0138901D01*
X0266504Y0139602D01*
X0266897Y0140373D01*
X0267165Y0141196D01*
X0267300Y0142051D01*
X0267300Y0142284D01*
X0262000Y0142284D01*
X0262000Y0136984D01*
X0262233Y0136984D01*
X0263088Y0137120D01*
X0263911Y0137387D01*
X0264683Y0137780D01*
X0266343Y0139380D02*
X0298288Y0139380D01*
X0299239Y0140979D02*
X0267094Y0140979D01*
X0267300Y0142684D02*
X0262000Y0142684D01*
X0262000Y0142284D01*
X0261600Y0142284D01*
X0261600Y0136984D01*
X0261367Y0136984D01*
X0260512Y0137120D01*
X0259689Y0137387D01*
X0258917Y0137780D01*
X0258217Y0138289D01*
X0257605Y0138901D01*
X0257096Y0139602D01*
X0256800Y0140183D01*
X0256504Y0139602D01*
X0255995Y0138901D01*
X0255383Y0138289D01*
X0254683Y0137780D01*
X0253911Y0137387D01*
X0253088Y0137120D01*
X0252233Y0136984D01*
X0252000Y0136984D01*
X0252000Y0142284D01*
X0251600Y0142284D01*
X0251600Y0136984D01*
X0251367Y0136984D01*
X0250512Y0137120D01*
X0249689Y0137387D01*
X0248917Y0137780D01*
X0248217Y0138289D01*
X0247605Y0138901D01*
X0247096Y0139602D01*
X0246703Y0140373D01*
X0246435Y0141196D01*
X0246300Y0142051D01*
X0246300Y0142284D01*
X0251600Y0142284D01*
X0251600Y0142684D01*
X0246300Y0142684D01*
X0246300Y0142917D01*
X0246435Y0143772D01*
X0246703Y0144596D01*
X0247096Y0145367D01*
X0247605Y0146067D01*
X0248217Y0146679D01*
X0248917Y0147188D01*
X0249498Y0147484D01*
X0248917Y0147780D01*
X0248217Y0148289D01*
X0247605Y0148901D01*
X0247096Y0149602D01*
X0246703Y0150373D01*
X0246435Y0151196D01*
X0246300Y0152051D01*
X0246300Y0152284D01*
X0251600Y0152284D01*
X0252000Y0152284D01*
X0252000Y0142684D01*
X0261600Y0142684D01*
X0261600Y0142284D01*
X0256300Y0142284D01*
X0252000Y0142284D01*
X0252000Y0142684D01*
X0251600Y0142684D01*
X0251600Y0146984D01*
X0251600Y0152284D01*
X0251600Y0152684D01*
X0246300Y0152684D01*
X0246300Y0152917D01*
X0246435Y0153772D01*
X0246703Y0154596D01*
X0247096Y0155367D01*
X0247605Y0156067D01*
X0248217Y0156679D01*
X0248917Y0157188D01*
X0249498Y0157484D01*
X0248917Y0157780D01*
X0248217Y0158289D01*
X0247605Y0158901D01*
X0247096Y0159602D01*
X0246703Y0160373D01*
X0246435Y0161196D01*
X0246300Y0162051D01*
X0246300Y0162284D01*
X0251600Y0162284D01*
X0252000Y0162284D01*
X0252000Y0152684D01*
X0261600Y0152684D01*
X0261600Y0152284D01*
X0262000Y0152284D01*
X0262000Y0142684D01*
X0261600Y0142684D01*
X0261600Y0146984D01*
X0261600Y0152284D01*
X0256300Y0152284D01*
X0252000Y0152284D01*
X0252000Y0152684D01*
X0251600Y0152684D01*
X0251600Y0157984D01*
X0251600Y0162284D01*
X0251600Y0162684D01*
X0246300Y0162684D01*
X0246300Y0162917D01*
X0246435Y0163772D01*
X0246703Y0164596D01*
X0247096Y0165367D01*
X0247605Y0166067D01*
X0248217Y0166679D01*
X0248917Y0167188D01*
X0249498Y0167484D01*
X0248917Y0167780D01*
X0248217Y0168289D01*
X0247605Y0168901D01*
X0247096Y0169602D01*
X0246703Y0170373D01*
X0246435Y0171196D01*
X0246300Y0172051D01*
X0246300Y0172284D01*
X0251600Y0172284D01*
X0252000Y0172284D01*
X0252000Y0162684D01*
X0261600Y0162684D01*
X0261600Y0162284D01*
X0262000Y0162284D01*
X0262000Y0152684D01*
X0267300Y0152684D01*
X0267300Y0152917D01*
X0267165Y0153772D01*
X0266897Y0154596D01*
X0266504Y0155367D01*
X0265995Y0156067D01*
X0265383Y0156679D01*
X0264683Y0157188D01*
X0264102Y0157484D01*
X0264683Y0157780D01*
X0265383Y0158289D01*
X0265995Y0158901D01*
X0266504Y0159602D01*
X0266897Y0160373D01*
X0267165Y0161196D01*
X0267300Y0162051D01*
X0267300Y0162284D01*
X0262000Y0162284D01*
X0262000Y0162684D01*
X0267300Y0162684D01*
X0267300Y0162917D01*
X0267165Y0163772D01*
X0266897Y0164596D01*
X0266504Y0165367D01*
X0265995Y0166067D01*
X0265383Y0166679D01*
X0264683Y0167188D01*
X0264102Y0167484D01*
X0264683Y0167780D01*
X0265383Y0168289D01*
X0265995Y0168901D01*
X0266504Y0169602D01*
X0266897Y0170373D01*
X0267165Y0171196D01*
X0267300Y0172051D01*
X0267300Y0172284D01*
X0262000Y0172284D01*
X0262000Y0162684D01*
X0261600Y0162684D01*
X0261600Y0167984D01*
X0261600Y0172284D01*
X0262000Y0172284D01*
X0262000Y0172684D01*
X0267300Y0172684D01*
X0267300Y0172917D01*
X0267165Y0173772D01*
X0266897Y0174596D01*
X0266504Y0175367D01*
X0265995Y0176067D01*
X0265383Y0176679D01*
X0264683Y0177188D01*
X0264102Y0177484D01*
X0264683Y0177780D01*
X0265383Y0178289D01*
X0265995Y0178901D01*
X0266504Y0179602D01*
X0266897Y0180373D01*
X0267165Y0181196D01*
X0267300Y0182051D01*
X0267300Y0182284D01*
X0262000Y0182284D01*
X0262000Y0172684D01*
X0261600Y0172684D01*
X0261600Y0172284D01*
X0256300Y0172284D01*
X0252000Y0172284D01*
X0252000Y0172684D01*
X0261600Y0172684D01*
X0261600Y0177984D01*
X0261600Y0182284D01*
X0262000Y0182284D01*
X0262000Y0182684D01*
X0267300Y0182684D01*
X0267300Y0182917D01*
X0267165Y0183772D01*
X0266897Y0184596D01*
X0266504Y0185367D01*
X0265995Y0186067D01*
X0265383Y0186679D01*
X0264683Y0187188D01*
X0264102Y0187484D01*
X0264683Y0187780D01*
X0265383Y0188289D01*
X0265995Y0188901D01*
X0266504Y0189602D01*
X0266897Y0190373D01*
X0267165Y0191196D01*
X0267300Y0192051D01*
X0267300Y0192284D01*
X0262000Y0192284D01*
X0262000Y0182684D01*
X0261600Y0182684D01*
X0261600Y0182284D01*
X0257300Y0182284D01*
X0252000Y0182284D01*
X0252000Y0172684D01*
X0251600Y0172684D01*
X0251600Y0172284D01*
X0251600Y0167984D01*
X0251600Y0162684D01*
X0252000Y0162684D01*
X0252000Y0162284D01*
X0256300Y0162284D01*
X0261600Y0162284D01*
X0261600Y0157984D01*
X0261600Y0152684D01*
X0262000Y0152684D01*
X0262000Y0152284D01*
X0267300Y0152284D01*
X0267300Y0152051D01*
X0267165Y0151196D01*
X0266897Y0150373D01*
X0266504Y0149602D01*
X0265995Y0148901D01*
X0265383Y0148289D01*
X0264683Y0147780D01*
X0264102Y0147484D01*
X0264683Y0147188D01*
X0265383Y0146679D01*
X0265995Y0146067D01*
X0266504Y0145367D01*
X0266897Y0144596D01*
X0267165Y0143772D01*
X0267300Y0142917D01*
X0267300Y0142684D01*
X0267033Y0144176D02*
X0298773Y0144176D01*
X0298754Y0145774D02*
X0266208Y0145774D01*
X0264321Y0147373D02*
X0298195Y0147373D01*
X0299258Y0148971D02*
X0266046Y0148971D01*
X0266961Y0150570D02*
X0298229Y0150570D01*
X0298195Y0152168D02*
X0267300Y0152168D01*
X0267165Y0153767D02*
X0298195Y0153767D01*
X0299206Y0155365D02*
X0266505Y0155365D01*
X0264992Y0156964D02*
X0298280Y0156964D01*
X0298195Y0158562D02*
X0265656Y0158562D01*
X0266789Y0160161D02*
X0297259Y0160161D01*
X0297127Y0161759D02*
X0267254Y0161759D01*
X0267230Y0163358D02*
X0298352Y0163358D01*
X0298195Y0164956D02*
X0266713Y0164956D01*
X0265508Y0166555D02*
X0298195Y0166555D01*
X0299124Y0168153D02*
X0265196Y0168153D01*
X0266581Y0169752D02*
X0310701Y0169752D01*
X0310701Y0171350D02*
X0267189Y0171350D01*
X0267295Y0172949D02*
X0310701Y0172949D01*
X0310701Y0174547D02*
X0307609Y0174547D01*
X0307287Y0174225D02*
X0308400Y0175338D01*
X0308400Y0176912D01*
X0307287Y0178025D01*
X0305197Y0178025D01*
X0305197Y0178496D01*
X0307287Y0178496D01*
X0308400Y0179609D01*
X0308400Y0181183D01*
X0307287Y0182296D01*
X0301995Y0182296D01*
X0301995Y0182806D01*
X0307287Y0182806D01*
X0308400Y0183919D01*
X0308400Y0185493D01*
X0307287Y0186606D01*
X0301995Y0186606D01*
X0301995Y0187628D01*
X0301772Y0187851D01*
X0303297Y0188868D01*
X0306101Y0186999D01*
X0307644Y0187308D01*
X0308517Y0188617D01*
X0308209Y0190161D01*
X0306723Y0191152D01*
X0308209Y0192142D01*
X0308517Y0193686D01*
X0307644Y0194996D01*
X0306101Y0195304D01*
X0303297Y0193435D01*
X0300494Y0195304D01*
X0298950Y0194996D01*
X0298077Y0193686D01*
X0298386Y0192142D01*
X0299872Y0191152D01*
X0298386Y0190161D01*
X0298077Y0188617D01*
X0298520Y0187953D01*
X0298195Y0187628D01*
X0298195Y0181784D01*
X0299308Y0180671D01*
X0299818Y0180671D01*
X0298195Y0179048D01*
X0298195Y0177474D01*
X0299308Y0176361D01*
X0301443Y0174225D01*
X0307287Y0174225D01*
X0308400Y0176146D02*
X0310701Y0176146D01*
X0310701Y0177744D02*
X0307568Y0177744D01*
X0308134Y0179343D02*
X0310701Y0179343D01*
X0310701Y0180941D02*
X0308400Y0180941D01*
X0310701Y0182540D02*
X0301995Y0182540D01*
X0299037Y0180941D02*
X0267082Y0180941D01*
X0266316Y0179343D02*
X0298490Y0179343D01*
X0298195Y0177744D02*
X0264612Y0177744D01*
X0265917Y0176146D02*
X0299522Y0176146D01*
X0301121Y0174547D02*
X0266913Y0174547D01*
X0262000Y0174547D02*
X0261600Y0174547D01*
X0261600Y0172949D02*
X0262000Y0172949D01*
X0262000Y0171350D02*
X0261600Y0171350D01*
X0261600Y0169752D02*
X0262000Y0169752D01*
X0262000Y0168153D02*
X0261600Y0168153D01*
X0261600Y0166555D02*
X0262000Y0166555D01*
X0262000Y0164956D02*
X0261600Y0164956D01*
X0261600Y0163358D02*
X0262000Y0163358D01*
X0262000Y0161759D02*
X0261600Y0161759D01*
X0261600Y0160161D02*
X0262000Y0160161D01*
X0262000Y0158562D02*
X0261600Y0158562D01*
X0261600Y0156964D02*
X0262000Y0156964D01*
X0262000Y0155365D02*
X0261600Y0155365D01*
X0261600Y0153767D02*
X0262000Y0153767D01*
X0262000Y0152168D02*
X0261600Y0152168D01*
X0261600Y0150570D02*
X0262000Y0150570D01*
X0262000Y0148971D02*
X0261600Y0148971D01*
X0261600Y0147373D02*
X0262000Y0147373D01*
X0262000Y0145774D02*
X0261600Y0145774D01*
X0261600Y0144176D02*
X0262000Y0144176D01*
X0262000Y0142577D02*
X0298195Y0142577D01*
X0305197Y0142577D02*
X0310701Y0142577D01*
X0310701Y0140979D02*
X0308400Y0140979D01*
X0308307Y0139380D02*
X0310701Y0139380D01*
X0310701Y0137782D02*
X0308400Y0137782D01*
X0310701Y0136183D02*
X0305197Y0136183D01*
X0308400Y0134585D02*
X0310701Y0134585D01*
X0310701Y0132986D02*
X0307943Y0132986D01*
X0308400Y0131387D02*
X0310701Y0131387D01*
X0310701Y0129789D02*
X0308400Y0129789D01*
X0308400Y0128190D02*
X0310701Y0128190D01*
X0310701Y0126592D02*
X0306927Y0126592D01*
X0303938Y0126592D02*
X0303724Y0126592D01*
X0310701Y0124993D02*
X0154023Y0124993D01*
X0155622Y0123395D02*
X0310701Y0123395D01*
X0310701Y0121796D02*
X0157221Y0121796D01*
X0158819Y0120198D02*
X0310701Y0120198D01*
X0310701Y0118599D02*
X0198372Y0118599D01*
X0199971Y0117001D02*
X0310701Y0117001D01*
X0310701Y0115402D02*
X0200586Y0115402D01*
X0200586Y0113804D02*
X0310701Y0113804D01*
X0310701Y0112205D02*
X0200586Y0112205D01*
X0199533Y0110607D02*
X0310701Y0110607D01*
X0310701Y0093023D02*
X0185994Y0093023D01*
X0187592Y0091425D02*
X0310701Y0091425D01*
X0310701Y0089826D02*
X0189191Y0089826D01*
X0190789Y0088228D02*
X0310701Y0088228D01*
X0301397Y0136183D02*
X0142834Y0136183D01*
X0141235Y0137782D02*
X0194304Y0137782D01*
X0193798Y0137991D02*
X0195746Y0137184D01*
X0197854Y0137184D01*
X0199802Y0137991D01*
X0201293Y0139482D01*
X0202100Y0141430D01*
X0202100Y0143538D01*
X0201293Y0145486D01*
X0199802Y0146977D01*
X0198578Y0147484D01*
X0199802Y0147991D01*
X0201293Y0149482D01*
X0202100Y0151430D01*
X0202100Y0153538D01*
X0201293Y0155486D01*
X0199802Y0156977D01*
X0198578Y0157484D01*
X0199802Y0157991D01*
X0201293Y0159482D01*
X0202100Y0161430D01*
X0202100Y0163538D01*
X0201293Y0165486D01*
X0199802Y0166977D01*
X0198578Y0167484D01*
X0199802Y0167991D01*
X0201293Y0169482D01*
X0202100Y0171430D01*
X0202100Y0173538D01*
X0201293Y0175486D01*
X0199802Y0176977D01*
X0198578Y0177484D01*
X0199802Y0177991D01*
X0201293Y0179482D01*
X0202100Y0181430D01*
X0202100Y0183538D01*
X0201293Y0185486D01*
X0199802Y0186977D01*
X0198578Y0187484D01*
X0199802Y0187991D01*
X0201293Y0189482D01*
X0202100Y0191430D01*
X0202100Y0193538D01*
X0201293Y0195486D01*
X0199802Y0196977D01*
X0198578Y0197484D01*
X0199802Y0197991D01*
X0201293Y0199482D01*
X0202100Y0201430D01*
X0202100Y0203538D01*
X0201293Y0205486D01*
X0199802Y0206977D01*
X0198578Y0207484D01*
X0199802Y0207991D01*
X0201293Y0209482D01*
X0202100Y0211430D01*
X0202100Y0213538D01*
X0201293Y0215486D01*
X0199802Y0216977D01*
X0198578Y0217484D01*
X0199802Y0217991D01*
X0201293Y0219482D01*
X0202100Y0221430D01*
X0202100Y0223538D01*
X0201293Y0225486D01*
X0199802Y0226977D01*
X0198578Y0227484D01*
X0199802Y0227991D01*
X0201293Y0229482D01*
X0202100Y0231430D01*
X0202100Y0233538D01*
X0201293Y0235486D01*
X0199802Y0236977D01*
X0197854Y0237784D01*
X0195746Y0237784D01*
X0193798Y0236977D01*
X0192307Y0235486D01*
X0191500Y0233538D01*
X0191500Y0231430D01*
X0192307Y0229482D01*
X0193798Y0227991D01*
X0195022Y0227484D01*
X0193798Y0226977D01*
X0192307Y0225486D01*
X0191500Y0223538D01*
X0191500Y0221430D01*
X0192307Y0219482D01*
X0193798Y0217991D01*
X0195022Y0217484D01*
X0193798Y0216977D01*
X0192307Y0215486D01*
X0191500Y0213538D01*
X0191500Y0211430D01*
X0192307Y0209482D01*
X0193798Y0207991D01*
X0195022Y0207484D01*
X0193798Y0206977D01*
X0192307Y0205486D01*
X0191500Y0203538D01*
X0191500Y0201430D01*
X0192307Y0199482D01*
X0193798Y0197991D01*
X0195022Y0197484D01*
X0193798Y0196977D01*
X0192307Y0195486D01*
X0191500Y0193538D01*
X0191500Y0191430D01*
X0192307Y0189482D01*
X0193798Y0187991D01*
X0195022Y0187484D01*
X0193798Y0186977D01*
X0192307Y0185486D01*
X0191500Y0183538D01*
X0191500Y0181430D01*
X0192307Y0179482D01*
X0193798Y0177991D01*
X0195022Y0177484D01*
X0193798Y0176977D01*
X0192307Y0175486D01*
X0191500Y0173538D01*
X0191500Y0171430D01*
X0192307Y0169482D01*
X0193798Y0167991D01*
X0195022Y0167484D01*
X0193798Y0166977D01*
X0192307Y0165486D01*
X0191500Y0163538D01*
X0191500Y0161430D01*
X0192307Y0159482D01*
X0193798Y0157991D01*
X0195022Y0157484D01*
X0193798Y0156977D01*
X0192307Y0155486D01*
X0191500Y0153538D01*
X0191500Y0151430D01*
X0192307Y0149482D01*
X0193798Y0147991D01*
X0195022Y0147484D01*
X0193798Y0146977D01*
X0192307Y0145486D01*
X0191500Y0143538D01*
X0191500Y0141430D01*
X0192307Y0139482D01*
X0193798Y0137991D01*
X0192409Y0139380D02*
X0141191Y0139380D01*
X0141913Y0140979D02*
X0191687Y0140979D01*
X0191500Y0142577D02*
X0142100Y0142577D01*
X0141836Y0144176D02*
X0191764Y0144176D01*
X0192595Y0145774D02*
X0141005Y0145774D01*
X0138848Y0147373D02*
X0194752Y0147373D01*
X0192818Y0148971D02*
X0140782Y0148971D01*
X0141744Y0150570D02*
X0191856Y0150570D01*
X0191500Y0152168D02*
X0142100Y0152168D01*
X0142005Y0153767D02*
X0191595Y0153767D01*
X0192257Y0155365D02*
X0141343Y0155365D01*
X0139816Y0156964D02*
X0193784Y0156964D01*
X0193227Y0158562D02*
X0140373Y0158562D01*
X0141574Y0160161D02*
X0192026Y0160161D01*
X0191500Y0161759D02*
X0142100Y0161759D01*
X0142100Y0163358D02*
X0191500Y0163358D01*
X0192087Y0164956D02*
X0141513Y0164956D01*
X0140225Y0166555D02*
X0193375Y0166555D01*
X0193636Y0168153D02*
X0139964Y0168153D01*
X0141405Y0169752D02*
X0192195Y0169752D01*
X0191533Y0171350D02*
X0142067Y0171350D01*
X0142100Y0172949D02*
X0191500Y0172949D01*
X0191918Y0174547D02*
X0141682Y0174547D01*
X0140634Y0176146D02*
X0152637Y0176146D01*
X0152898Y0175884D02*
X0154555Y0175884D01*
X0155727Y0177056D01*
X0155727Y0178713D01*
X0154192Y0180247D01*
X0154192Y0181660D01*
X0154494Y0181962D01*
X0154796Y0181660D01*
X0154796Y0180125D01*
X0155968Y0178954D01*
X0157624Y0178954D01*
X0158796Y0180125D01*
X0158796Y0181660D01*
X0159098Y0181962D01*
X0159400Y0181660D01*
X0159400Y0180247D01*
X0157865Y0178713D01*
X0157865Y0177056D01*
X0159037Y0175884D01*
X0160694Y0175884D01*
X0163400Y0178590D01*
X0163400Y0183317D01*
X0162485Y0184232D01*
X0161865Y0184851D01*
X0161865Y0184851D01*
X0161624Y0185092D01*
X0162228Y0185092D01*
X0163400Y0186264D01*
X0163400Y0189455D01*
X0162228Y0190627D01*
X0161624Y0190627D01*
X0163400Y0192402D01*
X0163400Y0197128D01*
X0162485Y0198044D01*
X0161865Y0198663D01*
X0161138Y0199391D01*
X0160694Y0199835D01*
X0160090Y0199835D01*
X0162228Y0201973D01*
X0163400Y0203145D01*
X0163400Y0204802D01*
X0160331Y0207871D01*
X0159159Y0209042D01*
X0151364Y0209042D01*
X0150192Y0207871D01*
X0150192Y0206214D01*
X0151364Y0205042D01*
X0157502Y0205042D01*
X0158572Y0203973D01*
X0157502Y0202904D01*
X0151364Y0202904D01*
X0150192Y0201732D01*
X0150192Y0200075D01*
X0151364Y0198904D01*
X0151968Y0198904D01*
X0151727Y0198663D01*
X0150192Y0197128D01*
X0150192Y0192402D01*
X0151081Y0191513D01*
X0151364Y0191231D01*
X0152898Y0189696D01*
X0154555Y0189696D01*
X0155727Y0190868D01*
X0155727Y0192524D01*
X0154192Y0194059D01*
X0154192Y0195472D01*
X0154494Y0195774D01*
X0154796Y0195472D01*
X0154796Y0193937D01*
X0155968Y0192765D01*
X0157624Y0192765D01*
X0158796Y0193937D01*
X0158796Y0195472D01*
X0159098Y0195774D01*
X0159400Y0195472D01*
X0159400Y0194059D01*
X0157865Y0192524D01*
X0157865Y0190868D01*
X0158572Y0190161D01*
X0157865Y0189455D01*
X0157865Y0186264D01*
X0158106Y0186023D01*
X0157502Y0186023D01*
X0156796Y0185317D01*
X0156090Y0186023D01*
X0152898Y0186023D01*
X0151727Y0184851D01*
X0150192Y0183317D01*
X0150192Y0178590D01*
X0150192Y0178590D01*
X0151081Y0177701D01*
X0151364Y0177419D01*
X0152898Y0175884D01*
X0154817Y0176146D02*
X0158775Y0176146D01*
X0157865Y0177744D02*
X0155727Y0177744D01*
X0155578Y0179343D02*
X0155097Y0179343D01*
X0154796Y0180941D02*
X0154192Y0180941D01*
X0150192Y0180941D02*
X0141898Y0180941D01*
X0142100Y0182540D02*
X0150192Y0182540D01*
X0151014Y0184138D02*
X0141852Y0184138D01*
X0141043Y0185737D02*
X0152612Y0185737D01*
X0156376Y0185737D02*
X0157216Y0185737D01*
X0157865Y0187335D02*
X0138938Y0187335D01*
X0140745Y0188934D02*
X0157865Y0188934D01*
X0158201Y0190532D02*
X0155392Y0190532D01*
X0155727Y0192131D02*
X0157865Y0192131D01*
X0158589Y0193729D02*
X0159070Y0193729D01*
X0158796Y0195328D02*
X0159400Y0195328D01*
X0163400Y0195328D02*
X0192241Y0195328D01*
X0191579Y0193729D02*
X0163400Y0193729D01*
X0163129Y0192131D02*
X0191500Y0192131D01*
X0191872Y0190532D02*
X0162323Y0190532D01*
X0163400Y0188934D02*
X0192855Y0188934D01*
X0194662Y0187335D02*
X0163400Y0187335D01*
X0162873Y0185737D02*
X0192557Y0185737D01*
X0191748Y0184138D02*
X0162578Y0184138D01*
X0163400Y0182540D02*
X0191500Y0182540D01*
X0191702Y0180941D02*
X0163400Y0180941D01*
X0163400Y0179343D02*
X0192446Y0179343D01*
X0194394Y0177744D02*
X0162554Y0177744D01*
X0160955Y0176146D02*
X0192966Y0176146D01*
X0199206Y0177744D02*
X0248988Y0177744D01*
X0248917Y0177780D02*
X0249498Y0177484D01*
X0248917Y0177188D01*
X0248217Y0176679D01*
X0247605Y0176067D01*
X0247096Y0175367D01*
X0246703Y0174596D01*
X0246435Y0173772D01*
X0246300Y0172917D01*
X0246300Y0172684D01*
X0251600Y0172684D01*
X0251600Y0176984D01*
X0251600Y0182284D01*
X0252000Y0182284D01*
X0252000Y0182684D01*
X0261600Y0182684D01*
X0261600Y0186984D01*
X0261600Y0192284D01*
X0262000Y0192284D01*
X0262000Y0192684D01*
X0267300Y0192684D01*
X0267300Y0192917D01*
X0267165Y0193772D01*
X0266897Y0194596D01*
X0266504Y0195367D01*
X0265995Y0196067D01*
X0265383Y0196679D01*
X0264683Y0197188D01*
X0264102Y0197484D01*
X0264683Y0197780D01*
X0265383Y0198289D01*
X0265995Y0198901D01*
X0266504Y0199602D01*
X0266897Y0200373D01*
X0267165Y0201196D01*
X0267300Y0202051D01*
X0267300Y0202284D01*
X0262000Y0202284D01*
X0262000Y0192684D01*
X0261600Y0192684D01*
X0261600Y0192284D01*
X0256300Y0192284D01*
X0252000Y0192284D01*
X0252000Y0182684D01*
X0251600Y0182684D01*
X0251600Y0182284D01*
X0246300Y0182284D01*
X0246300Y0182051D01*
X0246435Y0181196D01*
X0246703Y0180373D01*
X0247096Y0179602D01*
X0247605Y0178901D01*
X0248217Y0178289D01*
X0248917Y0177780D01*
X0247683Y0176146D02*
X0200634Y0176146D01*
X0201682Y0174547D02*
X0246687Y0174547D01*
X0246305Y0172949D02*
X0202100Y0172949D01*
X0202067Y0171350D02*
X0246411Y0171350D01*
X0247019Y0169752D02*
X0201405Y0169752D01*
X0199964Y0168153D02*
X0248404Y0168153D01*
X0248092Y0166555D02*
X0200225Y0166555D01*
X0201513Y0164956D02*
X0246887Y0164956D01*
X0246370Y0163358D02*
X0202100Y0163358D01*
X0202100Y0161759D02*
X0246346Y0161759D01*
X0246811Y0160161D02*
X0201574Y0160161D01*
X0200373Y0158562D02*
X0247944Y0158562D01*
X0248608Y0156964D02*
X0199816Y0156964D01*
X0201343Y0155365D02*
X0247095Y0155365D01*
X0246435Y0153767D02*
X0202005Y0153767D01*
X0202100Y0152168D02*
X0246300Y0152168D01*
X0246639Y0150570D02*
X0201744Y0150570D01*
X0200782Y0148971D02*
X0247554Y0148971D01*
X0249279Y0147373D02*
X0198848Y0147373D01*
X0201005Y0145774D02*
X0247392Y0145774D01*
X0246567Y0144176D02*
X0201836Y0144176D01*
X0202100Y0142577D02*
X0251600Y0142577D01*
X0252000Y0142577D02*
X0261600Y0142577D01*
X0261600Y0140979D02*
X0262000Y0140979D01*
X0262000Y0139380D02*
X0261600Y0139380D01*
X0261600Y0137782D02*
X0262000Y0137782D01*
X0258916Y0137782D02*
X0254684Y0137782D01*
X0256343Y0139380D02*
X0257257Y0139380D01*
X0252000Y0139380D02*
X0251600Y0139380D01*
X0251600Y0137782D02*
X0252000Y0137782D01*
X0248916Y0137782D02*
X0199296Y0137782D01*
X0201191Y0139380D02*
X0247257Y0139380D01*
X0246506Y0140979D02*
X0201913Y0140979D01*
X0191126Y0118599D02*
X0190699Y0118599D01*
X0188057Y0118599D02*
X0184560Y0118599D01*
X0185239Y0117001D02*
X0187378Y0117001D01*
X0187378Y0115402D02*
X0185239Y0115402D01*
X0185239Y0113804D02*
X0187378Y0113804D01*
X0181239Y0110607D02*
X0181117Y0110607D01*
X0181239Y0109008D02*
X0179519Y0109008D01*
X0181239Y0107410D02*
X0176031Y0107410D01*
X0172031Y0109008D02*
X0170009Y0109008D01*
X0168410Y0110607D02*
X0172031Y0110607D01*
X0172031Y0112205D02*
X0166812Y0112205D01*
X0165213Y0113804D02*
X0172031Y0113804D01*
X0172031Y0115402D02*
X0163754Y0115402D01*
X0163139Y0117001D02*
X0172031Y0117001D01*
X0172710Y0118599D02*
X0161541Y0118599D01*
X0160079Y0105811D02*
X0126200Y0105811D01*
X0126200Y0105662D02*
X0126200Y0107484D01*
X0121800Y0107484D01*
X0121800Y0103084D01*
X0123623Y0103084D01*
X0126200Y0105662D01*
X0126200Y0107410D02*
X0135200Y0107410D01*
X0135200Y0109008D02*
X0126200Y0109008D01*
X0126200Y0109307D02*
X0123623Y0111884D01*
X0121800Y0111884D01*
X0119977Y0111884D01*
X0117400Y0109307D01*
X0117400Y0107484D01*
X0117400Y0105662D01*
X0119977Y0103084D01*
X0121800Y0103084D01*
X0121800Y0107484D01*
X0121800Y0107484D01*
X0121800Y0107484D01*
X0117400Y0107484D01*
X0121800Y0107484D01*
X0121800Y0107484D01*
X0126200Y0107484D01*
X0126200Y0109307D01*
X0124900Y0110607D02*
X0135200Y0110607D01*
X0135200Y0112205D02*
X0064252Y0112205D01*
X0064802Y0111977D02*
X0062854Y0112784D01*
X0060746Y0112784D01*
X0058798Y0111977D01*
X0057307Y0110486D01*
X0056500Y0108538D01*
X0056500Y0106430D01*
X0057307Y0104482D01*
X0058798Y0102991D01*
X0060746Y0102184D01*
X0062854Y0102184D01*
X0064802Y0102991D01*
X0066293Y0104482D01*
X0066543Y0105084D01*
X0108260Y0105084D01*
X0110060Y0103284D01*
X0113540Y0103284D01*
X0116000Y0105745D01*
X0116000Y0109224D01*
X0113540Y0111684D01*
X0110060Y0111684D01*
X0108260Y0109884D01*
X0066543Y0109884D01*
X0066293Y0110486D01*
X0064802Y0111977D01*
X0066173Y0110607D02*
X0108983Y0110607D01*
X0114617Y0110607D02*
X0118700Y0110607D01*
X0117400Y0109008D02*
X0116000Y0109008D01*
X0116000Y0107410D02*
X0117400Y0107410D01*
X0117400Y0105811D02*
X0116000Y0105811D01*
X0114468Y0104213D02*
X0118849Y0104213D01*
X0121800Y0104213D02*
X0121800Y0104213D01*
X0121800Y0105811D02*
X0121800Y0105811D01*
X0121800Y0107410D02*
X0121800Y0107410D01*
X0121800Y0107484D02*
X0121800Y0111884D01*
X0121800Y0107484D01*
X0121800Y0107484D01*
X0121800Y0109008D02*
X0121800Y0109008D01*
X0121800Y0110607D02*
X0121800Y0110607D01*
X0124751Y0104213D02*
X0161677Y0104213D01*
X0163276Y0102614D02*
X0063892Y0102614D01*
X0066024Y0104213D02*
X0109132Y0104213D01*
X0111800Y0107484D02*
X0061800Y0107484D01*
X0059708Y0102614D02*
X0034200Y0102614D01*
X0034200Y0101016D02*
X0164874Y0101016D01*
X0166473Y0099417D02*
X0034200Y0099417D01*
X0034200Y0097819D02*
X0168071Y0097819D01*
X0169670Y0096220D02*
X0034200Y0096220D01*
X0034200Y0094622D02*
X0171268Y0094622D01*
X0172867Y0093023D02*
X0034200Y0093023D01*
X0034200Y0091425D02*
X0174465Y0091425D01*
X0176064Y0089826D02*
X0034200Y0089826D01*
X0034200Y0088228D02*
X0177662Y0088228D01*
X0181800Y0087484D02*
X0181800Y0078469D01*
X0181209Y0077878D01*
X0174275Y0080235D02*
X0171816Y0080235D01*
X0171060Y0081834D02*
X0174937Y0081834D01*
X0176428Y0083432D02*
X0169739Y0083432D01*
X0181800Y0087484D02*
X0141800Y0127484D01*
X0051800Y0127484D01*
X0036800Y0142484D01*
X0016800Y0142484D01*
X0021005Y0145774D02*
X0072595Y0145774D01*
X0072307Y0145486D02*
X0071500Y0143538D01*
X0071500Y0141430D01*
X0072307Y0139482D01*
X0073798Y0137991D01*
X0075746Y0137184D01*
X0077854Y0137184D01*
X0079802Y0137991D01*
X0081293Y0139482D01*
X0082100Y0141430D01*
X0082100Y0143538D01*
X0081293Y0145486D01*
X0079802Y0146977D01*
X0078578Y0147484D01*
X0079802Y0147991D01*
X0081293Y0149482D01*
X0082100Y0151430D01*
X0082100Y0153538D01*
X0081293Y0155486D01*
X0079802Y0156977D01*
X0078578Y0157484D01*
X0079802Y0157991D01*
X0081293Y0159482D01*
X0082100Y0161430D01*
X0082100Y0163538D01*
X0081293Y0165486D01*
X0079802Y0166977D01*
X0078578Y0167484D01*
X0079802Y0167991D01*
X0081293Y0169482D01*
X0082100Y0171430D01*
X0082100Y0173538D01*
X0081293Y0175486D01*
X0079802Y0176977D01*
X0078578Y0177484D01*
X0079802Y0177991D01*
X0081293Y0179482D01*
X0082100Y0181430D01*
X0082100Y0183538D01*
X0081293Y0185486D01*
X0079802Y0186977D01*
X0078578Y0187484D01*
X0079802Y0187991D01*
X0081293Y0189482D01*
X0082100Y0191430D01*
X0082100Y0193538D01*
X0081293Y0195486D01*
X0079802Y0196977D01*
X0078578Y0197484D01*
X0079802Y0197991D01*
X0081293Y0199482D01*
X0082100Y0201430D01*
X0082100Y0203538D01*
X0081293Y0205486D01*
X0079802Y0206977D01*
X0078578Y0207484D01*
X0079802Y0207991D01*
X0081293Y0209482D01*
X0082100Y0211430D01*
X0082100Y0213538D01*
X0081293Y0215486D01*
X0079802Y0216977D01*
X0078578Y0217484D01*
X0079802Y0217991D01*
X0081293Y0219482D01*
X0082100Y0221430D01*
X0082100Y0223538D01*
X0081293Y0225486D01*
X0079802Y0226977D01*
X0078578Y0227484D01*
X0079802Y0227991D01*
X0081293Y0229482D01*
X0082100Y0231430D01*
X0082100Y0233538D01*
X0081293Y0235486D01*
X0079802Y0236977D01*
X0077854Y0237784D01*
X0075746Y0237784D01*
X0073798Y0236977D01*
X0072307Y0235486D01*
X0071500Y0233538D01*
X0071500Y0231430D01*
X0072307Y0229482D01*
X0073798Y0227991D01*
X0075022Y0227484D01*
X0073798Y0226977D01*
X0072307Y0225486D01*
X0071500Y0223538D01*
X0071500Y0221430D01*
X0072307Y0219482D01*
X0073798Y0217991D01*
X0075022Y0217484D01*
X0073798Y0216977D01*
X0072307Y0215486D01*
X0071500Y0213538D01*
X0071500Y0211430D01*
X0072307Y0209482D01*
X0073798Y0207991D01*
X0075022Y0207484D01*
X0073798Y0206977D01*
X0072307Y0205486D01*
X0071500Y0203538D01*
X0071500Y0201430D01*
X0072307Y0199482D01*
X0073798Y0197991D01*
X0075022Y0197484D01*
X0073798Y0196977D01*
X0072307Y0195486D01*
X0071500Y0193538D01*
X0071500Y0191430D01*
X0072307Y0189482D01*
X0073798Y0187991D01*
X0075022Y0187484D01*
X0073798Y0186977D01*
X0072307Y0185486D01*
X0071500Y0183538D01*
X0071500Y0181430D01*
X0072307Y0179482D01*
X0073798Y0177991D01*
X0075022Y0177484D01*
X0073798Y0176977D01*
X0072307Y0175486D01*
X0071500Y0173538D01*
X0071500Y0171430D01*
X0072307Y0169482D01*
X0073798Y0167991D01*
X0075022Y0167484D01*
X0073798Y0166977D01*
X0072307Y0165486D01*
X0071500Y0163538D01*
X0071500Y0161430D01*
X0072307Y0159482D01*
X0073798Y0157991D01*
X0075022Y0157484D01*
X0073798Y0156977D01*
X0072307Y0155486D01*
X0071500Y0153538D01*
X0071500Y0151430D01*
X0072307Y0149482D01*
X0073798Y0147991D01*
X0075022Y0147484D01*
X0073798Y0146977D01*
X0072307Y0145486D01*
X0071764Y0144176D02*
X0038503Y0144176D01*
X0040101Y0142577D02*
X0071500Y0142577D01*
X0071687Y0140979D02*
X0041700Y0140979D01*
X0043298Y0139380D02*
X0072409Y0139380D01*
X0074304Y0137782D02*
X0044897Y0137782D01*
X0046495Y0136183D02*
X0136046Y0136183D01*
X0137644Y0134585D02*
X0048094Y0134585D01*
X0049692Y0132986D02*
X0139243Y0132986D01*
X0140841Y0131387D02*
X0051291Y0131387D01*
X0047700Y0128190D02*
X0006600Y0128190D01*
X0006600Y0126592D02*
X0049298Y0126592D01*
X0046101Y0129789D02*
X0006600Y0129789D01*
X0006600Y0131387D02*
X0044503Y0131387D01*
X0042904Y0132986D02*
X0006600Y0132986D01*
X0006600Y0134585D02*
X0041306Y0134585D01*
X0039707Y0136183D02*
X0006600Y0136183D01*
X0006600Y0137782D02*
X0014304Y0137782D01*
X0012409Y0139380D02*
X0006600Y0139380D01*
X0006600Y0140979D02*
X0011687Y0140979D01*
X0011500Y0142577D02*
X0006600Y0142577D01*
X0006600Y0144176D02*
X0011764Y0144176D01*
X0012595Y0145774D02*
X0006600Y0145774D01*
X0006600Y0147373D02*
X0014752Y0147373D01*
X0012818Y0148971D02*
X0006600Y0148971D01*
X0006600Y0150570D02*
X0011856Y0150570D01*
X0011500Y0152168D02*
X0006600Y0152168D01*
X0006600Y0153767D02*
X0011595Y0153767D01*
X0012257Y0155365D02*
X0006600Y0155365D01*
X0006600Y0156964D02*
X0013784Y0156964D01*
X0013227Y0158562D02*
X0006600Y0158562D01*
X0006600Y0160161D02*
X0012026Y0160161D01*
X0011500Y0161759D02*
X0006600Y0161759D01*
X0006600Y0163358D02*
X0011500Y0163358D01*
X0012087Y0164956D02*
X0006600Y0164956D01*
X0006600Y0166555D02*
X0013375Y0166555D01*
X0013636Y0168153D02*
X0006600Y0168153D01*
X0006600Y0169752D02*
X0012195Y0169752D01*
X0011533Y0171350D02*
X0006600Y0171350D01*
X0006600Y0172949D02*
X0011500Y0172949D01*
X0011918Y0174547D02*
X0006600Y0174547D01*
X0006600Y0176146D02*
X0012966Y0176146D01*
X0014394Y0177744D02*
X0006600Y0177744D01*
X0006600Y0179343D02*
X0012446Y0179343D01*
X0011702Y0180941D02*
X0006600Y0180941D01*
X0006600Y0182540D02*
X0011500Y0182540D01*
X0011748Y0184138D02*
X0006600Y0184138D01*
X0006600Y0185737D02*
X0012557Y0185737D01*
X0014662Y0187335D02*
X0006600Y0187335D01*
X0006600Y0188934D02*
X0012855Y0188934D01*
X0011872Y0190532D02*
X0006600Y0190532D01*
X0006600Y0192131D02*
X0011500Y0192131D01*
X0011579Y0193729D02*
X0006600Y0193729D01*
X0006600Y0195328D02*
X0012241Y0195328D01*
X0013747Y0196926D02*
X0006600Y0196926D01*
X0006600Y0198525D02*
X0013264Y0198525D01*
X0012041Y0200123D02*
X0006600Y0200123D01*
X0006600Y0201722D02*
X0011500Y0201722D01*
X0011500Y0203320D02*
X0006600Y0203320D01*
X0006600Y0204919D02*
X0012072Y0204919D01*
X0013338Y0206518D02*
X0006600Y0206518D01*
X0006600Y0208116D02*
X0013673Y0208116D01*
X0012211Y0209715D02*
X0006600Y0209715D01*
X0006600Y0211313D02*
X0011548Y0211313D01*
X0011500Y0212912D02*
X0006600Y0212912D01*
X0006600Y0214510D02*
X0011902Y0214510D01*
X0012929Y0216109D02*
X0006600Y0216109D01*
X0006600Y0217707D02*
X0014484Y0217707D01*
X0012483Y0219306D02*
X0006600Y0219306D01*
X0006600Y0220904D02*
X0011718Y0220904D01*
X0011500Y0222503D02*
X0006600Y0222503D01*
X0006600Y0224101D02*
X0011733Y0224101D01*
X0012520Y0225700D02*
X0006600Y0225700D01*
X0006600Y0227298D02*
X0014572Y0227298D01*
X0012892Y0228897D02*
X0006600Y0228897D01*
X0006600Y0230495D02*
X0011887Y0230495D01*
X0011500Y0232094D02*
X0006600Y0232094D01*
X0006600Y0233692D02*
X0011564Y0233692D01*
X0012226Y0235291D02*
X0006600Y0235291D01*
X0006600Y0236889D02*
X0013710Y0236889D01*
X0019890Y0236889D02*
X0030192Y0236889D01*
X0030192Y0235291D02*
X0021374Y0235291D01*
X0022036Y0233692D02*
X0030192Y0233692D01*
X0031540Y0232094D02*
X0022100Y0232094D01*
X0021713Y0230495D02*
X0037866Y0230495D01*
X0037865Y0228897D02*
X0020708Y0228897D01*
X0019028Y0227298D02*
X0037870Y0227298D01*
X0042056Y0225700D02*
X0072520Y0225700D01*
X0071733Y0224101D02*
X0043400Y0224101D01*
X0043400Y0222503D02*
X0071500Y0222503D01*
X0071718Y0220904D02*
X0043400Y0220904D01*
X0043076Y0219306D02*
X0072483Y0219306D01*
X0074484Y0217707D02*
X0043910Y0217707D01*
X0043763Y0217854D02*
X0042106Y0217854D01*
X0040935Y0216683D01*
X0040935Y0208887D01*
X0042106Y0207716D01*
X0043763Y0207716D01*
X0044935Y0208887D01*
X0044935Y0216683D01*
X0043763Y0217854D01*
X0041959Y0217707D02*
X0041477Y0217707D01*
X0040935Y0216109D02*
X0020671Y0216109D01*
X0021698Y0214510D02*
X0040935Y0214510D01*
X0040935Y0212912D02*
X0022100Y0212912D01*
X0022052Y0211313D02*
X0040935Y0211313D01*
X0040935Y0209715D02*
X0021389Y0209715D01*
X0019927Y0208116D02*
X0030833Y0208116D01*
X0031364Y0208646D02*
X0030192Y0207475D01*
X0030192Y0205818D01*
X0031364Y0204646D01*
X0037502Y0204646D01*
X0038572Y0203577D01*
X0037502Y0202508D01*
X0031364Y0202508D01*
X0030192Y0201336D01*
X0030192Y0199679D01*
X0031364Y0198508D01*
X0031968Y0198508D01*
X0031364Y0197904D01*
X0030192Y0196732D01*
X0030192Y0192006D01*
X0031107Y0191091D01*
X0031364Y0190835D01*
X0032898Y0189300D01*
X0034555Y0189300D01*
X0035727Y0190472D01*
X0035727Y0192128D01*
X0034192Y0193663D01*
X0034192Y0195075D01*
X0034494Y0195377D01*
X0040106Y0189765D01*
X0039400Y0189059D01*
X0039400Y0187161D01*
X0031364Y0187161D01*
X0030192Y0185990D01*
X0030192Y0184333D01*
X0031364Y0183161D01*
X0034433Y0180092D01*
X0035037Y0180092D01*
X0034796Y0179851D01*
X0034796Y0172056D01*
X0035968Y0170884D01*
X0037624Y0170884D01*
X0038796Y0172056D01*
X0038796Y0179851D01*
X0037624Y0181023D01*
X0037021Y0181023D01*
X0037261Y0181264D01*
X0037261Y0182921D01*
X0037021Y0183161D01*
X0039400Y0183161D01*
X0039400Y0181264D01*
X0040572Y0180092D01*
X0042228Y0180092D01*
X0043400Y0181264D01*
X0043400Y0189059D01*
X0042694Y0189765D01*
X0043400Y0190472D01*
X0043400Y0198267D01*
X0042228Y0199439D01*
X0040572Y0199439D01*
X0039400Y0198267D01*
X0039400Y0196128D01*
X0037261Y0198267D01*
X0037021Y0198508D01*
X0039159Y0198508D01*
X0042228Y0201577D01*
X0043400Y0202749D01*
X0043400Y0204406D01*
X0040331Y0207475D01*
X0039159Y0208646D01*
X0031364Y0208646D01*
X0030192Y0206518D02*
X0020262Y0206518D01*
X0021528Y0204919D02*
X0031091Y0204919D01*
X0030578Y0201722D02*
X0022100Y0201722D01*
X0022100Y0203320D02*
X0038315Y0203320D01*
X0040775Y0200123D02*
X0072041Y0200123D01*
X0071500Y0201722D02*
X0042373Y0201722D01*
X0043400Y0203320D02*
X0071500Y0203320D01*
X0072072Y0204919D02*
X0042887Y0204919D01*
X0041288Y0206518D02*
X0073338Y0206518D01*
X0073673Y0208116D02*
X0044163Y0208116D01*
X0044935Y0209715D02*
X0072211Y0209715D01*
X0071548Y0211313D02*
X0044935Y0211313D01*
X0044935Y0212912D02*
X0071500Y0212912D01*
X0071902Y0214510D02*
X0044935Y0214510D01*
X0044935Y0216109D02*
X0072929Y0216109D01*
X0079116Y0217707D02*
X0092115Y0217707D01*
X0091364Y0218458D02*
X0092898Y0216924D01*
X0094555Y0216924D01*
X0095727Y0218095D01*
X0095727Y0219752D01*
X0094192Y0221287D01*
X0094192Y0222699D01*
X0094494Y0223001D01*
X0094796Y0222699D01*
X0094796Y0221164D01*
X0095968Y0219993D01*
X0097624Y0219993D01*
X0098796Y0221164D01*
X0098796Y0222699D01*
X0099098Y0223001D01*
X0099400Y0222699D01*
X0099400Y0221287D01*
X0097865Y0219752D01*
X0097865Y0218095D01*
X0099037Y0216924D01*
X0100694Y0216924D01*
X0103400Y0219630D01*
X0103400Y0224356D01*
X0102956Y0224800D01*
X0101865Y0225891D01*
X0101624Y0226131D01*
X0102228Y0226131D01*
X0103400Y0227303D01*
X0103400Y0235098D01*
X0102694Y0235805D01*
X0103400Y0236511D01*
X0103400Y0238168D01*
X0102228Y0239339D01*
X0098796Y0239339D01*
X0098796Y0241478D01*
X0102228Y0241478D01*
X0103400Y0242649D01*
X0103400Y0244306D01*
X0102228Y0245478D01*
X0094433Y0245478D01*
X0093261Y0244306D01*
X0090192Y0241237D01*
X0090192Y0239580D01*
X0091364Y0238409D01*
X0093502Y0236270D01*
X0092898Y0236270D01*
X0091364Y0234735D01*
X0090192Y0233564D01*
X0090192Y0228838D01*
X0091107Y0227922D01*
X0091364Y0227666D01*
X0092433Y0226597D01*
X0091727Y0225891D01*
X0090192Y0224356D01*
X0090192Y0219630D01*
X0090192Y0219630D01*
X0091081Y0218741D01*
X0091364Y0218458D01*
X0091364Y0218458D01*
X0090516Y0219306D02*
X0081117Y0219306D01*
X0081882Y0220904D02*
X0090192Y0220904D01*
X0090192Y0222503D02*
X0082100Y0222503D01*
X0081867Y0224101D02*
X0090192Y0224101D01*
X0091536Y0225700D02*
X0081080Y0225700D01*
X0079028Y0227298D02*
X0091732Y0227298D01*
X0091364Y0227666D02*
X0091364Y0227666D01*
X0090192Y0228897D02*
X0080708Y0228897D01*
X0081713Y0230495D02*
X0090192Y0230495D01*
X0090192Y0232094D02*
X0082100Y0232094D01*
X0082036Y0233692D02*
X0090321Y0233692D01*
X0091919Y0235291D02*
X0081374Y0235291D01*
X0079890Y0236889D02*
X0092883Y0236889D01*
X0091364Y0238409D02*
X0091364Y0238409D01*
X0091285Y0238488D02*
X0043080Y0238488D01*
X0043400Y0236889D02*
X0073710Y0236889D01*
X0072226Y0235291D02*
X0043400Y0235291D01*
X0043400Y0233692D02*
X0071564Y0233692D01*
X0071500Y0232094D02*
X0042052Y0232094D01*
X0043399Y0230495D02*
X0071887Y0230495D01*
X0072892Y0228897D02*
X0043400Y0228897D01*
X0043395Y0227298D02*
X0074572Y0227298D01*
X0080671Y0216109D02*
X0100935Y0216109D01*
X0100935Y0216683D02*
X0102106Y0217854D01*
X0103763Y0217854D01*
X0104935Y0216683D01*
X0104935Y0208887D01*
X0103763Y0207716D01*
X0102106Y0207716D01*
X0100935Y0208887D01*
X0100935Y0216683D01*
X0101477Y0217707D02*
X0101959Y0217707D01*
X0103076Y0219306D02*
X0132483Y0219306D01*
X0131718Y0220904D02*
X0103400Y0220904D01*
X0103400Y0222503D02*
X0131500Y0222503D01*
X0131733Y0224101D02*
X0103400Y0224101D01*
X0102056Y0225700D02*
X0132520Y0225700D01*
X0134572Y0227298D02*
X0103395Y0227298D01*
X0103400Y0228897D02*
X0132892Y0228897D01*
X0131887Y0230495D02*
X0103400Y0230495D01*
X0103400Y0232094D02*
X0131500Y0232094D01*
X0131564Y0233692D02*
X0103400Y0233692D01*
X0103208Y0235291D02*
X0132226Y0235291D01*
X0133710Y0236889D02*
X0103400Y0236889D01*
X0103080Y0238488D02*
X0151681Y0238488D01*
X0151364Y0238805D02*
X0154433Y0235735D01*
X0156572Y0235735D01*
X0155968Y0235131D01*
X0154796Y0233960D01*
X0154796Y0233930D01*
X0153610Y0236301D01*
X0152039Y0236825D01*
X0150557Y0236084D01*
X0150033Y0234513D01*
X0151727Y0231125D01*
X0151727Y0230768D01*
X0152083Y0230412D01*
X0152308Y0229961D01*
X0152646Y0229849D01*
X0155537Y0226958D01*
X0155968Y0226527D01*
X0159641Y0226527D01*
X0159400Y0226287D01*
X0159400Y0224389D01*
X0151364Y0224389D01*
X0150192Y0223217D01*
X0150192Y0221560D01*
X0151364Y0220389D01*
X0154433Y0217320D01*
X0156090Y0217320D01*
X0157261Y0218491D01*
X0157261Y0220148D01*
X0157021Y0220389D01*
X0159400Y0220389D01*
X0159400Y0218491D01*
X0160572Y0217320D01*
X0161176Y0217320D01*
X0160935Y0217079D01*
X0160935Y0209283D01*
X0162106Y0208112D01*
X0163763Y0208112D01*
X0164935Y0209283D01*
X0164935Y0217079D01*
X0163763Y0218250D01*
X0163159Y0218250D01*
X0163400Y0218491D01*
X0163400Y0226287D01*
X0162228Y0227458D01*
X0161624Y0227458D01*
X0162228Y0228062D01*
X0163400Y0229234D01*
X0163400Y0233960D01*
X0162511Y0234849D01*
X0161865Y0235494D01*
X0161865Y0235494D01*
X0161624Y0235735D01*
X0162228Y0235735D01*
X0163400Y0236907D01*
X0163400Y0238564D01*
X0162228Y0239735D01*
X0158796Y0239735D01*
X0158796Y0241874D01*
X0162228Y0241874D01*
X0163400Y0243045D01*
X0163400Y0244702D01*
X0162228Y0245874D01*
X0154433Y0245874D01*
X0153261Y0244702D01*
X0150192Y0241633D01*
X0150192Y0239976D01*
X0151364Y0238805D01*
X0151364Y0238805D01*
X0150192Y0240086D02*
X0098796Y0240086D01*
X0102435Y0241685D02*
X0150244Y0241685D01*
X0151842Y0243283D02*
X0103400Y0243283D01*
X0102824Y0244882D02*
X0153441Y0244882D01*
X0158796Y0241685D02*
X0214056Y0241685D01*
X0214433Y0242062D02*
X0213261Y0240891D01*
X0210192Y0237821D01*
X0210192Y0236164D01*
X0211364Y0234993D01*
X0214433Y0231924D01*
X0216572Y0231924D01*
X0215968Y0231320D01*
X0214796Y0230148D01*
X0214796Y0230118D01*
X0213610Y0232490D01*
X0212039Y0233014D01*
X0210557Y0232273D01*
X0210033Y0230701D01*
X0211727Y0227313D01*
X0211727Y0226957D01*
X0212083Y0226600D01*
X0212308Y0226150D01*
X0212646Y0226037D01*
X0215537Y0223147D01*
X0215968Y0222716D01*
X0219641Y0222716D01*
X0219400Y0222475D01*
X0219400Y0220577D01*
X0211364Y0220577D01*
X0210192Y0219406D01*
X0210192Y0217749D01*
X0211364Y0216577D01*
X0214433Y0213508D01*
X0216090Y0213508D01*
X0217261Y0214679D01*
X0217261Y0216336D01*
X0217021Y0216577D01*
X0219400Y0216577D01*
X0219400Y0214679D01*
X0220572Y0213508D01*
X0221176Y0213508D01*
X0220935Y0213267D01*
X0220935Y0205472D01*
X0222106Y0204300D01*
X0223763Y0204300D01*
X0224935Y0205472D01*
X0224935Y0213267D01*
X0223763Y0214439D01*
X0223159Y0214439D01*
X0223400Y0214679D01*
X0223400Y0222475D01*
X0222228Y0223646D01*
X0221624Y0223646D01*
X0222228Y0224250D01*
X0223400Y0225422D01*
X0223400Y0230148D01*
X0222511Y0231037D01*
X0221865Y0231683D01*
X0221624Y0231924D01*
X0222228Y0231924D01*
X0223400Y0233095D01*
X0223400Y0234752D01*
X0222228Y0235924D01*
X0218796Y0235924D01*
X0218796Y0238062D01*
X0222228Y0238062D01*
X0223400Y0239234D01*
X0223400Y0240891D01*
X0222228Y0242062D01*
X0214433Y0242062D01*
X0212457Y0240086D02*
X0158796Y0240086D01*
X0153279Y0236889D02*
X0139890Y0236889D01*
X0141374Y0235291D02*
X0150292Y0235291D01*
X0150443Y0233692D02*
X0142036Y0233692D01*
X0142100Y0232094D02*
X0151242Y0232094D01*
X0152000Y0230495D02*
X0141713Y0230495D01*
X0140708Y0228897D02*
X0153598Y0228897D01*
X0155197Y0227298D02*
X0139028Y0227298D01*
X0141080Y0225700D02*
X0159400Y0225700D01*
X0162388Y0227298D02*
X0194572Y0227298D01*
X0192892Y0228897D02*
X0163063Y0228897D01*
X0163400Y0230495D02*
X0191887Y0230495D01*
X0191500Y0232094D02*
X0163400Y0232094D01*
X0163400Y0233692D02*
X0191564Y0233692D01*
X0192226Y0235291D02*
X0162069Y0235291D01*
X0163382Y0236889D02*
X0193710Y0236889D01*
X0199890Y0236889D02*
X0210192Y0236889D01*
X0210859Y0238488D02*
X0163400Y0238488D01*
X0163400Y0243283D02*
X0298975Y0243283D01*
X0298512Y0241685D02*
X0222606Y0241685D01*
X0223400Y0240086D02*
X0298195Y0240086D01*
X0298558Y0238488D02*
X0222654Y0238488D01*
X0222861Y0235291D02*
X0247057Y0235291D01*
X0247096Y0235367D02*
X0246703Y0234596D01*
X0246435Y0233772D01*
X0246300Y0232917D01*
X0246300Y0232684D01*
X0251600Y0232684D01*
X0251600Y0232284D01*
X0252000Y0232284D01*
X0252000Y0222684D01*
X0261600Y0222684D01*
X0261600Y0222284D01*
X0262000Y0222284D01*
X0262000Y0212684D01*
X0267300Y0212684D01*
X0267300Y0212917D01*
X0267165Y0213772D01*
X0266897Y0214596D01*
X0266504Y0215367D01*
X0265995Y0216067D01*
X0265383Y0216679D01*
X0264683Y0217188D01*
X0264102Y0217484D01*
X0264683Y0217780D01*
X0265383Y0218289D01*
X0265995Y0218901D01*
X0266504Y0219602D01*
X0266897Y0220373D01*
X0267165Y0221196D01*
X0267300Y0222051D01*
X0267300Y0222284D01*
X0262000Y0222284D01*
X0262000Y0222684D01*
X0267300Y0222684D01*
X0267300Y0222917D01*
X0267165Y0223772D01*
X0266897Y0224596D01*
X0266504Y0225367D01*
X0265995Y0226067D01*
X0265383Y0226679D01*
X0264683Y0227188D01*
X0264102Y0227484D01*
X0264683Y0227780D01*
X0265383Y0228289D01*
X0265995Y0228901D01*
X0266504Y0229602D01*
X0266897Y0230373D01*
X0267165Y0231196D01*
X0267300Y0232051D01*
X0267300Y0232284D01*
X0262000Y0232284D01*
X0262000Y0222684D01*
X0261600Y0222684D01*
X0261600Y0227984D01*
X0261600Y0232284D01*
X0262000Y0232284D01*
X0262000Y0232684D01*
X0267300Y0232684D01*
X0267300Y0232917D01*
X0267165Y0233772D01*
X0266897Y0234596D01*
X0266504Y0235367D01*
X0265995Y0236067D01*
X0265383Y0236679D01*
X0264683Y0237188D01*
X0263911Y0237581D01*
X0263088Y0237849D01*
X0262233Y0237984D01*
X0262000Y0237984D01*
X0262000Y0232684D01*
X0261600Y0232684D01*
X0261600Y0232284D01*
X0256300Y0232284D01*
X0252000Y0232284D01*
X0252000Y0232684D01*
X0261600Y0232684D01*
X0261600Y0237984D01*
X0261367Y0237984D01*
X0260512Y0237849D01*
X0259689Y0237581D01*
X0258917Y0237188D01*
X0258217Y0236679D01*
X0257605Y0236067D01*
X0257096Y0235367D01*
X0256800Y0234786D01*
X0256504Y0235367D01*
X0255995Y0236067D01*
X0255383Y0236679D01*
X0254683Y0237188D01*
X0253911Y0237581D01*
X0253088Y0237849D01*
X0252233Y0237984D01*
X0252000Y0237984D01*
X0252000Y0232684D01*
X0251600Y0232684D01*
X0251600Y0237984D01*
X0251367Y0237984D01*
X0250512Y0237849D01*
X0249689Y0237581D01*
X0248917Y0237188D01*
X0248217Y0236679D01*
X0247605Y0236067D01*
X0247096Y0235367D01*
X0246423Y0233692D02*
X0223400Y0233692D01*
X0222399Y0232094D02*
X0246300Y0232094D01*
X0246300Y0232051D02*
X0246435Y0231196D01*
X0246703Y0230373D01*
X0247096Y0229602D01*
X0247605Y0228901D01*
X0248217Y0228289D01*
X0248917Y0227780D01*
X0249498Y0227484D01*
X0248917Y0227188D01*
X0248217Y0226679D01*
X0247605Y0226067D01*
X0247096Y0225367D01*
X0246703Y0224596D01*
X0246435Y0223772D01*
X0246300Y0222917D01*
X0246300Y0222684D01*
X0251600Y0222684D01*
X0251600Y0222284D01*
X0252000Y0222284D01*
X0252000Y0212684D01*
X0261600Y0212684D01*
X0261600Y0212284D01*
X0262000Y0212284D01*
X0262000Y0202684D01*
X0267300Y0202684D01*
X0267300Y0202917D01*
X0267165Y0203772D01*
X0266897Y0204596D01*
X0266504Y0205367D01*
X0265995Y0206067D01*
X0265383Y0206679D01*
X0264683Y0207188D01*
X0264102Y0207484D01*
X0264683Y0207780D01*
X0265383Y0208289D01*
X0265995Y0208901D01*
X0266504Y0209602D01*
X0266897Y0210373D01*
X0267165Y0211196D01*
X0267300Y0212051D01*
X0267300Y0212284D01*
X0262000Y0212284D01*
X0262000Y0212684D01*
X0261600Y0212684D01*
X0261600Y0217984D01*
X0261600Y0222284D01*
X0257300Y0222284D01*
X0252000Y0222284D01*
X0252000Y0222684D01*
X0251600Y0222684D01*
X0251600Y0227984D01*
X0251600Y0232284D01*
X0246300Y0232284D01*
X0246300Y0232051D01*
X0246663Y0230495D02*
X0223053Y0230495D01*
X0223400Y0228897D02*
X0247609Y0228897D01*
X0249133Y0227298D02*
X0223400Y0227298D01*
X0223400Y0225700D02*
X0247338Y0225700D01*
X0246542Y0224101D02*
X0222079Y0224101D01*
X0223372Y0222503D02*
X0251600Y0222503D01*
X0251600Y0222284D02*
X0246300Y0222284D01*
X0246300Y0222051D01*
X0246435Y0221196D01*
X0246703Y0220373D01*
X0247096Y0219602D01*
X0247605Y0218901D01*
X0248217Y0218289D01*
X0248917Y0217780D01*
X0249498Y0217484D01*
X0248917Y0217188D01*
X0248217Y0216679D01*
X0247605Y0216067D01*
X0247096Y0215367D01*
X0246703Y0214596D01*
X0246435Y0213772D01*
X0246300Y0212917D01*
X0246300Y0212684D01*
X0251600Y0212684D01*
X0251600Y0212284D01*
X0252000Y0212284D01*
X0252000Y0202684D01*
X0261600Y0202684D01*
X0261600Y0202284D01*
X0262000Y0202284D01*
X0262000Y0202684D01*
X0261600Y0202684D01*
X0261600Y0207984D01*
X0261600Y0212284D01*
X0256300Y0212284D01*
X0252000Y0212284D01*
X0252000Y0212684D01*
X0251600Y0212684D01*
X0251600Y0216984D01*
X0251600Y0222284D01*
X0252000Y0222503D02*
X0261600Y0222503D01*
X0262000Y0222503D02*
X0275192Y0222503D01*
X0275192Y0222402D02*
X0276364Y0221231D01*
X0279794Y0221231D01*
X0276587Y0219092D01*
X0276364Y0219092D01*
X0275918Y0218646D01*
X0275393Y0218297D01*
X0275350Y0218078D01*
X0275192Y0217921D01*
X0275192Y0217290D01*
X0275069Y0216672D01*
X0275192Y0216487D01*
X0275192Y0216264D01*
X0275638Y0215818D01*
X0275988Y0215293D01*
X0276206Y0215250D01*
X0276364Y0215092D01*
X0276968Y0215092D01*
X0276364Y0214488D01*
X0275192Y0213317D01*
X0275192Y0208590D01*
X0276107Y0207675D01*
X0276364Y0207419D01*
X0276983Y0206799D01*
X0277898Y0205884D01*
X0285694Y0205884D01*
X0287228Y0207419D01*
X0288400Y0208590D01*
X0288400Y0213317D01*
X0287511Y0214206D01*
X0286865Y0214851D01*
X0286865Y0214851D01*
X0286624Y0215092D01*
X0287228Y0215092D01*
X0288400Y0216264D01*
X0288400Y0217921D01*
X0287228Y0219092D01*
X0283798Y0219092D01*
X0287006Y0221231D01*
X0287228Y0221231D01*
X0287674Y0221676D01*
X0288199Y0222026D01*
X0288242Y0222245D01*
X0288400Y0222402D01*
X0288400Y0223033D01*
X0288524Y0223651D01*
X0288400Y0223836D01*
X0288400Y0224059D01*
X0287954Y0224505D01*
X0287746Y0224817D01*
X0288400Y0225472D01*
X0288400Y0231732D01*
X0287511Y0232621D01*
X0286865Y0233267D01*
X0286583Y0233550D01*
X0285694Y0234439D01*
X0277898Y0234439D01*
X0276727Y0233267D01*
X0276364Y0232904D01*
X0276364Y0232904D01*
X0275192Y0231732D01*
X0275192Y0225472D01*
X0275898Y0224765D01*
X0275192Y0224059D01*
X0275192Y0222402D01*
X0275234Y0224101D02*
X0267058Y0224101D01*
X0266262Y0225700D02*
X0275192Y0225700D01*
X0275192Y0227298D02*
X0264467Y0227298D01*
X0265991Y0228897D02*
X0275192Y0228897D01*
X0275192Y0230495D02*
X0266937Y0230495D01*
X0267300Y0232094D02*
X0275554Y0232094D01*
X0276727Y0233267D02*
X0276727Y0233267D01*
X0277152Y0233692D02*
X0267177Y0233692D01*
X0266543Y0235291D02*
X0298195Y0235291D01*
X0298195Y0236889D02*
X0265094Y0236889D01*
X0262000Y0236889D02*
X0261600Y0236889D01*
X0261600Y0235291D02*
X0262000Y0235291D01*
X0262000Y0233692D02*
X0261600Y0233692D01*
X0261600Y0232094D02*
X0262000Y0232094D01*
X0262000Y0230495D02*
X0261600Y0230495D01*
X0261600Y0228897D02*
X0262000Y0228897D01*
X0262000Y0227298D02*
X0261600Y0227298D01*
X0261600Y0225700D02*
X0262000Y0225700D01*
X0262000Y0224101D02*
X0261600Y0224101D01*
X0261600Y0220904D02*
X0262000Y0220904D01*
X0262000Y0219306D02*
X0261600Y0219306D01*
X0261600Y0217707D02*
X0262000Y0217707D01*
X0262000Y0216109D02*
X0261600Y0216109D01*
X0261600Y0214510D02*
X0262000Y0214510D01*
X0262000Y0212912D02*
X0261600Y0212912D01*
X0261600Y0211313D02*
X0262000Y0211313D01*
X0262000Y0209715D02*
X0261600Y0209715D01*
X0261600Y0208116D02*
X0262000Y0208116D01*
X0262000Y0206518D02*
X0261600Y0206518D01*
X0261600Y0204919D02*
X0262000Y0204919D01*
X0262000Y0203320D02*
X0261600Y0203320D01*
X0261600Y0202284D02*
X0256300Y0202284D01*
X0252000Y0202284D01*
X0252000Y0192684D01*
X0261600Y0192684D01*
X0261600Y0197984D01*
X0261600Y0202284D01*
X0261600Y0201722D02*
X0262000Y0201722D01*
X0262000Y0200123D02*
X0261600Y0200123D01*
X0261600Y0198525D02*
X0262000Y0198525D01*
X0262000Y0196926D02*
X0261600Y0196926D01*
X0261600Y0195328D02*
X0262000Y0195328D01*
X0262000Y0193729D02*
X0261600Y0193729D01*
X0261600Y0192131D02*
X0262000Y0192131D01*
X0262000Y0190532D02*
X0261600Y0190532D01*
X0261600Y0188934D02*
X0262000Y0188934D01*
X0262000Y0187335D02*
X0261600Y0187335D01*
X0261600Y0185737D02*
X0262000Y0185737D01*
X0262000Y0184138D02*
X0261600Y0184138D01*
X0261600Y0182540D02*
X0252000Y0182540D01*
X0251600Y0182540D02*
X0202100Y0182540D01*
X0201898Y0180941D02*
X0246518Y0180941D01*
X0246300Y0182684D02*
X0251600Y0182684D01*
X0251600Y0187984D01*
X0251600Y0192284D01*
X0252000Y0192284D01*
X0252000Y0192684D01*
X0251600Y0192684D01*
X0251600Y0192284D01*
X0246300Y0192284D01*
X0246300Y0192051D01*
X0246435Y0191196D01*
X0246703Y0190373D01*
X0247096Y0189602D01*
X0247605Y0188901D01*
X0248217Y0188289D01*
X0248917Y0187780D01*
X0249498Y0187484D01*
X0248917Y0187188D01*
X0248217Y0186679D01*
X0247605Y0186067D01*
X0247096Y0185367D01*
X0246703Y0184596D01*
X0246435Y0183772D01*
X0246300Y0182917D01*
X0246300Y0182684D01*
X0246554Y0184138D02*
X0201852Y0184138D01*
X0201043Y0185737D02*
X0216914Y0185737D01*
X0216950Y0185725D02*
X0217268Y0185884D01*
X0217624Y0185884D01*
X0217981Y0186241D01*
X0218431Y0186466D01*
X0218437Y0186484D01*
X0219037Y0185884D01*
X0220694Y0185884D01*
X0223400Y0188590D01*
X0223400Y0193317D01*
X0222485Y0194232D01*
X0221865Y0194851D01*
X0221865Y0194851D01*
X0221609Y0195108D01*
X0220694Y0196023D01*
X0220090Y0196023D01*
X0223400Y0199333D01*
X0223400Y0200990D01*
X0222228Y0202161D01*
X0220331Y0204059D01*
X0219159Y0205231D01*
X0211364Y0205231D01*
X0210192Y0204059D01*
X0210192Y0202402D01*
X0211364Y0201231D01*
X0217502Y0201231D01*
X0218572Y0200161D01*
X0217502Y0199092D01*
X0211364Y0199092D01*
X0210192Y0197921D01*
X0210192Y0196264D01*
X0210898Y0195557D01*
X0210192Y0194851D01*
X0210192Y0187056D01*
X0211364Y0185884D01*
X0216472Y0185884D01*
X0216950Y0185725D01*
X0216973Y0185737D02*
X0247365Y0185737D01*
X0249206Y0187335D02*
X0222145Y0187335D01*
X0223400Y0188934D02*
X0247581Y0188934D01*
X0246651Y0190532D02*
X0223400Y0190532D01*
X0223400Y0192131D02*
X0246300Y0192131D01*
X0246300Y0192684D02*
X0251600Y0192684D01*
X0251600Y0197984D01*
X0251600Y0202284D01*
X0252000Y0202284D01*
X0252000Y0202684D01*
X0251600Y0202684D01*
X0251600Y0202284D01*
X0246300Y0202284D01*
X0246300Y0202051D01*
X0246435Y0201196D01*
X0246703Y0200373D01*
X0247096Y0199602D01*
X0247605Y0198901D01*
X0248217Y0198289D01*
X0248917Y0197780D01*
X0249498Y0197484D01*
X0248917Y0197188D01*
X0248217Y0196679D01*
X0247605Y0196067D01*
X0247096Y0195367D01*
X0246703Y0194596D01*
X0246435Y0193772D01*
X0246300Y0192917D01*
X0246300Y0192684D01*
X0246429Y0193729D02*
X0222987Y0193729D01*
X0221389Y0195328D02*
X0247076Y0195328D01*
X0248557Y0196926D02*
X0220993Y0196926D01*
X0222592Y0198525D02*
X0247981Y0198525D01*
X0246830Y0200123D02*
X0223400Y0200123D01*
X0222668Y0201722D02*
X0246352Y0201722D01*
X0246300Y0202684D02*
X0251600Y0202684D01*
X0251600Y0207984D01*
X0251600Y0212284D01*
X0246300Y0212284D01*
X0246300Y0212051D01*
X0246435Y0211196D01*
X0246703Y0210373D01*
X0247096Y0209602D01*
X0247605Y0208901D01*
X0248217Y0208289D01*
X0248917Y0207780D01*
X0249498Y0207484D01*
X0248917Y0207188D01*
X0248217Y0206679D01*
X0247605Y0206067D01*
X0247096Y0205367D01*
X0246703Y0204596D01*
X0246435Y0203772D01*
X0246300Y0202917D01*
X0246300Y0202684D01*
X0246364Y0203320D02*
X0221069Y0203320D01*
X0220331Y0204059D02*
X0220331Y0204059D01*
X0219471Y0204919D02*
X0221487Y0204919D01*
X0220935Y0206518D02*
X0200262Y0206518D01*
X0199927Y0208116D02*
X0220935Y0208116D01*
X0220935Y0209715D02*
X0201389Y0209715D01*
X0202052Y0211313D02*
X0220935Y0211313D01*
X0220935Y0212912D02*
X0202100Y0212912D01*
X0201698Y0214510D02*
X0213431Y0214510D01*
X0211832Y0216109D02*
X0200671Y0216109D01*
X0199116Y0217707D02*
X0210234Y0217707D01*
X0211364Y0216577D02*
X0211364Y0216577D01*
X0210192Y0219306D02*
X0201117Y0219306D01*
X0201882Y0220904D02*
X0219400Y0220904D01*
X0219428Y0222503D02*
X0202100Y0222503D01*
X0201867Y0224101D02*
X0214582Y0224101D01*
X0212984Y0225700D02*
X0201080Y0225700D01*
X0199028Y0227298D02*
X0211727Y0227298D01*
X0210935Y0228897D02*
X0200708Y0228897D01*
X0201713Y0230495D02*
X0210136Y0230495D01*
X0210497Y0232094D02*
X0202100Y0232094D01*
X0202036Y0233692D02*
X0212664Y0233692D01*
X0211364Y0234993D02*
X0211364Y0234993D01*
X0211066Y0235291D02*
X0201374Y0235291D01*
X0213808Y0232094D02*
X0214263Y0232094D01*
X0214608Y0230495D02*
X0215143Y0230495D01*
X0221865Y0231683D02*
X0221865Y0231683D01*
X0218796Y0236889D02*
X0248506Y0236889D01*
X0251600Y0236889D02*
X0252000Y0236889D01*
X0252000Y0235291D02*
X0251600Y0235291D01*
X0251600Y0233692D02*
X0252000Y0233692D01*
X0252000Y0232094D02*
X0251600Y0232094D01*
X0251600Y0230495D02*
X0252000Y0230495D01*
X0252000Y0228897D02*
X0251600Y0228897D01*
X0251600Y0227298D02*
X0252000Y0227298D01*
X0252000Y0225700D02*
X0251600Y0225700D01*
X0251600Y0224101D02*
X0252000Y0224101D01*
X0252000Y0220904D02*
X0251600Y0220904D01*
X0251600Y0219306D02*
X0252000Y0219306D01*
X0252000Y0217707D02*
X0251600Y0217707D01*
X0251600Y0216109D02*
X0252000Y0216109D01*
X0252000Y0214510D02*
X0251600Y0214510D01*
X0251600Y0212912D02*
X0252000Y0212912D01*
X0252000Y0211313D02*
X0251600Y0211313D01*
X0251600Y0209715D02*
X0252000Y0209715D01*
X0252000Y0208116D02*
X0251600Y0208116D01*
X0251600Y0206518D02*
X0252000Y0206518D01*
X0252000Y0204919D02*
X0251600Y0204919D01*
X0251600Y0203320D02*
X0252000Y0203320D01*
X0252000Y0201722D02*
X0251600Y0201722D01*
X0251600Y0200123D02*
X0252000Y0200123D01*
X0252000Y0198525D02*
X0251600Y0198525D01*
X0251600Y0196926D02*
X0252000Y0196926D01*
X0252000Y0195328D02*
X0251600Y0195328D01*
X0251600Y0193729D02*
X0252000Y0193729D01*
X0252000Y0192131D02*
X0251600Y0192131D01*
X0251600Y0190532D02*
X0252000Y0190532D01*
X0252000Y0188934D02*
X0251600Y0188934D01*
X0251600Y0187335D02*
X0252000Y0187335D01*
X0252000Y0185737D02*
X0251600Y0185737D01*
X0251600Y0184138D02*
X0252000Y0184138D01*
X0252000Y0180941D02*
X0251600Y0180941D01*
X0251600Y0179343D02*
X0252000Y0179343D01*
X0252000Y0177744D02*
X0251600Y0177744D01*
X0251600Y0176146D02*
X0252000Y0176146D01*
X0252000Y0174547D02*
X0251600Y0174547D01*
X0251600Y0172949D02*
X0252000Y0172949D01*
X0252000Y0171350D02*
X0251600Y0171350D01*
X0251600Y0169752D02*
X0252000Y0169752D01*
X0252000Y0168153D02*
X0251600Y0168153D01*
X0251600Y0166555D02*
X0252000Y0166555D01*
X0252000Y0164956D02*
X0251600Y0164956D01*
X0251600Y0163358D02*
X0252000Y0163358D01*
X0252000Y0161759D02*
X0251600Y0161759D01*
X0251600Y0160161D02*
X0252000Y0160161D01*
X0252000Y0158562D02*
X0251600Y0158562D01*
X0251600Y0156964D02*
X0252000Y0156964D01*
X0252000Y0155365D02*
X0251600Y0155365D01*
X0251600Y0153767D02*
X0252000Y0153767D01*
X0252000Y0152168D02*
X0251600Y0152168D01*
X0251600Y0150570D02*
X0252000Y0150570D01*
X0252000Y0148971D02*
X0251600Y0148971D01*
X0251600Y0147373D02*
X0252000Y0147373D01*
X0252000Y0145774D02*
X0251600Y0145774D01*
X0251600Y0144176D02*
X0252000Y0144176D01*
X0252000Y0140979D02*
X0251600Y0140979D01*
X0261600Y0176146D02*
X0262000Y0176146D01*
X0262000Y0177744D02*
X0261600Y0177744D01*
X0261600Y0179343D02*
X0262000Y0179343D01*
X0262000Y0180941D02*
X0261600Y0180941D01*
X0262000Y0182540D02*
X0298195Y0182540D01*
X0298195Y0184138D02*
X0267046Y0184138D01*
X0266235Y0185737D02*
X0298195Y0185737D01*
X0298195Y0187335D02*
X0264394Y0187335D01*
X0266019Y0188934D02*
X0298140Y0188934D01*
X0298943Y0190532D02*
X0266949Y0190532D01*
X0267300Y0192131D02*
X0298403Y0192131D01*
X0298106Y0193729D02*
X0267171Y0193729D01*
X0266524Y0195328D02*
X0310701Y0195328D01*
X0310701Y0196926D02*
X0265043Y0196926D01*
X0265619Y0198525D02*
X0310701Y0198525D01*
X0310701Y0200123D02*
X0307403Y0200123D01*
X0308400Y0201722D02*
X0310701Y0201722D01*
X0310701Y0203320D02*
X0308400Y0203320D01*
X0308400Y0204919D02*
X0310701Y0204919D01*
X0310701Y0206518D02*
X0307780Y0206518D01*
X0308400Y0208116D02*
X0310701Y0208116D01*
X0310701Y0209715D02*
X0307825Y0209715D01*
X0307877Y0211313D02*
X0310701Y0211313D01*
X0310701Y0212912D02*
X0308400Y0212912D01*
X0308400Y0214510D02*
X0310701Y0214510D01*
X0310701Y0216109D02*
X0308400Y0216109D01*
X0308400Y0217707D02*
X0310701Y0217707D01*
X0310701Y0219306D02*
X0308400Y0219306D01*
X0308400Y0220904D02*
X0310701Y0220904D01*
X0310701Y0222503D02*
X0307928Y0222503D01*
X0307774Y0224101D02*
X0310701Y0224101D01*
X0310701Y0225700D02*
X0308400Y0225700D01*
X0308400Y0227298D02*
X0310701Y0227298D01*
X0310701Y0228897D02*
X0307980Y0228897D01*
X0307722Y0230495D02*
X0310701Y0230495D01*
X0310701Y0232094D02*
X0308400Y0232094D01*
X0307677Y0233692D02*
X0310701Y0233692D01*
X0310701Y0235291D02*
X0308400Y0235291D01*
X0308400Y0236889D02*
X0310701Y0236889D01*
X0310701Y0238488D02*
X0308037Y0238488D01*
X0307625Y0240086D02*
X0310701Y0240086D01*
X0310701Y0241685D02*
X0308400Y0241685D01*
X0308400Y0243283D02*
X0310701Y0243283D01*
X0310701Y0244882D02*
X0308088Y0244882D01*
X0306490Y0246480D02*
X0310701Y0246480D01*
X0298195Y0246480D02*
X0042627Y0246480D01*
X0038796Y0244882D02*
X0093837Y0244882D01*
X0092238Y0243283D02*
X0042888Y0243283D01*
X0043400Y0241685D02*
X0090640Y0241685D01*
X0090192Y0240086D02*
X0042371Y0240086D01*
X0039400Y0235291D02*
X0038796Y0235291D01*
X0037994Y0233692D02*
X0035598Y0233692D01*
X0035727Y0232094D02*
X0037865Y0232094D01*
X0034796Y0235291D02*
X0034192Y0235291D01*
X0030512Y0238488D02*
X0006600Y0238488D01*
X0006600Y0240086D02*
X0032111Y0240086D01*
X0032691Y0241685D02*
X0006600Y0241685D01*
X0006600Y0243283D02*
X0031093Y0243283D01*
X0030192Y0244882D02*
X0006600Y0244882D01*
X0006600Y0246480D02*
X0030832Y0246480D01*
X0031536Y0225700D02*
X0021080Y0225700D01*
X0021867Y0224101D02*
X0030192Y0224101D01*
X0030192Y0222503D02*
X0022100Y0222503D01*
X0021882Y0220904D02*
X0030192Y0220904D01*
X0030516Y0219306D02*
X0021117Y0219306D01*
X0019116Y0217707D02*
X0032115Y0217707D01*
X0039690Y0208116D02*
X0041706Y0208116D01*
X0040331Y0207475D02*
X0040331Y0207475D01*
X0039658Y0198525D02*
X0039176Y0198525D01*
X0039400Y0196926D02*
X0038602Y0196926D01*
X0036142Y0193729D02*
X0034192Y0193729D01*
X0034445Y0195328D02*
X0034544Y0195328D01*
X0030192Y0195328D02*
X0021359Y0195328D01*
X0022021Y0193729D02*
X0030192Y0193729D01*
X0030192Y0192131D02*
X0022100Y0192131D01*
X0021728Y0190532D02*
X0031666Y0190532D01*
X0031364Y0190835D02*
X0031364Y0190835D01*
X0035727Y0190532D02*
X0039339Y0190532D01*
X0039400Y0188934D02*
X0020745Y0188934D01*
X0018938Y0187335D02*
X0039400Y0187335D01*
X0043400Y0187335D02*
X0074662Y0187335D01*
X0072855Y0188934D02*
X0043400Y0188934D01*
X0043400Y0190532D02*
X0071872Y0190532D01*
X0071500Y0192131D02*
X0043400Y0192131D01*
X0043400Y0193729D02*
X0071579Y0193729D01*
X0072241Y0195328D02*
X0043400Y0195328D01*
X0043400Y0196926D02*
X0073747Y0196926D01*
X0073264Y0198525D02*
X0043142Y0198525D01*
X0037741Y0192131D02*
X0035724Y0192131D01*
X0030386Y0196926D02*
X0019853Y0196926D01*
X0020336Y0198525D02*
X0031347Y0198525D01*
X0030192Y0200123D02*
X0021559Y0200123D01*
X0021043Y0185737D02*
X0030192Y0185737D01*
X0030387Y0184138D02*
X0021852Y0184138D01*
X0022100Y0182540D02*
X0031985Y0182540D01*
X0031364Y0183161D02*
X0031364Y0183161D01*
X0033584Y0180941D02*
X0021898Y0180941D01*
X0021154Y0179343D02*
X0034796Y0179343D01*
X0034796Y0177744D02*
X0019206Y0177744D01*
X0020634Y0176146D02*
X0034796Y0176146D01*
X0034796Y0174547D02*
X0021682Y0174547D01*
X0022100Y0172949D02*
X0034796Y0172949D01*
X0035502Y0171350D02*
X0022067Y0171350D01*
X0021405Y0169752D02*
X0072195Y0169752D01*
X0071533Y0171350D02*
X0038091Y0171350D01*
X0038796Y0172949D02*
X0071500Y0172949D01*
X0071918Y0174547D02*
X0038796Y0174547D01*
X0038796Y0176146D02*
X0072966Y0176146D01*
X0074394Y0177744D02*
X0038796Y0177744D01*
X0038796Y0179343D02*
X0072446Y0179343D01*
X0071702Y0180941D02*
X0043078Y0180941D01*
X0043400Y0182540D02*
X0071500Y0182540D01*
X0071748Y0184138D02*
X0043400Y0184138D01*
X0043400Y0185737D02*
X0072557Y0185737D01*
X0078938Y0187335D02*
X0099400Y0187335D01*
X0099400Y0187161D02*
X0099400Y0189059D01*
X0100106Y0189765D01*
X0094494Y0195377D01*
X0094192Y0195075D01*
X0094192Y0193663D01*
X0095727Y0192128D01*
X0095727Y0190472D01*
X0094555Y0189300D01*
X0092898Y0189300D01*
X0091364Y0190835D01*
X0091364Y0190835D01*
X0091107Y0191091D01*
X0090192Y0192006D01*
X0090192Y0196732D01*
X0091364Y0197904D01*
X0091968Y0198508D01*
X0091364Y0198508D01*
X0090192Y0199679D01*
X0090192Y0201336D01*
X0091364Y0202508D01*
X0097502Y0202508D01*
X0098572Y0203577D01*
X0097502Y0204646D01*
X0091364Y0204646D01*
X0090192Y0205818D01*
X0090192Y0207475D01*
X0091364Y0208646D01*
X0099159Y0208646D01*
X0100331Y0207475D01*
X0100331Y0207475D01*
X0103400Y0204406D01*
X0103400Y0202749D01*
X0102228Y0201577D01*
X0099159Y0198508D01*
X0097021Y0198508D01*
X0097261Y0198267D01*
X0099400Y0196128D01*
X0099400Y0198267D01*
X0100572Y0199439D01*
X0102228Y0199439D01*
X0103400Y0198267D01*
X0103400Y0190472D01*
X0102694Y0189765D01*
X0103400Y0189059D01*
X0103400Y0181264D01*
X0102228Y0180092D01*
X0100572Y0180092D01*
X0099400Y0181264D01*
X0099400Y0183161D01*
X0097021Y0183161D01*
X0097261Y0182921D01*
X0097261Y0181264D01*
X0097021Y0181023D01*
X0097624Y0181023D01*
X0098796Y0179851D01*
X0098796Y0177954D01*
X0100694Y0177954D01*
X0101865Y0176782D01*
X0101865Y0175125D01*
X0100694Y0173954D01*
X0098796Y0173954D01*
X0098796Y0172056D01*
X0097624Y0170884D01*
X0095968Y0170884D01*
X0094796Y0172056D01*
X0094796Y0173954D01*
X0092898Y0173954D01*
X0091727Y0175125D01*
X0091727Y0176782D01*
X0092898Y0177954D01*
X0094796Y0177954D01*
X0094796Y0179851D01*
X0095037Y0180092D01*
X0094433Y0180092D01*
X0091364Y0183161D01*
X0091364Y0183161D01*
X0090192Y0184333D01*
X0090192Y0185990D01*
X0091364Y0187161D01*
X0099400Y0187161D01*
X0099400Y0188934D02*
X0080745Y0188934D01*
X0081728Y0190532D02*
X0091666Y0190532D01*
X0090192Y0192131D02*
X0082100Y0192131D01*
X0082021Y0193729D02*
X0090192Y0193729D01*
X0090192Y0195328D02*
X0081359Y0195328D01*
X0079853Y0196926D02*
X0090386Y0196926D01*
X0091347Y0198525D02*
X0080336Y0198525D01*
X0081559Y0200123D02*
X0090192Y0200123D01*
X0090578Y0201722D02*
X0082100Y0201722D01*
X0082100Y0203320D02*
X0098315Y0203320D01*
X0100775Y0200123D02*
X0132041Y0200123D01*
X0131500Y0201722D02*
X0102373Y0201722D01*
X0103400Y0203320D02*
X0131500Y0203320D01*
X0132072Y0204919D02*
X0102887Y0204919D01*
X0101288Y0206518D02*
X0133338Y0206518D01*
X0133673Y0208116D02*
X0104163Y0208116D01*
X0104935Y0209715D02*
X0132211Y0209715D01*
X0131548Y0211313D02*
X0104935Y0211313D01*
X0104935Y0212912D02*
X0131500Y0212912D01*
X0131902Y0214510D02*
X0104935Y0214510D01*
X0104935Y0216109D02*
X0132929Y0216109D01*
X0134484Y0217707D02*
X0103910Y0217707D01*
X0100935Y0214510D02*
X0081698Y0214510D01*
X0082100Y0212912D02*
X0100935Y0212912D01*
X0100935Y0211313D02*
X0082052Y0211313D01*
X0081389Y0209715D02*
X0100935Y0209715D01*
X0101706Y0208116D02*
X0099690Y0208116D01*
X0090833Y0208116D02*
X0079927Y0208116D01*
X0080262Y0206518D02*
X0090192Y0206518D01*
X0091091Y0204919D02*
X0081528Y0204919D01*
X0094445Y0195328D02*
X0094544Y0195328D01*
X0094192Y0193729D02*
X0096142Y0193729D01*
X0095724Y0192131D02*
X0097741Y0192131D01*
X0099339Y0190532D02*
X0095727Y0190532D01*
X0098602Y0196926D02*
X0099400Y0196926D01*
X0099176Y0198525D02*
X0099658Y0198525D01*
X0103142Y0198525D02*
X0133264Y0198525D01*
X0133747Y0196926D02*
X0103400Y0196926D01*
X0103400Y0195328D02*
X0132241Y0195328D01*
X0131579Y0193729D02*
X0103400Y0193729D01*
X0103400Y0192131D02*
X0131500Y0192131D01*
X0131872Y0190532D02*
X0103400Y0190532D01*
X0103400Y0188934D02*
X0132855Y0188934D01*
X0134662Y0187335D02*
X0103400Y0187335D01*
X0103400Y0185737D02*
X0132557Y0185737D01*
X0131748Y0184138D02*
X0103400Y0184138D01*
X0103400Y0182540D02*
X0131500Y0182540D01*
X0131702Y0180941D02*
X0103078Y0180941D01*
X0099722Y0180941D02*
X0097706Y0180941D01*
X0097261Y0182540D02*
X0099400Y0182540D01*
X0098796Y0179343D02*
X0132446Y0179343D01*
X0134394Y0177744D02*
X0100903Y0177744D01*
X0101865Y0176146D02*
X0132966Y0176146D01*
X0131918Y0174547D02*
X0101288Y0174547D01*
X0098796Y0172949D02*
X0131500Y0172949D01*
X0131533Y0171350D02*
X0098091Y0171350D01*
X0095502Y0171350D02*
X0082067Y0171350D01*
X0082100Y0172949D02*
X0094796Y0172949D01*
X0092305Y0174547D02*
X0081682Y0174547D01*
X0080634Y0176146D02*
X0091727Y0176146D01*
X0092689Y0177744D02*
X0079206Y0177744D01*
X0081154Y0179343D02*
X0094796Y0179343D01*
X0093584Y0180941D02*
X0081898Y0180941D01*
X0082100Y0182540D02*
X0091985Y0182540D01*
X0090387Y0184138D02*
X0081852Y0184138D01*
X0081043Y0185737D02*
X0090192Y0185737D01*
X0081405Y0169752D02*
X0132195Y0169752D01*
X0133636Y0168153D02*
X0079964Y0168153D01*
X0080225Y0166555D02*
X0133375Y0166555D01*
X0132087Y0164956D02*
X0081513Y0164956D01*
X0082100Y0163358D02*
X0131500Y0163358D01*
X0131500Y0161759D02*
X0082100Y0161759D01*
X0081574Y0160161D02*
X0132026Y0160161D01*
X0133227Y0158562D02*
X0080373Y0158562D01*
X0079816Y0156964D02*
X0133784Y0156964D01*
X0132257Y0155365D02*
X0081343Y0155365D01*
X0082005Y0153767D02*
X0131595Y0153767D01*
X0131500Y0152168D02*
X0082100Y0152168D01*
X0081744Y0150570D02*
X0131856Y0150570D01*
X0132818Y0148971D02*
X0080782Y0148971D01*
X0078848Y0147373D02*
X0134752Y0147373D01*
X0132595Y0145774D02*
X0081005Y0145774D01*
X0081836Y0144176D02*
X0131764Y0144176D01*
X0131500Y0142577D02*
X0082100Y0142577D01*
X0081913Y0140979D02*
X0131687Y0140979D01*
X0132409Y0139380D02*
X0081191Y0139380D01*
X0079296Y0137782D02*
X0134304Y0137782D01*
X0136800Y0138823D02*
X0197745Y0077878D01*
X0193044Y0072243D02*
X0185910Y0072243D01*
X0187448Y0073841D02*
X0191506Y0073841D01*
X0190844Y0075440D02*
X0188110Y0075440D01*
X0188518Y0077038D02*
X0190436Y0077038D01*
X0190436Y0078637D02*
X0188518Y0078637D01*
X0188144Y0080235D02*
X0190810Y0080235D01*
X0190395Y0081834D02*
X0187482Y0081834D01*
X0188797Y0083432D02*
X0185991Y0083432D01*
X0187198Y0085031D02*
X0184200Y0085031D01*
X0184200Y0086629D02*
X0185600Y0086629D01*
X0185593Y0107410D02*
X0187024Y0107410D01*
X0194447Y0107410D02*
X0196232Y0107410D01*
X0181918Y0118599D02*
X0179956Y0118599D01*
X0145692Y0120198D02*
X0006600Y0120198D01*
X0006600Y0121796D02*
X0144094Y0121796D01*
X0142495Y0123395D02*
X0006600Y0123395D01*
X0006600Y0124993D02*
X0140897Y0124993D01*
X0138521Y0118599D02*
X0145087Y0118599D01*
X0144408Y0117001D02*
X0139200Y0117001D01*
X0139200Y0115402D02*
X0144408Y0115402D01*
X0144408Y0113804D02*
X0139200Y0113804D01*
X0139200Y0112205D02*
X0144408Y0112205D01*
X0144408Y0110607D02*
X0139200Y0110607D01*
X0135200Y0113804D02*
X0006600Y0113804D01*
X0006600Y0115402D02*
X0135200Y0115402D01*
X0135200Y0117001D02*
X0006600Y0117001D01*
X0006600Y0118599D02*
X0135879Y0118599D01*
X0136800Y0138823D02*
X0136800Y0142484D01*
X0139206Y0177744D02*
X0151038Y0177744D01*
X0151364Y0177419D02*
X0151364Y0177419D01*
X0150192Y0179343D02*
X0141154Y0179343D01*
X0141728Y0190532D02*
X0152062Y0190532D01*
X0151364Y0191231D02*
X0151364Y0191231D01*
X0150463Y0192131D02*
X0142100Y0192131D01*
X0142021Y0193729D02*
X0150192Y0193729D01*
X0150192Y0195328D02*
X0141359Y0195328D01*
X0139853Y0196926D02*
X0150192Y0196926D01*
X0151589Y0198525D02*
X0140336Y0198525D01*
X0141559Y0200123D02*
X0150192Y0200123D01*
X0150192Y0201722D02*
X0142100Y0201722D01*
X0142100Y0203320D02*
X0157919Y0203320D01*
X0157626Y0204919D02*
X0141528Y0204919D01*
X0140262Y0206518D02*
X0150192Y0206518D01*
X0150437Y0208116D02*
X0139927Y0208116D01*
X0141389Y0209715D02*
X0160935Y0209715D01*
X0160935Y0211313D02*
X0142052Y0211313D01*
X0142100Y0212912D02*
X0160935Y0212912D01*
X0160935Y0214510D02*
X0141698Y0214510D01*
X0140671Y0216109D02*
X0160935Y0216109D01*
X0160184Y0217707D02*
X0156477Y0217707D01*
X0157261Y0219306D02*
X0159400Y0219306D01*
X0163400Y0219306D02*
X0192483Y0219306D01*
X0191718Y0220904D02*
X0163400Y0220904D01*
X0163400Y0222503D02*
X0191500Y0222503D01*
X0191733Y0224101D02*
X0163400Y0224101D01*
X0163400Y0225700D02*
X0192520Y0225700D01*
X0194484Y0217707D02*
X0164306Y0217707D01*
X0164935Y0216109D02*
X0192929Y0216109D01*
X0191902Y0214510D02*
X0164935Y0214510D01*
X0164935Y0212912D02*
X0191500Y0212912D01*
X0191548Y0211313D02*
X0164935Y0211313D01*
X0164935Y0209715D02*
X0192211Y0209715D01*
X0193673Y0208116D02*
X0163767Y0208116D01*
X0162102Y0208116D02*
X0160086Y0208116D01*
X0160331Y0207871D02*
X0160331Y0207871D01*
X0161684Y0206518D02*
X0193338Y0206518D01*
X0192072Y0204919D02*
X0163283Y0204919D01*
X0163400Y0203320D02*
X0191500Y0203320D01*
X0191500Y0201722D02*
X0161977Y0201722D01*
X0160379Y0200123D02*
X0192041Y0200123D01*
X0193264Y0198525D02*
X0162003Y0198525D01*
X0161865Y0198663D02*
X0161865Y0198663D01*
X0163400Y0196926D02*
X0193747Y0196926D01*
X0199853Y0196926D02*
X0210192Y0196926D01*
X0210669Y0195328D02*
X0201359Y0195328D01*
X0202021Y0193729D02*
X0210192Y0193729D01*
X0210192Y0192131D02*
X0202100Y0192131D01*
X0201728Y0190532D02*
X0210192Y0190532D01*
X0210192Y0188934D02*
X0200745Y0188934D01*
X0198938Y0187335D02*
X0210192Y0187335D01*
X0210797Y0198525D02*
X0200336Y0198525D01*
X0201559Y0200123D02*
X0218534Y0200123D01*
X0222228Y0202161D02*
X0222228Y0202161D01*
X0224382Y0204919D02*
X0246868Y0204919D01*
X0248055Y0206518D02*
X0224935Y0206518D01*
X0224935Y0208116D02*
X0248455Y0208116D01*
X0247038Y0209715D02*
X0224935Y0209715D01*
X0224935Y0211313D02*
X0246417Y0211313D01*
X0246300Y0212912D02*
X0224935Y0212912D01*
X0223231Y0214510D02*
X0246675Y0214510D01*
X0247646Y0216109D02*
X0223400Y0216109D01*
X0223400Y0217707D02*
X0249061Y0217707D01*
X0247311Y0219306D02*
X0223400Y0219306D01*
X0223400Y0220904D02*
X0246530Y0220904D01*
X0256543Y0235291D02*
X0257057Y0235291D01*
X0258506Y0236889D02*
X0255094Y0236889D01*
X0267070Y0220904D02*
X0279305Y0220904D01*
X0276907Y0219306D02*
X0266289Y0219306D01*
X0264539Y0217707D02*
X0275192Y0217707D01*
X0275347Y0216109D02*
X0265954Y0216109D01*
X0266925Y0214510D02*
X0276386Y0214510D01*
X0275192Y0212912D02*
X0267300Y0212912D01*
X0267183Y0211313D02*
X0275192Y0211313D01*
X0275192Y0209715D02*
X0266562Y0209715D01*
X0265145Y0208116D02*
X0275667Y0208116D01*
X0276364Y0207419D02*
X0276364Y0207419D01*
X0277265Y0206518D02*
X0265545Y0206518D01*
X0266732Y0204919D02*
X0298195Y0204919D01*
X0298195Y0203320D02*
X0267236Y0203320D01*
X0267248Y0201722D02*
X0298195Y0201722D01*
X0299192Y0200123D02*
X0266770Y0200123D01*
X0286327Y0206518D02*
X0298815Y0206518D01*
X0298195Y0208116D02*
X0287926Y0208116D01*
X0288400Y0209715D02*
X0298195Y0209715D01*
X0298195Y0211313D02*
X0288400Y0211313D01*
X0288400Y0212912D02*
X0298763Y0212912D01*
X0298195Y0214510D02*
X0287207Y0214510D01*
X0288245Y0216109D02*
X0298195Y0216109D01*
X0298195Y0217707D02*
X0288400Y0217707D01*
X0284118Y0219306D02*
X0298195Y0219306D01*
X0299243Y0220904D02*
X0286516Y0220904D01*
X0288400Y0222503D02*
X0298284Y0222503D01*
X0298195Y0224101D02*
X0288358Y0224101D01*
X0288400Y0225700D02*
X0299728Y0225700D01*
X0298195Y0227298D02*
X0288400Y0227298D01*
X0288400Y0228897D02*
X0298615Y0228897D01*
X0298872Y0230495D02*
X0288400Y0230495D01*
X0288039Y0232094D02*
X0298195Y0232094D01*
X0298918Y0233692D02*
X0286440Y0233692D01*
X0286865Y0233267D02*
X0286865Y0233267D01*
X0298195Y0244882D02*
X0163221Y0244882D01*
X0156127Y0235291D02*
X0154116Y0235291D01*
X0151076Y0224101D02*
X0141867Y0224101D01*
X0142100Y0222503D02*
X0150192Y0222503D01*
X0150848Y0220904D02*
X0141882Y0220904D01*
X0141117Y0219306D02*
X0152447Y0219306D01*
X0151364Y0220389D02*
X0151364Y0220389D01*
X0154046Y0217707D02*
X0139116Y0217707D01*
X0154192Y0195328D02*
X0154796Y0195328D01*
X0155004Y0193729D02*
X0154522Y0193729D01*
X0158796Y0180941D02*
X0159400Y0180941D01*
X0158496Y0179343D02*
X0158014Y0179343D01*
X0201154Y0179343D02*
X0247284Y0179343D01*
X0210872Y0201722D02*
X0202100Y0201722D01*
X0202100Y0203320D02*
X0210192Y0203320D01*
X0211052Y0204919D02*
X0201528Y0204919D01*
X0217092Y0214510D02*
X0219569Y0214510D01*
X0219400Y0216109D02*
X0217261Y0216109D01*
X0301995Y0187335D02*
X0305596Y0187335D01*
X0307663Y0187335D02*
X0310701Y0187335D01*
X0310701Y0185737D02*
X0308156Y0185737D01*
X0308400Y0184138D02*
X0310701Y0184138D01*
X0310701Y0188934D02*
X0308454Y0188934D01*
X0307651Y0190532D02*
X0310701Y0190532D01*
X0310701Y0192131D02*
X0308191Y0192131D01*
X0308488Y0193729D02*
X0310701Y0193729D01*
X0303739Y0193729D02*
X0302856Y0193729D01*
X0307471Y0168153D02*
X0310701Y0168153D01*
X0310701Y0166555D02*
X0308400Y0166555D01*
X0308400Y0164956D02*
X0310701Y0164956D01*
X0310701Y0163358D02*
X0308243Y0163358D01*
X0306644Y0161759D02*
X0310701Y0161759D01*
X0310701Y0160161D02*
X0304130Y0160161D01*
X0304221Y0161759D02*
X0303441Y0161759D01*
X0308400Y0158562D02*
X0310701Y0158562D01*
X0310701Y0156964D02*
X0308314Y0156964D01*
X0307388Y0155365D02*
X0310701Y0155365D01*
X0310701Y0153767D02*
X0308400Y0153767D01*
X0308400Y0152168D02*
X0310701Y0152168D01*
X0310701Y0150570D02*
X0308366Y0150570D01*
X0307337Y0148971D02*
X0310701Y0148971D01*
X0310701Y0147373D02*
X0308400Y0147373D01*
X0308358Y0145774D02*
X0310701Y0145774D01*
X0310701Y0144176D02*
X0308400Y0144176D01*
X0144557Y0062652D02*
X0135488Y0062652D01*
X0137363Y0061053D02*
X0142631Y0061053D01*
X0141566Y0059454D02*
X0138393Y0059454D01*
X0138940Y0057856D02*
X0140904Y0057856D01*
X0132403Y0057856D02*
X0130803Y0057856D01*
X0130803Y0059454D02*
X0132403Y0059454D01*
X0132403Y0061053D02*
X0130803Y0061053D01*
X0130803Y0062652D02*
X0132403Y0062652D01*
X0124249Y0054659D02*
X0122330Y0054659D01*
X0121668Y0053060D02*
X0124786Y0053060D01*
X0125793Y0051462D02*
X0120641Y0051462D01*
X0118809Y0049863D02*
X0127603Y0049863D01*
X0130803Y0049863D02*
X0132403Y0049863D01*
X0132403Y0051462D02*
X0130803Y0051462D01*
X0130803Y0053060D02*
X0132403Y0053060D01*
X0111326Y0049863D02*
X0102532Y0049863D01*
X0104342Y0051462D02*
X0109494Y0051462D01*
X0108467Y0053060D02*
X0105349Y0053060D01*
X0105886Y0054659D02*
X0107805Y0054659D01*
X0099332Y0053060D02*
X0097732Y0053060D01*
X0097732Y0051462D02*
X0099332Y0051462D01*
X0099332Y0049863D02*
X0097732Y0049863D01*
X0097732Y0072243D02*
X0099332Y0072243D01*
X0099332Y0073841D02*
X0097732Y0073841D01*
X0097732Y0075440D02*
X0099332Y0075440D01*
X0099332Y0077038D02*
X0097732Y0077038D01*
X0097732Y0081834D02*
X0099332Y0081834D01*
X0099332Y0083432D02*
X0097732Y0083432D01*
X0097732Y0085031D02*
X0099332Y0085031D01*
X0100849Y0085031D02*
X0112751Y0085031D01*
X0114268Y0085031D02*
X0115868Y0085031D01*
X0117385Y0085031D02*
X0129286Y0085031D01*
X0130803Y0085031D02*
X0132403Y0085031D01*
X0132403Y0083432D02*
X0130803Y0083432D01*
X0130803Y0081834D02*
X0132403Y0081834D01*
X0132403Y0077038D02*
X0130803Y0077038D01*
X0130803Y0075440D02*
X0132403Y0075440D01*
X0132403Y0073841D02*
X0130803Y0073841D01*
X0130803Y0072243D02*
X0132403Y0072243D01*
X0126620Y0072243D02*
X0120051Y0072243D01*
X0121407Y0073841D02*
X0125264Y0073841D01*
X0124486Y0075440D02*
X0122185Y0075440D01*
X0122531Y0077038D02*
X0124140Y0077038D01*
X0124461Y0080235D02*
X0122210Y0080235D01*
X0121454Y0081834D02*
X0125217Y0081834D01*
X0126538Y0083432D02*
X0120132Y0083432D01*
X0115868Y0083432D02*
X0114268Y0083432D01*
X0114268Y0081834D02*
X0115868Y0081834D01*
X0115868Y0077038D02*
X0114268Y0077038D01*
X0114268Y0075440D02*
X0115868Y0075440D01*
X0115868Y0073841D02*
X0114268Y0073841D01*
X0114268Y0072243D02*
X0115868Y0072243D01*
X0110084Y0072243D02*
X0103516Y0072243D01*
X0104872Y0073841D02*
X0108728Y0073841D01*
X0107950Y0075440D02*
X0105650Y0075440D01*
X0105995Y0077038D02*
X0107605Y0077038D01*
X0107926Y0080235D02*
X0105674Y0080235D01*
X0104919Y0081834D02*
X0108681Y0081834D01*
X0110003Y0083432D02*
X0103597Y0083432D01*
X0091069Y0077038D02*
X0089305Y0077038D01*
X0088898Y0075440D02*
X0091415Y0075440D01*
X0092193Y0073841D02*
X0088236Y0073841D01*
X0086697Y0072243D02*
X0093549Y0072243D01*
X0057576Y0104213D02*
X0036024Y0104213D01*
X0036844Y0105811D02*
X0056756Y0105811D01*
X0056500Y0107410D02*
X0037100Y0107410D01*
X0036905Y0109008D02*
X0056695Y0109008D01*
X0057427Y0110607D02*
X0036173Y0110607D01*
X0034252Y0112205D02*
X0059348Y0112205D01*
X0031800Y0107484D02*
X0031800Y0077878D01*
X0032391Y0077878D01*
X0039291Y0075440D02*
X0042025Y0075440D01*
X0041617Y0077038D02*
X0039699Y0077038D01*
X0039699Y0078637D02*
X0041617Y0078637D01*
X0041992Y0080235D02*
X0039325Y0080235D01*
X0038663Y0081834D02*
X0042654Y0081834D01*
X0044144Y0083432D02*
X0037172Y0083432D01*
X0029400Y0085031D02*
X0018172Y0085031D01*
X0018274Y0085003D02*
X0017323Y0085258D01*
X0016655Y0085346D01*
X0016655Y0078678D01*
X0015055Y0078678D01*
X0015055Y0077078D01*
X0016655Y0077078D01*
X0016655Y0078678D01*
X0023323Y0078678D01*
X0023235Y0079346D01*
X0022981Y0080297D01*
X0022604Y0081206D01*
X0022112Y0082058D01*
X0021513Y0082839D01*
X0020817Y0083535D01*
X0020036Y0084135D01*
X0019183Y0084627D01*
X0018274Y0085003D01*
X0016655Y0085031D02*
X0015055Y0085031D01*
X0015055Y0085346D02*
X0014387Y0085258D01*
X0013436Y0085003D01*
X0012527Y0084627D01*
X0011675Y0084135D01*
X0010894Y0083535D01*
X0010198Y0082839D01*
X0009598Y0082058D01*
X0009106Y0081206D01*
X0008730Y0080297D01*
X0008475Y0079346D01*
X0008387Y0078678D01*
X0015055Y0078678D01*
X0015055Y0085346D01*
X0013538Y0085031D02*
X0006600Y0085031D01*
X0006600Y0086629D02*
X0029400Y0086629D01*
X0029400Y0088228D02*
X0006600Y0088228D01*
X0006600Y0089826D02*
X0029400Y0089826D01*
X0029400Y0091425D02*
X0006600Y0091425D01*
X0006600Y0093023D02*
X0029400Y0093023D01*
X0029400Y0094622D02*
X0006600Y0094622D01*
X0006600Y0096220D02*
X0029400Y0096220D01*
X0029400Y0097819D02*
X0006600Y0097819D01*
X0006600Y0099417D02*
X0029400Y0099417D01*
X0029400Y0101016D02*
X0006600Y0101016D01*
X0006600Y0102614D02*
X0029400Y0102614D01*
X0027576Y0104213D02*
X0006600Y0104213D01*
X0006600Y0105811D02*
X0026756Y0105811D01*
X0026500Y0107410D02*
X0006600Y0107410D01*
X0006600Y0109008D02*
X0026695Y0109008D01*
X0027427Y0110607D02*
X0006600Y0110607D01*
X0006600Y0112205D02*
X0029348Y0112205D01*
X0038109Y0137782D02*
X0019296Y0137782D01*
X0021191Y0139380D02*
X0036510Y0139380D01*
X0020782Y0148971D02*
X0072818Y0148971D01*
X0071856Y0150570D02*
X0021744Y0150570D01*
X0022100Y0152168D02*
X0071500Y0152168D01*
X0071595Y0153767D02*
X0022005Y0153767D01*
X0021343Y0155365D02*
X0072257Y0155365D01*
X0073784Y0156964D02*
X0019816Y0156964D01*
X0020373Y0158562D02*
X0073227Y0158562D01*
X0072026Y0160161D02*
X0021574Y0160161D01*
X0022100Y0161759D02*
X0071500Y0161759D01*
X0071500Y0163358D02*
X0022100Y0163358D01*
X0021513Y0164956D02*
X0072087Y0164956D01*
X0073375Y0166555D02*
X0020225Y0166555D01*
X0019964Y0168153D02*
X0073636Y0168153D01*
X0074752Y0147373D02*
X0018848Y0147373D01*
X0037706Y0180941D02*
X0039722Y0180941D01*
X0039400Y0182540D02*
X0037261Y0182540D01*
X0095339Y0217707D02*
X0098253Y0217707D01*
X0097865Y0219306D02*
X0095727Y0219306D01*
X0095056Y0220904D02*
X0094575Y0220904D01*
X0094796Y0222503D02*
X0094192Y0222503D01*
X0098536Y0220904D02*
X0099018Y0220904D01*
X0098796Y0222503D02*
X0099400Y0222503D01*
X0101865Y0225891D02*
X0101865Y0225891D01*
X0027609Y0083432D02*
X0020920Y0083432D01*
X0022242Y0081834D02*
X0026118Y0081834D01*
X0025456Y0080235D02*
X0022997Y0080235D01*
X0025082Y0078637D02*
X0016655Y0078637D01*
X0016655Y0080235D02*
X0015055Y0080235D01*
X0015055Y0078637D02*
X0006600Y0078637D01*
X0006600Y0080235D02*
X0008713Y0080235D01*
X0009469Y0081834D02*
X0006600Y0081834D01*
X0006600Y0083432D02*
X0010790Y0083432D01*
X0015055Y0083432D02*
X0016655Y0083432D01*
X0016655Y0081834D02*
X0015055Y0081834D01*
X0015055Y0077038D02*
X0016655Y0077038D01*
X0016655Y0075440D02*
X0015055Y0075440D01*
X0015055Y0073841D02*
X0016655Y0073841D01*
X0016655Y0072243D02*
X0015055Y0072243D01*
X0010872Y0072243D02*
X0006600Y0072243D01*
X0006600Y0073841D02*
X0009516Y0073841D01*
X0008738Y0075440D02*
X0006600Y0075440D01*
X0006600Y0077038D02*
X0008392Y0077038D01*
X0020839Y0072243D02*
X0027690Y0072243D01*
X0026152Y0073841D02*
X0022195Y0073841D01*
X0022972Y0075440D02*
X0025490Y0075440D01*
X0025082Y0077038D02*
X0023318Y0077038D01*
X0037091Y0072243D02*
X0044225Y0072243D01*
X0042687Y0073841D02*
X0038629Y0073841D01*
D17*
X0016800Y0232484D03*
M02*
