G75*
%MOIN*%
%OFA0B0*%
%FSLAX25Y25*%
%IPPOS*%
%LPD*%
%AMOC8*
5,1,8,0,0,1.08239X$1,22.5*
%
%ADD10C,0.00000*%
%ADD11C,0.01200*%
%ADD12C,0.00600*%
%ADD13C,0.01000*%
%ADD14C,0.00500*%
%ADD15C,0.00800*%
%ADD16C,0.00700*%
D10*
X0001800Y0017484D02*
X0001800Y0252445D01*
X0315501Y0252445D01*
X0315501Y0017484D01*
X0001800Y0017484D01*
X0009949Y0027484D02*
X0009951Y0027637D01*
X0009957Y0027791D01*
X0009967Y0027944D01*
X0009981Y0028096D01*
X0009999Y0028249D01*
X0010021Y0028400D01*
X0010046Y0028551D01*
X0010076Y0028702D01*
X0010110Y0028852D01*
X0010147Y0029000D01*
X0010188Y0029148D01*
X0010233Y0029294D01*
X0010282Y0029440D01*
X0010335Y0029584D01*
X0010391Y0029726D01*
X0010451Y0029867D01*
X0010515Y0030007D01*
X0010582Y0030145D01*
X0010653Y0030281D01*
X0010728Y0030415D01*
X0010805Y0030547D01*
X0010887Y0030677D01*
X0010971Y0030805D01*
X0011059Y0030931D01*
X0011150Y0031054D01*
X0011244Y0031175D01*
X0011342Y0031293D01*
X0011442Y0031409D01*
X0011546Y0031522D01*
X0011652Y0031633D01*
X0011761Y0031741D01*
X0011873Y0031846D01*
X0011987Y0031947D01*
X0012105Y0032046D01*
X0012224Y0032142D01*
X0012346Y0032235D01*
X0012471Y0032324D01*
X0012598Y0032411D01*
X0012727Y0032493D01*
X0012858Y0032573D01*
X0012991Y0032649D01*
X0013126Y0032722D01*
X0013263Y0032791D01*
X0013402Y0032856D01*
X0013542Y0032918D01*
X0013684Y0032976D01*
X0013827Y0033031D01*
X0013972Y0033082D01*
X0014118Y0033129D01*
X0014265Y0033172D01*
X0014413Y0033211D01*
X0014562Y0033247D01*
X0014712Y0033278D01*
X0014863Y0033306D01*
X0015014Y0033330D01*
X0015167Y0033350D01*
X0015319Y0033366D01*
X0015472Y0033378D01*
X0015625Y0033386D01*
X0015778Y0033390D01*
X0015932Y0033390D01*
X0016085Y0033386D01*
X0016238Y0033378D01*
X0016391Y0033366D01*
X0016543Y0033350D01*
X0016696Y0033330D01*
X0016847Y0033306D01*
X0016998Y0033278D01*
X0017148Y0033247D01*
X0017297Y0033211D01*
X0017445Y0033172D01*
X0017592Y0033129D01*
X0017738Y0033082D01*
X0017883Y0033031D01*
X0018026Y0032976D01*
X0018168Y0032918D01*
X0018308Y0032856D01*
X0018447Y0032791D01*
X0018584Y0032722D01*
X0018719Y0032649D01*
X0018852Y0032573D01*
X0018983Y0032493D01*
X0019112Y0032411D01*
X0019239Y0032324D01*
X0019364Y0032235D01*
X0019486Y0032142D01*
X0019605Y0032046D01*
X0019723Y0031947D01*
X0019837Y0031846D01*
X0019949Y0031741D01*
X0020058Y0031633D01*
X0020164Y0031522D01*
X0020268Y0031409D01*
X0020368Y0031293D01*
X0020466Y0031175D01*
X0020560Y0031054D01*
X0020651Y0030931D01*
X0020739Y0030805D01*
X0020823Y0030677D01*
X0020905Y0030547D01*
X0020982Y0030415D01*
X0021057Y0030281D01*
X0021128Y0030145D01*
X0021195Y0030007D01*
X0021259Y0029867D01*
X0021319Y0029726D01*
X0021375Y0029584D01*
X0021428Y0029440D01*
X0021477Y0029294D01*
X0021522Y0029148D01*
X0021563Y0029000D01*
X0021600Y0028852D01*
X0021634Y0028702D01*
X0021664Y0028551D01*
X0021689Y0028400D01*
X0021711Y0028249D01*
X0021729Y0028096D01*
X0021743Y0027944D01*
X0021753Y0027791D01*
X0021759Y0027637D01*
X0021761Y0027484D01*
X0021759Y0027331D01*
X0021753Y0027177D01*
X0021743Y0027024D01*
X0021729Y0026872D01*
X0021711Y0026719D01*
X0021689Y0026568D01*
X0021664Y0026417D01*
X0021634Y0026266D01*
X0021600Y0026116D01*
X0021563Y0025968D01*
X0021522Y0025820D01*
X0021477Y0025674D01*
X0021428Y0025528D01*
X0021375Y0025384D01*
X0021319Y0025242D01*
X0021259Y0025101D01*
X0021195Y0024961D01*
X0021128Y0024823D01*
X0021057Y0024687D01*
X0020982Y0024553D01*
X0020905Y0024421D01*
X0020823Y0024291D01*
X0020739Y0024163D01*
X0020651Y0024037D01*
X0020560Y0023914D01*
X0020466Y0023793D01*
X0020368Y0023675D01*
X0020268Y0023559D01*
X0020164Y0023446D01*
X0020058Y0023335D01*
X0019949Y0023227D01*
X0019837Y0023122D01*
X0019723Y0023021D01*
X0019605Y0022922D01*
X0019486Y0022826D01*
X0019364Y0022733D01*
X0019239Y0022644D01*
X0019112Y0022557D01*
X0018983Y0022475D01*
X0018852Y0022395D01*
X0018719Y0022319D01*
X0018584Y0022246D01*
X0018447Y0022177D01*
X0018308Y0022112D01*
X0018168Y0022050D01*
X0018026Y0021992D01*
X0017883Y0021937D01*
X0017738Y0021886D01*
X0017592Y0021839D01*
X0017445Y0021796D01*
X0017297Y0021757D01*
X0017148Y0021721D01*
X0016998Y0021690D01*
X0016847Y0021662D01*
X0016696Y0021638D01*
X0016543Y0021618D01*
X0016391Y0021602D01*
X0016238Y0021590D01*
X0016085Y0021582D01*
X0015932Y0021578D01*
X0015778Y0021578D01*
X0015625Y0021582D01*
X0015472Y0021590D01*
X0015319Y0021602D01*
X0015167Y0021618D01*
X0015014Y0021638D01*
X0014863Y0021662D01*
X0014712Y0021690D01*
X0014562Y0021721D01*
X0014413Y0021757D01*
X0014265Y0021796D01*
X0014118Y0021839D01*
X0013972Y0021886D01*
X0013827Y0021937D01*
X0013684Y0021992D01*
X0013542Y0022050D01*
X0013402Y0022112D01*
X0013263Y0022177D01*
X0013126Y0022246D01*
X0012991Y0022319D01*
X0012858Y0022395D01*
X0012727Y0022475D01*
X0012598Y0022557D01*
X0012471Y0022644D01*
X0012346Y0022733D01*
X0012224Y0022826D01*
X0012105Y0022922D01*
X0011987Y0023021D01*
X0011873Y0023122D01*
X0011761Y0023227D01*
X0011652Y0023335D01*
X0011546Y0023446D01*
X0011442Y0023559D01*
X0011342Y0023675D01*
X0011244Y0023793D01*
X0011150Y0023914D01*
X0011059Y0024037D01*
X0010971Y0024163D01*
X0010887Y0024291D01*
X0010805Y0024421D01*
X0010728Y0024553D01*
X0010653Y0024687D01*
X0010582Y0024823D01*
X0010515Y0024961D01*
X0010451Y0025101D01*
X0010391Y0025242D01*
X0010335Y0025384D01*
X0010282Y0025528D01*
X0010233Y0025674D01*
X0010188Y0025820D01*
X0010147Y0025968D01*
X0010110Y0026116D01*
X0010076Y0026266D01*
X0010046Y0026417D01*
X0010021Y0026568D01*
X0009999Y0026719D01*
X0009981Y0026872D01*
X0009967Y0027024D01*
X0009957Y0027177D01*
X0009951Y0027331D01*
X0009949Y0027484D01*
X0015619Y0027484D02*
X0015621Y0027553D01*
X0015627Y0027621D01*
X0015637Y0027689D01*
X0015651Y0027756D01*
X0015669Y0027823D01*
X0015690Y0027888D01*
X0015716Y0027952D01*
X0015745Y0028014D01*
X0015777Y0028074D01*
X0015813Y0028133D01*
X0015853Y0028189D01*
X0015895Y0028243D01*
X0015941Y0028294D01*
X0015990Y0028343D01*
X0016041Y0028389D01*
X0016095Y0028431D01*
X0016151Y0028471D01*
X0016209Y0028507D01*
X0016270Y0028539D01*
X0016332Y0028568D01*
X0016396Y0028594D01*
X0016461Y0028615D01*
X0016528Y0028633D01*
X0016595Y0028647D01*
X0016663Y0028657D01*
X0016731Y0028663D01*
X0016800Y0028665D01*
X0016869Y0028663D01*
X0016937Y0028657D01*
X0017005Y0028647D01*
X0017072Y0028633D01*
X0017139Y0028615D01*
X0017204Y0028594D01*
X0017268Y0028568D01*
X0017330Y0028539D01*
X0017390Y0028507D01*
X0017449Y0028471D01*
X0017505Y0028431D01*
X0017559Y0028389D01*
X0017610Y0028343D01*
X0017659Y0028294D01*
X0017705Y0028243D01*
X0017747Y0028189D01*
X0017787Y0028133D01*
X0017823Y0028074D01*
X0017855Y0028014D01*
X0017884Y0027952D01*
X0017910Y0027888D01*
X0017931Y0027823D01*
X0017949Y0027756D01*
X0017963Y0027689D01*
X0017973Y0027621D01*
X0017979Y0027553D01*
X0017981Y0027484D01*
X0017979Y0027415D01*
X0017973Y0027347D01*
X0017963Y0027279D01*
X0017949Y0027212D01*
X0017931Y0027145D01*
X0017910Y0027080D01*
X0017884Y0027016D01*
X0017855Y0026954D01*
X0017823Y0026893D01*
X0017787Y0026835D01*
X0017747Y0026779D01*
X0017705Y0026725D01*
X0017659Y0026674D01*
X0017610Y0026625D01*
X0017559Y0026579D01*
X0017505Y0026537D01*
X0017449Y0026497D01*
X0017391Y0026461D01*
X0017330Y0026429D01*
X0017268Y0026400D01*
X0017204Y0026374D01*
X0017139Y0026353D01*
X0017072Y0026335D01*
X0017005Y0026321D01*
X0016937Y0026311D01*
X0016869Y0026305D01*
X0016800Y0026303D01*
X0016731Y0026305D01*
X0016663Y0026311D01*
X0016595Y0026321D01*
X0016528Y0026335D01*
X0016461Y0026353D01*
X0016396Y0026374D01*
X0016332Y0026400D01*
X0016270Y0026429D01*
X0016209Y0026461D01*
X0016151Y0026497D01*
X0016095Y0026537D01*
X0016041Y0026579D01*
X0015990Y0026625D01*
X0015941Y0026674D01*
X0015895Y0026725D01*
X0015853Y0026779D01*
X0015813Y0026835D01*
X0015777Y0026893D01*
X0015745Y0026954D01*
X0015716Y0027016D01*
X0015690Y0027080D01*
X0015669Y0027145D01*
X0015651Y0027212D01*
X0015637Y0027279D01*
X0015627Y0027347D01*
X0015621Y0027415D01*
X0015619Y0027484D01*
X0195619Y0027484D02*
X0195621Y0027553D01*
X0195627Y0027621D01*
X0195637Y0027689D01*
X0195651Y0027756D01*
X0195669Y0027823D01*
X0195690Y0027888D01*
X0195716Y0027952D01*
X0195745Y0028014D01*
X0195777Y0028074D01*
X0195813Y0028133D01*
X0195853Y0028189D01*
X0195895Y0028243D01*
X0195941Y0028294D01*
X0195990Y0028343D01*
X0196041Y0028389D01*
X0196095Y0028431D01*
X0196151Y0028471D01*
X0196209Y0028507D01*
X0196270Y0028539D01*
X0196332Y0028568D01*
X0196396Y0028594D01*
X0196461Y0028615D01*
X0196528Y0028633D01*
X0196595Y0028647D01*
X0196663Y0028657D01*
X0196731Y0028663D01*
X0196800Y0028665D01*
X0196869Y0028663D01*
X0196937Y0028657D01*
X0197005Y0028647D01*
X0197072Y0028633D01*
X0197139Y0028615D01*
X0197204Y0028594D01*
X0197268Y0028568D01*
X0197330Y0028539D01*
X0197390Y0028507D01*
X0197449Y0028471D01*
X0197505Y0028431D01*
X0197559Y0028389D01*
X0197610Y0028343D01*
X0197659Y0028294D01*
X0197705Y0028243D01*
X0197747Y0028189D01*
X0197787Y0028133D01*
X0197823Y0028074D01*
X0197855Y0028014D01*
X0197884Y0027952D01*
X0197910Y0027888D01*
X0197931Y0027823D01*
X0197949Y0027756D01*
X0197963Y0027689D01*
X0197973Y0027621D01*
X0197979Y0027553D01*
X0197981Y0027484D01*
X0197979Y0027415D01*
X0197973Y0027347D01*
X0197963Y0027279D01*
X0197949Y0027212D01*
X0197931Y0027145D01*
X0197910Y0027080D01*
X0197884Y0027016D01*
X0197855Y0026954D01*
X0197823Y0026893D01*
X0197787Y0026835D01*
X0197747Y0026779D01*
X0197705Y0026725D01*
X0197659Y0026674D01*
X0197610Y0026625D01*
X0197559Y0026579D01*
X0197505Y0026537D01*
X0197449Y0026497D01*
X0197391Y0026461D01*
X0197330Y0026429D01*
X0197268Y0026400D01*
X0197204Y0026374D01*
X0197139Y0026353D01*
X0197072Y0026335D01*
X0197005Y0026321D01*
X0196937Y0026311D01*
X0196869Y0026305D01*
X0196800Y0026303D01*
X0196731Y0026305D01*
X0196663Y0026311D01*
X0196595Y0026321D01*
X0196528Y0026335D01*
X0196461Y0026353D01*
X0196396Y0026374D01*
X0196332Y0026400D01*
X0196270Y0026429D01*
X0196209Y0026461D01*
X0196151Y0026497D01*
X0196095Y0026537D01*
X0196041Y0026579D01*
X0195990Y0026625D01*
X0195941Y0026674D01*
X0195895Y0026725D01*
X0195853Y0026779D01*
X0195813Y0026835D01*
X0195777Y0026893D01*
X0195745Y0026954D01*
X0195716Y0027016D01*
X0195690Y0027080D01*
X0195669Y0027145D01*
X0195651Y0027212D01*
X0195637Y0027279D01*
X0195627Y0027347D01*
X0195621Y0027415D01*
X0195619Y0027484D01*
X0191839Y0027484D02*
X0191841Y0027637D01*
X0191847Y0027791D01*
X0191857Y0027944D01*
X0191871Y0028096D01*
X0191889Y0028249D01*
X0191911Y0028400D01*
X0191936Y0028551D01*
X0191966Y0028702D01*
X0192000Y0028852D01*
X0192037Y0029000D01*
X0192078Y0029148D01*
X0192123Y0029294D01*
X0192172Y0029440D01*
X0192225Y0029584D01*
X0192281Y0029726D01*
X0192341Y0029867D01*
X0192405Y0030007D01*
X0192472Y0030145D01*
X0192543Y0030281D01*
X0192618Y0030415D01*
X0192695Y0030547D01*
X0192777Y0030677D01*
X0192861Y0030805D01*
X0192949Y0030931D01*
X0193040Y0031054D01*
X0193134Y0031175D01*
X0193232Y0031293D01*
X0193332Y0031409D01*
X0193436Y0031522D01*
X0193542Y0031633D01*
X0193651Y0031741D01*
X0193763Y0031846D01*
X0193877Y0031947D01*
X0193995Y0032046D01*
X0194114Y0032142D01*
X0194236Y0032235D01*
X0194361Y0032324D01*
X0194488Y0032411D01*
X0194617Y0032493D01*
X0194748Y0032573D01*
X0194881Y0032649D01*
X0195016Y0032722D01*
X0195153Y0032791D01*
X0195292Y0032856D01*
X0195432Y0032918D01*
X0195574Y0032976D01*
X0195717Y0033031D01*
X0195862Y0033082D01*
X0196008Y0033129D01*
X0196155Y0033172D01*
X0196303Y0033211D01*
X0196452Y0033247D01*
X0196602Y0033278D01*
X0196753Y0033306D01*
X0196904Y0033330D01*
X0197057Y0033350D01*
X0197209Y0033366D01*
X0197362Y0033378D01*
X0197515Y0033386D01*
X0197668Y0033390D01*
X0197822Y0033390D01*
X0197975Y0033386D01*
X0198128Y0033378D01*
X0198281Y0033366D01*
X0198433Y0033350D01*
X0198586Y0033330D01*
X0198737Y0033306D01*
X0198888Y0033278D01*
X0199038Y0033247D01*
X0199187Y0033211D01*
X0199335Y0033172D01*
X0199482Y0033129D01*
X0199628Y0033082D01*
X0199773Y0033031D01*
X0199916Y0032976D01*
X0200058Y0032918D01*
X0200198Y0032856D01*
X0200337Y0032791D01*
X0200474Y0032722D01*
X0200609Y0032649D01*
X0200742Y0032573D01*
X0200873Y0032493D01*
X0201002Y0032411D01*
X0201129Y0032324D01*
X0201254Y0032235D01*
X0201376Y0032142D01*
X0201495Y0032046D01*
X0201613Y0031947D01*
X0201727Y0031846D01*
X0201839Y0031741D01*
X0201948Y0031633D01*
X0202054Y0031522D01*
X0202158Y0031409D01*
X0202258Y0031293D01*
X0202356Y0031175D01*
X0202450Y0031054D01*
X0202541Y0030931D01*
X0202629Y0030805D01*
X0202713Y0030677D01*
X0202795Y0030547D01*
X0202872Y0030415D01*
X0202947Y0030281D01*
X0203018Y0030145D01*
X0203085Y0030007D01*
X0203149Y0029867D01*
X0203209Y0029726D01*
X0203265Y0029584D01*
X0203318Y0029440D01*
X0203367Y0029294D01*
X0203412Y0029148D01*
X0203453Y0029000D01*
X0203490Y0028852D01*
X0203524Y0028702D01*
X0203554Y0028551D01*
X0203579Y0028400D01*
X0203601Y0028249D01*
X0203619Y0028096D01*
X0203633Y0027944D01*
X0203643Y0027791D01*
X0203649Y0027637D01*
X0203651Y0027484D01*
X0203649Y0027331D01*
X0203643Y0027177D01*
X0203633Y0027024D01*
X0203619Y0026872D01*
X0203601Y0026719D01*
X0203579Y0026568D01*
X0203554Y0026417D01*
X0203524Y0026266D01*
X0203490Y0026116D01*
X0203453Y0025968D01*
X0203412Y0025820D01*
X0203367Y0025674D01*
X0203318Y0025528D01*
X0203265Y0025384D01*
X0203209Y0025242D01*
X0203149Y0025101D01*
X0203085Y0024961D01*
X0203018Y0024823D01*
X0202947Y0024687D01*
X0202872Y0024553D01*
X0202795Y0024421D01*
X0202713Y0024291D01*
X0202629Y0024163D01*
X0202541Y0024037D01*
X0202450Y0023914D01*
X0202356Y0023793D01*
X0202258Y0023675D01*
X0202158Y0023559D01*
X0202054Y0023446D01*
X0201948Y0023335D01*
X0201839Y0023227D01*
X0201727Y0023122D01*
X0201613Y0023021D01*
X0201495Y0022922D01*
X0201376Y0022826D01*
X0201254Y0022733D01*
X0201129Y0022644D01*
X0201002Y0022557D01*
X0200873Y0022475D01*
X0200742Y0022395D01*
X0200609Y0022319D01*
X0200474Y0022246D01*
X0200337Y0022177D01*
X0200198Y0022112D01*
X0200058Y0022050D01*
X0199916Y0021992D01*
X0199773Y0021937D01*
X0199628Y0021886D01*
X0199482Y0021839D01*
X0199335Y0021796D01*
X0199187Y0021757D01*
X0199038Y0021721D01*
X0198888Y0021690D01*
X0198737Y0021662D01*
X0198586Y0021638D01*
X0198433Y0021618D01*
X0198281Y0021602D01*
X0198128Y0021590D01*
X0197975Y0021582D01*
X0197822Y0021578D01*
X0197668Y0021578D01*
X0197515Y0021582D01*
X0197362Y0021590D01*
X0197209Y0021602D01*
X0197057Y0021618D01*
X0196904Y0021638D01*
X0196753Y0021662D01*
X0196602Y0021690D01*
X0196452Y0021721D01*
X0196303Y0021757D01*
X0196155Y0021796D01*
X0196008Y0021839D01*
X0195862Y0021886D01*
X0195717Y0021937D01*
X0195574Y0021992D01*
X0195432Y0022050D01*
X0195292Y0022112D01*
X0195153Y0022177D01*
X0195016Y0022246D01*
X0194881Y0022319D01*
X0194748Y0022395D01*
X0194617Y0022475D01*
X0194488Y0022557D01*
X0194361Y0022644D01*
X0194236Y0022733D01*
X0194114Y0022826D01*
X0193995Y0022922D01*
X0193877Y0023021D01*
X0193763Y0023122D01*
X0193651Y0023227D01*
X0193542Y0023335D01*
X0193436Y0023446D01*
X0193332Y0023559D01*
X0193232Y0023675D01*
X0193134Y0023793D01*
X0193040Y0023914D01*
X0192949Y0024037D01*
X0192861Y0024163D01*
X0192777Y0024291D01*
X0192695Y0024421D01*
X0192618Y0024553D01*
X0192543Y0024687D01*
X0192472Y0024823D01*
X0192405Y0024961D01*
X0192341Y0025101D01*
X0192281Y0025242D01*
X0192225Y0025384D01*
X0192172Y0025528D01*
X0192123Y0025674D01*
X0192078Y0025820D01*
X0192037Y0025968D01*
X0192000Y0026116D01*
X0191966Y0026266D01*
X0191936Y0026417D01*
X0191911Y0026568D01*
X0191889Y0026719D01*
X0191871Y0026872D01*
X0191857Y0027024D01*
X0191847Y0027177D01*
X0191841Y0027331D01*
X0191839Y0027484D01*
D11*
X0219294Y0138084D02*
X0219294Y0147292D01*
X0216992Y0151896D02*
X0212388Y0156500D01*
X0226200Y0156500D01*
X0226200Y0151896D02*
X0226200Y0161104D01*
X0226200Y0165708D02*
X0216992Y0174916D01*
X0214690Y0174916D01*
X0212388Y0172614D01*
X0212388Y0168010D01*
X0214690Y0165708D01*
X0226200Y0165708D02*
X0226200Y0174916D01*
X0221596Y0179520D02*
X0226200Y0184124D01*
X0221596Y0188728D01*
X0212388Y0188728D01*
X0212388Y0179520D02*
X0221596Y0179520D01*
X0228502Y0193331D02*
X0228502Y0202539D01*
X0223898Y0207143D02*
X0214690Y0216351D01*
X0223898Y0216351D01*
X0226200Y0214049D01*
X0226200Y0209445D01*
X0223898Y0207143D01*
X0214690Y0207143D01*
X0212388Y0209445D01*
X0212388Y0214049D01*
X0214690Y0216351D01*
X0223898Y0220955D02*
X0223898Y0223257D01*
X0226200Y0223257D01*
X0226200Y0220955D01*
X0223898Y0220955D01*
X0223898Y0227861D02*
X0226200Y0230163D01*
X0226200Y0234767D01*
X0223898Y0237069D01*
X0221596Y0237069D01*
X0219294Y0234767D01*
X0219294Y0232465D01*
X0219294Y0234767D02*
X0216992Y0237069D01*
X0214690Y0237069D01*
X0212388Y0234767D01*
X0212388Y0230163D01*
X0214690Y0227861D01*
X0216992Y0241673D02*
X0212388Y0246277D01*
X0216992Y0250881D01*
X0226200Y0250881D01*
X0219294Y0250881D02*
X0219294Y0241673D01*
X0216992Y0241673D02*
X0226200Y0241673D01*
X0274888Y0232614D02*
X0274888Y0225708D01*
X0288700Y0225708D01*
X0288700Y0232614D01*
X0286398Y0234916D01*
X0277190Y0234916D01*
X0274888Y0232614D01*
X0274888Y0221104D02*
X0288700Y0221104D01*
X0274888Y0211896D01*
X0288700Y0211896D01*
X0286398Y0207292D02*
X0281794Y0207292D01*
X0281794Y0202688D01*
X0277190Y0198084D02*
X0286398Y0198084D01*
X0288700Y0200386D01*
X0288700Y0204990D01*
X0286398Y0207292D01*
X0277190Y0207292D02*
X0274888Y0204990D01*
X0274888Y0200386D01*
X0277190Y0198084D01*
X0168502Y0196426D02*
X0168502Y0205633D01*
X0166200Y0210237D02*
X0166200Y0219445D01*
X0163898Y0224049D02*
X0166200Y0226351D01*
X0166200Y0230955D01*
X0163898Y0233257D01*
X0161596Y0233257D01*
X0159294Y0230955D01*
X0159294Y0224049D01*
X0163898Y0224049D01*
X0159294Y0224049D02*
X0154690Y0228653D01*
X0152388Y0233257D01*
X0156992Y0237861D02*
X0152388Y0242465D01*
X0156992Y0247069D01*
X0166200Y0247069D01*
X0159294Y0247069D02*
X0159294Y0237861D01*
X0156992Y0237861D02*
X0166200Y0237861D01*
X0166200Y0214841D02*
X0152388Y0214841D01*
X0156992Y0210237D01*
X0161596Y0191822D02*
X0152388Y0191822D01*
X0161596Y0191822D02*
X0166200Y0187218D01*
X0161596Y0182614D01*
X0152388Y0182614D01*
X0154690Y0178010D02*
X0156992Y0178010D01*
X0159294Y0175708D01*
X0161596Y0178010D01*
X0163898Y0178010D01*
X0166200Y0175708D01*
X0166200Y0171104D01*
X0163898Y0168802D01*
X0163898Y0164198D02*
X0166200Y0164198D01*
X0166200Y0161896D01*
X0163898Y0161896D01*
X0163898Y0164198D01*
X0163898Y0157292D02*
X0161596Y0157292D01*
X0159294Y0154990D01*
X0159294Y0152688D01*
X0159294Y0154990D02*
X0156992Y0157292D01*
X0154690Y0157292D01*
X0152388Y0154990D01*
X0152388Y0150386D01*
X0154690Y0148084D01*
X0163898Y0148084D02*
X0166200Y0150386D01*
X0166200Y0154990D01*
X0163898Y0157292D01*
X0154690Y0168802D02*
X0152388Y0171104D01*
X0152388Y0175708D01*
X0154690Y0178010D01*
X0159294Y0175708D02*
X0159294Y0173406D01*
X0108502Y0190708D02*
X0108502Y0199916D01*
X0106200Y0204520D02*
X0106200Y0213728D01*
X0106200Y0209124D02*
X0092388Y0209124D01*
X0096992Y0204520D01*
X0099294Y0218331D02*
X0099294Y0225237D01*
X0101596Y0227539D01*
X0103898Y0227539D01*
X0106200Y0225237D01*
X0106200Y0220633D01*
X0103898Y0218331D01*
X0099294Y0218331D01*
X0094690Y0222935D01*
X0092388Y0227539D01*
X0096992Y0232143D02*
X0092388Y0236747D01*
X0096992Y0241351D01*
X0106200Y0241351D01*
X0099294Y0241351D02*
X0099294Y0232143D01*
X0096992Y0232143D02*
X0106200Y0232143D01*
X0101596Y0186104D02*
X0092388Y0186104D01*
X0101596Y0186104D02*
X0106200Y0181500D01*
X0101596Y0176896D01*
X0092388Y0176896D01*
X0092388Y0172292D02*
X0092388Y0163084D01*
X0099294Y0163084D01*
X0096992Y0167688D01*
X0096992Y0169990D01*
X0099294Y0172292D01*
X0103898Y0172292D01*
X0106200Y0169990D01*
X0106200Y0165386D01*
X0103898Y0163084D01*
X0048502Y0193331D02*
X0048502Y0202539D01*
X0043898Y0207143D02*
X0046200Y0209445D01*
X0046200Y0214049D01*
X0043898Y0216351D01*
X0041596Y0216351D01*
X0039294Y0214049D01*
X0039294Y0211747D01*
X0039294Y0214049D02*
X0036992Y0216351D01*
X0034690Y0216351D01*
X0032388Y0214049D01*
X0032388Y0209445D01*
X0034690Y0207143D01*
X0034690Y0220955D02*
X0032388Y0223257D01*
X0032388Y0227861D01*
X0034690Y0230163D01*
X0036992Y0230163D01*
X0046200Y0220955D01*
X0046200Y0230163D01*
X0046200Y0234767D02*
X0036992Y0234767D01*
X0032388Y0239371D01*
X0036992Y0243975D01*
X0046200Y0243975D01*
X0039294Y0243975D02*
X0039294Y0234767D01*
X0041596Y0188728D02*
X0032388Y0188728D01*
X0041596Y0188728D02*
X0046200Y0184124D01*
X0041596Y0179520D01*
X0032388Y0179520D01*
X0034690Y0174916D02*
X0032388Y0172614D01*
X0032388Y0168010D01*
X0034690Y0165708D01*
X0034690Y0174916D02*
X0036992Y0174916D01*
X0046200Y0165708D01*
X0046200Y0174916D01*
X0046200Y0161104D02*
X0046200Y0151896D01*
X0046200Y0156500D02*
X0032388Y0156500D01*
X0036992Y0151896D01*
X0039294Y0147292D02*
X0039294Y0138084D01*
X0034690Y0142688D02*
X0043898Y0142688D01*
D12*
X0086800Y0107484D02*
X0086803Y0107729D01*
X0086812Y0107975D01*
X0086827Y0108220D01*
X0086848Y0108464D01*
X0086875Y0108708D01*
X0086908Y0108951D01*
X0086947Y0109194D01*
X0086992Y0109435D01*
X0087043Y0109675D01*
X0087100Y0109914D01*
X0087162Y0110151D01*
X0087231Y0110387D01*
X0087305Y0110621D01*
X0087385Y0110853D01*
X0087470Y0111083D01*
X0087561Y0111311D01*
X0087658Y0111536D01*
X0087760Y0111760D01*
X0087868Y0111980D01*
X0087981Y0112198D01*
X0088099Y0112413D01*
X0088223Y0112625D01*
X0088351Y0112834D01*
X0088485Y0113040D01*
X0088624Y0113242D01*
X0088768Y0113441D01*
X0088917Y0113636D01*
X0089070Y0113828D01*
X0089228Y0114016D01*
X0089390Y0114200D01*
X0089558Y0114379D01*
X0089729Y0114555D01*
X0089905Y0114726D01*
X0090084Y0114894D01*
X0090268Y0115056D01*
X0090456Y0115214D01*
X0090648Y0115367D01*
X0090843Y0115516D01*
X0091042Y0115660D01*
X0091244Y0115799D01*
X0091450Y0115933D01*
X0091659Y0116061D01*
X0091871Y0116185D01*
X0092086Y0116303D01*
X0092304Y0116416D01*
X0092524Y0116524D01*
X0092748Y0116626D01*
X0092973Y0116723D01*
X0093201Y0116814D01*
X0093431Y0116899D01*
X0093663Y0116979D01*
X0093897Y0117053D01*
X0094133Y0117122D01*
X0094370Y0117184D01*
X0094609Y0117241D01*
X0094849Y0117292D01*
X0095090Y0117337D01*
X0095333Y0117376D01*
X0095576Y0117409D01*
X0095820Y0117436D01*
X0096064Y0117457D01*
X0096309Y0117472D01*
X0096555Y0117481D01*
X0096800Y0117484D01*
X0097045Y0117481D01*
X0097291Y0117472D01*
X0097536Y0117457D01*
X0097780Y0117436D01*
X0098024Y0117409D01*
X0098267Y0117376D01*
X0098510Y0117337D01*
X0098751Y0117292D01*
X0098991Y0117241D01*
X0099230Y0117184D01*
X0099467Y0117122D01*
X0099703Y0117053D01*
X0099937Y0116979D01*
X0100169Y0116899D01*
X0100399Y0116814D01*
X0100627Y0116723D01*
X0100852Y0116626D01*
X0101076Y0116524D01*
X0101296Y0116416D01*
X0101514Y0116303D01*
X0101729Y0116185D01*
X0101941Y0116061D01*
X0102150Y0115933D01*
X0102356Y0115799D01*
X0102558Y0115660D01*
X0102757Y0115516D01*
X0102952Y0115367D01*
X0103144Y0115214D01*
X0103332Y0115056D01*
X0103516Y0114894D01*
X0103695Y0114726D01*
X0103871Y0114555D01*
X0104042Y0114379D01*
X0104210Y0114200D01*
X0104372Y0114016D01*
X0104530Y0113828D01*
X0104683Y0113636D01*
X0104832Y0113441D01*
X0104976Y0113242D01*
X0105115Y0113040D01*
X0105249Y0112834D01*
X0105377Y0112625D01*
X0105501Y0112413D01*
X0105619Y0112198D01*
X0105732Y0111980D01*
X0105840Y0111760D01*
X0105942Y0111536D01*
X0106039Y0111311D01*
X0106130Y0111083D01*
X0106215Y0110853D01*
X0106295Y0110621D01*
X0106369Y0110387D01*
X0106438Y0110151D01*
X0106500Y0109914D01*
X0106557Y0109675D01*
X0106608Y0109435D01*
X0106653Y0109194D01*
X0106692Y0108951D01*
X0106725Y0108708D01*
X0106752Y0108464D01*
X0106773Y0108220D01*
X0106788Y0107975D01*
X0106797Y0107729D01*
X0106800Y0107484D01*
X0106797Y0107239D01*
X0106788Y0106993D01*
X0106773Y0106748D01*
X0106752Y0106504D01*
X0106725Y0106260D01*
X0106692Y0106017D01*
X0106653Y0105774D01*
X0106608Y0105533D01*
X0106557Y0105293D01*
X0106500Y0105054D01*
X0106438Y0104817D01*
X0106369Y0104581D01*
X0106295Y0104347D01*
X0106215Y0104115D01*
X0106130Y0103885D01*
X0106039Y0103657D01*
X0105942Y0103432D01*
X0105840Y0103208D01*
X0105732Y0102988D01*
X0105619Y0102770D01*
X0105501Y0102555D01*
X0105377Y0102343D01*
X0105249Y0102134D01*
X0105115Y0101928D01*
X0104976Y0101726D01*
X0104832Y0101527D01*
X0104683Y0101332D01*
X0104530Y0101140D01*
X0104372Y0100952D01*
X0104210Y0100768D01*
X0104042Y0100589D01*
X0103871Y0100413D01*
X0103695Y0100242D01*
X0103516Y0100074D01*
X0103332Y0099912D01*
X0103144Y0099754D01*
X0102952Y0099601D01*
X0102757Y0099452D01*
X0102558Y0099308D01*
X0102356Y0099169D01*
X0102150Y0099035D01*
X0101941Y0098907D01*
X0101729Y0098783D01*
X0101514Y0098665D01*
X0101296Y0098552D01*
X0101076Y0098444D01*
X0100852Y0098342D01*
X0100627Y0098245D01*
X0100399Y0098154D01*
X0100169Y0098069D01*
X0099937Y0097989D01*
X0099703Y0097915D01*
X0099467Y0097846D01*
X0099230Y0097784D01*
X0098991Y0097727D01*
X0098751Y0097676D01*
X0098510Y0097631D01*
X0098267Y0097592D01*
X0098024Y0097559D01*
X0097780Y0097532D01*
X0097536Y0097511D01*
X0097291Y0097496D01*
X0097045Y0097487D01*
X0096800Y0097484D01*
X0096555Y0097487D01*
X0096309Y0097496D01*
X0096064Y0097511D01*
X0095820Y0097532D01*
X0095576Y0097559D01*
X0095333Y0097592D01*
X0095090Y0097631D01*
X0094849Y0097676D01*
X0094609Y0097727D01*
X0094370Y0097784D01*
X0094133Y0097846D01*
X0093897Y0097915D01*
X0093663Y0097989D01*
X0093431Y0098069D01*
X0093201Y0098154D01*
X0092973Y0098245D01*
X0092748Y0098342D01*
X0092524Y0098444D01*
X0092304Y0098552D01*
X0092086Y0098665D01*
X0091871Y0098783D01*
X0091659Y0098907D01*
X0091450Y0099035D01*
X0091244Y0099169D01*
X0091042Y0099308D01*
X0090843Y0099452D01*
X0090648Y0099601D01*
X0090456Y0099754D01*
X0090268Y0099912D01*
X0090084Y0100074D01*
X0089905Y0100242D01*
X0089729Y0100413D01*
X0089558Y0100589D01*
X0089390Y0100768D01*
X0089228Y0100952D01*
X0089070Y0101140D01*
X0088917Y0101332D01*
X0088768Y0101527D01*
X0088624Y0101726D01*
X0088485Y0101928D01*
X0088351Y0102134D01*
X0088223Y0102343D01*
X0088099Y0102555D01*
X0087981Y0102770D01*
X0087868Y0102988D01*
X0087760Y0103208D01*
X0087658Y0103432D01*
X0087561Y0103657D01*
X0087470Y0103885D01*
X0087385Y0104115D01*
X0087305Y0104347D01*
X0087231Y0104581D01*
X0087162Y0104817D01*
X0087100Y0105054D01*
X0087043Y0105293D01*
X0086992Y0105533D01*
X0086947Y0105774D01*
X0086908Y0106017D01*
X0086875Y0106260D01*
X0086848Y0106504D01*
X0086827Y0106748D01*
X0086812Y0106993D01*
X0086803Y0107239D01*
X0086800Y0107484D01*
X0158641Y0105887D02*
X0160977Y0107055D01*
X0162144Y0107055D01*
X0163312Y0105887D01*
X0163312Y0103552D01*
X0162144Y0102384D01*
X0159809Y0102384D01*
X0158641Y0103552D01*
X0158641Y0105887D02*
X0158641Y0109390D01*
X0163312Y0109390D01*
X0165639Y0113784D02*
X0170310Y0113784D01*
X0172637Y0113784D02*
X0172637Y0114952D01*
X0173805Y0114952D01*
X0173805Y0113784D01*
X0172637Y0113784D01*
X0176136Y0114952D02*
X0180807Y0119623D01*
X0180807Y0114952D01*
X0179639Y0113784D01*
X0177304Y0113784D01*
X0176136Y0114952D01*
X0176136Y0119623D01*
X0177304Y0120790D01*
X0179639Y0120790D01*
X0180807Y0119623D01*
X0179635Y0125184D02*
X0181971Y0127520D01*
X0184306Y0125184D01*
X0184306Y0132190D01*
X0186633Y0132190D02*
X0191304Y0125184D01*
X0191304Y0132190D01*
X0193631Y0129855D02*
X0194799Y0131023D01*
X0194799Y0133358D01*
X0197130Y0131023D02*
X0197130Y0129855D01*
X0198298Y0128687D01*
X0200633Y0128687D01*
X0201801Y0127520D01*
X0201801Y0126352D01*
X0200633Y0125184D01*
X0198298Y0125184D01*
X0197130Y0126352D01*
X0197130Y0131023D02*
X0198298Y0132190D01*
X0200633Y0132190D01*
X0201801Y0131023D01*
X0211126Y0129855D02*
X0211126Y0125184D01*
X0215797Y0125184D02*
X0215797Y0129855D01*
X0213461Y0132190D01*
X0211126Y0129855D01*
X0211126Y0128687D02*
X0215797Y0128687D01*
X0218124Y0132190D02*
X0222795Y0132190D01*
X0225122Y0132190D02*
X0229793Y0125184D01*
X0225122Y0125184D02*
X0229793Y0132190D01*
X0239118Y0132190D02*
X0239118Y0125184D01*
X0242621Y0125184D01*
X0243789Y0126352D01*
X0243789Y0127520D01*
X0242621Y0128687D01*
X0239118Y0128687D01*
X0242621Y0128687D02*
X0243789Y0129855D01*
X0243789Y0131023D01*
X0242621Y0132190D01*
X0239118Y0132190D01*
X0246116Y0132190D02*
X0249619Y0132190D01*
X0250787Y0131023D01*
X0250787Y0128687D01*
X0249619Y0127520D01*
X0246116Y0127520D01*
X0248451Y0127520D02*
X0250787Y0125184D01*
X0253114Y0125184D02*
X0257785Y0125184D01*
X0260112Y0125184D02*
X0260112Y0129855D01*
X0262447Y0132190D01*
X0264783Y0129855D01*
X0264783Y0125184D01*
X0267110Y0125184D02*
X0267110Y0132190D01*
X0268278Y0128687D02*
X0271781Y0125184D01*
X0274108Y0126352D02*
X0275276Y0125184D01*
X0277611Y0125184D01*
X0278779Y0126352D01*
X0278779Y0131023D01*
X0277611Y0132190D01*
X0275276Y0132190D01*
X0274108Y0131023D01*
X0274108Y0126352D01*
X0271781Y0132190D02*
X0267110Y0127520D01*
X0264783Y0128687D02*
X0260112Y0128687D01*
X0257785Y0132190D02*
X0253114Y0132190D01*
X0253114Y0125184D01*
X0253114Y0128687D02*
X0255449Y0128687D01*
X0246116Y0125184D02*
X0246116Y0132190D01*
X0220459Y0132190D02*
X0220459Y0125184D01*
X0219296Y0109390D02*
X0214625Y0109390D01*
X0219296Y0109390D02*
X0219296Y0108223D01*
X0214625Y0103552D01*
X0214625Y0102384D01*
X0212298Y0102384D02*
X0207627Y0102384D01*
X0209962Y0102384D02*
X0209962Y0109390D01*
X0207627Y0107055D01*
X0205300Y0108223D02*
X0200629Y0103552D01*
X0201797Y0102384D01*
X0204132Y0102384D01*
X0205300Y0103552D01*
X0205300Y0108223D01*
X0204132Y0109390D01*
X0201797Y0109390D01*
X0200629Y0108223D01*
X0200629Y0103552D01*
X0198302Y0102384D02*
X0193631Y0102384D01*
X0198302Y0107055D01*
X0198302Y0108223D01*
X0197134Y0109390D01*
X0194799Y0109390D01*
X0193631Y0108223D01*
X0191304Y0109390D02*
X0186633Y0102384D01*
X0184306Y0103552D02*
X0184306Y0108223D01*
X0183138Y0109390D01*
X0180803Y0109390D01*
X0179635Y0108223D01*
X0179635Y0107055D01*
X0180803Y0105887D01*
X0184306Y0105887D01*
X0184306Y0103552D02*
X0183138Y0102384D01*
X0180803Y0102384D01*
X0179635Y0103552D01*
X0177308Y0102384D02*
X0172637Y0102384D01*
X0174973Y0102384D02*
X0174973Y0109390D01*
X0172637Y0107055D01*
X0170310Y0109390D02*
X0165639Y0102384D01*
X0167975Y0113784D02*
X0167975Y0120790D01*
X0165639Y0118455D01*
X0163312Y0116120D02*
X0163312Y0120790D01*
X0162144Y0125184D02*
X0159809Y0125184D01*
X0158641Y0126352D01*
X0159809Y0128687D02*
X0158641Y0129855D01*
X0158641Y0131023D01*
X0159809Y0132190D01*
X0162144Y0132190D01*
X0163312Y0131023D01*
X0165639Y0132190D02*
X0165639Y0125184D01*
X0163312Y0126352D02*
X0162144Y0125184D01*
X0163312Y0126352D02*
X0163312Y0127520D01*
X0162144Y0128687D01*
X0159809Y0128687D01*
X0165639Y0128687D02*
X0170310Y0128687D01*
X0172637Y0128687D02*
X0177308Y0128687D01*
X0177308Y0129855D02*
X0177308Y0125184D01*
X0179635Y0125184D02*
X0179635Y0132190D01*
X0177308Y0129855D02*
X0174973Y0132190D01*
X0172637Y0129855D01*
X0172637Y0125184D01*
X0170310Y0125184D02*
X0170310Y0132190D01*
X0158641Y0120790D02*
X0158641Y0116120D01*
X0160977Y0113784D01*
X0163312Y0116120D01*
X0186633Y0125184D02*
X0186633Y0132190D01*
X0259800Y0071484D02*
X0263000Y0073784D01*
X0263000Y0086284D01*
X0265500Y0088784D01*
X0288100Y0088784D01*
X0290600Y0086284D01*
X0290600Y0073584D01*
X0293800Y0071484D01*
X0293800Y0053484D01*
X0290600Y0051184D01*
X0290600Y0038684D01*
X0288100Y0036184D01*
X0265500Y0036184D01*
X0263000Y0038684D01*
X0263000Y0051184D01*
X0259800Y0053484D01*
X0259800Y0071484D01*
X0282274Y0125184D02*
X0284609Y0125184D01*
X0285777Y0126352D01*
X0285777Y0132190D01*
X0288104Y0132190D02*
X0292774Y0132190D01*
X0290439Y0132190D02*
X0290439Y0125184D01*
X0282274Y0125184D02*
X0281106Y0126352D01*
X0281106Y0132190D01*
D13*
X0208769Y0001500D02*
X0004831Y0001500D01*
X0004831Y0050870D01*
X0012312Y0050870D01*
X0020186Y0050870D02*
X0028060Y0050870D01*
X0036721Y0050870D02*
X0044595Y0050870D01*
X0053650Y0050870D02*
X0061524Y0050870D01*
X0069792Y0050870D02*
X0077666Y0050870D01*
X0086328Y0050870D02*
X0094202Y0050870D01*
X0102863Y0050870D02*
X0110737Y0050870D01*
X0119398Y0050870D02*
X0127272Y0050870D01*
X0135934Y0050870D02*
X0143808Y0050870D01*
X0152469Y0050870D02*
X0160343Y0050870D01*
X0169005Y0050870D02*
X0176879Y0050870D01*
X0185540Y0050870D02*
X0193414Y0050870D01*
X0201288Y0050870D02*
X0208769Y0050870D01*
X0208769Y0001500D01*
X0113493Y0002051D02*
X0113493Y0013862D01*
X0100107Y0013862D01*
X0100107Y0009925D01*
X0113493Y0009925D01*
X0113493Y0013862D01*
X0100107Y0013862D01*
X0100107Y0002051D01*
X0100107Y0010510D02*
X0113493Y0010510D01*
X0113493Y0011508D02*
X0100107Y0011508D01*
X0100107Y0012507D02*
X0113493Y0012507D01*
X0113493Y0013505D02*
X0100107Y0013505D01*
X0106800Y0099984D02*
X0106613Y0099741D01*
X0106421Y0099503D01*
X0106222Y0099270D01*
X0106018Y0099042D01*
X0105809Y0098819D01*
X0105594Y0098601D01*
X0105374Y0098388D01*
X0105149Y0098181D01*
X0104918Y0097979D01*
X0104683Y0097783D01*
X0104443Y0097593D01*
X0104199Y0097409D01*
X0103950Y0097231D01*
X0103696Y0097059D01*
X0103439Y0096893D01*
X0103178Y0096733D01*
X0102913Y0096580D01*
X0102644Y0096434D01*
X0102371Y0096294D01*
X0102096Y0096161D01*
X0101817Y0096035D01*
X0101535Y0095915D01*
X0101250Y0095803D01*
X0100963Y0095698D01*
X0100673Y0095599D01*
X0100381Y0095508D01*
X0100086Y0095424D01*
X0099790Y0095347D01*
X0099492Y0095277D01*
X0099192Y0095215D01*
X0098891Y0095160D01*
X0098589Y0095113D01*
X0098285Y0095073D01*
X0097981Y0095040D01*
X0097676Y0095015D01*
X0097370Y0094997D01*
X0097064Y0094987D01*
X0096758Y0094984D01*
X0096452Y0094989D01*
X0096146Y0095001D01*
X0095840Y0095021D01*
X0095536Y0095048D01*
X0095231Y0095083D01*
X0094928Y0095125D01*
X0094626Y0095174D01*
X0094325Y0095231D01*
X0094026Y0095296D01*
X0093728Y0095367D01*
X0093433Y0095446D01*
X0093139Y0095532D01*
X0092847Y0095625D01*
X0092558Y0095726D01*
X0092271Y0095833D01*
X0091987Y0095948D01*
X0091706Y0096069D01*
X0091428Y0096197D01*
X0091153Y0096332D01*
X0090882Y0096474D01*
X0090614Y0096622D01*
X0090350Y0096777D01*
X0090090Y0096938D01*
X0089834Y0097105D01*
X0089581Y0097279D01*
X0089334Y0097459D01*
X0089090Y0097645D01*
X0088852Y0097836D01*
X0088618Y0098034D01*
X0088389Y0098237D01*
X0088165Y0098446D01*
X0087946Y0098660D01*
X0087733Y0098880D01*
X0087525Y0099104D01*
X0087322Y0099334D01*
X0087126Y0099568D01*
X0086935Y0099808D01*
X0086750Y0100051D01*
X0086571Y0100300D01*
X0086398Y0100552D01*
X0086231Y0100809D01*
X0086071Y0101070D01*
X0085917Y0101335D01*
X0085770Y0101603D01*
X0085629Y0101875D01*
X0085495Y0102150D01*
X0085368Y0102429D01*
X0085247Y0102710D01*
X0085134Y0102995D01*
X0085028Y0103282D01*
X0084928Y0103571D01*
X0084836Y0103863D01*
X0084751Y0104157D01*
X0084673Y0104453D01*
X0084602Y0104751D01*
X0084539Y0105051D01*
X0084483Y0105352D01*
X0084435Y0105654D01*
X0084394Y0105957D01*
X0084360Y0106261D01*
X0084334Y0106566D01*
X0084315Y0106872D01*
X0084304Y0107178D01*
X0084300Y0107484D01*
X0084304Y0107790D01*
X0084315Y0108096D01*
X0084334Y0108402D01*
X0084360Y0108707D01*
X0084394Y0109011D01*
X0084435Y0109314D01*
X0084483Y0109616D01*
X0084539Y0109917D01*
X0084602Y0110217D01*
X0084673Y0110515D01*
X0084751Y0110811D01*
X0084836Y0111105D01*
X0084928Y0111397D01*
X0085028Y0111686D01*
X0085134Y0111973D01*
X0085247Y0112258D01*
X0085368Y0112539D01*
X0085495Y0112818D01*
X0085629Y0113093D01*
X0085770Y0113365D01*
X0085917Y0113633D01*
X0086071Y0113898D01*
X0086231Y0114159D01*
X0086398Y0114416D01*
X0086571Y0114668D01*
X0086750Y0114917D01*
X0086935Y0115160D01*
X0087126Y0115400D01*
X0087322Y0115634D01*
X0087525Y0115864D01*
X0087733Y0116088D01*
X0087946Y0116308D01*
X0088165Y0116522D01*
X0088389Y0116731D01*
X0088618Y0116934D01*
X0088852Y0117132D01*
X0089090Y0117323D01*
X0089334Y0117509D01*
X0089581Y0117689D01*
X0089834Y0117863D01*
X0090090Y0118030D01*
X0090350Y0118191D01*
X0090614Y0118346D01*
X0090882Y0118494D01*
X0091153Y0118636D01*
X0091428Y0118771D01*
X0091706Y0118899D01*
X0091987Y0119020D01*
X0092271Y0119135D01*
X0092558Y0119242D01*
X0092847Y0119343D01*
X0093139Y0119436D01*
X0093433Y0119522D01*
X0093728Y0119601D01*
X0094026Y0119672D01*
X0094325Y0119737D01*
X0094626Y0119794D01*
X0094928Y0119843D01*
X0095231Y0119885D01*
X0095536Y0119920D01*
X0095840Y0119947D01*
X0096146Y0119967D01*
X0096452Y0119979D01*
X0096758Y0119984D01*
X0097064Y0119981D01*
X0097370Y0119971D01*
X0097676Y0119953D01*
X0097981Y0119928D01*
X0098285Y0119895D01*
X0098589Y0119855D01*
X0098891Y0119808D01*
X0099192Y0119753D01*
X0099492Y0119691D01*
X0099790Y0119621D01*
X0100086Y0119544D01*
X0100381Y0119460D01*
X0100673Y0119369D01*
X0100963Y0119270D01*
X0101250Y0119165D01*
X0101535Y0119053D01*
X0101817Y0118933D01*
X0102096Y0118807D01*
X0102371Y0118674D01*
X0102644Y0118534D01*
X0102913Y0118388D01*
X0103178Y0118235D01*
X0103439Y0118075D01*
X0103696Y0117909D01*
X0103950Y0117737D01*
X0104199Y0117559D01*
X0104443Y0117375D01*
X0104683Y0117185D01*
X0104918Y0116989D01*
X0105149Y0116787D01*
X0105374Y0116580D01*
X0105594Y0116367D01*
X0105809Y0116149D01*
X0106018Y0115926D01*
X0106222Y0115698D01*
X0106421Y0115465D01*
X0106613Y0115227D01*
X0106800Y0114984D01*
D14*
X0109550Y0114338D02*
X0109550Y0109834D01*
X0112553Y0109834D01*
X0114154Y0109834D02*
X0117156Y0109834D01*
X0118758Y0109834D02*
X0118758Y0114338D01*
X0121010Y0114338D01*
X0121760Y0113587D01*
X0121760Y0110585D01*
X0121010Y0109834D01*
X0118758Y0109834D01*
X0115655Y0112086D02*
X0114154Y0112086D01*
X0114154Y0114338D02*
X0114154Y0109834D01*
X0114154Y0114338D02*
X0117156Y0114338D01*
X0123362Y0112837D02*
X0124863Y0114338D01*
X0124863Y0109834D01*
X0123362Y0109834D02*
X0126364Y0109834D01*
X0048318Y0101334D02*
X0047050Y0101334D01*
X0047684Y0101334D02*
X0047684Y0103236D01*
X0047050Y0102602D01*
X0046108Y0102285D02*
X0045791Y0101968D01*
X0044840Y0101968D01*
X0044840Y0101334D02*
X0044840Y0103236D01*
X0045791Y0103236D01*
X0046108Y0102919D01*
X0046108Y0102285D01*
X0045474Y0101968D02*
X0046108Y0101334D01*
X0102684Y0032636D02*
X0103318Y0032636D01*
X0103001Y0032636D02*
X0103001Y0031051D01*
X0102684Y0030734D01*
X0102367Y0030734D01*
X0102050Y0031051D01*
X0104260Y0031051D02*
X0104577Y0030734D01*
X0105211Y0030734D01*
X0105528Y0031051D01*
X0105528Y0031685D01*
X0105211Y0032002D01*
X0104894Y0032002D01*
X0104260Y0031685D01*
X0104260Y0032636D01*
X0105528Y0032636D01*
X0084133Y0233314D02*
X0084450Y0233631D01*
X0084450Y0233948D01*
X0084133Y0234265D01*
X0082548Y0234265D01*
X0082548Y0233948D02*
X0082548Y0234582D01*
X0083499Y0235524D02*
X0082548Y0236475D01*
X0084450Y0236475D01*
X0083499Y0236792D02*
X0083499Y0235524D01*
X0142548Y0235841D02*
X0142548Y0236475D01*
X0142865Y0236792D01*
X0143182Y0236792D01*
X0143499Y0236475D01*
X0143816Y0236792D01*
X0144133Y0236792D01*
X0144450Y0236475D01*
X0144450Y0235841D01*
X0144133Y0235524D01*
X0143499Y0236158D02*
X0143499Y0236475D01*
X0142865Y0235524D02*
X0142548Y0235841D01*
X0142548Y0234582D02*
X0142548Y0233948D01*
X0142548Y0234265D02*
X0144133Y0234265D01*
X0144450Y0233948D01*
X0144450Y0233631D01*
X0144133Y0233314D01*
X0202548Y0233948D02*
X0202548Y0234582D01*
X0202548Y0234265D02*
X0204133Y0234265D01*
X0204450Y0233948D01*
X0204450Y0233631D01*
X0204133Y0233314D01*
X0204450Y0235524D02*
X0204450Y0236792D01*
X0204450Y0236158D02*
X0202548Y0236158D01*
X0203182Y0235524D01*
X0268048Y0235524D02*
X0268048Y0236792D01*
X0268365Y0236792D01*
X0269633Y0235524D01*
X0269950Y0235524D01*
X0269633Y0234265D02*
X0268048Y0234265D01*
X0268048Y0233948D02*
X0268048Y0234582D01*
X0269633Y0234265D02*
X0269950Y0233948D01*
X0269950Y0233631D01*
X0269633Y0233314D01*
X0024450Y0233631D02*
X0024450Y0233948D01*
X0024133Y0234265D01*
X0022548Y0234265D01*
X0022548Y0233948D02*
X0022548Y0234582D01*
X0022865Y0235524D02*
X0022548Y0235841D01*
X0022548Y0236475D01*
X0022865Y0236792D01*
X0023182Y0236792D01*
X0024450Y0235524D01*
X0024450Y0236792D01*
X0024450Y0233631D02*
X0024133Y0233314D01*
D15*
X0021800Y0234984D02*
X0021800Y0229984D01*
X0019300Y0227484D01*
X0021800Y0224984D01*
X0021800Y0219984D01*
X0019300Y0217484D01*
X0021800Y0214984D01*
X0021800Y0209984D01*
X0019300Y0207484D01*
X0021800Y0204984D01*
X0021800Y0199984D01*
X0019300Y0197484D01*
X0021800Y0194984D01*
X0021800Y0189984D01*
X0019300Y0187484D01*
X0021800Y0184984D01*
X0021800Y0179984D01*
X0019300Y0177484D01*
X0021800Y0174984D01*
X0021800Y0169984D01*
X0019300Y0167484D01*
X0021800Y0164984D01*
X0021800Y0159984D01*
X0019300Y0157484D01*
X0021800Y0154984D01*
X0021800Y0149984D01*
X0019300Y0147484D01*
X0021800Y0144984D01*
X0021800Y0139984D01*
X0019300Y0137484D01*
X0014300Y0137484D01*
X0011800Y0139984D01*
X0011800Y0144984D01*
X0014300Y0147484D01*
X0011800Y0149984D01*
X0011800Y0154984D01*
X0014300Y0157484D01*
X0011800Y0159984D01*
X0011800Y0164984D01*
X0014300Y0167484D01*
X0011800Y0169984D01*
X0011800Y0174984D01*
X0014300Y0177484D01*
X0011800Y0179984D01*
X0011800Y0184984D01*
X0014300Y0187484D01*
X0011800Y0189984D01*
X0011800Y0194984D01*
X0014300Y0197484D01*
X0011800Y0199984D01*
X0011800Y0204984D01*
X0014300Y0207484D01*
X0011800Y0209984D01*
X0011800Y0214984D01*
X0014300Y0217484D01*
X0011800Y0219984D01*
X0011800Y0224984D01*
X0014300Y0227484D01*
X0011800Y0229984D01*
X0011800Y0234984D01*
X0014300Y0237484D01*
X0019300Y0237484D01*
X0021800Y0234984D01*
X0071800Y0234984D02*
X0071800Y0229984D01*
X0074300Y0227484D01*
X0071800Y0224984D01*
X0071800Y0219984D01*
X0074300Y0217484D01*
X0071800Y0214984D01*
X0071800Y0209984D01*
X0074300Y0207484D01*
X0071800Y0204984D01*
X0071800Y0199984D01*
X0074300Y0197484D01*
X0071800Y0194984D01*
X0071800Y0189984D01*
X0074300Y0187484D01*
X0071800Y0184984D01*
X0071800Y0179984D01*
X0074300Y0177484D01*
X0071800Y0174984D01*
X0071800Y0169984D01*
X0074300Y0167484D01*
X0071800Y0164984D01*
X0071800Y0159984D01*
X0074300Y0157484D01*
X0071800Y0154984D01*
X0071800Y0149984D01*
X0074300Y0147484D01*
X0071800Y0144984D01*
X0071800Y0139984D01*
X0074300Y0137484D01*
X0079300Y0137484D01*
X0081800Y0139984D01*
X0081800Y0144984D01*
X0079300Y0147484D01*
X0081800Y0149984D01*
X0081800Y0154984D01*
X0079300Y0157484D01*
X0081800Y0159984D01*
X0081800Y0164984D01*
X0079300Y0167484D01*
X0081800Y0169984D01*
X0081800Y0174984D01*
X0079300Y0177484D01*
X0081800Y0179984D01*
X0081800Y0184984D01*
X0079300Y0187484D01*
X0081800Y0189984D01*
X0081800Y0194984D01*
X0079300Y0197484D01*
X0081800Y0199984D01*
X0081800Y0204984D01*
X0079300Y0207484D01*
X0081800Y0209984D01*
X0081800Y0214984D01*
X0079300Y0217484D01*
X0081800Y0219984D01*
X0081800Y0224984D01*
X0079300Y0227484D01*
X0081800Y0229984D01*
X0081800Y0234984D01*
X0079300Y0237484D01*
X0074300Y0237484D01*
X0071800Y0234984D01*
X0131800Y0234984D02*
X0131800Y0229984D01*
X0134300Y0227484D01*
X0131800Y0224984D01*
X0131800Y0219984D01*
X0134300Y0217484D01*
X0131800Y0214984D01*
X0131800Y0209984D01*
X0134300Y0207484D01*
X0131800Y0204984D01*
X0131800Y0199984D01*
X0134300Y0197484D01*
X0131800Y0194984D01*
X0131800Y0189984D01*
X0134300Y0187484D01*
X0131800Y0184984D01*
X0131800Y0179984D01*
X0134300Y0177484D01*
X0131800Y0174984D01*
X0131800Y0169984D01*
X0134300Y0167484D01*
X0131800Y0164984D01*
X0131800Y0159984D01*
X0134300Y0157484D01*
X0131800Y0154984D01*
X0131800Y0149984D01*
X0134300Y0147484D01*
X0131800Y0144984D01*
X0131800Y0139984D01*
X0134300Y0137484D01*
X0139300Y0137484D01*
X0141800Y0139984D01*
X0141800Y0144984D01*
X0139300Y0147484D01*
X0141800Y0149984D01*
X0141800Y0154984D01*
X0139300Y0157484D01*
X0141800Y0159984D01*
X0141800Y0164984D01*
X0139300Y0167484D01*
X0141800Y0169984D01*
X0141800Y0174984D01*
X0139300Y0177484D01*
X0141800Y0179984D01*
X0141800Y0184984D01*
X0139300Y0187484D01*
X0141800Y0189984D01*
X0141800Y0194984D01*
X0139300Y0197484D01*
X0141800Y0199984D01*
X0141800Y0204984D01*
X0139300Y0207484D01*
X0141800Y0209984D01*
X0141800Y0214984D01*
X0139300Y0217484D01*
X0141800Y0219984D01*
X0141800Y0224984D01*
X0139300Y0227484D01*
X0141800Y0229984D01*
X0141800Y0234984D01*
X0139300Y0237484D01*
X0134300Y0237484D01*
X0131800Y0234984D01*
X0191800Y0234984D02*
X0191800Y0229984D01*
X0194300Y0227484D01*
X0191800Y0224984D01*
X0191800Y0219984D01*
X0194300Y0217484D01*
X0191800Y0214984D01*
X0191800Y0209984D01*
X0194300Y0207484D01*
X0191800Y0204984D01*
X0191800Y0199984D01*
X0194300Y0197484D01*
X0191800Y0194984D01*
X0191800Y0189984D01*
X0194300Y0187484D01*
X0191800Y0184984D01*
X0191800Y0179984D01*
X0194300Y0177484D01*
X0191800Y0174984D01*
X0191800Y0169984D01*
X0194300Y0167484D01*
X0191800Y0164984D01*
X0191800Y0159984D01*
X0194300Y0157484D01*
X0191800Y0154984D01*
X0191800Y0149984D01*
X0194300Y0147484D01*
X0191800Y0144984D01*
X0191800Y0139984D01*
X0194300Y0137484D01*
X0199300Y0137484D01*
X0201800Y0139984D01*
X0201800Y0144984D01*
X0199300Y0147484D01*
X0201800Y0149984D01*
X0201800Y0154984D01*
X0199300Y0157484D01*
X0201800Y0159984D01*
X0201800Y0164984D01*
X0199300Y0167484D01*
X0201800Y0169984D01*
X0201800Y0174984D01*
X0199300Y0177484D01*
X0201800Y0179984D01*
X0201800Y0184984D01*
X0199300Y0187484D01*
X0201800Y0189984D01*
X0201800Y0194984D01*
X0199300Y0197484D01*
X0201800Y0199984D01*
X0201800Y0204984D01*
X0199300Y0207484D01*
X0201800Y0209984D01*
X0201800Y0214984D01*
X0199300Y0217484D01*
X0201800Y0219984D01*
X0201800Y0224984D01*
X0199300Y0227484D01*
X0201800Y0229984D01*
X0201800Y0234984D01*
X0199300Y0237484D01*
X0194300Y0237484D01*
X0191800Y0234984D01*
X0245300Y0234984D02*
X0245300Y0229984D01*
X0246800Y0229984D02*
X0246800Y0234984D01*
X0249300Y0237484D01*
X0264300Y0237484D01*
X0266800Y0234984D01*
X0266800Y0229984D01*
X0264300Y0227484D01*
X0249300Y0227484D01*
X0246800Y0224984D01*
X0246800Y0219984D01*
X0249300Y0217484D01*
X0264300Y0217484D01*
X0266800Y0214984D01*
X0266800Y0209984D01*
X0264300Y0207484D01*
X0249300Y0207484D01*
X0246800Y0204984D01*
X0246800Y0199984D01*
X0249300Y0197484D01*
X0264300Y0197484D01*
X0266800Y0194984D01*
X0266800Y0189984D01*
X0264300Y0187484D01*
X0249300Y0187484D01*
X0246800Y0184984D01*
X0246800Y0179984D01*
X0249300Y0177484D01*
X0264300Y0177484D01*
X0266800Y0174984D01*
X0266800Y0169984D01*
X0264300Y0167484D01*
X0249300Y0167484D01*
X0246800Y0169984D01*
X0246800Y0174984D01*
X0249300Y0177484D01*
X0249300Y0187484D02*
X0246800Y0189984D01*
X0246800Y0194984D01*
X0249300Y0197484D01*
X0249300Y0207484D02*
X0246800Y0209984D01*
X0246800Y0214984D01*
X0249300Y0217484D01*
X0249300Y0227484D02*
X0246800Y0229984D01*
X0264300Y0227484D02*
X0266800Y0224984D01*
X0266800Y0219984D01*
X0264300Y0217484D01*
X0264300Y0207484D02*
X0266800Y0204984D01*
X0266800Y0199984D01*
X0264300Y0197484D01*
X0264300Y0187484D02*
X0266800Y0184984D01*
X0266800Y0179984D01*
X0264300Y0177484D01*
X0264300Y0167484D02*
X0266800Y0164984D01*
X0266800Y0159984D01*
X0264300Y0157484D01*
X0249300Y0157484D01*
X0246800Y0159984D01*
X0246800Y0164984D01*
X0249300Y0167484D01*
X0249300Y0157484D02*
X0246800Y0154984D01*
X0246800Y0149984D01*
X0249300Y0147484D01*
X0246800Y0144984D01*
X0246800Y0139984D01*
X0249300Y0137484D01*
X0264300Y0137484D01*
X0266800Y0139984D01*
X0266800Y0144984D01*
X0264300Y0147484D01*
X0249300Y0147484D01*
X0264300Y0147484D02*
X0266800Y0149984D01*
X0266800Y0154984D01*
X0264300Y0157484D01*
X0106800Y0114984D02*
X0106800Y0099984D01*
X0057800Y0107484D02*
X0056800Y0107484D01*
X0056800Y0104484D01*
X0036800Y0104484D01*
X0036800Y0107484D01*
X0035800Y0107484D01*
X0036800Y0107484D02*
X0036800Y0110484D01*
X0056800Y0110484D01*
X0056800Y0107484D01*
D16*
X0267813Y0031089D02*
X0267813Y0030038D01*
X0268864Y0028987D01*
X0270966Y0028987D01*
X0272017Y0027936D01*
X0272017Y0026885D01*
X0270966Y0025834D01*
X0268864Y0025834D01*
X0267813Y0026885D01*
X0267813Y0031089D02*
X0268864Y0032140D01*
X0270966Y0032140D01*
X0272017Y0031089D01*
X0274259Y0032140D02*
X0274259Y0025834D01*
X0276361Y0027936D01*
X0278463Y0025834D01*
X0278463Y0032140D01*
X0280704Y0030038D02*
X0282806Y0032140D01*
X0282806Y0025834D01*
X0280704Y0025834D02*
X0284908Y0025834D01*
M02*
