%
M48
M72
T01C0.02362
T02C0.03200
T03C0.03543
T04C0.03937
T05C0.04000
T06C0.07087
T07C0.07900
T08C0.11811
%
T01
X16800Y27484
X196800Y27484
X196800Y232484
T02
X101800Y107484
X91800Y107484
T03
X61800Y107484
X31800Y107484
T04
X6800Y92484
X6800Y127484
X66800Y127484
X66800Y92484
X126800Y92484
X126800Y127484
X186800Y92484
X246800Y92484
X246800Y122484
X301800Y92484
X306800Y122484
X301800Y32484
X246800Y32484
X126800Y32484
X66800Y32484
X6800Y37484
X6800Y242484
X66800Y242484
X126800Y242484
X186800Y242484
X246800Y242484
X306800Y242484
T05
X261800Y232484
X251800Y232484
X251800Y222484
X261800Y222484
X261800Y212484
X251800Y212484
X251800Y202484
X261800Y202484
X261800Y192484
X251800Y192484
X251800Y182484
X251800Y172484
X261800Y172484
X261800Y182484
X261800Y162484
X251800Y162484
X251800Y152484
X261800Y152484
X261800Y142484
X251800Y142484
X196800Y142484
X196800Y152484
X196800Y162484
X196800Y172484
X196800Y182484
X196800Y192484
X196800Y202484
X196800Y212484
X196800Y222484
X196800Y232484
X136800Y232484
X136800Y222484
X136800Y212484
X136800Y202484
X136800Y192484
X136800Y182484
X136800Y172484
X136800Y162484
X136800Y152484
X136800Y142484
X76800Y142484
X76800Y152484
X76800Y162484
X76800Y172484
X76800Y182484
X76800Y192484
X76800Y202484
X76800Y212484
X76800Y222484
X76800Y232484
X16800Y232484
X16800Y222484
X16800Y212484
X16800Y202484
X16800Y192484
X16800Y182484
X16800Y172484
X16800Y162484
X16800Y152484
X16800Y142484
T06
X15855Y77878
X32391Y77878
X48926Y77878
X65461Y77878
X81997Y77878
X98532Y77878
X115068Y77878
X131603Y77878
X148139Y77878
X164674Y77878
X181209Y77878
X197745Y77878
X197745Y56224
X181209Y56224
X164674Y56224
X148139Y56224
X131603Y56224
X115068Y56224
X98532Y56224
X81997Y56224
X65461Y56224
X48926Y56224
X32391Y56224
X15855Y56224
T07
X276800Y62484
X276800Y46684
X276800Y78284
T08
X15855Y27484
X197745Y27484
M30
