G75*
%MOIN*%
%OFA0B0*%
%FSLAX25Y25*%
%IPPOS*%
%LPD*%
%AMOC8*
5,1,8,0,0,1.08239X$1,22.5*
%
%ADD10C,0.11417*%
%ADD11OC8,0.05200*%
%ADD12C,0.11850*%
%ADD13C,0.07400*%
%ADD14C,0.01600*%
%ADD15C,0.03200*%
%ADD16R,0.03962X0.03962*%
%ADD17R,0.05906X0.05906*%
D10*
X0015855Y0056224D03*
X0032391Y0056224D03*
X0048926Y0056224D03*
X0065461Y0056224D03*
X0081997Y0056224D03*
X0098532Y0056224D03*
X0115068Y0056224D03*
X0131603Y0056224D03*
X0148139Y0056224D03*
X0164674Y0056224D03*
X0181209Y0056224D03*
X0197745Y0056224D03*
X0197745Y0077878D03*
X0181209Y0077878D03*
X0164674Y0077878D03*
X0148139Y0077878D03*
X0131603Y0077878D03*
X0115068Y0077878D03*
X0098532Y0077878D03*
X0081997Y0077878D03*
X0065461Y0077878D03*
X0048926Y0077878D03*
X0032391Y0077878D03*
X0015855Y0077878D03*
D11*
X0091800Y0107484D03*
X0101800Y0107484D03*
D12*
X0270875Y0078284D02*
X0282725Y0078284D01*
X0282725Y0062484D02*
X0270875Y0062484D01*
X0270875Y0046684D02*
X0282725Y0046684D01*
D13*
X0261800Y0142484D03*
X0251800Y0142484D03*
X0251800Y0152484D03*
X0261800Y0152484D03*
X0261800Y0162484D03*
X0251800Y0162484D03*
X0251800Y0172484D03*
X0261800Y0172484D03*
X0261800Y0182484D03*
X0251800Y0182484D03*
X0251800Y0192484D03*
X0261800Y0192484D03*
X0261800Y0202484D03*
X0251800Y0202484D03*
X0251800Y0212484D03*
X0261800Y0212484D03*
X0261800Y0222484D03*
X0251800Y0222484D03*
X0251800Y0232484D03*
X0261800Y0232484D03*
X0196800Y0232484D03*
X0196800Y0222484D03*
X0196800Y0212484D03*
X0196800Y0202484D03*
X0196800Y0192484D03*
X0196800Y0182484D03*
X0196800Y0172484D03*
X0196800Y0162484D03*
X0196800Y0152484D03*
X0196800Y0142484D03*
X0136800Y0142484D03*
X0136800Y0152484D03*
X0136800Y0162484D03*
X0136800Y0172484D03*
X0136800Y0182484D03*
X0136800Y0192484D03*
X0136800Y0202484D03*
X0136800Y0212484D03*
X0136800Y0222484D03*
X0136800Y0232484D03*
X0076800Y0232484D03*
X0076800Y0222484D03*
X0076800Y0212484D03*
X0076800Y0202484D03*
X0076800Y0192484D03*
X0076800Y0182484D03*
X0076800Y0172484D03*
X0076800Y0162484D03*
X0076800Y0152484D03*
X0076800Y0142484D03*
X0061800Y0107484D03*
X0031800Y0107484D03*
X0016800Y0142484D03*
X0016800Y0152484D03*
X0016800Y0162484D03*
X0016800Y0172484D03*
X0016800Y0182484D03*
X0016800Y0192484D03*
X0016800Y0202484D03*
X0016800Y0212484D03*
X0016800Y0222484D03*
X0016800Y0232484D03*
D14*
X0025831Y0023352D02*
X0025215Y0022284D01*
X0188385Y0022284D01*
X0187769Y0023352D01*
X0187039Y0026075D01*
X0187039Y0028894D01*
X0187769Y0031616D01*
X0189178Y0034058D01*
X0191172Y0036051D01*
X0193613Y0037460D01*
X0196335Y0038190D01*
X0199154Y0038190D01*
X0201877Y0037460D01*
X0204318Y0036051D01*
X0206311Y0034058D01*
X0207721Y0031616D01*
X0208450Y0028894D01*
X0208450Y0026075D01*
X0207721Y0023352D01*
X0207104Y0022284D01*
X0310701Y0022284D01*
X0310701Y0118217D01*
X0310415Y0117931D01*
X0303184Y0117931D01*
X0302247Y0118869D01*
X0302247Y0126100D01*
X0303184Y0127037D01*
X0310415Y0127037D01*
X0310701Y0126752D01*
X0310701Y0238217D01*
X0310415Y0237931D01*
X0303184Y0237931D01*
X0302247Y0238869D01*
X0302247Y0246100D01*
X0303184Y0247037D01*
X0310415Y0247037D01*
X0310701Y0246752D01*
X0310701Y0247645D01*
X0006600Y0247645D01*
X0006600Y0247037D01*
X0010415Y0247037D01*
X0011353Y0246100D01*
X0011353Y0238869D01*
X0010415Y0237931D01*
X0006600Y0237931D01*
X0006600Y0132037D01*
X0010415Y0132037D01*
X0011353Y0131100D01*
X0011353Y0123869D01*
X0010415Y0122931D01*
X0006600Y0122931D01*
X0006600Y0097037D01*
X0010415Y0097037D01*
X0011353Y0096100D01*
X0011353Y0088869D01*
X0010415Y0087931D01*
X0006600Y0087931D01*
X0006600Y0042037D01*
X0010415Y0042037D01*
X0011353Y0041100D01*
X0011353Y0037246D01*
X0011723Y0037460D01*
X0014446Y0038190D01*
X0017265Y0038190D01*
X0019987Y0037460D01*
X0022428Y0036051D01*
X0024422Y0034058D01*
X0025831Y0031616D01*
X0026561Y0028894D01*
X0026561Y0026075D01*
X0025831Y0023352D01*
X0025448Y0022689D02*
X0188152Y0022689D01*
X0187518Y0024287D02*
X0026082Y0024287D01*
X0026510Y0025886D02*
X0187090Y0025886D01*
X0187039Y0027484D02*
X0026561Y0027484D01*
X0026510Y0029083D02*
X0062247Y0029083D01*
X0062247Y0028869D02*
X0063184Y0027931D01*
X0070415Y0027931D01*
X0071353Y0028869D01*
X0071353Y0036100D01*
X0070415Y0037037D01*
X0063184Y0037037D01*
X0062247Y0036100D01*
X0062247Y0028869D01*
X0062247Y0030681D02*
X0026082Y0030681D01*
X0025448Y0032280D02*
X0062247Y0032280D01*
X0062247Y0033878D02*
X0024525Y0033878D01*
X0023002Y0035477D02*
X0062247Y0035477D01*
X0071353Y0035477D02*
X0122247Y0035477D01*
X0122247Y0036100D02*
X0122247Y0028869D01*
X0123184Y0027931D01*
X0130415Y0027931D01*
X0131353Y0028869D01*
X0131353Y0036100D01*
X0130415Y0037037D01*
X0123184Y0037037D01*
X0122247Y0036100D01*
X0122247Y0033878D02*
X0071353Y0033878D01*
X0071353Y0032280D02*
X0122247Y0032280D01*
X0122247Y0030681D02*
X0071353Y0030681D01*
X0071353Y0029083D02*
X0122247Y0029083D01*
X0131353Y0029083D02*
X0187090Y0029083D01*
X0187518Y0030681D02*
X0131353Y0030681D01*
X0131353Y0032280D02*
X0188152Y0032280D01*
X0189075Y0033878D02*
X0131353Y0033878D01*
X0131353Y0035477D02*
X0190598Y0035477D01*
X0192946Y0037075D02*
X0020654Y0037075D01*
X0011353Y0038674D02*
X0310701Y0038674D01*
X0310701Y0040272D02*
X0287059Y0040272D01*
X0287026Y0040247D02*
X0287829Y0040864D01*
X0288545Y0041580D01*
X0289162Y0042383D01*
X0289668Y0043260D01*
X0290056Y0044196D01*
X0290318Y0045174D01*
X0290411Y0045884D01*
X0277600Y0045884D01*
X0277600Y0038959D01*
X0283231Y0038959D01*
X0284235Y0039091D01*
X0285213Y0039354D01*
X0286149Y0039741D01*
X0287026Y0040247D01*
X0288769Y0041871D02*
X0310701Y0041871D01*
X0310701Y0043469D02*
X0289755Y0043469D01*
X0290289Y0045068D02*
X0310701Y0045068D01*
X0310701Y0046666D02*
X0277600Y0046666D01*
X0277600Y0045884D02*
X0277600Y0047484D01*
X0290411Y0047484D01*
X0290318Y0048195D01*
X0290056Y0049173D01*
X0289668Y0050108D01*
X0289162Y0050985D01*
X0288545Y0051789D01*
X0287829Y0052505D01*
X0287026Y0053121D01*
X0286149Y0053627D01*
X0285213Y0054015D01*
X0284235Y0054277D01*
X0283231Y0054409D01*
X0277600Y0054409D01*
X0277600Y0047484D01*
X0276000Y0047484D01*
X0276000Y0045884D01*
X0277600Y0045884D01*
X0277600Y0045068D02*
X0276000Y0045068D01*
X0276000Y0045884D02*
X0276000Y0038959D01*
X0270369Y0038959D01*
X0269365Y0039091D01*
X0268387Y0039354D01*
X0267451Y0039741D01*
X0266574Y0040247D01*
X0265771Y0040864D01*
X0265055Y0041580D01*
X0264438Y0042383D01*
X0263932Y0043260D01*
X0263544Y0044196D01*
X0263282Y0045174D01*
X0263189Y0045884D01*
X0276000Y0045884D01*
X0276000Y0046666D02*
X0171109Y0046666D01*
X0169845Y0045403D02*
X0175770Y0051328D01*
X0177069Y0050028D01*
X0179756Y0048916D01*
X0182663Y0048916D01*
X0185349Y0050028D01*
X0187405Y0052084D01*
X0187795Y0053024D01*
X0191160Y0053024D01*
X0191549Y0052084D01*
X0193605Y0050028D01*
X0196291Y0048916D01*
X0199199Y0048916D01*
X0201885Y0050028D01*
X0203941Y0052084D01*
X0205054Y0054771D01*
X0205054Y0057678D01*
X0203941Y0060364D01*
X0201885Y0062420D01*
X0199199Y0063533D01*
X0196291Y0063533D01*
X0193605Y0062420D01*
X0191549Y0060364D01*
X0191160Y0059424D01*
X0187795Y0059424D01*
X0187405Y0060364D01*
X0185349Y0062420D01*
X0182663Y0063533D01*
X0179756Y0063533D01*
X0177069Y0062420D01*
X0175013Y0060364D01*
X0174442Y0058984D01*
X0174329Y0058937D01*
X0173429Y0058037D01*
X0170816Y0055424D01*
X0165474Y0055424D01*
X0165474Y0057024D01*
X0172142Y0057024D01*
X0172054Y0057692D01*
X0171799Y0058643D01*
X0171423Y0059553D01*
X0170931Y0060405D01*
X0170331Y0061186D01*
X0169635Y0061882D01*
X0168855Y0062481D01*
X0168002Y0062973D01*
X0167093Y0063350D01*
X0166142Y0063605D01*
X0165474Y0063693D01*
X0165474Y0057024D01*
X0163874Y0057024D01*
X0163874Y0063693D01*
X0163206Y0063605D01*
X0162255Y0063350D01*
X0161346Y0062973D01*
X0160493Y0062481D01*
X0159713Y0061882D01*
X0159093Y0061263D01*
X0153310Y0067046D01*
X0152134Y0067533D01*
X0151277Y0067533D01*
X0148240Y0070569D01*
X0149592Y0070569D01*
X0152279Y0071682D01*
X0153243Y0072647D01*
X0159765Y0066125D01*
X0160441Y0065450D01*
X0161323Y0065084D01*
X0263807Y0065084D01*
X0263350Y0063981D01*
X0263350Y0060987D01*
X0264496Y0058222D01*
X0266612Y0056105D01*
X0269378Y0054959D01*
X0284222Y0054959D01*
X0286988Y0056105D01*
X0289104Y0058222D01*
X0290250Y0060987D01*
X0290250Y0063981D01*
X0289104Y0066747D01*
X0286988Y0068864D01*
X0284222Y0070009D01*
X0269378Y0070009D01*
X0269076Y0069884D01*
X0162794Y0069884D01*
X0161693Y0070985D01*
X0162255Y0070753D01*
X0163206Y0070498D01*
X0163874Y0070410D01*
X0163874Y0077078D01*
X0157206Y0077078D01*
X0157294Y0076410D01*
X0157549Y0075459D01*
X0157782Y0074897D01*
X0155447Y0077231D01*
X0155447Y0079332D01*
X0154335Y0082018D01*
X0152279Y0084074D01*
X0149592Y0085187D01*
X0146685Y0085187D01*
X0143999Y0084074D01*
X0142586Y0082661D01*
X0142425Y0083049D01*
X0141524Y0083950D01*
X0140000Y0085474D01*
X0140000Y0138189D01*
X0141293Y0139482D01*
X0142100Y0141430D01*
X0142100Y0143538D01*
X0141293Y0145486D01*
X0140000Y0146780D01*
X0140000Y0148189D01*
X0141293Y0149482D01*
X0142100Y0151430D01*
X0142100Y0153538D01*
X0141293Y0155486D01*
X0140000Y0156780D01*
X0140000Y0158189D01*
X0141293Y0159482D01*
X0142100Y0161430D01*
X0142100Y0163538D01*
X0141293Y0165486D01*
X0140000Y0166780D01*
X0140000Y0168189D01*
X0141293Y0169482D01*
X0142100Y0171430D01*
X0142100Y0173538D01*
X0141293Y0175486D01*
X0140000Y0176780D01*
X0140000Y0178189D01*
X0141293Y0179482D01*
X0142100Y0181430D01*
X0142100Y0183538D01*
X0141293Y0185486D01*
X0140000Y0186780D01*
X0140000Y0188189D01*
X0141293Y0189482D01*
X0142100Y0191430D01*
X0142100Y0193538D01*
X0141293Y0195486D01*
X0140000Y0196780D01*
X0140000Y0198189D01*
X0141293Y0199482D01*
X0142100Y0201430D01*
X0142100Y0203538D01*
X0141293Y0205486D01*
X0140000Y0206780D01*
X0140000Y0208189D01*
X0141293Y0209482D01*
X0142100Y0211430D01*
X0142100Y0213538D01*
X0141293Y0215486D01*
X0140000Y0216780D01*
X0140000Y0218189D01*
X0141293Y0219482D01*
X0142100Y0221430D01*
X0142100Y0223538D01*
X0141293Y0225486D01*
X0140000Y0226780D01*
X0140000Y0228189D01*
X0141293Y0229482D01*
X0142100Y0231430D01*
X0142100Y0233538D01*
X0141293Y0235486D01*
X0139802Y0236977D01*
X0137854Y0237784D01*
X0135746Y0237784D01*
X0133798Y0236977D01*
X0132307Y0235486D01*
X0131500Y0233538D01*
X0131500Y0231430D01*
X0132307Y0229482D01*
X0133600Y0228189D01*
X0133600Y0226780D01*
X0132307Y0225486D01*
X0131500Y0223538D01*
X0131500Y0221430D01*
X0132307Y0219482D01*
X0133600Y0218189D01*
X0133600Y0216780D01*
X0132307Y0215486D01*
X0131500Y0213538D01*
X0131500Y0211430D01*
X0132307Y0209482D01*
X0133600Y0208189D01*
X0133600Y0206780D01*
X0132307Y0205486D01*
X0131500Y0203538D01*
X0131500Y0201430D01*
X0132307Y0199482D01*
X0133600Y0198189D01*
X0133600Y0196780D01*
X0132307Y0195486D01*
X0131500Y0193538D01*
X0131500Y0191430D01*
X0132307Y0189482D01*
X0133600Y0188189D01*
X0133600Y0186780D01*
X0132307Y0185486D01*
X0131500Y0183538D01*
X0131500Y0181430D01*
X0132307Y0179482D01*
X0133600Y0178189D01*
X0133600Y0176780D01*
X0132307Y0175486D01*
X0131500Y0173538D01*
X0131500Y0171430D01*
X0132307Y0169482D01*
X0133600Y0168189D01*
X0133600Y0166780D01*
X0132307Y0165486D01*
X0131500Y0163538D01*
X0131500Y0161430D01*
X0132307Y0159482D01*
X0133600Y0158189D01*
X0133600Y0156780D01*
X0132307Y0155486D01*
X0131500Y0153538D01*
X0131500Y0151430D01*
X0132307Y0149482D01*
X0133600Y0148189D01*
X0133600Y0146780D01*
X0132307Y0145486D01*
X0131500Y0143538D01*
X0131500Y0141430D01*
X0132307Y0139482D01*
X0133600Y0138189D01*
X0133600Y0085116D01*
X0133071Y0085258D01*
X0132403Y0085346D01*
X0132403Y0078678D01*
X0130803Y0078678D01*
X0130803Y0077078D01*
X0124135Y0077078D01*
X0124223Y0076410D01*
X0124478Y0075459D01*
X0124854Y0074550D01*
X0125347Y0073697D01*
X0125946Y0072917D01*
X0126642Y0072221D01*
X0127423Y0071621D01*
X0128275Y0071129D01*
X0129184Y0070753D01*
X0130135Y0070498D01*
X0130803Y0070410D01*
X0130803Y0077078D01*
X0132403Y0077078D01*
X0132403Y0070410D01*
X0133071Y0070498D01*
X0134022Y0070753D01*
X0134931Y0071129D01*
X0135784Y0071621D01*
X0136565Y0072221D01*
X0137051Y0072707D01*
X0146360Y0063399D01*
X0143999Y0062420D01*
X0141943Y0060364D01*
X0140830Y0057678D01*
X0140830Y0054771D01*
X0141943Y0052084D01*
X0143999Y0050028D01*
X0146685Y0048916D01*
X0149592Y0048916D01*
X0152279Y0050028D01*
X0153692Y0051441D01*
X0153853Y0051053D01*
X0154753Y0050153D01*
X0158602Y0046303D01*
X0159503Y0045403D01*
X0160679Y0044916D01*
X0168669Y0044916D01*
X0169845Y0045403D01*
X0169037Y0045068D02*
X0263311Y0045068D01*
X0263845Y0043469D02*
X0006600Y0043469D01*
X0006600Y0045068D02*
X0160311Y0045068D01*
X0158602Y0046303D02*
X0158602Y0046303D01*
X0158239Y0046666D02*
X0006600Y0046666D01*
X0006600Y0048265D02*
X0156641Y0048265D01*
X0155042Y0049863D02*
X0151880Y0049863D01*
X0154753Y0050153D02*
X0154753Y0050153D01*
X0144397Y0049863D02*
X0135603Y0049863D01*
X0135784Y0049968D02*
X0136565Y0050567D01*
X0137261Y0051263D01*
X0137860Y0052044D01*
X0138352Y0052896D01*
X0138729Y0053806D01*
X0138983Y0054756D01*
X0139071Y0055424D01*
X0132403Y0055424D01*
X0132403Y0048756D01*
X0133071Y0048844D01*
X0134022Y0049099D01*
X0134931Y0049476D01*
X0135784Y0049968D01*
X0137413Y0051462D02*
X0142565Y0051462D01*
X0141538Y0053060D02*
X0138420Y0053060D01*
X0138957Y0054659D02*
X0140876Y0054659D01*
X0140830Y0056257D02*
X0132403Y0056257D01*
X0132403Y0057024D02*
X0139071Y0057024D01*
X0138983Y0057692D01*
X0138729Y0058643D01*
X0138352Y0059553D01*
X0137860Y0060405D01*
X0137261Y0061186D01*
X0136565Y0061882D01*
X0135784Y0062481D01*
X0134931Y0062973D01*
X0134022Y0063350D01*
X0133071Y0063605D01*
X0132403Y0063693D01*
X0132403Y0057024D01*
X0132403Y0055424D01*
X0130803Y0055424D01*
X0130803Y0048756D01*
X0130135Y0048844D01*
X0129184Y0049099D01*
X0128275Y0049476D01*
X0127423Y0049968D01*
X0126642Y0050567D01*
X0125946Y0051263D01*
X0125347Y0052044D01*
X0124854Y0052896D01*
X0124478Y0053806D01*
X0124223Y0054756D01*
X0124135Y0055424D01*
X0130803Y0055424D01*
X0130803Y0057024D01*
X0124135Y0057024D01*
X0124223Y0057692D01*
X0124478Y0058643D01*
X0124854Y0059553D01*
X0125347Y0060405D01*
X0125946Y0061186D01*
X0126642Y0061882D01*
X0127423Y0062481D01*
X0128275Y0062973D01*
X0129184Y0063350D01*
X0130135Y0063605D01*
X0130803Y0063693D01*
X0130803Y0057024D01*
X0132403Y0057024D01*
X0132403Y0057856D02*
X0130803Y0057856D01*
X0130803Y0059454D02*
X0132403Y0059454D01*
X0132403Y0061053D02*
X0130803Y0061053D01*
X0130803Y0062652D02*
X0132403Y0062652D01*
X0135488Y0062652D02*
X0144557Y0062652D01*
X0145509Y0064250D02*
X0044560Y0064250D01*
X0045920Y0062890D02*
X0037228Y0071582D01*
X0036829Y0071981D01*
X0038587Y0073738D01*
X0038976Y0074678D01*
X0042341Y0074678D01*
X0042730Y0073738D01*
X0044786Y0071682D01*
X0047472Y0070569D01*
X0050380Y0070569D01*
X0053066Y0071682D01*
X0055122Y0073738D01*
X0056235Y0076424D01*
X0056235Y0079332D01*
X0055122Y0082018D01*
X0053066Y0084074D01*
X0050380Y0085187D01*
X0047472Y0085187D01*
X0044786Y0084074D01*
X0042730Y0082018D01*
X0042341Y0081078D01*
X0038976Y0081078D01*
X0038587Y0082018D01*
X0036531Y0084074D01*
X0035000Y0084708D01*
X0035000Y0103189D01*
X0036293Y0104482D01*
X0037100Y0106430D01*
X0037100Y0108259D01*
X0068125Y0139284D01*
X0072505Y0139284D01*
X0073798Y0137991D01*
X0075746Y0137184D01*
X0077854Y0137184D01*
X0079802Y0137991D01*
X0081293Y0139482D01*
X0082100Y0141430D01*
X0082100Y0143538D01*
X0081293Y0145486D01*
X0080000Y0146780D01*
X0080000Y0148189D01*
X0081293Y0149482D01*
X0082100Y0151430D01*
X0082100Y0153538D01*
X0081293Y0155486D01*
X0080000Y0156780D01*
X0080000Y0158189D01*
X0081293Y0159482D01*
X0082100Y0161430D01*
X0082100Y0163538D01*
X0081293Y0165486D01*
X0080000Y0166780D01*
X0080000Y0168189D01*
X0081293Y0169482D01*
X0082100Y0171430D01*
X0082100Y0173538D01*
X0081293Y0175486D01*
X0080000Y0176780D01*
X0080000Y0178189D01*
X0081293Y0179482D01*
X0082100Y0181430D01*
X0082100Y0183538D01*
X0081293Y0185486D01*
X0080000Y0186780D01*
X0080000Y0188189D01*
X0081293Y0189482D01*
X0082100Y0191430D01*
X0082100Y0193538D01*
X0081293Y0195486D01*
X0080000Y0196780D01*
X0080000Y0198189D01*
X0081293Y0199482D01*
X0082100Y0201430D01*
X0082100Y0203538D01*
X0081293Y0205486D01*
X0080000Y0206780D01*
X0080000Y0208189D01*
X0081293Y0209482D01*
X0082100Y0211430D01*
X0082100Y0213538D01*
X0081293Y0215486D01*
X0080000Y0216780D01*
X0080000Y0218189D01*
X0081293Y0219482D01*
X0082100Y0221430D01*
X0082100Y0223538D01*
X0081293Y0225486D01*
X0080000Y0226780D01*
X0080000Y0228189D01*
X0081293Y0229482D01*
X0082100Y0231430D01*
X0082100Y0233538D01*
X0081293Y0235486D01*
X0079802Y0236977D01*
X0077854Y0237784D01*
X0075746Y0237784D01*
X0073798Y0236977D01*
X0072307Y0235486D01*
X0071500Y0233538D01*
X0071500Y0231430D01*
X0072307Y0229482D01*
X0073600Y0228189D01*
X0073600Y0226780D01*
X0072307Y0225486D01*
X0071500Y0223538D01*
X0071500Y0221430D01*
X0072307Y0219482D01*
X0073600Y0218189D01*
X0073600Y0216780D01*
X0072307Y0215486D01*
X0071500Y0213538D01*
X0071500Y0211430D01*
X0072307Y0209482D01*
X0073600Y0208189D01*
X0073600Y0206780D01*
X0072307Y0205486D01*
X0071500Y0203538D01*
X0071500Y0201430D01*
X0072307Y0199482D01*
X0073600Y0198189D01*
X0073600Y0196780D01*
X0072307Y0195486D01*
X0071500Y0193538D01*
X0071500Y0191430D01*
X0072307Y0189482D01*
X0073600Y0188189D01*
X0073600Y0186780D01*
X0072307Y0185486D01*
X0071500Y0183538D01*
X0071500Y0181430D01*
X0072307Y0179482D01*
X0073600Y0178189D01*
X0073600Y0176780D01*
X0072307Y0175486D01*
X0071500Y0173538D01*
X0071500Y0171430D01*
X0072307Y0169482D01*
X0073600Y0168189D01*
X0073600Y0166780D01*
X0072307Y0165486D01*
X0071500Y0163538D01*
X0071500Y0161430D01*
X0072307Y0159482D01*
X0073600Y0158189D01*
X0073600Y0156780D01*
X0072307Y0155486D01*
X0071500Y0153538D01*
X0071500Y0151430D01*
X0072307Y0149482D01*
X0073600Y0148189D01*
X0073600Y0146780D01*
X0072505Y0145684D01*
X0066163Y0145684D01*
X0064987Y0145197D01*
X0032575Y0112784D01*
X0030746Y0112784D01*
X0028798Y0111977D01*
X0027307Y0110486D01*
X0026500Y0108538D01*
X0026500Y0106430D01*
X0027307Y0104482D01*
X0028600Y0103189D01*
X0028600Y0084219D01*
X0028251Y0084074D01*
X0026837Y0082661D01*
X0026677Y0083049D01*
X0025776Y0083950D01*
X0021927Y0087799D01*
X0021027Y0088699D01*
X0020000Y0089125D01*
X0020000Y0138189D01*
X0021293Y0139482D01*
X0022100Y0141430D01*
X0022100Y0143538D01*
X0021293Y0145486D01*
X0020000Y0146780D01*
X0020000Y0148189D01*
X0021293Y0149482D01*
X0022100Y0151430D01*
X0022100Y0153538D01*
X0021293Y0155486D01*
X0020000Y0156780D01*
X0020000Y0158189D01*
X0021293Y0159482D01*
X0022100Y0161430D01*
X0022100Y0163538D01*
X0021293Y0165486D01*
X0020000Y0166780D01*
X0020000Y0168189D01*
X0021293Y0169482D01*
X0022100Y0171430D01*
X0022100Y0173538D01*
X0021293Y0175486D01*
X0020000Y0176780D01*
X0020000Y0178189D01*
X0021293Y0179482D01*
X0022100Y0181430D01*
X0022100Y0183538D01*
X0021293Y0185486D01*
X0020000Y0186780D01*
X0020000Y0188189D01*
X0021293Y0189482D01*
X0022100Y0191430D01*
X0022100Y0193538D01*
X0021293Y0195486D01*
X0020000Y0196780D01*
X0020000Y0198189D01*
X0021293Y0199482D01*
X0022100Y0201430D01*
X0022100Y0203538D01*
X0021293Y0205486D01*
X0020000Y0206780D01*
X0020000Y0208189D01*
X0021293Y0209482D01*
X0022100Y0211430D01*
X0022100Y0213538D01*
X0021293Y0215486D01*
X0020000Y0216780D01*
X0020000Y0218189D01*
X0021293Y0219482D01*
X0022100Y0221430D01*
X0022100Y0223538D01*
X0021293Y0225486D01*
X0020000Y0226780D01*
X0020000Y0228189D01*
X0021293Y0229482D01*
X0022100Y0231430D01*
X0022100Y0233538D01*
X0021293Y0235486D01*
X0019802Y0236977D01*
X0017854Y0237784D01*
X0015746Y0237784D01*
X0013798Y0236977D01*
X0012307Y0235486D01*
X0011500Y0233538D01*
X0011500Y0231430D01*
X0012307Y0229482D01*
X0013600Y0228189D01*
X0013600Y0226780D01*
X0012307Y0225486D01*
X0011500Y0223538D01*
X0011500Y0221430D01*
X0012307Y0219482D01*
X0013600Y0218189D01*
X0013600Y0216780D01*
X0012307Y0215486D01*
X0011500Y0213538D01*
X0011500Y0211430D01*
X0012307Y0209482D01*
X0013600Y0208189D01*
X0013600Y0206780D01*
X0012307Y0205486D01*
X0011500Y0203538D01*
X0011500Y0201430D01*
X0012307Y0199482D01*
X0013600Y0198189D01*
X0013600Y0196780D01*
X0012307Y0195486D01*
X0011500Y0193538D01*
X0011500Y0191430D01*
X0012307Y0189482D01*
X0013600Y0188189D01*
X0013600Y0186780D01*
X0012307Y0185486D01*
X0011500Y0183538D01*
X0011500Y0181430D01*
X0012307Y0179482D01*
X0013600Y0178189D01*
X0013600Y0176780D01*
X0012307Y0175486D01*
X0011500Y0173538D01*
X0011500Y0171430D01*
X0012307Y0169482D01*
X0013600Y0168189D01*
X0013600Y0166780D01*
X0012307Y0165486D01*
X0011500Y0163538D01*
X0011500Y0161430D01*
X0012307Y0159482D01*
X0013600Y0158189D01*
X0013600Y0156780D01*
X0012307Y0155486D01*
X0011500Y0153538D01*
X0011500Y0151430D01*
X0012307Y0149482D01*
X0013600Y0148189D01*
X0013600Y0146780D01*
X0012307Y0145486D01*
X0011500Y0143538D01*
X0011500Y0141430D01*
X0012307Y0139482D01*
X0013600Y0138189D01*
X0013600Y0086848D01*
X0014087Y0085672D01*
X0014487Y0085271D01*
X0014387Y0085258D01*
X0013436Y0085003D01*
X0012527Y0084627D01*
X0011675Y0084135D01*
X0010894Y0083535D01*
X0010198Y0082839D01*
X0009598Y0082058D01*
X0009106Y0081206D01*
X0008730Y0080297D01*
X0008475Y0079346D01*
X0008387Y0078678D01*
X0015055Y0078678D01*
X0015055Y0077078D01*
X0008387Y0077078D01*
X0008475Y0076410D01*
X0008730Y0075459D01*
X0009106Y0074550D01*
X0009598Y0073697D01*
X0010198Y0072917D01*
X0010894Y0072221D01*
X0011675Y0071621D01*
X0012527Y0071129D01*
X0013436Y0070753D01*
X0014387Y0070498D01*
X0015055Y0070410D01*
X0015055Y0077078D01*
X0016655Y0077078D01*
X0016655Y0070410D01*
X0017323Y0070498D01*
X0018274Y0070753D01*
X0019183Y0071129D01*
X0020036Y0071621D01*
X0020817Y0072221D01*
X0021436Y0072840D01*
X0022151Y0072124D01*
X0027219Y0067056D01*
X0028395Y0066569D01*
X0033189Y0066569D01*
X0040334Y0059424D01*
X0038976Y0059424D01*
X0038587Y0060364D01*
X0036531Y0062420D01*
X0033844Y0063533D01*
X0030937Y0063533D01*
X0028251Y0062420D01*
X0026195Y0060364D01*
X0025082Y0057678D01*
X0025082Y0054771D01*
X0026195Y0052084D01*
X0028251Y0050028D01*
X0030937Y0048916D01*
X0033844Y0048916D01*
X0036531Y0050028D01*
X0038587Y0052084D01*
X0038976Y0053024D01*
X0042341Y0053024D01*
X0042730Y0052084D01*
X0044786Y0050028D01*
X0047472Y0048916D01*
X0050380Y0048916D01*
X0053066Y0050028D01*
X0055122Y0052084D01*
X0056235Y0054771D01*
X0056235Y0057678D01*
X0055122Y0060364D01*
X0053066Y0062420D01*
X0050380Y0063533D01*
X0047472Y0063533D01*
X0045920Y0062890D01*
X0042961Y0065849D02*
X0143910Y0065849D01*
X0142312Y0067447D02*
X0041363Y0067447D01*
X0039764Y0069046D02*
X0140713Y0069046D01*
X0139115Y0070644D02*
X0133617Y0070644D01*
X0132403Y0070644D02*
X0130803Y0070644D01*
X0129589Y0070644D02*
X0117082Y0070644D01*
X0117486Y0070753D02*
X0118396Y0071129D01*
X0119248Y0071621D01*
X0120029Y0072221D01*
X0120725Y0072917D01*
X0121324Y0073697D01*
X0121816Y0074550D01*
X0122193Y0075459D01*
X0122448Y0076410D01*
X0122536Y0077078D01*
X0115868Y0077078D01*
X0115868Y0078678D01*
X0122536Y0078678D01*
X0122448Y0079346D01*
X0122193Y0080297D01*
X0121816Y0081206D01*
X0121324Y0082058D01*
X0120725Y0082839D01*
X0120029Y0083535D01*
X0119248Y0084135D01*
X0118396Y0084627D01*
X0117486Y0085003D01*
X0116536Y0085258D01*
X0115868Y0085346D01*
X0115868Y0078678D01*
X0114268Y0078678D01*
X0114268Y0085346D01*
X0113600Y0085258D01*
X0112649Y0085003D01*
X0111740Y0084627D01*
X0110887Y0084135D01*
X0110106Y0083535D01*
X0109410Y0082839D01*
X0108811Y0082058D01*
X0108319Y0081206D01*
X0107942Y0080297D01*
X0107688Y0079346D01*
X0107600Y0078678D01*
X0114268Y0078678D01*
X0114268Y0077078D01*
X0115868Y0077078D01*
X0115868Y0070410D01*
X0116536Y0070498D01*
X0117486Y0070753D01*
X0115868Y0070644D02*
X0114268Y0070644D01*
X0114268Y0070410D02*
X0113600Y0070498D01*
X0112649Y0070753D01*
X0111740Y0071129D01*
X0110887Y0071621D01*
X0110106Y0072221D01*
X0109410Y0072917D01*
X0108811Y0073697D01*
X0108319Y0074550D01*
X0107942Y0075459D01*
X0107688Y0076410D01*
X0107600Y0077078D01*
X0114268Y0077078D01*
X0114268Y0070410D01*
X0113054Y0070644D02*
X0100546Y0070644D01*
X0100951Y0070753D02*
X0101860Y0071129D01*
X0102713Y0071621D01*
X0103494Y0072221D01*
X0104190Y0072917D01*
X0104789Y0073697D01*
X0105281Y0074550D01*
X0105658Y0075459D01*
X0105912Y0076410D01*
X0106000Y0077078D01*
X0099332Y0077078D01*
X0099332Y0070410D01*
X0100000Y0070498D01*
X0100951Y0070753D01*
X0099332Y0070644D02*
X0097732Y0070644D01*
X0097732Y0070410D02*
X0097064Y0070498D01*
X0096114Y0070753D01*
X0095204Y0071129D01*
X0094352Y0071621D01*
X0093571Y0072221D01*
X0092875Y0072917D01*
X0092276Y0073697D01*
X0091784Y0074550D01*
X0091407Y0075459D01*
X0091152Y0076410D01*
X0091064Y0077078D01*
X0097732Y0077078D01*
X0097732Y0078678D01*
X0091064Y0078678D01*
X0091152Y0079346D01*
X0091407Y0080297D01*
X0091784Y0081206D01*
X0092276Y0082058D01*
X0092875Y0082839D01*
X0093571Y0083535D01*
X0094352Y0084135D01*
X0095204Y0084627D01*
X0096114Y0085003D01*
X0097064Y0085258D01*
X0097732Y0085346D01*
X0097732Y0078678D01*
X0099332Y0078678D01*
X0099332Y0085346D01*
X0100000Y0085258D01*
X0100951Y0085003D01*
X0101860Y0084627D01*
X0102713Y0084135D01*
X0103494Y0083535D01*
X0104190Y0082839D01*
X0104789Y0082058D01*
X0105281Y0081206D01*
X0105658Y0080297D01*
X0105912Y0079346D01*
X0106000Y0078678D01*
X0099332Y0078678D01*
X0099332Y0077078D01*
X0097732Y0077078D01*
X0097732Y0070410D01*
X0096518Y0070644D02*
X0083631Y0070644D01*
X0083451Y0070569D02*
X0086137Y0071682D01*
X0088193Y0073738D01*
X0089305Y0076424D01*
X0089305Y0079332D01*
X0088193Y0082018D01*
X0086137Y0084074D01*
X0083451Y0085187D01*
X0080543Y0085187D01*
X0077857Y0084074D01*
X0075801Y0082018D01*
X0074688Y0079332D01*
X0074688Y0076424D01*
X0075801Y0073738D01*
X0077857Y0071682D01*
X0080543Y0070569D01*
X0083451Y0070569D01*
X0080363Y0070644D02*
X0067096Y0070644D01*
X0066915Y0070569D02*
X0069601Y0071682D01*
X0071657Y0073738D01*
X0072770Y0076424D01*
X0072770Y0079332D01*
X0071657Y0082018D01*
X0069601Y0084074D01*
X0066915Y0085187D01*
X0064008Y0085187D01*
X0061321Y0084074D01*
X0059265Y0082018D01*
X0058153Y0079332D01*
X0058153Y0076424D01*
X0059265Y0073738D01*
X0061321Y0071682D01*
X0064008Y0070569D01*
X0066915Y0070569D01*
X0063827Y0070644D02*
X0050560Y0070644D01*
X0047292Y0070644D02*
X0038166Y0070644D01*
X0037091Y0072243D02*
X0044225Y0072243D01*
X0042687Y0073841D02*
X0038629Y0073841D01*
X0032391Y0077878D02*
X0031800Y0077878D01*
X0027609Y0083432D02*
X0026294Y0083432D01*
X0025776Y0083950D02*
X0025776Y0083950D01*
X0024695Y0085031D02*
X0028600Y0085031D01*
X0028600Y0086629D02*
X0023097Y0086629D01*
X0021498Y0088228D02*
X0028600Y0088228D01*
X0028600Y0089826D02*
X0020000Y0089826D01*
X0020000Y0091425D02*
X0028600Y0091425D01*
X0028600Y0093023D02*
X0020000Y0093023D01*
X0020000Y0094622D02*
X0028600Y0094622D01*
X0028600Y0096220D02*
X0020000Y0096220D01*
X0020000Y0097819D02*
X0028600Y0097819D01*
X0028600Y0099417D02*
X0020000Y0099417D01*
X0020000Y0101016D02*
X0028600Y0101016D01*
X0028600Y0102614D02*
X0020000Y0102614D01*
X0020000Y0104213D02*
X0027576Y0104213D01*
X0026756Y0105811D02*
X0020000Y0105811D01*
X0020000Y0107410D02*
X0026500Y0107410D01*
X0026695Y0109008D02*
X0020000Y0109008D01*
X0020000Y0110607D02*
X0027427Y0110607D01*
X0029348Y0112205D02*
X0020000Y0112205D01*
X0020000Y0113804D02*
X0033594Y0113804D01*
X0035193Y0115402D02*
X0020000Y0115402D01*
X0020000Y0117001D02*
X0036791Y0117001D01*
X0038390Y0118599D02*
X0020000Y0118599D01*
X0020000Y0120198D02*
X0039988Y0120198D01*
X0041587Y0121796D02*
X0020000Y0121796D01*
X0020000Y0123395D02*
X0043185Y0123395D01*
X0044784Y0124993D02*
X0020000Y0124993D01*
X0020000Y0126592D02*
X0046382Y0126592D01*
X0047981Y0128190D02*
X0020000Y0128190D01*
X0020000Y0129789D02*
X0049579Y0129789D01*
X0051178Y0131387D02*
X0020000Y0131387D01*
X0020000Y0132986D02*
X0052776Y0132986D01*
X0054375Y0134585D02*
X0020000Y0134585D01*
X0020000Y0136183D02*
X0055973Y0136183D01*
X0057572Y0137782D02*
X0020000Y0137782D01*
X0021191Y0139380D02*
X0059170Y0139380D01*
X0060769Y0140979D02*
X0021913Y0140979D01*
X0022100Y0142577D02*
X0062367Y0142577D01*
X0063966Y0144176D02*
X0021836Y0144176D01*
X0021005Y0145774D02*
X0072595Y0145774D01*
X0073600Y0147373D02*
X0020000Y0147373D01*
X0020782Y0148971D02*
X0072818Y0148971D01*
X0071856Y0150570D02*
X0021744Y0150570D01*
X0022100Y0152168D02*
X0071500Y0152168D01*
X0071595Y0153767D02*
X0022005Y0153767D01*
X0021343Y0155365D02*
X0072257Y0155365D01*
X0073600Y0156964D02*
X0020000Y0156964D01*
X0020373Y0158562D02*
X0073227Y0158562D01*
X0072026Y0160161D02*
X0021574Y0160161D01*
X0022100Y0161759D02*
X0071500Y0161759D01*
X0071500Y0163358D02*
X0022100Y0163358D01*
X0021513Y0164956D02*
X0072087Y0164956D01*
X0073375Y0166555D02*
X0020225Y0166555D01*
X0020000Y0168153D02*
X0073600Y0168153D01*
X0072195Y0169752D02*
X0021405Y0169752D01*
X0022067Y0171350D02*
X0071533Y0171350D01*
X0071500Y0172949D02*
X0022100Y0172949D01*
X0021682Y0174547D02*
X0071918Y0174547D01*
X0072966Y0176146D02*
X0020634Y0176146D01*
X0020000Y0177744D02*
X0073600Y0177744D01*
X0072446Y0179343D02*
X0021154Y0179343D01*
X0021898Y0180941D02*
X0071702Y0180941D01*
X0071500Y0182540D02*
X0022100Y0182540D01*
X0021852Y0184138D02*
X0071748Y0184138D01*
X0072557Y0185737D02*
X0021043Y0185737D01*
X0020000Y0187335D02*
X0073600Y0187335D01*
X0072855Y0188934D02*
X0020745Y0188934D01*
X0021728Y0190532D02*
X0071872Y0190532D01*
X0071500Y0192131D02*
X0022100Y0192131D01*
X0022021Y0193729D02*
X0071579Y0193729D01*
X0072241Y0195328D02*
X0021359Y0195328D01*
X0020000Y0196926D02*
X0073600Y0196926D01*
X0073264Y0198525D02*
X0020336Y0198525D01*
X0021559Y0200123D02*
X0072041Y0200123D01*
X0071500Y0201722D02*
X0022100Y0201722D01*
X0022100Y0203320D02*
X0071500Y0203320D01*
X0072072Y0204919D02*
X0021528Y0204919D01*
X0020262Y0206518D02*
X0073338Y0206518D01*
X0073600Y0208116D02*
X0020000Y0208116D01*
X0021389Y0209715D02*
X0072211Y0209715D01*
X0071548Y0211313D02*
X0022052Y0211313D01*
X0022100Y0212912D02*
X0071500Y0212912D01*
X0071902Y0214510D02*
X0021698Y0214510D01*
X0020671Y0216109D02*
X0072929Y0216109D01*
X0073600Y0217707D02*
X0020000Y0217707D01*
X0021117Y0219306D02*
X0072483Y0219306D01*
X0071718Y0220904D02*
X0021882Y0220904D01*
X0022100Y0222503D02*
X0071500Y0222503D01*
X0071733Y0224101D02*
X0021867Y0224101D01*
X0021080Y0225700D02*
X0072520Y0225700D01*
X0073600Y0227298D02*
X0020000Y0227298D01*
X0020708Y0228897D02*
X0072892Y0228897D01*
X0071887Y0230495D02*
X0021713Y0230495D01*
X0022100Y0232094D02*
X0071500Y0232094D01*
X0071564Y0233692D02*
X0022036Y0233692D01*
X0021374Y0235291D02*
X0072226Y0235291D01*
X0073710Y0236889D02*
X0019890Y0236889D01*
X0013710Y0236889D02*
X0006600Y0236889D01*
X0006600Y0235291D02*
X0012226Y0235291D01*
X0011564Y0233692D02*
X0006600Y0233692D01*
X0006600Y0232094D02*
X0011500Y0232094D01*
X0011887Y0230495D02*
X0006600Y0230495D01*
X0006600Y0228897D02*
X0012892Y0228897D01*
X0013600Y0227298D02*
X0006600Y0227298D01*
X0006600Y0225700D02*
X0012520Y0225700D01*
X0011733Y0224101D02*
X0006600Y0224101D01*
X0006600Y0222503D02*
X0011500Y0222503D01*
X0011718Y0220904D02*
X0006600Y0220904D01*
X0006600Y0219306D02*
X0012483Y0219306D01*
X0013600Y0217707D02*
X0006600Y0217707D01*
X0006600Y0216109D02*
X0012929Y0216109D01*
X0011902Y0214510D02*
X0006600Y0214510D01*
X0006600Y0212912D02*
X0011500Y0212912D01*
X0011548Y0211313D02*
X0006600Y0211313D01*
X0006600Y0209715D02*
X0012211Y0209715D01*
X0013600Y0208116D02*
X0006600Y0208116D01*
X0006600Y0206518D02*
X0013338Y0206518D01*
X0012072Y0204919D02*
X0006600Y0204919D01*
X0006600Y0203320D02*
X0011500Y0203320D01*
X0011500Y0201722D02*
X0006600Y0201722D01*
X0006600Y0200123D02*
X0012041Y0200123D01*
X0013264Y0198525D02*
X0006600Y0198525D01*
X0006600Y0196926D02*
X0013600Y0196926D01*
X0012241Y0195328D02*
X0006600Y0195328D01*
X0006600Y0193729D02*
X0011579Y0193729D01*
X0011500Y0192131D02*
X0006600Y0192131D01*
X0006600Y0190532D02*
X0011872Y0190532D01*
X0012855Y0188934D02*
X0006600Y0188934D01*
X0006600Y0187335D02*
X0013600Y0187335D01*
X0012557Y0185737D02*
X0006600Y0185737D01*
X0006600Y0184138D02*
X0011748Y0184138D01*
X0011500Y0182540D02*
X0006600Y0182540D01*
X0006600Y0180941D02*
X0011702Y0180941D01*
X0012446Y0179343D02*
X0006600Y0179343D01*
X0006600Y0177744D02*
X0013600Y0177744D01*
X0012966Y0176146D02*
X0006600Y0176146D01*
X0006600Y0174547D02*
X0011918Y0174547D01*
X0011500Y0172949D02*
X0006600Y0172949D01*
X0006600Y0171350D02*
X0011533Y0171350D01*
X0012195Y0169752D02*
X0006600Y0169752D01*
X0006600Y0168153D02*
X0013600Y0168153D01*
X0013375Y0166555D02*
X0006600Y0166555D01*
X0006600Y0164956D02*
X0012087Y0164956D01*
X0011500Y0163358D02*
X0006600Y0163358D01*
X0006600Y0161759D02*
X0011500Y0161759D01*
X0012026Y0160161D02*
X0006600Y0160161D01*
X0006600Y0158562D02*
X0013227Y0158562D01*
X0013600Y0156964D02*
X0006600Y0156964D01*
X0006600Y0155365D02*
X0012257Y0155365D01*
X0011595Y0153767D02*
X0006600Y0153767D01*
X0006600Y0152168D02*
X0011500Y0152168D01*
X0011856Y0150570D02*
X0006600Y0150570D01*
X0006600Y0148971D02*
X0012818Y0148971D01*
X0013600Y0147373D02*
X0006600Y0147373D01*
X0006600Y0145774D02*
X0012595Y0145774D01*
X0011764Y0144176D02*
X0006600Y0144176D01*
X0006600Y0142577D02*
X0011500Y0142577D01*
X0011687Y0140979D02*
X0006600Y0140979D01*
X0006600Y0139380D02*
X0012409Y0139380D01*
X0013600Y0137782D02*
X0006600Y0137782D01*
X0006600Y0136183D02*
X0013600Y0136183D01*
X0013600Y0134585D02*
X0006600Y0134585D01*
X0006600Y0132986D02*
X0013600Y0132986D01*
X0013600Y0131387D02*
X0011065Y0131387D01*
X0011353Y0129789D02*
X0013600Y0129789D01*
X0013600Y0128190D02*
X0011353Y0128190D01*
X0011353Y0126592D02*
X0013600Y0126592D01*
X0013600Y0124993D02*
X0011353Y0124993D01*
X0010879Y0123395D02*
X0013600Y0123395D01*
X0013600Y0121796D02*
X0006600Y0121796D01*
X0006600Y0120198D02*
X0013600Y0120198D01*
X0013600Y0118599D02*
X0006600Y0118599D01*
X0006600Y0117001D02*
X0013600Y0117001D01*
X0013600Y0115402D02*
X0006600Y0115402D01*
X0006600Y0113804D02*
X0013600Y0113804D01*
X0013600Y0112205D02*
X0006600Y0112205D01*
X0006600Y0110607D02*
X0013600Y0110607D01*
X0013600Y0109008D02*
X0006600Y0109008D01*
X0006600Y0107410D02*
X0013600Y0107410D01*
X0013600Y0105811D02*
X0006600Y0105811D01*
X0006600Y0104213D02*
X0013600Y0104213D01*
X0013600Y0102614D02*
X0006600Y0102614D01*
X0006600Y0101016D02*
X0013600Y0101016D01*
X0013600Y0099417D02*
X0006600Y0099417D01*
X0006600Y0097819D02*
X0013600Y0097819D01*
X0013600Y0096220D02*
X0011232Y0096220D01*
X0011353Y0094622D02*
X0013600Y0094622D01*
X0013600Y0093023D02*
X0011353Y0093023D01*
X0011353Y0091425D02*
X0013600Y0091425D01*
X0013600Y0089826D02*
X0011353Y0089826D01*
X0010712Y0088228D02*
X0013600Y0088228D01*
X0013691Y0086629D02*
X0006600Y0086629D01*
X0006600Y0085031D02*
X0013538Y0085031D01*
X0010790Y0083432D02*
X0006600Y0083432D01*
X0006600Y0081834D02*
X0009469Y0081834D01*
X0008713Y0080235D02*
X0006600Y0080235D01*
X0006600Y0078637D02*
X0015055Y0078637D01*
X0015055Y0077038D02*
X0016655Y0077038D01*
X0016655Y0075440D02*
X0015055Y0075440D01*
X0015055Y0073841D02*
X0016655Y0073841D01*
X0016655Y0072243D02*
X0015055Y0072243D01*
X0015055Y0070644D02*
X0016655Y0070644D01*
X0017869Y0070644D02*
X0023632Y0070644D01*
X0025230Y0069046D02*
X0006600Y0069046D01*
X0006600Y0070644D02*
X0013841Y0070644D01*
X0010872Y0072243D02*
X0006600Y0072243D01*
X0006600Y0073841D02*
X0009516Y0073841D01*
X0008738Y0075440D02*
X0006600Y0075440D01*
X0006600Y0077038D02*
X0008392Y0077038D01*
X0006600Y0067447D02*
X0026829Y0067447D01*
X0028808Y0062652D02*
X0019437Y0062652D01*
X0019995Y0062420D02*
X0017309Y0063533D01*
X0014401Y0063533D01*
X0011715Y0062420D01*
X0009659Y0060364D01*
X0008546Y0057678D01*
X0008546Y0054771D01*
X0009659Y0052084D01*
X0011715Y0050028D01*
X0014401Y0048916D01*
X0017309Y0048916D01*
X0019995Y0050028D01*
X0022051Y0052084D01*
X0023164Y0054771D01*
X0023164Y0057678D01*
X0022051Y0060364D01*
X0019995Y0062420D01*
X0021363Y0061053D02*
X0026883Y0061053D01*
X0025818Y0059454D02*
X0022428Y0059454D01*
X0023090Y0057856D02*
X0025156Y0057856D01*
X0025082Y0056257D02*
X0023164Y0056257D01*
X0023118Y0054659D02*
X0025128Y0054659D01*
X0025790Y0053060D02*
X0022455Y0053060D01*
X0021429Y0051462D02*
X0026817Y0051462D01*
X0028649Y0049863D02*
X0019597Y0049863D01*
X0012113Y0049863D02*
X0006600Y0049863D01*
X0006600Y0051462D02*
X0010282Y0051462D01*
X0009255Y0053060D02*
X0006600Y0053060D01*
X0006600Y0054659D02*
X0008593Y0054659D01*
X0008546Y0056257D02*
X0006600Y0056257D01*
X0006600Y0057856D02*
X0008620Y0057856D01*
X0009282Y0059454D02*
X0006600Y0059454D01*
X0006600Y0061053D02*
X0010348Y0061053D01*
X0012273Y0062652D02*
X0006600Y0062652D01*
X0006600Y0064250D02*
X0035509Y0064250D01*
X0035973Y0062652D02*
X0037107Y0062652D01*
X0037898Y0061053D02*
X0038706Y0061053D01*
X0038963Y0059454D02*
X0040304Y0059454D01*
X0037964Y0051462D02*
X0043352Y0051462D01*
X0045184Y0049863D02*
X0036132Y0049863D01*
X0052668Y0049863D02*
X0061720Y0049863D01*
X0061321Y0050028D02*
X0064008Y0048916D01*
X0066915Y0048916D01*
X0069601Y0050028D01*
X0071657Y0052084D01*
X0072770Y0054771D01*
X0072770Y0057678D01*
X0071657Y0060364D01*
X0069601Y0062420D01*
X0066915Y0063533D01*
X0064008Y0063533D01*
X0061321Y0062420D01*
X0059265Y0060364D01*
X0058153Y0057678D01*
X0058153Y0054771D01*
X0059265Y0052084D01*
X0061321Y0050028D01*
X0059888Y0051462D02*
X0054500Y0051462D01*
X0055526Y0053060D02*
X0058861Y0053060D01*
X0058199Y0054659D02*
X0056188Y0054659D01*
X0056235Y0056257D02*
X0058153Y0056257D01*
X0058226Y0057856D02*
X0056161Y0057856D01*
X0055499Y0059454D02*
X0058889Y0059454D01*
X0059954Y0061053D02*
X0054433Y0061053D01*
X0052508Y0062652D02*
X0061879Y0062652D01*
X0069043Y0062652D02*
X0078415Y0062652D01*
X0077857Y0062420D02*
X0075801Y0060364D01*
X0074688Y0057678D01*
X0074688Y0054771D01*
X0075801Y0052084D01*
X0077857Y0050028D01*
X0080543Y0048916D01*
X0083451Y0048916D01*
X0086137Y0050028D01*
X0088193Y0052084D01*
X0089305Y0054771D01*
X0089305Y0057678D01*
X0088193Y0060364D01*
X0086137Y0062420D01*
X0083451Y0063533D01*
X0080543Y0063533D01*
X0077857Y0062420D01*
X0076489Y0061053D02*
X0070969Y0061053D01*
X0072034Y0059454D02*
X0075424Y0059454D01*
X0074762Y0057856D02*
X0072696Y0057856D01*
X0072770Y0056257D02*
X0074688Y0056257D01*
X0074734Y0054659D02*
X0072724Y0054659D01*
X0072062Y0053060D02*
X0075397Y0053060D01*
X0076423Y0051462D02*
X0071035Y0051462D01*
X0069203Y0049863D02*
X0078255Y0049863D01*
X0085738Y0049863D02*
X0094533Y0049863D01*
X0094352Y0049968D02*
X0095204Y0049476D01*
X0096114Y0049099D01*
X0097064Y0048844D01*
X0097732Y0048756D01*
X0097732Y0055424D01*
X0099332Y0055424D01*
X0099332Y0048756D01*
X0100000Y0048844D01*
X0100951Y0049099D01*
X0101860Y0049476D01*
X0102713Y0049968D01*
X0103494Y0050567D01*
X0104190Y0051263D01*
X0104789Y0052044D01*
X0105281Y0052896D01*
X0105658Y0053806D01*
X0105912Y0054756D01*
X0106000Y0055424D01*
X0099332Y0055424D01*
X0099332Y0057024D01*
X0106000Y0057024D01*
X0105912Y0057692D01*
X0105658Y0058643D01*
X0105281Y0059553D01*
X0104789Y0060405D01*
X0104190Y0061186D01*
X0103494Y0061882D01*
X0102713Y0062481D01*
X0101860Y0062973D01*
X0100951Y0063350D01*
X0100000Y0063605D01*
X0099332Y0063693D01*
X0099332Y0057024D01*
X0097732Y0057024D01*
X0097732Y0055424D01*
X0091064Y0055424D01*
X0091152Y0054756D01*
X0091407Y0053806D01*
X0091784Y0052896D01*
X0092276Y0052044D01*
X0092875Y0051263D01*
X0093571Y0050567D01*
X0094352Y0049968D01*
X0092722Y0051462D02*
X0087570Y0051462D01*
X0088597Y0053060D02*
X0091716Y0053060D01*
X0091178Y0054659D02*
X0089259Y0054659D01*
X0089305Y0056257D02*
X0097732Y0056257D01*
X0097732Y0057024D02*
X0091064Y0057024D01*
X0091152Y0057692D01*
X0091407Y0058643D01*
X0091784Y0059553D01*
X0092276Y0060405D01*
X0092875Y0061186D01*
X0093571Y0061882D01*
X0094352Y0062481D01*
X0095204Y0062973D01*
X0096114Y0063350D01*
X0097064Y0063605D01*
X0097732Y0063693D01*
X0097732Y0057024D01*
X0097732Y0057856D02*
X0099332Y0057856D01*
X0099332Y0059454D02*
X0097732Y0059454D01*
X0097732Y0061053D02*
X0099332Y0061053D01*
X0099332Y0062652D02*
X0097732Y0062652D01*
X0094647Y0062652D02*
X0085579Y0062652D01*
X0087504Y0061053D02*
X0092773Y0061053D01*
X0091743Y0059454D02*
X0088570Y0059454D01*
X0089232Y0057856D02*
X0091196Y0057856D01*
X0097732Y0054659D02*
X0099332Y0054659D01*
X0099332Y0056257D02*
X0107759Y0056257D01*
X0107759Y0057678D02*
X0107759Y0054771D01*
X0108872Y0052084D01*
X0110928Y0050028D01*
X0113614Y0048916D01*
X0116521Y0048916D01*
X0119208Y0050028D01*
X0121264Y0052084D01*
X0122376Y0054771D01*
X0122376Y0057678D01*
X0121264Y0060364D01*
X0119208Y0062420D01*
X0116521Y0063533D01*
X0113614Y0063533D01*
X0110928Y0062420D01*
X0108872Y0060364D01*
X0107759Y0057678D01*
X0107833Y0057856D02*
X0105869Y0057856D01*
X0105322Y0059454D02*
X0108495Y0059454D01*
X0109560Y0061053D02*
X0104292Y0061053D01*
X0102418Y0062652D02*
X0111486Y0062652D01*
X0118650Y0062652D02*
X0127718Y0062652D01*
X0125844Y0061053D02*
X0120575Y0061053D01*
X0121641Y0059454D02*
X0124814Y0059454D01*
X0124267Y0057856D02*
X0122303Y0057856D01*
X0122376Y0056257D02*
X0130803Y0056257D01*
X0130803Y0054659D02*
X0132403Y0054659D01*
X0132403Y0053060D02*
X0130803Y0053060D01*
X0130803Y0051462D02*
X0132403Y0051462D01*
X0132403Y0049863D02*
X0130803Y0049863D01*
X0127603Y0049863D02*
X0118809Y0049863D01*
X0120641Y0051462D02*
X0125793Y0051462D01*
X0124786Y0053060D02*
X0121668Y0053060D01*
X0122330Y0054659D02*
X0124249Y0054659D01*
X0111326Y0049863D02*
X0102532Y0049863D01*
X0104342Y0051462D02*
X0109494Y0051462D01*
X0108467Y0053060D02*
X0105349Y0053060D01*
X0105886Y0054659D02*
X0107805Y0054659D01*
X0099332Y0053060D02*
X0097732Y0053060D01*
X0097732Y0051462D02*
X0099332Y0051462D01*
X0099332Y0049863D02*
X0097732Y0049863D01*
X0097732Y0072243D02*
X0099332Y0072243D01*
X0099332Y0073841D02*
X0097732Y0073841D01*
X0097732Y0075440D02*
X0099332Y0075440D01*
X0099332Y0077038D02*
X0097732Y0077038D01*
X0097732Y0078637D02*
X0089305Y0078637D01*
X0089305Y0077038D02*
X0091069Y0077038D01*
X0091415Y0075440D02*
X0088898Y0075440D01*
X0088236Y0073841D02*
X0092193Y0073841D01*
X0093549Y0072243D02*
X0086697Y0072243D01*
X0088931Y0080235D02*
X0091390Y0080235D01*
X0092146Y0081834D02*
X0088269Y0081834D01*
X0086779Y0083432D02*
X0093468Y0083432D01*
X0096215Y0085031D02*
X0083827Y0085031D01*
X0080167Y0085031D02*
X0067292Y0085031D01*
X0070243Y0083432D02*
X0077215Y0083432D01*
X0075725Y0081834D02*
X0071734Y0081834D01*
X0072396Y0080235D02*
X0075062Y0080235D01*
X0074688Y0078637D02*
X0072770Y0078637D01*
X0072770Y0077038D02*
X0074688Y0077038D01*
X0075096Y0075440D02*
X0072362Y0075440D01*
X0071700Y0073841D02*
X0075758Y0073841D01*
X0077296Y0072243D02*
X0070162Y0072243D01*
X0060761Y0072243D02*
X0053627Y0072243D01*
X0055165Y0073841D02*
X0059223Y0073841D01*
X0058561Y0075440D02*
X0055827Y0075440D01*
X0056235Y0077038D02*
X0058153Y0077038D01*
X0058153Y0078637D02*
X0056235Y0078637D01*
X0055860Y0080235D02*
X0058527Y0080235D01*
X0059189Y0081834D02*
X0055198Y0081834D01*
X0053708Y0083432D02*
X0060680Y0083432D01*
X0063631Y0085031D02*
X0050756Y0085031D01*
X0047096Y0085031D02*
X0035000Y0085031D01*
X0035000Y0086629D02*
X0133600Y0086629D01*
X0133600Y0088228D02*
X0130712Y0088228D01*
X0130415Y0087931D02*
X0131353Y0088869D01*
X0131353Y0096100D01*
X0130415Y0097037D01*
X0123184Y0097037D01*
X0122247Y0096100D01*
X0122247Y0088869D01*
X0123184Y0087931D01*
X0130415Y0087931D01*
X0131353Y0089826D02*
X0133600Y0089826D01*
X0133600Y0091425D02*
X0131353Y0091425D01*
X0131353Y0093023D02*
X0133600Y0093023D01*
X0133600Y0094622D02*
X0131353Y0094622D01*
X0131232Y0096220D02*
X0133600Y0096220D01*
X0133600Y0097819D02*
X0035000Y0097819D01*
X0035000Y0099417D02*
X0133600Y0099417D01*
X0133600Y0101016D02*
X0035000Y0101016D01*
X0035000Y0102614D02*
X0059708Y0102614D01*
X0058798Y0102991D02*
X0060746Y0102184D01*
X0062854Y0102184D01*
X0064802Y0102991D01*
X0066293Y0104482D01*
X0066543Y0105084D01*
X0088260Y0105084D01*
X0090060Y0103284D01*
X0093540Y0103284D01*
X0096000Y0105745D01*
X0096000Y0109224D01*
X0093540Y0111684D01*
X0090060Y0111684D01*
X0088260Y0109884D01*
X0066543Y0109884D01*
X0066293Y0110486D01*
X0064802Y0111977D01*
X0062854Y0112784D01*
X0060746Y0112784D01*
X0058798Y0111977D01*
X0057307Y0110486D01*
X0056500Y0108538D01*
X0056500Y0106430D01*
X0057307Y0104482D01*
X0058798Y0102991D01*
X0057576Y0104213D02*
X0036024Y0104213D01*
X0036844Y0105811D02*
X0056756Y0105811D01*
X0056500Y0107410D02*
X0037100Y0107410D01*
X0037850Y0109008D02*
X0056695Y0109008D01*
X0057427Y0110607D02*
X0039448Y0110607D01*
X0041047Y0112205D02*
X0059348Y0112205D01*
X0064252Y0112205D02*
X0133600Y0112205D01*
X0133600Y0110607D02*
X0104900Y0110607D01*
X0103623Y0111884D02*
X0101800Y0111884D01*
X0099977Y0111884D01*
X0097400Y0109307D01*
X0097400Y0107484D01*
X0097400Y0105662D01*
X0099977Y0103084D01*
X0101800Y0103084D01*
X0103623Y0103084D01*
X0106200Y0105662D01*
X0106200Y0107484D01*
X0101800Y0107484D01*
X0101800Y0103084D01*
X0101800Y0107484D01*
X0101800Y0107484D01*
X0101800Y0107484D01*
X0097400Y0107484D01*
X0101800Y0107484D01*
X0101800Y0107484D01*
X0106200Y0107484D01*
X0106200Y0109307D01*
X0103623Y0111884D01*
X0101800Y0111884D02*
X0101800Y0107484D01*
X0101800Y0111884D01*
X0101800Y0110607D02*
X0101800Y0110607D01*
X0101800Y0109008D02*
X0101800Y0109008D01*
X0101800Y0107484D02*
X0101800Y0107484D01*
X0101800Y0107410D02*
X0101800Y0107410D01*
X0101800Y0105811D02*
X0101800Y0105811D01*
X0101800Y0104213D02*
X0101800Y0104213D01*
X0104751Y0104213D02*
X0133600Y0104213D01*
X0133600Y0105811D02*
X0106200Y0105811D01*
X0106200Y0107410D02*
X0133600Y0107410D01*
X0133600Y0109008D02*
X0106200Y0109008D01*
X0098849Y0104213D02*
X0094468Y0104213D01*
X0096000Y0105811D02*
X0097400Y0105811D01*
X0097400Y0107410D02*
X0096000Y0107410D01*
X0096000Y0109008D02*
X0097400Y0109008D01*
X0098700Y0110607D02*
X0094617Y0110607D01*
X0091800Y0107484D02*
X0061800Y0107484D01*
X0066173Y0110607D02*
X0088983Y0110607D01*
X0089132Y0104213D02*
X0066024Y0104213D01*
X0063892Y0102614D02*
X0133600Y0102614D01*
X0140000Y0102614D02*
X0193600Y0102614D01*
X0193600Y0101016D02*
X0140000Y0101016D01*
X0140000Y0099417D02*
X0193600Y0099417D01*
X0193600Y0097819D02*
X0140000Y0097819D01*
X0140000Y0096220D02*
X0182368Y0096220D01*
X0182247Y0096100D02*
X0182247Y0088869D01*
X0183184Y0087931D01*
X0186738Y0087931D01*
X0183603Y0084797D01*
X0182663Y0085187D01*
X0179756Y0085187D01*
X0177069Y0084074D01*
X0175013Y0082018D01*
X0173901Y0079332D01*
X0173901Y0076424D01*
X0175013Y0073738D01*
X0177069Y0071682D01*
X0179756Y0070569D01*
X0182663Y0070569D01*
X0185349Y0071682D01*
X0187405Y0073738D01*
X0188518Y0076424D01*
X0188518Y0079332D01*
X0188129Y0080272D01*
X0199513Y0091656D01*
X0200000Y0092832D01*
X0200000Y0138189D01*
X0201293Y0139482D01*
X0202100Y0141430D01*
X0202100Y0143538D01*
X0201293Y0145486D01*
X0200000Y0146780D01*
X0200000Y0148189D01*
X0201293Y0149482D01*
X0202100Y0151430D01*
X0202100Y0153538D01*
X0201293Y0155486D01*
X0200000Y0156780D01*
X0200000Y0158189D01*
X0201293Y0159482D01*
X0202100Y0161430D01*
X0202100Y0163538D01*
X0201293Y0165486D01*
X0200000Y0166780D01*
X0200000Y0168189D01*
X0201293Y0169482D01*
X0202100Y0171430D01*
X0202100Y0173538D01*
X0201293Y0175486D01*
X0200000Y0176780D01*
X0200000Y0178189D01*
X0201293Y0179482D01*
X0202100Y0181430D01*
X0202100Y0183538D01*
X0201293Y0185486D01*
X0200000Y0186780D01*
X0200000Y0188189D01*
X0201293Y0189482D01*
X0202100Y0191430D01*
X0202100Y0193538D01*
X0201293Y0195486D01*
X0200000Y0196780D01*
X0200000Y0198189D01*
X0201293Y0199482D01*
X0202100Y0201430D01*
X0202100Y0203538D01*
X0201293Y0205486D01*
X0200000Y0206780D01*
X0200000Y0208189D01*
X0201293Y0209482D01*
X0202100Y0211430D01*
X0202100Y0213538D01*
X0201293Y0215486D01*
X0200000Y0216780D01*
X0200000Y0218189D01*
X0201293Y0219482D01*
X0202100Y0221430D01*
X0202100Y0223538D01*
X0201293Y0225486D01*
X0200000Y0226780D01*
X0200000Y0228189D01*
X0201293Y0229482D01*
X0202100Y0231430D01*
X0202100Y0233538D01*
X0201293Y0235486D01*
X0199802Y0236977D01*
X0197854Y0237784D01*
X0195746Y0237784D01*
X0193798Y0236977D01*
X0192307Y0235486D01*
X0191500Y0233538D01*
X0191500Y0231430D01*
X0192307Y0229482D01*
X0193600Y0228189D01*
X0193600Y0226780D01*
X0192307Y0225486D01*
X0191500Y0223538D01*
X0191500Y0221430D01*
X0192307Y0219482D01*
X0193600Y0218189D01*
X0193600Y0216780D01*
X0192307Y0215486D01*
X0191500Y0213538D01*
X0191500Y0211430D01*
X0192307Y0209482D01*
X0193600Y0208189D01*
X0193600Y0206780D01*
X0192307Y0205486D01*
X0191500Y0203538D01*
X0191500Y0201430D01*
X0192307Y0199482D01*
X0193600Y0198189D01*
X0193600Y0196780D01*
X0192307Y0195486D01*
X0191500Y0193538D01*
X0191500Y0191430D01*
X0192307Y0189482D01*
X0193600Y0188189D01*
X0193600Y0186780D01*
X0192307Y0185486D01*
X0191500Y0183538D01*
X0191500Y0181430D01*
X0192307Y0179482D01*
X0193600Y0178189D01*
X0193600Y0176780D01*
X0192307Y0175486D01*
X0191500Y0173538D01*
X0191500Y0171430D01*
X0192307Y0169482D01*
X0193600Y0168189D01*
X0193600Y0166780D01*
X0192307Y0165486D01*
X0191500Y0163538D01*
X0191500Y0161430D01*
X0192307Y0159482D01*
X0193600Y0158189D01*
X0193600Y0156780D01*
X0192307Y0155486D01*
X0191500Y0153538D01*
X0191500Y0151430D01*
X0192307Y0149482D01*
X0193600Y0148189D01*
X0193600Y0146780D01*
X0192307Y0145486D01*
X0191500Y0143538D01*
X0191500Y0141430D01*
X0192307Y0139482D01*
X0193600Y0138189D01*
X0193600Y0094794D01*
X0191353Y0092547D01*
X0191353Y0096100D01*
X0190415Y0097037D01*
X0183184Y0097037D01*
X0182247Y0096100D01*
X0182247Y0094622D02*
X0140000Y0094622D01*
X0140000Y0093023D02*
X0182247Y0093023D01*
X0182247Y0091425D02*
X0140000Y0091425D01*
X0140000Y0089826D02*
X0182247Y0089826D01*
X0182888Y0088228D02*
X0140000Y0088228D01*
X0140000Y0086629D02*
X0185435Y0086629D01*
X0183837Y0085031D02*
X0183040Y0085031D01*
X0179379Y0085031D02*
X0166991Y0085031D01*
X0167093Y0085003D02*
X0166142Y0085258D01*
X0165474Y0085346D01*
X0165474Y0078678D01*
X0163874Y0078678D01*
X0163874Y0085346D01*
X0163206Y0085258D01*
X0162255Y0085003D01*
X0161346Y0084627D01*
X0160493Y0084135D01*
X0159713Y0083535D01*
X0159017Y0082839D01*
X0158417Y0082058D01*
X0157925Y0081206D01*
X0157549Y0080297D01*
X0157294Y0079346D01*
X0157206Y0078678D01*
X0163874Y0078678D01*
X0163874Y0077078D01*
X0165474Y0077078D01*
X0165474Y0078678D01*
X0172142Y0078678D01*
X0172054Y0079346D01*
X0171799Y0080297D01*
X0171423Y0081206D01*
X0170931Y0082058D01*
X0170331Y0082839D01*
X0169635Y0083535D01*
X0168855Y0084135D01*
X0168002Y0084627D01*
X0167093Y0085003D01*
X0165474Y0085031D02*
X0163874Y0085031D01*
X0162357Y0085031D02*
X0149969Y0085031D01*
X0152920Y0083432D02*
X0159609Y0083432D01*
X0158288Y0081834D02*
X0154411Y0081834D01*
X0155073Y0080235D02*
X0157532Y0080235D01*
X0155447Y0078637D02*
X0163874Y0078637D01*
X0163874Y0080235D02*
X0165474Y0080235D01*
X0165474Y0078637D02*
X0173901Y0078637D01*
X0173901Y0077038D02*
X0172137Y0077038D01*
X0172142Y0077078D02*
X0165474Y0077078D01*
X0165474Y0070410D01*
X0166142Y0070498D01*
X0167093Y0070753D01*
X0168002Y0071129D01*
X0168855Y0071621D01*
X0169635Y0072221D01*
X0170331Y0072917D01*
X0170931Y0073697D01*
X0171423Y0074550D01*
X0171799Y0075459D01*
X0172054Y0076410D01*
X0172142Y0077078D01*
X0171791Y0075440D02*
X0174309Y0075440D01*
X0174971Y0073841D02*
X0171014Y0073841D01*
X0169657Y0072243D02*
X0176509Y0072243D01*
X0179575Y0070644D02*
X0166688Y0070644D01*
X0165474Y0070644D02*
X0163874Y0070644D01*
X0162660Y0070644D02*
X0162034Y0070644D01*
X0163874Y0072243D02*
X0165474Y0072243D01*
X0165474Y0073841D02*
X0163874Y0073841D01*
X0163874Y0075440D02*
X0165474Y0075440D01*
X0165474Y0077038D02*
X0163874Y0077038D01*
X0163874Y0081834D02*
X0165474Y0081834D01*
X0165474Y0083432D02*
X0163874Y0083432D01*
X0169739Y0083432D02*
X0176428Y0083432D01*
X0174937Y0081834D02*
X0171060Y0081834D01*
X0171816Y0080235D02*
X0174275Y0080235D01*
X0181209Y0077878D02*
X0181800Y0078469D01*
X0188144Y0080235D02*
X0190810Y0080235D01*
X0190436Y0079332D02*
X0190436Y0076424D01*
X0191549Y0073738D01*
X0193605Y0071682D01*
X0196291Y0070569D01*
X0199199Y0070569D01*
X0201885Y0071682D01*
X0203941Y0073738D01*
X0205054Y0076424D01*
X0205054Y0079332D01*
X0203941Y0082018D01*
X0201885Y0084074D01*
X0199199Y0085187D01*
X0196291Y0085187D01*
X0193605Y0084074D01*
X0191549Y0082018D01*
X0190436Y0079332D01*
X0190436Y0078637D02*
X0188518Y0078637D01*
X0188518Y0077038D02*
X0190436Y0077038D01*
X0190844Y0075440D02*
X0188110Y0075440D01*
X0187448Y0073841D02*
X0191506Y0073841D01*
X0193044Y0072243D02*
X0185910Y0072243D01*
X0182844Y0070644D02*
X0196111Y0070644D01*
X0199379Y0070644D02*
X0310701Y0070644D01*
X0310701Y0069046D02*
X0286548Y0069046D01*
X0288404Y0067447D02*
X0310701Y0067447D01*
X0310701Y0065849D02*
X0289476Y0065849D01*
X0290139Y0064250D02*
X0310701Y0064250D01*
X0310701Y0062652D02*
X0290250Y0062652D01*
X0290250Y0061053D02*
X0310701Y0061053D01*
X0310701Y0059454D02*
X0289615Y0059454D01*
X0288739Y0057856D02*
X0310701Y0057856D01*
X0310701Y0056257D02*
X0287140Y0056257D01*
X0287105Y0053060D02*
X0310701Y0053060D01*
X0310701Y0051462D02*
X0288796Y0051462D01*
X0289770Y0049863D02*
X0310701Y0049863D01*
X0310701Y0048265D02*
X0290299Y0048265D01*
X0277600Y0048265D02*
X0276000Y0048265D01*
X0276000Y0047484D02*
X0276000Y0054409D01*
X0270369Y0054409D01*
X0269365Y0054277D01*
X0268387Y0054015D01*
X0267451Y0053627D01*
X0266574Y0053121D01*
X0265771Y0052505D01*
X0265055Y0051789D01*
X0264438Y0050985D01*
X0263932Y0050108D01*
X0263544Y0049173D01*
X0263282Y0048195D01*
X0263189Y0047484D01*
X0276000Y0047484D01*
X0276000Y0049863D02*
X0277600Y0049863D01*
X0277600Y0051462D02*
X0276000Y0051462D01*
X0276000Y0053060D02*
X0277600Y0053060D01*
X0276800Y0062484D02*
X0271800Y0067484D01*
X0161800Y0067484D01*
X0151406Y0077878D01*
X0148139Y0077878D01*
X0143357Y0083432D02*
X0142042Y0083432D01*
X0140443Y0085031D02*
X0146308Y0085031D01*
X0155640Y0077038D02*
X0157211Y0077038D01*
X0157239Y0075440D02*
X0157557Y0075440D01*
X0153648Y0072243D02*
X0152839Y0072243D01*
X0155246Y0070644D02*
X0149773Y0070644D01*
X0149764Y0069046D02*
X0156845Y0069046D01*
X0158443Y0067447D02*
X0152342Y0067447D01*
X0154507Y0065849D02*
X0160042Y0065849D01*
X0159765Y0066125D02*
X0159765Y0066125D01*
X0160789Y0062652D02*
X0157704Y0062652D01*
X0156106Y0064250D02*
X0263461Y0064250D01*
X0263350Y0062652D02*
X0201327Y0062652D01*
X0203252Y0061053D02*
X0263350Y0061053D01*
X0263985Y0059454D02*
X0204318Y0059454D01*
X0204980Y0057856D02*
X0264861Y0057856D01*
X0266460Y0056257D02*
X0205054Y0056257D01*
X0205007Y0054659D02*
X0310701Y0054659D01*
X0310701Y0037075D02*
X0202544Y0037075D01*
X0204892Y0035477D02*
X0242247Y0035477D01*
X0242247Y0036100D02*
X0242247Y0028869D01*
X0243184Y0027931D01*
X0250415Y0027931D01*
X0251353Y0028869D01*
X0251353Y0036100D01*
X0250415Y0037037D01*
X0243184Y0037037D01*
X0242247Y0036100D01*
X0242247Y0033878D02*
X0206415Y0033878D01*
X0207338Y0032280D02*
X0242247Y0032280D01*
X0242247Y0030681D02*
X0207971Y0030681D01*
X0208400Y0029083D02*
X0242247Y0029083D01*
X0251353Y0029083D02*
X0297247Y0029083D01*
X0297247Y0028869D02*
X0298184Y0027931D01*
X0305415Y0027931D01*
X0306353Y0028869D01*
X0306353Y0036100D01*
X0305415Y0037037D01*
X0298184Y0037037D01*
X0297247Y0036100D01*
X0297247Y0028869D01*
X0297247Y0030681D02*
X0251353Y0030681D01*
X0251353Y0032280D02*
X0297247Y0032280D01*
X0297247Y0033878D02*
X0251353Y0033878D01*
X0251353Y0035477D02*
X0297247Y0035477D01*
X0306353Y0035477D02*
X0310701Y0035477D01*
X0310701Y0033878D02*
X0306353Y0033878D01*
X0306353Y0032280D02*
X0310701Y0032280D01*
X0310701Y0030681D02*
X0306353Y0030681D01*
X0306353Y0029083D02*
X0310701Y0029083D01*
X0310701Y0027484D02*
X0208450Y0027484D01*
X0208400Y0025886D02*
X0310701Y0025886D01*
X0310701Y0024287D02*
X0207971Y0024287D01*
X0207338Y0022689D02*
X0310701Y0022689D01*
X0277600Y0040272D02*
X0276000Y0040272D01*
X0276000Y0041871D02*
X0277600Y0041871D01*
X0277600Y0043469D02*
X0276000Y0043469D01*
X0266541Y0040272D02*
X0011353Y0040272D01*
X0010582Y0041871D02*
X0264831Y0041871D01*
X0263301Y0048265D02*
X0172707Y0048265D01*
X0174306Y0049863D02*
X0177468Y0049863D01*
X0171649Y0056257D02*
X0165474Y0056257D01*
X0165474Y0057856D02*
X0163874Y0057856D01*
X0163874Y0059454D02*
X0165474Y0059454D01*
X0165474Y0061053D02*
X0163874Y0061053D01*
X0163874Y0062652D02*
X0165474Y0062652D01*
X0168559Y0062652D02*
X0177627Y0062652D01*
X0175702Y0061053D02*
X0170433Y0061053D01*
X0171463Y0059454D02*
X0174637Y0059454D01*
X0173247Y0057856D02*
X0172010Y0057856D01*
X0184792Y0062652D02*
X0194163Y0062652D01*
X0192237Y0061053D02*
X0186717Y0061053D01*
X0187782Y0059454D02*
X0191172Y0059454D01*
X0192171Y0051462D02*
X0186783Y0051462D01*
X0184951Y0049863D02*
X0194003Y0049863D01*
X0201487Y0049863D02*
X0263830Y0049863D01*
X0264804Y0051462D02*
X0203318Y0051462D01*
X0204345Y0053060D02*
X0266495Y0053060D01*
X0269378Y0070759D02*
X0266612Y0071905D01*
X0264496Y0074022D01*
X0263350Y0076787D01*
X0263350Y0079781D01*
X0264496Y0082547D01*
X0266612Y0084664D01*
X0269378Y0085809D01*
X0284222Y0085809D01*
X0286988Y0084664D01*
X0289104Y0082547D01*
X0290250Y0079781D01*
X0290250Y0076787D01*
X0289104Y0074022D01*
X0286988Y0071905D01*
X0284222Y0070759D01*
X0269378Y0070759D01*
X0266275Y0072243D02*
X0202446Y0072243D01*
X0203984Y0073841D02*
X0264676Y0073841D01*
X0263908Y0075440D02*
X0204646Y0075440D01*
X0205054Y0077038D02*
X0263350Y0077038D01*
X0263350Y0078637D02*
X0205054Y0078637D01*
X0204679Y0080235D02*
X0263538Y0080235D01*
X0264200Y0081834D02*
X0204017Y0081834D01*
X0202527Y0083432D02*
X0265381Y0083432D01*
X0267499Y0085031D02*
X0199575Y0085031D01*
X0195915Y0085031D02*
X0192888Y0085031D01*
X0192963Y0083432D02*
X0191289Y0083432D01*
X0191473Y0081834D02*
X0189691Y0081834D01*
X0194486Y0086629D02*
X0310701Y0086629D01*
X0310701Y0085031D02*
X0286101Y0085031D01*
X0288219Y0083432D02*
X0310701Y0083432D01*
X0310701Y0081834D02*
X0289400Y0081834D01*
X0290062Y0080235D02*
X0310701Y0080235D01*
X0310701Y0078637D02*
X0290250Y0078637D01*
X0290250Y0077038D02*
X0310701Y0077038D01*
X0310701Y0075440D02*
X0289692Y0075440D01*
X0288924Y0073841D02*
X0310701Y0073841D01*
X0310701Y0072243D02*
X0287325Y0072243D01*
X0298184Y0087931D02*
X0305415Y0087931D01*
X0306353Y0088869D01*
X0306353Y0096100D01*
X0305415Y0097037D01*
X0298184Y0097037D01*
X0297247Y0096100D01*
X0297247Y0088869D01*
X0298184Y0087931D01*
X0297888Y0088228D02*
X0250712Y0088228D01*
X0250415Y0087931D02*
X0251353Y0088869D01*
X0251353Y0096100D01*
X0250415Y0097037D01*
X0243184Y0097037D01*
X0242247Y0096100D01*
X0242247Y0088869D01*
X0243184Y0087931D01*
X0250415Y0087931D01*
X0251353Y0089826D02*
X0297247Y0089826D01*
X0297247Y0091425D02*
X0251353Y0091425D01*
X0251353Y0093023D02*
X0297247Y0093023D01*
X0297247Y0094622D02*
X0251353Y0094622D01*
X0251232Y0096220D02*
X0297368Y0096220D01*
X0306232Y0096220D02*
X0310701Y0096220D01*
X0310701Y0094622D02*
X0306353Y0094622D01*
X0306353Y0093023D02*
X0310701Y0093023D01*
X0310701Y0091425D02*
X0306353Y0091425D01*
X0306353Y0089826D02*
X0310701Y0089826D01*
X0310701Y0088228D02*
X0305712Y0088228D01*
X0310701Y0097819D02*
X0200000Y0097819D01*
X0200000Y0099417D02*
X0310701Y0099417D01*
X0310701Y0101016D02*
X0200000Y0101016D01*
X0200000Y0102614D02*
X0310701Y0102614D01*
X0310701Y0104213D02*
X0200000Y0104213D01*
X0200000Y0105811D02*
X0310701Y0105811D01*
X0310701Y0107410D02*
X0200000Y0107410D01*
X0200000Y0109008D02*
X0310701Y0109008D01*
X0310701Y0110607D02*
X0200000Y0110607D01*
X0200000Y0112205D02*
X0310701Y0112205D01*
X0310701Y0113804D02*
X0200000Y0113804D01*
X0200000Y0115402D02*
X0310701Y0115402D01*
X0310701Y0117001D02*
X0200000Y0117001D01*
X0200000Y0118599D02*
X0242517Y0118599D01*
X0242247Y0118869D02*
X0243184Y0117931D01*
X0250415Y0117931D01*
X0251353Y0118869D01*
X0251353Y0126100D01*
X0250415Y0127037D01*
X0243184Y0127037D01*
X0242247Y0126100D01*
X0242247Y0118869D01*
X0242247Y0120198D02*
X0200000Y0120198D01*
X0200000Y0121796D02*
X0242247Y0121796D01*
X0242247Y0123395D02*
X0200000Y0123395D01*
X0200000Y0124993D02*
X0242247Y0124993D01*
X0242739Y0126592D02*
X0200000Y0126592D01*
X0200000Y0128190D02*
X0310701Y0128190D01*
X0310701Y0129789D02*
X0200000Y0129789D01*
X0200000Y0131387D02*
X0310701Y0131387D01*
X0310701Y0132986D02*
X0200000Y0132986D01*
X0200000Y0134585D02*
X0310701Y0134585D01*
X0310701Y0136183D02*
X0200000Y0136183D01*
X0200000Y0137782D02*
X0248916Y0137782D01*
X0248917Y0137780D02*
X0249689Y0137387D01*
X0250512Y0137120D01*
X0251367Y0136984D01*
X0251600Y0136984D01*
X0251600Y0142284D01*
X0252000Y0142284D01*
X0252000Y0136984D01*
X0252233Y0136984D01*
X0253088Y0137120D01*
X0253911Y0137387D01*
X0254683Y0137780D01*
X0255383Y0138289D01*
X0255995Y0138901D01*
X0256504Y0139602D01*
X0256800Y0140183D01*
X0257096Y0139602D01*
X0257605Y0138901D01*
X0258217Y0138289D01*
X0258917Y0137780D01*
X0259689Y0137387D01*
X0260512Y0137120D01*
X0261367Y0136984D01*
X0261600Y0136984D01*
X0261600Y0142284D01*
X0262000Y0142284D01*
X0262000Y0136984D01*
X0262233Y0136984D01*
X0263088Y0137120D01*
X0263911Y0137387D01*
X0264683Y0137780D01*
X0265383Y0138289D01*
X0265995Y0138901D01*
X0266504Y0139602D01*
X0266897Y0140373D01*
X0267165Y0141196D01*
X0267300Y0142051D01*
X0267300Y0142284D01*
X0262000Y0142284D01*
X0262000Y0142684D01*
X0267300Y0142684D01*
X0267300Y0142917D01*
X0267165Y0143772D01*
X0266897Y0144596D01*
X0266504Y0145367D01*
X0265995Y0146067D01*
X0265383Y0146679D01*
X0264683Y0147188D01*
X0264102Y0147484D01*
X0264683Y0147780D01*
X0265383Y0148289D01*
X0265995Y0148901D01*
X0266504Y0149602D01*
X0266897Y0150373D01*
X0267165Y0151196D01*
X0267300Y0152051D01*
X0267300Y0152284D01*
X0262000Y0152284D01*
X0262000Y0142684D01*
X0261600Y0142684D01*
X0261600Y0142284D01*
X0257300Y0142284D01*
X0252000Y0142284D01*
X0252000Y0142684D01*
X0261600Y0142684D01*
X0261600Y0147984D01*
X0261600Y0152284D01*
X0262000Y0152284D01*
X0262000Y0152684D01*
X0267300Y0152684D01*
X0267300Y0152917D01*
X0267165Y0153772D01*
X0266897Y0154596D01*
X0266504Y0155367D01*
X0265995Y0156067D01*
X0265383Y0156679D01*
X0264683Y0157188D01*
X0264102Y0157484D01*
X0264683Y0157780D01*
X0265383Y0158289D01*
X0265995Y0158901D01*
X0266504Y0159602D01*
X0266897Y0160373D01*
X0267165Y0161196D01*
X0267300Y0162051D01*
X0267300Y0162284D01*
X0262000Y0162284D01*
X0262000Y0152684D01*
X0261600Y0152684D01*
X0261600Y0152284D01*
X0256300Y0152284D01*
X0252000Y0152284D01*
X0252000Y0142684D01*
X0251600Y0142684D01*
X0251600Y0142284D01*
X0246300Y0142284D01*
X0246300Y0142051D01*
X0246435Y0141196D01*
X0246703Y0140373D01*
X0247096Y0139602D01*
X0247605Y0138901D01*
X0248217Y0138289D01*
X0248917Y0137780D01*
X0247257Y0139380D02*
X0201191Y0139380D01*
X0201913Y0140979D02*
X0246506Y0140979D01*
X0246300Y0142684D02*
X0251600Y0142684D01*
X0251600Y0147984D01*
X0251600Y0152284D01*
X0252000Y0152284D01*
X0252000Y0152684D01*
X0261600Y0152684D01*
X0261600Y0157984D01*
X0261600Y0162284D01*
X0262000Y0162284D01*
X0262000Y0162684D01*
X0267300Y0162684D01*
X0267300Y0162917D01*
X0267165Y0163772D01*
X0266897Y0164596D01*
X0266504Y0165367D01*
X0265995Y0166067D01*
X0265383Y0166679D01*
X0264683Y0167188D01*
X0264102Y0167484D01*
X0264683Y0167780D01*
X0265383Y0168289D01*
X0265995Y0168901D01*
X0266504Y0169602D01*
X0266897Y0170373D01*
X0267165Y0171196D01*
X0267300Y0172051D01*
X0267300Y0172284D01*
X0262000Y0172284D01*
X0262000Y0162684D01*
X0261600Y0162684D01*
X0261600Y0162284D01*
X0256300Y0162284D01*
X0252000Y0162284D01*
X0252000Y0152684D01*
X0251600Y0152684D01*
X0251600Y0152284D01*
X0246300Y0152284D01*
X0246300Y0152051D01*
X0246435Y0151196D01*
X0246703Y0150373D01*
X0247096Y0149602D01*
X0247605Y0148901D01*
X0248217Y0148289D01*
X0248917Y0147780D01*
X0249498Y0147484D01*
X0248917Y0147188D01*
X0248217Y0146679D01*
X0247605Y0146067D01*
X0247096Y0145367D01*
X0246703Y0144596D01*
X0246435Y0143772D01*
X0246300Y0142917D01*
X0246300Y0142684D01*
X0246567Y0144176D02*
X0201836Y0144176D01*
X0202100Y0142577D02*
X0251600Y0142577D01*
X0252000Y0142577D02*
X0261600Y0142577D01*
X0262000Y0142577D02*
X0310701Y0142577D01*
X0310701Y0140979D02*
X0267094Y0140979D01*
X0266343Y0139380D02*
X0310701Y0139380D01*
X0310701Y0137782D02*
X0264684Y0137782D01*
X0262000Y0137782D02*
X0261600Y0137782D01*
X0261600Y0139380D02*
X0262000Y0139380D01*
X0262000Y0140979D02*
X0261600Y0140979D01*
X0261600Y0144176D02*
X0262000Y0144176D01*
X0262000Y0145774D02*
X0261600Y0145774D01*
X0261600Y0147373D02*
X0262000Y0147373D01*
X0262000Y0148971D02*
X0261600Y0148971D01*
X0261600Y0150570D02*
X0262000Y0150570D01*
X0262000Y0152168D02*
X0261600Y0152168D01*
X0261600Y0153767D02*
X0262000Y0153767D01*
X0262000Y0155365D02*
X0261600Y0155365D01*
X0261600Y0156964D02*
X0262000Y0156964D01*
X0262000Y0158562D02*
X0261600Y0158562D01*
X0261600Y0160161D02*
X0262000Y0160161D01*
X0262000Y0161759D02*
X0261600Y0161759D01*
X0261600Y0162684D02*
X0252000Y0162684D01*
X0252000Y0162284D01*
X0251600Y0162284D01*
X0251600Y0157984D01*
X0251600Y0152684D01*
X0246300Y0152684D01*
X0246300Y0152917D01*
X0246435Y0153772D01*
X0246703Y0154596D01*
X0247096Y0155367D01*
X0247605Y0156067D01*
X0248217Y0156679D01*
X0248917Y0157188D01*
X0249498Y0157484D01*
X0248917Y0157780D01*
X0248217Y0158289D01*
X0247605Y0158901D01*
X0247096Y0159602D01*
X0246703Y0160373D01*
X0246435Y0161196D01*
X0246300Y0162051D01*
X0246300Y0162284D01*
X0251600Y0162284D01*
X0251600Y0162684D01*
X0246300Y0162684D01*
X0246300Y0162917D01*
X0246435Y0163772D01*
X0246703Y0164596D01*
X0247096Y0165367D01*
X0247605Y0166067D01*
X0248217Y0166679D01*
X0248917Y0167188D01*
X0249498Y0167484D01*
X0248917Y0167780D01*
X0248217Y0168289D01*
X0247605Y0168901D01*
X0247096Y0169602D01*
X0246703Y0170373D01*
X0246435Y0171196D01*
X0246300Y0172051D01*
X0246300Y0172284D01*
X0251600Y0172284D01*
X0252000Y0172284D01*
X0252000Y0162684D01*
X0251600Y0162684D01*
X0251600Y0167984D01*
X0251600Y0172284D01*
X0251600Y0172684D01*
X0246300Y0172684D01*
X0246300Y0172917D01*
X0246435Y0173772D01*
X0246703Y0174596D01*
X0247096Y0175367D01*
X0247605Y0176067D01*
X0248217Y0176679D01*
X0248917Y0177188D01*
X0249498Y0177484D01*
X0248917Y0177780D01*
X0248217Y0178289D01*
X0247605Y0178901D01*
X0247096Y0179602D01*
X0246703Y0180373D01*
X0246435Y0181196D01*
X0246300Y0182051D01*
X0246300Y0182284D01*
X0251600Y0182284D01*
X0252000Y0182284D01*
X0252000Y0172684D01*
X0261600Y0172684D01*
X0261600Y0172284D01*
X0262000Y0172284D01*
X0262000Y0172684D01*
X0267300Y0172684D01*
X0267300Y0172917D01*
X0267165Y0173772D01*
X0266897Y0174596D01*
X0266504Y0175367D01*
X0265995Y0176067D01*
X0265383Y0176679D01*
X0264683Y0177188D01*
X0264102Y0177484D01*
X0264683Y0177780D01*
X0265383Y0178289D01*
X0265995Y0178901D01*
X0266504Y0179602D01*
X0266897Y0180373D01*
X0267165Y0181196D01*
X0267300Y0182051D01*
X0267300Y0182284D01*
X0262000Y0182284D01*
X0262000Y0172684D01*
X0261600Y0172684D01*
X0261600Y0176984D01*
X0261600Y0182284D01*
X0262000Y0182284D01*
X0262000Y0182684D01*
X0267300Y0182684D01*
X0267300Y0182917D01*
X0267165Y0183772D01*
X0266897Y0184596D01*
X0266504Y0185367D01*
X0265995Y0186067D01*
X0265383Y0186679D01*
X0264683Y0187188D01*
X0264102Y0187484D01*
X0264683Y0187780D01*
X0265383Y0188289D01*
X0265995Y0188901D01*
X0266504Y0189602D01*
X0266897Y0190373D01*
X0267165Y0191196D01*
X0267300Y0192051D01*
X0267300Y0192284D01*
X0262000Y0192284D01*
X0262000Y0182684D01*
X0261600Y0182684D01*
X0261600Y0182284D01*
X0256300Y0182284D01*
X0252000Y0182284D01*
X0252000Y0182684D01*
X0261600Y0182684D01*
X0261600Y0187984D01*
X0261600Y0192284D01*
X0262000Y0192284D01*
X0262000Y0192684D01*
X0267300Y0192684D01*
X0267300Y0192917D01*
X0267165Y0193772D01*
X0266897Y0194596D01*
X0266504Y0195367D01*
X0265995Y0196067D01*
X0265383Y0196679D01*
X0264683Y0197188D01*
X0264102Y0197484D01*
X0264683Y0197780D01*
X0265383Y0198289D01*
X0265995Y0198901D01*
X0266504Y0199602D01*
X0266897Y0200373D01*
X0267165Y0201196D01*
X0267300Y0202051D01*
X0267300Y0202284D01*
X0262000Y0202284D01*
X0262000Y0192684D01*
X0261600Y0192684D01*
X0261600Y0192284D01*
X0256300Y0192284D01*
X0252000Y0192284D01*
X0252000Y0182684D01*
X0251600Y0182684D01*
X0251600Y0182284D01*
X0251600Y0177984D01*
X0251600Y0172684D01*
X0252000Y0172684D01*
X0252000Y0172284D01*
X0256300Y0172284D01*
X0261600Y0172284D01*
X0261600Y0167984D01*
X0261600Y0162684D01*
X0261600Y0163358D02*
X0262000Y0163358D01*
X0262000Y0164956D02*
X0261600Y0164956D01*
X0261600Y0166555D02*
X0262000Y0166555D01*
X0262000Y0168153D02*
X0261600Y0168153D01*
X0261600Y0169752D02*
X0262000Y0169752D01*
X0262000Y0171350D02*
X0261600Y0171350D01*
X0261600Y0172949D02*
X0262000Y0172949D01*
X0262000Y0174547D02*
X0261600Y0174547D01*
X0261600Y0176146D02*
X0262000Y0176146D01*
X0262000Y0177744D02*
X0261600Y0177744D01*
X0261600Y0179343D02*
X0262000Y0179343D01*
X0262000Y0180941D02*
X0261600Y0180941D01*
X0261600Y0182540D02*
X0252000Y0182540D01*
X0251600Y0182540D02*
X0202100Y0182540D01*
X0201898Y0180941D02*
X0246518Y0180941D01*
X0246300Y0182684D02*
X0251600Y0182684D01*
X0251600Y0187984D01*
X0251600Y0192284D01*
X0252000Y0192284D01*
X0252000Y0192684D01*
X0261600Y0192684D01*
X0261600Y0197984D01*
X0261600Y0202284D01*
X0262000Y0202284D01*
X0262000Y0202684D01*
X0267300Y0202684D01*
X0267300Y0202917D01*
X0267165Y0203772D01*
X0266897Y0204596D01*
X0266504Y0205367D01*
X0265995Y0206067D01*
X0265383Y0206679D01*
X0264683Y0207188D01*
X0264102Y0207484D01*
X0264683Y0207780D01*
X0265383Y0208289D01*
X0265995Y0208901D01*
X0266504Y0209602D01*
X0266897Y0210373D01*
X0267165Y0211196D01*
X0267300Y0212051D01*
X0267300Y0212284D01*
X0262000Y0212284D01*
X0262000Y0202684D01*
X0261600Y0202684D01*
X0261600Y0202284D01*
X0256300Y0202284D01*
X0252000Y0202284D01*
X0252000Y0192684D01*
X0251600Y0192684D01*
X0251600Y0192284D01*
X0246300Y0192284D01*
X0246300Y0192051D01*
X0246435Y0191196D01*
X0246703Y0190373D01*
X0247096Y0189602D01*
X0247605Y0188901D01*
X0248217Y0188289D01*
X0248917Y0187780D01*
X0249498Y0187484D01*
X0248917Y0187188D01*
X0248217Y0186679D01*
X0247605Y0186067D01*
X0247096Y0185367D01*
X0246703Y0184596D01*
X0246435Y0183772D01*
X0246300Y0182917D01*
X0246300Y0182684D01*
X0246554Y0184138D02*
X0201852Y0184138D01*
X0201043Y0185737D02*
X0247365Y0185737D01*
X0249206Y0187335D02*
X0200000Y0187335D01*
X0200745Y0188934D02*
X0247581Y0188934D01*
X0246651Y0190532D02*
X0201728Y0190532D01*
X0202100Y0192131D02*
X0246300Y0192131D01*
X0246300Y0192684D02*
X0251600Y0192684D01*
X0251600Y0197984D01*
X0251600Y0202284D01*
X0252000Y0202284D01*
X0252000Y0202684D01*
X0261600Y0202684D01*
X0261600Y0207984D01*
X0261600Y0212284D01*
X0262000Y0212284D01*
X0262000Y0212684D01*
X0267300Y0212684D01*
X0267300Y0212917D01*
X0267165Y0213772D01*
X0266897Y0214596D01*
X0266504Y0215367D01*
X0265995Y0216067D01*
X0265383Y0216679D01*
X0264683Y0217188D01*
X0264102Y0217484D01*
X0264683Y0217780D01*
X0265383Y0218289D01*
X0265995Y0218901D01*
X0266504Y0219602D01*
X0266897Y0220373D01*
X0267165Y0221196D01*
X0267300Y0222051D01*
X0267300Y0222284D01*
X0262000Y0222284D01*
X0262000Y0212684D01*
X0261600Y0212684D01*
X0261600Y0212284D01*
X0257300Y0212284D01*
X0252000Y0212284D01*
X0252000Y0202684D01*
X0251600Y0202684D01*
X0251600Y0202284D01*
X0246300Y0202284D01*
X0246300Y0202051D01*
X0246435Y0201196D01*
X0246703Y0200373D01*
X0247096Y0199602D01*
X0247605Y0198901D01*
X0248217Y0198289D01*
X0248917Y0197780D01*
X0249498Y0197484D01*
X0248917Y0197188D01*
X0248217Y0196679D01*
X0247605Y0196067D01*
X0247096Y0195367D01*
X0246703Y0194596D01*
X0246435Y0193772D01*
X0246300Y0192917D01*
X0246300Y0192684D01*
X0246429Y0193729D02*
X0202021Y0193729D01*
X0201359Y0195328D02*
X0247076Y0195328D01*
X0248557Y0196926D02*
X0200000Y0196926D01*
X0200336Y0198525D02*
X0247981Y0198525D01*
X0246830Y0200123D02*
X0201559Y0200123D01*
X0202100Y0201722D02*
X0246352Y0201722D01*
X0246300Y0202684D02*
X0251600Y0202684D01*
X0251600Y0206984D01*
X0251600Y0212284D01*
X0252000Y0212284D01*
X0252000Y0212684D01*
X0261600Y0212684D01*
X0261600Y0217984D01*
X0261600Y0222284D01*
X0262000Y0222284D01*
X0262000Y0222684D01*
X0267300Y0222684D01*
X0267300Y0222917D01*
X0267165Y0223772D01*
X0266897Y0224596D01*
X0266504Y0225367D01*
X0265995Y0226067D01*
X0265383Y0226679D01*
X0264683Y0227188D01*
X0264102Y0227484D01*
X0264683Y0227780D01*
X0265383Y0228289D01*
X0265995Y0228901D01*
X0266504Y0229602D01*
X0266897Y0230373D01*
X0267165Y0231196D01*
X0267300Y0232051D01*
X0267300Y0232284D01*
X0262000Y0232284D01*
X0262000Y0222684D01*
X0261600Y0222684D01*
X0261600Y0222284D01*
X0256300Y0222284D01*
X0252000Y0222284D01*
X0252000Y0212684D01*
X0251600Y0212684D01*
X0251600Y0212284D01*
X0246300Y0212284D01*
X0246300Y0212051D01*
X0246435Y0211196D01*
X0246703Y0210373D01*
X0247096Y0209602D01*
X0247605Y0208901D01*
X0248217Y0208289D01*
X0248917Y0207780D01*
X0249498Y0207484D01*
X0248917Y0207188D01*
X0248217Y0206679D01*
X0247605Y0206067D01*
X0247096Y0205367D01*
X0246703Y0204596D01*
X0246435Y0203772D01*
X0246300Y0202917D01*
X0246300Y0202684D01*
X0246364Y0203320D02*
X0202100Y0203320D01*
X0201528Y0204919D02*
X0246868Y0204919D01*
X0248055Y0206518D02*
X0200262Y0206518D01*
X0200000Y0208116D02*
X0248455Y0208116D01*
X0247038Y0209715D02*
X0201389Y0209715D01*
X0202052Y0211313D02*
X0246417Y0211313D01*
X0246300Y0212684D02*
X0251600Y0212684D01*
X0251600Y0217984D01*
X0251600Y0222284D01*
X0252000Y0222284D01*
X0252000Y0222684D01*
X0261600Y0222684D01*
X0261600Y0227984D01*
X0261600Y0232284D01*
X0262000Y0232284D01*
X0262000Y0232684D01*
X0267300Y0232684D01*
X0267300Y0232917D01*
X0267165Y0233772D01*
X0266897Y0234596D01*
X0266504Y0235367D01*
X0265995Y0236067D01*
X0265383Y0236679D01*
X0264683Y0237188D01*
X0263911Y0237581D01*
X0263088Y0237849D01*
X0262233Y0237984D01*
X0262000Y0237984D01*
X0262000Y0232684D01*
X0261600Y0232684D01*
X0261600Y0232284D01*
X0256300Y0232284D01*
X0252000Y0232284D01*
X0252000Y0222684D01*
X0251600Y0222684D01*
X0251600Y0222284D01*
X0246300Y0222284D01*
X0246300Y0222051D01*
X0246435Y0221196D01*
X0246703Y0220373D01*
X0247096Y0219602D01*
X0247605Y0218901D01*
X0248217Y0218289D01*
X0248917Y0217780D01*
X0249498Y0217484D01*
X0248917Y0217188D01*
X0248217Y0216679D01*
X0247605Y0216067D01*
X0247096Y0215367D01*
X0246703Y0214596D01*
X0246435Y0213772D01*
X0246300Y0212917D01*
X0246300Y0212684D01*
X0246300Y0212912D02*
X0202100Y0212912D01*
X0201698Y0214510D02*
X0246675Y0214510D01*
X0247646Y0216109D02*
X0200671Y0216109D01*
X0200000Y0217707D02*
X0249061Y0217707D01*
X0247311Y0219306D02*
X0201117Y0219306D01*
X0201882Y0220904D02*
X0246530Y0220904D01*
X0246300Y0222684D02*
X0251600Y0222684D01*
X0251600Y0227984D01*
X0251600Y0232284D01*
X0252000Y0232284D01*
X0252000Y0232684D01*
X0261600Y0232684D01*
X0261600Y0237984D01*
X0261367Y0237984D01*
X0260512Y0237849D01*
X0259689Y0237581D01*
X0258917Y0237188D01*
X0258217Y0236679D01*
X0257605Y0236067D01*
X0257096Y0235367D01*
X0256800Y0234786D01*
X0256504Y0235367D01*
X0255995Y0236067D01*
X0255383Y0236679D01*
X0254683Y0237188D01*
X0253911Y0237581D01*
X0253088Y0237849D01*
X0252233Y0237984D01*
X0252000Y0237984D01*
X0252000Y0232684D01*
X0251600Y0232684D01*
X0251600Y0232284D01*
X0246300Y0232284D01*
X0246300Y0232051D01*
X0246435Y0231196D01*
X0246703Y0230373D01*
X0247096Y0229602D01*
X0247605Y0228901D01*
X0248217Y0228289D01*
X0248917Y0227780D01*
X0249498Y0227484D01*
X0248917Y0227188D01*
X0248217Y0226679D01*
X0247605Y0226067D01*
X0247096Y0225367D01*
X0246703Y0224596D01*
X0246435Y0223772D01*
X0246300Y0222917D01*
X0246300Y0222684D01*
X0246542Y0224101D02*
X0201867Y0224101D01*
X0202100Y0222503D02*
X0251600Y0222503D01*
X0252000Y0222503D02*
X0261600Y0222503D01*
X0262000Y0222503D02*
X0310701Y0222503D01*
X0310701Y0224101D02*
X0267058Y0224101D01*
X0266262Y0225700D02*
X0310701Y0225700D01*
X0310701Y0227298D02*
X0264467Y0227298D01*
X0265991Y0228897D02*
X0310701Y0228897D01*
X0310701Y0230495D02*
X0266937Y0230495D01*
X0267300Y0232094D02*
X0310701Y0232094D01*
X0310701Y0233692D02*
X0267177Y0233692D01*
X0266543Y0235291D02*
X0310701Y0235291D01*
X0310701Y0236889D02*
X0265094Y0236889D01*
X0262000Y0236889D02*
X0261600Y0236889D01*
X0261600Y0235291D02*
X0262000Y0235291D01*
X0262000Y0233692D02*
X0261600Y0233692D01*
X0261600Y0232094D02*
X0262000Y0232094D01*
X0262000Y0230495D02*
X0261600Y0230495D01*
X0261600Y0228897D02*
X0262000Y0228897D01*
X0262000Y0227298D02*
X0261600Y0227298D01*
X0261600Y0225700D02*
X0262000Y0225700D01*
X0262000Y0224101D02*
X0261600Y0224101D01*
X0261600Y0220904D02*
X0262000Y0220904D01*
X0262000Y0219306D02*
X0261600Y0219306D01*
X0261600Y0217707D02*
X0262000Y0217707D01*
X0262000Y0216109D02*
X0261600Y0216109D01*
X0261600Y0214510D02*
X0262000Y0214510D01*
X0262000Y0212912D02*
X0261600Y0212912D01*
X0261600Y0211313D02*
X0262000Y0211313D01*
X0262000Y0209715D02*
X0261600Y0209715D01*
X0261600Y0208116D02*
X0262000Y0208116D01*
X0262000Y0206518D02*
X0261600Y0206518D01*
X0261600Y0204919D02*
X0262000Y0204919D01*
X0262000Y0203320D02*
X0261600Y0203320D01*
X0261600Y0201722D02*
X0262000Y0201722D01*
X0262000Y0200123D02*
X0261600Y0200123D01*
X0261600Y0198525D02*
X0262000Y0198525D01*
X0262000Y0196926D02*
X0261600Y0196926D01*
X0261600Y0195328D02*
X0262000Y0195328D01*
X0262000Y0193729D02*
X0261600Y0193729D01*
X0261600Y0192131D02*
X0262000Y0192131D01*
X0262000Y0190532D02*
X0261600Y0190532D01*
X0261600Y0188934D02*
X0262000Y0188934D01*
X0262000Y0187335D02*
X0261600Y0187335D01*
X0261600Y0185737D02*
X0262000Y0185737D01*
X0262000Y0184138D02*
X0261600Y0184138D01*
X0262000Y0182540D02*
X0310701Y0182540D01*
X0310701Y0184138D02*
X0267046Y0184138D01*
X0266235Y0185737D02*
X0310701Y0185737D01*
X0310701Y0187335D02*
X0264394Y0187335D01*
X0266019Y0188934D02*
X0310701Y0188934D01*
X0310701Y0190532D02*
X0266949Y0190532D01*
X0267300Y0192131D02*
X0310701Y0192131D01*
X0310701Y0193729D02*
X0267171Y0193729D01*
X0266524Y0195328D02*
X0310701Y0195328D01*
X0310701Y0196926D02*
X0265043Y0196926D01*
X0265619Y0198525D02*
X0310701Y0198525D01*
X0310701Y0200123D02*
X0266770Y0200123D01*
X0267248Y0201722D02*
X0310701Y0201722D01*
X0310701Y0203320D02*
X0267236Y0203320D01*
X0266732Y0204919D02*
X0310701Y0204919D01*
X0310701Y0206518D02*
X0265545Y0206518D01*
X0265145Y0208116D02*
X0310701Y0208116D01*
X0310701Y0209715D02*
X0266562Y0209715D01*
X0267183Y0211313D02*
X0310701Y0211313D01*
X0310701Y0212912D02*
X0267300Y0212912D01*
X0266925Y0214510D02*
X0310701Y0214510D01*
X0310701Y0216109D02*
X0265954Y0216109D01*
X0264539Y0217707D02*
X0310701Y0217707D01*
X0310701Y0219306D02*
X0266289Y0219306D01*
X0267070Y0220904D02*
X0310701Y0220904D01*
X0302628Y0238488D02*
X0250972Y0238488D01*
X0251353Y0238869D02*
X0250415Y0237931D01*
X0243184Y0237931D01*
X0242247Y0238869D01*
X0242247Y0246100D01*
X0243184Y0247037D01*
X0250415Y0247037D01*
X0251353Y0246100D01*
X0251353Y0238869D01*
X0251367Y0237984D02*
X0250512Y0237849D01*
X0249689Y0237581D01*
X0248917Y0237188D01*
X0248217Y0236679D01*
X0247605Y0236067D01*
X0247096Y0235367D01*
X0246703Y0234596D01*
X0246435Y0233772D01*
X0246300Y0232917D01*
X0246300Y0232684D01*
X0251600Y0232684D01*
X0251600Y0237984D01*
X0251367Y0237984D01*
X0251600Y0236889D02*
X0252000Y0236889D01*
X0252000Y0235291D02*
X0251600Y0235291D01*
X0251600Y0233692D02*
X0252000Y0233692D01*
X0252000Y0232094D02*
X0251600Y0232094D01*
X0251600Y0230495D02*
X0252000Y0230495D01*
X0252000Y0228897D02*
X0251600Y0228897D01*
X0251600Y0227298D02*
X0252000Y0227298D01*
X0252000Y0225700D02*
X0251600Y0225700D01*
X0251600Y0224101D02*
X0252000Y0224101D01*
X0252000Y0220904D02*
X0251600Y0220904D01*
X0251600Y0219306D02*
X0252000Y0219306D01*
X0252000Y0217707D02*
X0251600Y0217707D01*
X0251600Y0216109D02*
X0252000Y0216109D01*
X0252000Y0214510D02*
X0251600Y0214510D01*
X0251600Y0212912D02*
X0252000Y0212912D01*
X0252000Y0211313D02*
X0251600Y0211313D01*
X0251600Y0209715D02*
X0252000Y0209715D01*
X0252000Y0208116D02*
X0251600Y0208116D01*
X0251600Y0206518D02*
X0252000Y0206518D01*
X0252000Y0204919D02*
X0251600Y0204919D01*
X0251600Y0203320D02*
X0252000Y0203320D01*
X0252000Y0201722D02*
X0251600Y0201722D01*
X0251600Y0200123D02*
X0252000Y0200123D01*
X0252000Y0198525D02*
X0251600Y0198525D01*
X0251600Y0196926D02*
X0252000Y0196926D01*
X0252000Y0195328D02*
X0251600Y0195328D01*
X0251600Y0193729D02*
X0252000Y0193729D01*
X0252000Y0192131D02*
X0251600Y0192131D01*
X0251600Y0190532D02*
X0252000Y0190532D01*
X0252000Y0188934D02*
X0251600Y0188934D01*
X0251600Y0187335D02*
X0252000Y0187335D01*
X0252000Y0185737D02*
X0251600Y0185737D01*
X0251600Y0184138D02*
X0252000Y0184138D01*
X0252000Y0180941D02*
X0251600Y0180941D01*
X0251600Y0179343D02*
X0252000Y0179343D01*
X0252000Y0177744D02*
X0251600Y0177744D01*
X0251600Y0176146D02*
X0252000Y0176146D01*
X0252000Y0174547D02*
X0251600Y0174547D01*
X0251600Y0172949D02*
X0252000Y0172949D01*
X0252000Y0171350D02*
X0251600Y0171350D01*
X0251600Y0169752D02*
X0252000Y0169752D01*
X0252000Y0168153D02*
X0251600Y0168153D01*
X0251600Y0166555D02*
X0252000Y0166555D01*
X0252000Y0164956D02*
X0251600Y0164956D01*
X0251600Y0163358D02*
X0252000Y0163358D01*
X0252000Y0161759D02*
X0251600Y0161759D01*
X0251600Y0160161D02*
X0252000Y0160161D01*
X0252000Y0158562D02*
X0251600Y0158562D01*
X0251600Y0156964D02*
X0252000Y0156964D01*
X0252000Y0155365D02*
X0251600Y0155365D01*
X0251600Y0153767D02*
X0252000Y0153767D01*
X0252000Y0152168D02*
X0251600Y0152168D01*
X0251600Y0150570D02*
X0252000Y0150570D01*
X0252000Y0148971D02*
X0251600Y0148971D01*
X0251600Y0147373D02*
X0252000Y0147373D01*
X0252000Y0145774D02*
X0251600Y0145774D01*
X0251600Y0144176D02*
X0252000Y0144176D01*
X0252000Y0140979D02*
X0251600Y0140979D01*
X0251600Y0139380D02*
X0252000Y0139380D01*
X0252000Y0137782D02*
X0251600Y0137782D01*
X0254684Y0137782D02*
X0258916Y0137782D01*
X0257257Y0139380D02*
X0256343Y0139380D01*
X0249279Y0147373D02*
X0200000Y0147373D01*
X0200782Y0148971D02*
X0247554Y0148971D01*
X0246639Y0150570D02*
X0201744Y0150570D01*
X0202100Y0152168D02*
X0246300Y0152168D01*
X0246435Y0153767D02*
X0202005Y0153767D01*
X0201343Y0155365D02*
X0247095Y0155365D01*
X0248608Y0156964D02*
X0200000Y0156964D01*
X0200373Y0158562D02*
X0247944Y0158562D01*
X0246811Y0160161D02*
X0201574Y0160161D01*
X0202100Y0161759D02*
X0246346Y0161759D01*
X0246370Y0163358D02*
X0202100Y0163358D01*
X0201513Y0164956D02*
X0246887Y0164956D01*
X0248092Y0166555D02*
X0200225Y0166555D01*
X0200000Y0168153D02*
X0248404Y0168153D01*
X0247019Y0169752D02*
X0201405Y0169752D01*
X0202067Y0171350D02*
X0246411Y0171350D01*
X0246305Y0172949D02*
X0202100Y0172949D01*
X0201682Y0174547D02*
X0246687Y0174547D01*
X0247683Y0176146D02*
X0200634Y0176146D01*
X0200000Y0177744D02*
X0248988Y0177744D01*
X0247284Y0179343D02*
X0201154Y0179343D01*
X0193600Y0177744D02*
X0140000Y0177744D01*
X0140634Y0176146D02*
X0192966Y0176146D01*
X0191918Y0174547D02*
X0141682Y0174547D01*
X0142100Y0172949D02*
X0191500Y0172949D01*
X0191533Y0171350D02*
X0142067Y0171350D01*
X0141405Y0169752D02*
X0192195Y0169752D01*
X0193600Y0168153D02*
X0140000Y0168153D01*
X0140225Y0166555D02*
X0193375Y0166555D01*
X0192087Y0164956D02*
X0141513Y0164956D01*
X0142100Y0163358D02*
X0191500Y0163358D01*
X0191500Y0161759D02*
X0142100Y0161759D01*
X0141574Y0160161D02*
X0192026Y0160161D01*
X0193227Y0158562D02*
X0140373Y0158562D01*
X0140000Y0156964D02*
X0193600Y0156964D01*
X0192257Y0155365D02*
X0141343Y0155365D01*
X0142005Y0153767D02*
X0191595Y0153767D01*
X0191500Y0152168D02*
X0142100Y0152168D01*
X0141744Y0150570D02*
X0191856Y0150570D01*
X0192818Y0148971D02*
X0140782Y0148971D01*
X0140000Y0147373D02*
X0193600Y0147373D01*
X0192595Y0145774D02*
X0141005Y0145774D01*
X0141836Y0144176D02*
X0191764Y0144176D01*
X0191500Y0142577D02*
X0142100Y0142577D01*
X0141913Y0140979D02*
X0191687Y0140979D01*
X0192409Y0139380D02*
X0141191Y0139380D01*
X0140000Y0137782D02*
X0193600Y0137782D01*
X0193600Y0136183D02*
X0140000Y0136183D01*
X0140000Y0134585D02*
X0193600Y0134585D01*
X0193600Y0132986D02*
X0140000Y0132986D01*
X0140000Y0131387D02*
X0193600Y0131387D01*
X0193600Y0129789D02*
X0140000Y0129789D01*
X0140000Y0128190D02*
X0193600Y0128190D01*
X0193600Y0126592D02*
X0140000Y0126592D01*
X0140000Y0124993D02*
X0193600Y0124993D01*
X0193600Y0123395D02*
X0140000Y0123395D01*
X0140000Y0121796D02*
X0193600Y0121796D01*
X0193600Y0120198D02*
X0140000Y0120198D01*
X0140000Y0118599D02*
X0193600Y0118599D01*
X0193600Y0117001D02*
X0140000Y0117001D01*
X0140000Y0115402D02*
X0193600Y0115402D01*
X0193600Y0113804D02*
X0140000Y0113804D01*
X0140000Y0112205D02*
X0193600Y0112205D01*
X0193600Y0110607D02*
X0140000Y0110607D01*
X0140000Y0109008D02*
X0193600Y0109008D01*
X0193600Y0107410D02*
X0140000Y0107410D01*
X0140000Y0105811D02*
X0193600Y0105811D01*
X0193600Y0104213D02*
X0140000Y0104213D01*
X0133600Y0113804D02*
X0042645Y0113804D01*
X0044244Y0115402D02*
X0133600Y0115402D01*
X0133600Y0117001D02*
X0045842Y0117001D01*
X0047441Y0118599D02*
X0133600Y0118599D01*
X0133600Y0120198D02*
X0049039Y0120198D01*
X0050638Y0121796D02*
X0133600Y0121796D01*
X0133600Y0123395D02*
X0130879Y0123395D01*
X0130415Y0122931D02*
X0131353Y0123869D01*
X0131353Y0131100D01*
X0130415Y0132037D01*
X0123184Y0132037D01*
X0122247Y0131100D01*
X0122247Y0123869D01*
X0123184Y0122931D01*
X0130415Y0122931D01*
X0131353Y0124993D02*
X0133600Y0124993D01*
X0133600Y0126592D02*
X0131353Y0126592D01*
X0131353Y0128190D02*
X0133600Y0128190D01*
X0133600Y0129789D02*
X0131353Y0129789D01*
X0131065Y0131387D02*
X0133600Y0131387D01*
X0133600Y0132986D02*
X0061827Y0132986D01*
X0063184Y0132037D02*
X0062247Y0131100D01*
X0062247Y0123869D01*
X0063184Y0122931D01*
X0070415Y0122931D01*
X0071353Y0123869D01*
X0071353Y0131100D01*
X0070415Y0132037D01*
X0063184Y0132037D01*
X0062535Y0131387D02*
X0060229Y0131387D01*
X0058630Y0129789D02*
X0062247Y0129789D01*
X0062247Y0128190D02*
X0057032Y0128190D01*
X0055433Y0126592D02*
X0062247Y0126592D01*
X0062247Y0124993D02*
X0053835Y0124993D01*
X0052236Y0123395D02*
X0062721Y0123395D01*
X0070879Y0123395D02*
X0122721Y0123395D01*
X0122247Y0124993D02*
X0071353Y0124993D01*
X0071353Y0126592D02*
X0122247Y0126592D01*
X0122247Y0128190D02*
X0071353Y0128190D01*
X0071353Y0129789D02*
X0122247Y0129789D01*
X0122535Y0131387D02*
X0071065Y0131387D01*
X0074304Y0137782D02*
X0066623Y0137782D01*
X0065024Y0136183D02*
X0133600Y0136183D01*
X0133600Y0134585D02*
X0063426Y0134585D01*
X0079296Y0137782D02*
X0133600Y0137782D01*
X0132409Y0139380D02*
X0081191Y0139380D01*
X0081913Y0140979D02*
X0131687Y0140979D01*
X0131500Y0142577D02*
X0082100Y0142577D01*
X0081836Y0144176D02*
X0131764Y0144176D01*
X0132595Y0145774D02*
X0081005Y0145774D01*
X0080000Y0147373D02*
X0133600Y0147373D01*
X0132818Y0148971D02*
X0080782Y0148971D01*
X0081744Y0150570D02*
X0131856Y0150570D01*
X0131500Y0152168D02*
X0082100Y0152168D01*
X0082005Y0153767D02*
X0131595Y0153767D01*
X0132257Y0155365D02*
X0081343Y0155365D01*
X0080000Y0156964D02*
X0133600Y0156964D01*
X0133227Y0158562D02*
X0080373Y0158562D01*
X0081574Y0160161D02*
X0132026Y0160161D01*
X0131500Y0161759D02*
X0082100Y0161759D01*
X0082100Y0163358D02*
X0131500Y0163358D01*
X0132087Y0164956D02*
X0081513Y0164956D01*
X0080225Y0166555D02*
X0133375Y0166555D01*
X0133600Y0168153D02*
X0080000Y0168153D01*
X0081405Y0169752D02*
X0132195Y0169752D01*
X0131533Y0171350D02*
X0082067Y0171350D01*
X0082100Y0172949D02*
X0131500Y0172949D01*
X0131918Y0174547D02*
X0081682Y0174547D01*
X0080634Y0176146D02*
X0132966Y0176146D01*
X0133600Y0177744D02*
X0080000Y0177744D01*
X0081154Y0179343D02*
X0132446Y0179343D01*
X0131702Y0180941D02*
X0081898Y0180941D01*
X0082100Y0182540D02*
X0131500Y0182540D01*
X0131748Y0184138D02*
X0081852Y0184138D01*
X0081043Y0185737D02*
X0132557Y0185737D01*
X0133600Y0187335D02*
X0080000Y0187335D01*
X0080745Y0188934D02*
X0132855Y0188934D01*
X0131872Y0190532D02*
X0081728Y0190532D01*
X0082100Y0192131D02*
X0131500Y0192131D01*
X0131579Y0193729D02*
X0082021Y0193729D01*
X0081359Y0195328D02*
X0132241Y0195328D01*
X0133600Y0196926D02*
X0080000Y0196926D01*
X0080336Y0198525D02*
X0133264Y0198525D01*
X0132041Y0200123D02*
X0081559Y0200123D01*
X0082100Y0201722D02*
X0131500Y0201722D01*
X0131500Y0203320D02*
X0082100Y0203320D01*
X0081528Y0204919D02*
X0132072Y0204919D01*
X0133338Y0206518D02*
X0080262Y0206518D01*
X0080000Y0208116D02*
X0133600Y0208116D01*
X0132211Y0209715D02*
X0081389Y0209715D01*
X0082052Y0211313D02*
X0131548Y0211313D01*
X0131500Y0212912D02*
X0082100Y0212912D01*
X0081698Y0214510D02*
X0131902Y0214510D01*
X0132929Y0216109D02*
X0080671Y0216109D01*
X0080000Y0217707D02*
X0133600Y0217707D01*
X0132483Y0219306D02*
X0081117Y0219306D01*
X0081882Y0220904D02*
X0131718Y0220904D01*
X0131500Y0222503D02*
X0082100Y0222503D01*
X0081867Y0224101D02*
X0131733Y0224101D01*
X0132520Y0225700D02*
X0081080Y0225700D01*
X0080000Y0227298D02*
X0133600Y0227298D01*
X0132892Y0228897D02*
X0080708Y0228897D01*
X0081713Y0230495D02*
X0131887Y0230495D01*
X0131500Y0232094D02*
X0082100Y0232094D01*
X0082036Y0233692D02*
X0131564Y0233692D01*
X0132226Y0235291D02*
X0081374Y0235291D01*
X0079890Y0236889D02*
X0133710Y0236889D01*
X0131353Y0238869D02*
X0130415Y0237931D01*
X0123184Y0237931D01*
X0122247Y0238869D01*
X0122247Y0246100D01*
X0123184Y0247037D01*
X0130415Y0247037D01*
X0131353Y0246100D01*
X0131353Y0238869D01*
X0130972Y0238488D02*
X0182628Y0238488D01*
X0182247Y0238869D02*
X0183184Y0237931D01*
X0190415Y0237931D01*
X0191353Y0238869D01*
X0191353Y0246100D01*
X0190415Y0247037D01*
X0183184Y0247037D01*
X0182247Y0246100D01*
X0182247Y0238869D01*
X0182247Y0240086D02*
X0131353Y0240086D01*
X0131353Y0241685D02*
X0182247Y0241685D01*
X0182247Y0243283D02*
X0131353Y0243283D01*
X0131353Y0244882D02*
X0182247Y0244882D01*
X0182628Y0246480D02*
X0130972Y0246480D01*
X0122628Y0246480D02*
X0070972Y0246480D01*
X0071353Y0246100D02*
X0070415Y0247037D01*
X0063184Y0247037D01*
X0062247Y0246100D01*
X0062247Y0238869D01*
X0063184Y0237931D01*
X0070415Y0237931D01*
X0071353Y0238869D01*
X0071353Y0246100D01*
X0071353Y0244882D02*
X0122247Y0244882D01*
X0122247Y0243283D02*
X0071353Y0243283D01*
X0071353Y0241685D02*
X0122247Y0241685D01*
X0122247Y0240086D02*
X0071353Y0240086D01*
X0070972Y0238488D02*
X0122628Y0238488D01*
X0139890Y0236889D02*
X0193710Y0236889D01*
X0192226Y0235291D02*
X0141374Y0235291D01*
X0142036Y0233692D02*
X0191564Y0233692D01*
X0191500Y0232094D02*
X0142100Y0232094D01*
X0141713Y0230495D02*
X0191887Y0230495D01*
X0192892Y0228897D02*
X0140708Y0228897D01*
X0140000Y0227298D02*
X0193600Y0227298D01*
X0192520Y0225700D02*
X0141080Y0225700D01*
X0141867Y0224101D02*
X0191733Y0224101D01*
X0191500Y0222503D02*
X0142100Y0222503D01*
X0141882Y0220904D02*
X0191718Y0220904D01*
X0192483Y0219306D02*
X0141117Y0219306D01*
X0140000Y0217707D02*
X0193600Y0217707D01*
X0192929Y0216109D02*
X0140671Y0216109D01*
X0141698Y0214510D02*
X0191902Y0214510D01*
X0191500Y0212912D02*
X0142100Y0212912D01*
X0142052Y0211313D02*
X0191548Y0211313D01*
X0192211Y0209715D02*
X0141389Y0209715D01*
X0140000Y0208116D02*
X0193600Y0208116D01*
X0193338Y0206518D02*
X0140262Y0206518D01*
X0141528Y0204919D02*
X0192072Y0204919D01*
X0191500Y0203320D02*
X0142100Y0203320D01*
X0142100Y0201722D02*
X0191500Y0201722D01*
X0192041Y0200123D02*
X0141559Y0200123D01*
X0140336Y0198525D02*
X0193264Y0198525D01*
X0193600Y0196926D02*
X0140000Y0196926D01*
X0141359Y0195328D02*
X0192241Y0195328D01*
X0191579Y0193729D02*
X0142021Y0193729D01*
X0142100Y0192131D02*
X0191500Y0192131D01*
X0191872Y0190532D02*
X0141728Y0190532D01*
X0140745Y0188934D02*
X0192855Y0188934D01*
X0193600Y0187335D02*
X0140000Y0187335D01*
X0141043Y0185737D02*
X0192557Y0185737D01*
X0191748Y0184138D02*
X0141852Y0184138D01*
X0142100Y0182540D02*
X0191500Y0182540D01*
X0191702Y0180941D02*
X0141898Y0180941D01*
X0141154Y0179343D02*
X0192446Y0179343D01*
X0201005Y0145774D02*
X0247392Y0145774D01*
X0264321Y0147373D02*
X0310701Y0147373D01*
X0310701Y0148971D02*
X0266046Y0148971D01*
X0266961Y0150570D02*
X0310701Y0150570D01*
X0310701Y0152168D02*
X0267300Y0152168D01*
X0267165Y0153767D02*
X0310701Y0153767D01*
X0310701Y0155365D02*
X0266505Y0155365D01*
X0264992Y0156964D02*
X0310701Y0156964D01*
X0310701Y0158562D02*
X0265656Y0158562D01*
X0266789Y0160161D02*
X0310701Y0160161D01*
X0310701Y0161759D02*
X0267254Y0161759D01*
X0267230Y0163358D02*
X0310701Y0163358D01*
X0310701Y0164956D02*
X0266713Y0164956D01*
X0265508Y0166555D02*
X0310701Y0166555D01*
X0310701Y0168153D02*
X0265196Y0168153D01*
X0266581Y0169752D02*
X0310701Y0169752D01*
X0310701Y0171350D02*
X0267189Y0171350D01*
X0267295Y0172949D02*
X0310701Y0172949D01*
X0310701Y0174547D02*
X0266913Y0174547D01*
X0265917Y0176146D02*
X0310701Y0176146D01*
X0310701Y0177744D02*
X0264612Y0177744D01*
X0266316Y0179343D02*
X0310701Y0179343D01*
X0310701Y0180941D02*
X0267082Y0180941D01*
X0266208Y0145774D02*
X0310701Y0145774D01*
X0310701Y0144176D02*
X0267033Y0144176D01*
X0250861Y0126592D02*
X0302739Y0126592D01*
X0302247Y0124993D02*
X0251353Y0124993D01*
X0251353Y0123395D02*
X0302247Y0123395D01*
X0302247Y0121796D02*
X0251353Y0121796D01*
X0251353Y0120198D02*
X0302247Y0120198D01*
X0302517Y0118599D02*
X0251083Y0118599D01*
X0242368Y0096220D02*
X0200000Y0096220D01*
X0200000Y0094622D02*
X0242247Y0094622D01*
X0242247Y0093023D02*
X0200000Y0093023D01*
X0199282Y0091425D02*
X0242247Y0091425D01*
X0242247Y0089826D02*
X0197683Y0089826D01*
X0196085Y0088228D02*
X0242888Y0088228D01*
X0193428Y0094622D02*
X0191353Y0094622D01*
X0191353Y0093023D02*
X0191829Y0093023D01*
X0191232Y0096220D02*
X0193600Y0096220D01*
X0142631Y0061053D02*
X0137363Y0061053D01*
X0138393Y0059454D02*
X0141566Y0059454D01*
X0140904Y0057856D02*
X0138940Y0057856D01*
X0137516Y0072243D02*
X0136587Y0072243D01*
X0132403Y0072243D02*
X0130803Y0072243D01*
X0130803Y0073841D02*
X0132403Y0073841D01*
X0132403Y0075440D02*
X0130803Y0075440D01*
X0130803Y0077038D02*
X0132403Y0077038D01*
X0130803Y0078637D02*
X0115868Y0078637D01*
X0115868Y0080235D02*
X0114268Y0080235D01*
X0114268Y0078637D02*
X0099332Y0078637D01*
X0099332Y0080235D02*
X0097732Y0080235D01*
X0097732Y0081834D02*
X0099332Y0081834D01*
X0099332Y0083432D02*
X0097732Y0083432D01*
X0097732Y0085031D02*
X0099332Y0085031D01*
X0100849Y0085031D02*
X0112751Y0085031D01*
X0114268Y0085031D02*
X0115868Y0085031D01*
X0117385Y0085031D02*
X0129286Y0085031D01*
X0129184Y0085003D02*
X0128275Y0084627D01*
X0127423Y0084135D01*
X0126642Y0083535D01*
X0125946Y0082839D01*
X0125347Y0082058D01*
X0124854Y0081206D01*
X0124478Y0080297D01*
X0124223Y0079346D01*
X0124135Y0078678D01*
X0130803Y0078678D01*
X0130803Y0085346D01*
X0130135Y0085258D01*
X0129184Y0085003D01*
X0130803Y0085031D02*
X0132403Y0085031D01*
X0132403Y0083432D02*
X0130803Y0083432D01*
X0130803Y0081834D02*
X0132403Y0081834D01*
X0132403Y0080235D02*
X0130803Y0080235D01*
X0126538Y0083432D02*
X0120132Y0083432D01*
X0121454Y0081834D02*
X0125217Y0081834D01*
X0124461Y0080235D02*
X0122210Y0080235D01*
X0122531Y0077038D02*
X0124140Y0077038D01*
X0124486Y0075440D02*
X0122185Y0075440D01*
X0121407Y0073841D02*
X0125264Y0073841D01*
X0126620Y0072243D02*
X0120051Y0072243D01*
X0115868Y0072243D02*
X0114268Y0072243D01*
X0114268Y0073841D02*
X0115868Y0073841D01*
X0115868Y0075440D02*
X0114268Y0075440D01*
X0114268Y0077038D02*
X0115868Y0077038D01*
X0115868Y0081834D02*
X0114268Y0081834D01*
X0114268Y0083432D02*
X0115868Y0083432D01*
X0110003Y0083432D02*
X0103597Y0083432D01*
X0104919Y0081834D02*
X0108681Y0081834D01*
X0107926Y0080235D02*
X0105674Y0080235D01*
X0105995Y0077038D02*
X0107605Y0077038D01*
X0107950Y0075440D02*
X0105650Y0075440D01*
X0104872Y0073841D02*
X0108728Y0073841D01*
X0110084Y0072243D02*
X0103516Y0072243D01*
X0122888Y0088228D02*
X0070712Y0088228D01*
X0070415Y0087931D02*
X0071353Y0088869D01*
X0071353Y0096100D01*
X0070415Y0097037D01*
X0063184Y0097037D01*
X0062247Y0096100D01*
X0062247Y0088869D01*
X0063184Y0087931D01*
X0070415Y0087931D01*
X0071353Y0089826D02*
X0122247Y0089826D01*
X0122247Y0091425D02*
X0071353Y0091425D01*
X0071353Y0093023D02*
X0122247Y0093023D01*
X0122247Y0094622D02*
X0071353Y0094622D01*
X0071232Y0096220D02*
X0122368Y0096220D01*
X0136800Y0138823D02*
X0136800Y0142484D01*
X0062368Y0096220D02*
X0035000Y0096220D01*
X0035000Y0094622D02*
X0062247Y0094622D01*
X0062247Y0093023D02*
X0035000Y0093023D01*
X0035000Y0091425D02*
X0062247Y0091425D01*
X0062247Y0089826D02*
X0035000Y0089826D01*
X0035000Y0088228D02*
X0062888Y0088228D01*
X0044144Y0083432D02*
X0037172Y0083432D01*
X0038663Y0081834D02*
X0042654Y0081834D01*
X0033910Y0065849D02*
X0006600Y0065849D01*
X0020839Y0072243D02*
X0022033Y0072243D01*
X0201080Y0225700D02*
X0247338Y0225700D01*
X0249133Y0227298D02*
X0200000Y0227298D01*
X0200708Y0228897D02*
X0247609Y0228897D01*
X0246663Y0230495D02*
X0201713Y0230495D01*
X0202100Y0232094D02*
X0246300Y0232094D01*
X0246423Y0233692D02*
X0202036Y0233692D01*
X0201374Y0235291D02*
X0247057Y0235291D01*
X0248506Y0236889D02*
X0199890Y0236889D01*
X0191353Y0240086D02*
X0242247Y0240086D01*
X0242247Y0241685D02*
X0191353Y0241685D01*
X0191353Y0243283D02*
X0242247Y0243283D01*
X0242247Y0244882D02*
X0191353Y0244882D01*
X0190972Y0246480D02*
X0242628Y0246480D01*
X0250972Y0246480D02*
X0302628Y0246480D01*
X0302247Y0244882D02*
X0251353Y0244882D01*
X0251353Y0243283D02*
X0302247Y0243283D01*
X0302247Y0241685D02*
X0251353Y0241685D01*
X0251353Y0240086D02*
X0302247Y0240086D01*
X0258506Y0236889D02*
X0255094Y0236889D01*
X0256543Y0235291D02*
X0257057Y0235291D01*
X0242628Y0238488D02*
X0190972Y0238488D01*
X0062628Y0238488D02*
X0010972Y0238488D01*
X0011353Y0240086D02*
X0062247Y0240086D01*
X0062247Y0241685D02*
X0011353Y0241685D01*
X0011353Y0243283D02*
X0062247Y0243283D01*
X0062247Y0244882D02*
X0011353Y0244882D01*
X0010972Y0246480D02*
X0062628Y0246480D01*
D15*
X0076800Y0232484D02*
X0076800Y0222484D01*
X0076800Y0212484D01*
X0076800Y0202484D01*
X0076800Y0192484D01*
X0076800Y0182484D01*
X0076800Y0172484D01*
X0076800Y0162484D01*
X0076800Y0152484D01*
X0076800Y0142484D01*
X0066800Y0142484D01*
X0031800Y0107484D01*
X0031800Y0078469D01*
X0032391Y0077878D01*
X0048926Y0077878D01*
X0034515Y0069769D02*
X0029032Y0069769D01*
X0023964Y0074837D01*
X0023964Y0081237D01*
X0019214Y0085987D01*
X0018298Y0085987D01*
X0016800Y0087484D01*
X0016800Y0142484D01*
X0016800Y0152484D01*
X0016800Y0162484D01*
X0016800Y0172484D01*
X0016800Y0182484D01*
X0016800Y0192484D01*
X0016800Y0202484D01*
X0016800Y0212484D01*
X0016800Y0222484D01*
X0016800Y0232484D01*
X0136800Y0232484D02*
X0136800Y0222484D01*
X0136800Y0212484D01*
X0136800Y0202484D01*
X0136800Y0192484D01*
X0136800Y0182484D01*
X0136800Y0172484D01*
X0136800Y0162484D01*
X0136800Y0152484D01*
X0136800Y0142484D01*
X0136800Y0084148D01*
X0139712Y0081237D01*
X0139712Y0074572D01*
X0149951Y0064333D01*
X0151497Y0064333D01*
X0156565Y0059265D01*
X0156565Y0052866D01*
X0161315Y0048116D01*
X0168033Y0048116D01*
X0176141Y0056224D01*
X0181209Y0056224D01*
X0197745Y0056224D01*
X0181209Y0077878D02*
X0196800Y0093469D01*
X0196800Y0142484D01*
X0196800Y0152484D01*
X0196800Y0162484D01*
X0196800Y0172484D01*
X0196800Y0182484D01*
X0196800Y0192484D01*
X0196800Y0202484D01*
X0196800Y0212484D01*
X0196800Y0222484D01*
X0196800Y0232484D01*
X0034515Y0069769D02*
X0046800Y0057484D01*
X0045540Y0056224D01*
X0032391Y0056224D01*
X0046800Y0057484D02*
X0048060Y0056224D01*
X0048926Y0056224D01*
D16*
X0196800Y0232484D03*
D17*
X0186800Y0242484D03*
X0126800Y0242484D03*
X0066800Y0242484D03*
X0006800Y0242484D03*
X0006800Y0127484D03*
X0006800Y0092484D03*
X0066800Y0092484D03*
X0066800Y0127484D03*
X0126800Y0127484D03*
X0126800Y0092484D03*
X0186800Y0092484D03*
X0246800Y0092484D03*
X0246800Y0122484D03*
X0301800Y0092484D03*
X0306800Y0122484D03*
X0301800Y0032484D03*
X0246800Y0032484D03*
X0126800Y0032484D03*
X0066800Y0032484D03*
X0006800Y0037484D03*
X0246800Y0242484D03*
X0306800Y0242484D03*
M02*
